<svg id="Ñëîé_1" data-name="Ñëîé 1" xmlns="http://www.w3.org/2000/svg" viewBox="0 0 402.81 531.41">
  <defs>
    <style>
      .cls-1 {
        fill: #004282;
        fill-rule: evenodd;
      }
    </style>
  </defs>
  <title>denis_school_mini</title>
  <g>
    <path class="cls-1" d="M555.36,770.8a43.87,43.87,0,0,0,8.07-17.8c1.69-6.75,2.24-15.74,2.06-26.79l-0.75-41.78-11.8.37q-7.88,0-11.24,3.37c-2.07,2.25-3.19,5.82-3.19,10.87a31,31,0,0,1-5.82-9.92,37.22,37.22,0,0,1-2.23-12.93c-0.2-12.36,1.68-21,6-25.86,4.11-4.86,11.62-7.5,22.66-7.68h4.69L563.43,623c-0.2-16.49,3.2-28.87,10.12-36.72,7.12-8.07,19.69-14.25,37.66-18.36a54.53,54.53,0,0,0-7.86,15.36c-1.5,5.06-2.07,12-1.88,21l1.88,105.67c0.38,15.35-3,27.53-9.94,36.33S573.73,763.3,555.36,770.8Z" transform="translate(-502.56 -510.38)"/>
    <path class="cls-1" d="M887,772.68c-0.37-20.61-7.86-35.79-22.67-45.34s-39-15-72.32-16.12a231.42,231.42,0,0,1,25.85-33.89A220.9,220.9,0,0,1,849,649l-2.62-6-11.6,8.44c-6.56-9.38-16.12-16.5-28.13-21.38-12.17-4.86-26.42-7.1-42.52-6.74a115.4,115.4,0,0,0-16.31,1.32A97.8,97.8,0,0,0,726,630.78l-1.24-63.08c-0.38-20.79-4.5-35.21-12.57-43.64-7.87-8.44-22.3-12.37-43.27-12l-10.69.19-110.9,2.23c-5.26,0-9.38-.19-12.36-0.94a29.6,29.6,0,0,1-8.63-3.17c0.37,17.41,4.13,30,11.06,37.46,7.11,7.69,18.55,11.24,34.29,11.06L623,557.78l4.12,205.88c-21.91,1.7-40.83,7.71-56.58,18-15.73,10.11-27.36,23.6-34.29,40.46A114.89,114.89,0,0,1,562.11,810a84.82,84.82,0,0,1,25.68-4.32,135.26,135.26,0,0,1,33.52,3.56,137.41,137.41,0,0,1,31.66,12c1.69-1.88,3.39-3.55,5.25-5.25a176.14,176.14,0,0,1,20.73-17c12.06,4.67,29.22,7.65,51.61,9.11C724.37,822,718,832.44,711.83,839.74c-6.38,7.31-12.39,11.07-18.18,11.27h-1.51c-0.55-.2-0.95-0.2-1.31-0.39a52.23,52.23,0,0,0,4.51-8.24,32.82,32.82,0,0,0,1.3-8.43c-0.19-5.62-1.68-10.29-4.87-13.67A13.07,13.07,0,0,0,680.33,815,16.91,16.91,0,0,0,667,821.37c-3.38,4.33-5.08,9.76-4.88,16.33,0.19,6.92,2.42,12.73,7.12,17.42A22.34,22.34,0,0,0,686.15,862c8.81-.18,17.42-4.68,26-13.5,8.26-8.81,16.67-22.1,24.93-39.72,3.75,0.21,7.31.57,10.67,0.76,24.93,2.26,42.37,5.24,51.71,9.18,10.89,4.51,16.32,11.43,16.5,21a32.79,32.79,0,0,1-.38,5.82,61.6,61.6,0,0,1-1.31,7.12,55.17,55.17,0,0,0,16.3-18.75,49.83,49.83,0,0,0,5.25-23.61c-0.37-13.85-6.18-23.79-17.62-30-11.24-6.19-31.66-9.75-60.5-10.87l9.91-18.54c34.12,2.62,57.9,7.67,71.2,15,13.49,7.29,20.23,18.72,20.61,34.46,0.2,9.93-2.82,20.42-8.63,31.3-6,11-20,29.79-42.32,56a89.71,89.71,0,0,0-30-16.12,105.47,105.47,0,0,0-30.74-4.87h-5.24a134.2,134.2,0,0,0-64.07,17.62c-20.05,11.25-35,26-45.17,44,11.62-8.23,22.68-14.24,33.36-18.18a95.33,95.33,0,0,1,32.41-6.36c17.23-.38,32.41,2,45.92,6.93l2.79,1.12c12.38,4.87,24.55,12.74,37.12,23.41,10.29-16.49,26-37.08,47.21-62.38,6.74-7.87,11.61-13.67,14.8-17.6,15.73-19.11,26.6-34.68,32-46.86C884.57,796.47,887.37,784.48,887,772.68ZM628.81,557.78l29.41-.56,1.89-.19c10.86-.2,18,1.48,21.35,4.87,3.54,3.36,5.25,9.17,5.42,17.6l0.75,34.67A63.35,63.35,0,0,1,674,620,78.47,78.47,0,0,1,658.6,622h-0.38a122.92,122.92,0,0,1-15.16-.94A57,57,0,0,1,630,617.34Zm1.32,66.32a79.75,79.75,0,0,0,13.3,3.74A85.06,85.06,0,0,0,657.29,629a1.68,1.68,0,0,1,.93-0.19,67.68,67.68,0,0,0,13.87-1.69,116.72,116.72,0,0,0,15.55-5.25l0.8,38.9a65.89,65.89,0,0,0-11.85,31.46l-0.56-.1a100.32,100.32,0,0,0-15.74-.93c-0.76,0-1.49.19-2.07,0.19a138.36,138.36,0,0,0-14.79,1.12,45.79,45.79,0,0,0-12,3.56Zm1.49,78.7a49.16,49.16,0,0,1,12.93-4.14,86.7,86.7,0,0,1,13.67-1.49c1.12,0,2.44-.19,3.75-0.19a91.22,91.22,0,0,1,14.25.85c0,1.21,0,2.42,0,3.65,0.15,13,4.82,23.1,13.64,30.44l0.46,26c-2.08-.75-4-1.53-5.7-2.34-12.34-6.18-18.72-15.57-18.91-28.48v-1.5a60.7,60.7,0,0,0-10.48,17.24A51.5,51.5,0,0,0,652,761.62c0,1.6.15,3.14,0.32,4.64a62.08,62.08,0,0,0-19.62-2.77ZM752.1,768.37c-1.3-.19-2.81-0.19-4.32-0.38-6.17-.5-11.94-1.07-17.33-1.72A71.37,71.37,0,0,1,728.29,748l0-1.61q8.91,1.53,19.51,2.53c4.32,0.37,8.63.57,13.31,0.94Zm-4.32-60.72a188.19,188.19,0,0,1-20.36-4.34l-1.19-60.64a59,59,0,0,1,15-2.28c2.25,0,4.51.19,6.55,0.37A45.91,45.91,0,0,1,774,653.7q15.17,13.5,23.61,38.2l-12,18.94C771,710.29,758.66,709.16,747.78,707.65Z" transform="translate(-502.56 -510.38)"/>
    <path class="cls-1" d="M730,981.4h0a2.2,2.2,0,0,0,1.12,0" transform="translate(-502.56 -510.38)"/>
    <path class="cls-1" d="M543,1007.87V972.7c0-4.16-.76-6.93-2.14-8.7s-4.16-2.52-8.07-2.52H510.06a11.06,11.06,0,0,1-2.27-.12,3.84,3.84,0,0,1-1.64-.76c0,3.53.63,5.93,2,7.44,1.14,1.52,3.15,2.27,5.92,2.27h9.83v40.22c0,3.78-6.05,2.65-9.83,3.15a4.76,4.76,0,0,0-2.14.63c-6.05,3.91-9.06,7.66-9.34,11.09a14.8,14.8,0,0,0,0,2.81c0.39,4.26,5.65,8.65,11.45,11.06a35.76,35.76,0,0,0,7.81,2.52,33.92,33.92,0,0,1-7.27-4.06c-3.09-2.36-4.32-2.87-5.86-5.37-4.75-7.76,2-12.36,3.3-12.88a11.41,11.41,0,0,1,4.54-.75,25.85,25.85,0,0,1,6.17.75,27,27,0,0,1,5.93,2.52,11.45,11.45,0,0,1,1.76-1.76,30.71,30.71,0,0,1,5.54-4,14.73,14.73,0,0,1,6.93-1.89h1.52a10.56,10.56,0,0,1-1.13-2.77,14.06,14.06,0,0,1-.38-3.66h0Zm-7.06,5.42-1.76,1a25.29,25.29,0,0,0-3.65-2.39c-0.25-.13-0.63-0.25-0.88-0.38a12.47,12.47,0,0,0-3.9-1V998.72a13.62,13.62,0,0,1,5.21-.82,11,11,0,0,1,5,1v14.41h0Zm0-16.33a13.87,13.87,0,0,0-5-.82,16.79,16.79,0,0,0-5.21.71v-13a16,16,0,0,0,5.32.81,11.34,11.34,0,0,0,4.88-1V997h0Zm0-15.31a10.58,10.58,0,0,1-2.45,1,11.06,11.06,0,0,1-2.43.25,13.54,13.54,0,0,1-5.32-.92V970.31H531c2,0,3.28.38,3.91,1a5.35,5.35,0,0,1,1,3.53v6.81h0Z" transform="translate(-502.56 -510.38)"/>
    <path class="cls-1" d="M512.2,1008.25a8.82,8.82,0,0,1-1.52,3.53c1.26-.63,2.4-1.13,3.4-1.64a13.86,13.86,0,0,0,3.78-3.15c1.26-1.64,1.89-4,1.89-7.06V979.38a12.38,12.38,0,0,1,.51-4.16,11.19,11.19,0,0,1,1.52-3c-3.41.76-5.8,2-7.07,3.53a4,4,0,0,0-.63.88,12.63,12.63,0,0,0-1.38,6.3v3.79h-0.88c-2,0-3.53.5-4.29,1.39a8.42,8.42,0,0,0-1.26,5,8.18,8.18,0,0,0,.38,2.52,4.75,4.75,0,0,0,1.14,1.89,3,3,0,0,1,.63-2,3.08,3.08,0,0,1,2.14-.63h2.14v8.2a19.33,19.33,0,0,1-.5,5.17h0Z" transform="translate(-502.56 -510.38)"/>
    <path class="cls-1" d="M608.14,1007.12v-19a13.46,13.46,0,0,0,1.89-1.89,14,14,0,0,0,1.26-2.4,4.2,4.2,0,0,0-.75.13H610a3.66,3.66,0,0,1-2.9-1.26,7.67,7.67,0,0,1-2.14-3.79l-2.6,2.39h0l-11,10.07v-0.73a24.49,24.49,0,0,0-1-7.82,8.06,8.06,0,0,0-3.28-4.29,22.58,22.58,0,0,1-3,4.41,20.32,20.32,0,0,1-4.54,3.91q3.22,0.38,4.16,1.51c0.76,0.75,1,2.39,1,4.79v18A24,24,0,0,0,582,1013a9.66,9.66,0,0,0-1.89,2.52c0.25,0,.38-0.12.63-0.12h0.76a8.13,8.13,0,0,1,4.54,1.51,10.66,10.66,0,0,1,3.65,4.16,30.36,30.36,0,0,1,3-3.66,28,28,0,0,1,3.78-2.52,8.21,8.21,0,0,0-2-2.14,10.39,10.39,0,0,0-3.15-1.64V993.7l7.36-6.74c0.36,0.44.72,0.88,1.08,1.24s1,0.88,1.52,1.26v20.42c0,3.78.5,6.43,1.38,7.94s2.4,2.52,4.67,3.28a33.87,33.87,0,0,1,2.9-4.16,43.64,43.64,0,0,1,3.28-3.53,5.76,5.76,0,0,1-4.16-1.64c-0.88-1-1.26-2.52-1.26-4.66h0Z" transform="translate(-502.56 -510.38)"/>
    <path class="cls-1" d="M619.48,972.33a10.63,10.63,0,0,0,2.15,2,3.36,3.36,0,0,0,2,.75,5.1,5.1,0,0,0,3.4-1.38,6.72,6.72,0,0,0,2.14-3.53,1,1,0,0,0-.5.13h-0.38a4.46,4.46,0,0,1-2.65-.88,8.29,8.29,0,0,1-1.76-3,12.29,12.29,0,0,1-1.77,2.14c-0.88.75-2.4,2-4.66,3.78l0.5,1,1.51-1h0Z" transform="translate(-502.56 -510.38)"/>
    <path class="cls-1" d="M627,1006V988.59a6.78,6.78,0,0,0,2.77-2.52,6.45,6.45,0,0,0,1-3.53,3.88,3.88,0,0,1-1.38.63,1.81,1.81,0,0,1-.75.25,3.86,3.86,0,0,1-2.65-1.14,7.49,7.49,0,0,1-2-3c-1.39,1.39-2.78,2.77-4.29,4.16-1.21,1-2.51,2-3.82,2.94l-1,.68,1,1.46,2-1.3a4.35,4.35,0,0,0,.91,1,8.1,8.1,0,0,0,1.64,1.26v16.76c0,4.92.5,8.32,1.39,10.34a7.15,7.15,0,0,0,4.66,4,17.86,17.86,0,0,1,2.39-3.65,33.37,33.37,0,0,1,3.66-3.78c-2.14,0-3.53-.63-4.29-1.51s-1.14-2.9-1.14-5.68h0Z" transform="translate(-502.56 -510.38)"/>
    <path class="cls-1" d="M662.35,997a3.37,3.37,0,0,1,1-1.89h-8.45c0.64-.84,1.22-1.62,1.77-2.37a45.84,45.84,0,0,0,3.52-4.88,26,26,0,0,0,2.3-5.47l0-.1c0-.11.06-0.19,0.06-0.2a18.64,18.64,0,0,0,.65-3.11h-1.14a3.36,3.36,0,0,1-.88,2,2,2,0,0,1-1.64.76,3.41,3.41,0,0,1-2.14-.76,8,8,0,0,1-2.15-2,18.89,18.89,0,0,1-6,3.66c-0.75.25-1.51,0.5-2.14,0.76a22,22,0,0,1-4.92.5,14,14,0,0,1-2.14-.13c-0.76,0-1.39-.12-1.64-0.12a7.55,7.55,0,0,1,1.13,1.89,6.37,6.37,0,0,1,.38,2.14v10.09a11.74,11.74,0,0,1-.25,3.15,12.06,12.06,0,0,1-1.13,2.65h6.66l-3.09,3.56a34.5,34.5,0,0,0-5,7.78,11.91,11.91,0,0,0-1.32,4.92V1021h0.88a6.33,6.33,0,0,1,1.13-3.28,3.18,3.18,0,0,1,2.52-1.14,4.64,4.64,0,0,1,2.65,1,18.34,18.34,0,0,1,3.28,3.53,5.49,5.49,0,0,1,.88-0.88,13.41,13.41,0,0,1,4.28-3.28,14.08,14.08,0,0,1,6.31-1.26,11.76,11.76,0,0,1,2.9.25,22.11,22.11,0,0,1,2.77.63,11.4,11.4,0,0,1-1-2.65,16.64,16.64,0,0,1-.25-3.78v-9.58a14.44,14.44,0,0,1,.25-3.53h0Zm-15.76-11.36,3.62-1.42a6.11,6.11,0,0,0,1.81,2.19,4.68,4.68,0,0,0,2.77,1,5.74,5.74,0,0,0,2.9-1,8.55,8.55,0,0,0,2.09-1.65,24.43,24.43,0,0,1-1.1,2.23,50.69,50.69,0,0,1-4,5.46l-0.89,1c-2.19,2.56-3.9,4.63-5.27,6.25l-0.16.18h-1.76V985.67h0Zm8.7,28.15-3.35.85a13.26,13.26,0,0,0-2.82-2.76c-0.76-.38-1.39-0.63-2-0.88-0.51,0-.88-0.13-1.39-0.13a7.58,7.58,0,0,0-3.4.88,11.74,11.74,0,0,0-2.11,1,37.83,37.83,0,0,1,3.24-4.53l3.07-3.54,0.58-.63c1.32-1.51,2.45-2.83,3.49-4.06l1.09-1.24h3.61v15h0Z" transform="translate(-502.56 -510.38)"/>
    <path class="cls-1" d="M808.58,983.92a4.62,4.62,0,0,1-3.15-1.26,12.66,12.66,0,0,1-2.77-3.91l-9.26,8.42-2,1.69V976.49a93.2,93.2,0,0,1,.51-9.71,47.77,47.77,0,0,1,1.64-7.31,25.17,25.17,0,0,1-5.29,4.16,27.9,27.9,0,0,1-5.54,2.52,9.11,9.11,0,0,1,1.77,2.9,14.6,14.6,0,0,1,.5,4.66v37.57a9.53,9.53,0,0,0-3,2.27,7.32,7.32,0,0,0-1.26,3.4,8.35,8.35,0,0,1,1.26-.51c0.25,0,.5-0.12.76-0.12a6.7,6.7,0,0,1,3.53,1.26,8.76,8.76,0,0,1,2.77,3.53,20.77,20.77,0,0,1,3.4-3.28,30.28,30.28,0,0,1,4.42-2.9,19.79,19.79,0,0,0-2.52-2,16.78,16.78,0,0,0-2.9-1.64V991.19l6-5.17a17.77,17.77,0,0,0,2.08,2.57,5.52,5.52,0,0,0,2.27,1.13v24.58c0,1-.8,1.75-1.68,3a4.61,4.61,0,0,0-.9,3.13c0.13,1.36.9,2.27,1.65,4.54a18.34,18.34,0,0,1,.92,5.23,9.79,9.79,0,0,1-.5,3.41,6.28,6.28,0,0,1-1.65,2.39,5.08,5.08,0,0,0,3.91-1.89,7,7,0,0,0,1.51-4.54,9.43,9.43,0,0,0-2.14-5.78c-1.38-1.89-1.65-2.77-1.65-3.65a3.2,3.2,0,0,1,1.24-2.59,4.54,4.54,0,0,1,3.05-1.08,9.27,9.27,0,0,1,1.89.13,13.18,13.18,0,0,1,2.15.51,14,14,0,0,1-1-3,17.87,17.87,0,0,1-.38-4V988.46a8.41,8.41,0,0,0,2.27-2.52,8,8,0,0,0,.89-3,5.39,5.39,0,0,1-1.4.75,6.5,6.5,0,0,1-1.39.25h0Z" transform="translate(-502.56 -510.38)"/>
    <path class="cls-1" d="M846.78,983.92a3,3,0,0,1-1.26.25,5.07,5.07,0,0,1-3.28-1.39,12.33,12.33,0,0,1-2.39-4.29,26.65,26.65,0,0,1-7.44,4.41c-0.25.12-.64,0.25-0.89,0.38a29.78,29.78,0,0,1-9.45,1.64,7.76,7.76,0,0,1-1.89-.13h-1.26a11.84,11.84,0,0,1,1.26,3.28,15.62,15.62,0,0,1,.38,3.65v19a11.46,11.46,0,0,0-2.78,2.78,7.78,7.78,0,0,0-1.25,3.53c0.37-.13.75-0.13,1.12-0.25h1.13a7.27,7.27,0,0,1,3.79,1.14,12.77,12.77,0,0,1,3.53,3.4,27,27,0,0,1,6.31-4.54c0.37-.12.63-0.25,1-0.38a20.24,20.24,0,0,1,7.82-1.64c0.5,0,1,.13,1.64.13s1.64,0.25,3,.51a18.52,18.52,0,0,1-1.26-4.29,30.5,30.5,0,0,1-.38-5V988a8,8,0,0,0,1.77-1.76,7,7,0,0,0,1.13-2.4c0,0.13-.13.13-0.38,0.13h0Zm-9.2,29.38a25.18,25.18,0,0,0-2.7.61,19.24,19.24,0,0,0-2.34.86c0-.07-0.08-0.13-0.12-0.21a10.6,10.6,0,0,0-5.17-4.29V986.43a24.26,24.26,0,0,0,2.53-.62c0.93-.29,1.74-0.56,2.43-0.81a2,2,0,0,1,.21.31,14,14,0,0,0,2.14,2.39,6.86,6.86,0,0,0,3,1.51v24.08h0Z" transform="translate(-502.56 -510.38)"/>
    <path class="cls-1" d="M880.82,984.18a5.06,5.06,0,0,1-3.28-1.39,10.72,10.72,0,0,1-2.39-4.29,26.45,26.45,0,0,1-7.44,4.41c-0.25.12-.63,0.25-0.88,0.38a29.8,29.8,0,0,1-9.45,1.64,7.31,7.31,0,0,1-1.9-.13h-1.26a11.52,11.52,0,0,1,1.26,3.28,15.4,15.4,0,0,1,.37,3.65v19a9.81,9.81,0,0,0-2.77,2.78,8,8,0,0,0-1.26,3.53c0.38-.13.76-0.13,1.14-0.25h1.13a7.27,7.27,0,0,1,3.78,1.14,12.73,12.73,0,0,1,3.53,3.4,27.3,27.3,0,0,1,6.3-4.54c0.38-.12.63-0.25,1-0.38a20.23,20.23,0,0,1,7.82-1.64c0.5,0,1,.13,1.64.13s1.63,0.25,2.89.51a26.73,26.73,0,0,1-1.13-4.29,30.54,30.54,0,0,1-.38-5V988a7.81,7.81,0,0,0,1.76-1.76,7.07,7.07,0,0,0,1.14-2.4c0,0.13-.25.13-0.39,0.13a3,3,0,0,1-1.26.25h0Zm-7.94,28.95c-0.71.14-1.46,0.29-2.22,0.49a22.13,22.13,0,0,0-2.94.95h0a8.16,8.16,0,0,0-1.89-2.27,9.48,9.48,0,0,0-3.27-2V986.41c0.74-.15,1.63-0.36,2.71-0.66,0.92-.25,1.66-0.48,2.29-0.69a2,2,0,0,1,.16.25,14.38,14.38,0,0,0,2.15,2.39,6.84,6.84,0,0,0,3,1.51v23.9h0Z" transform="translate(-502.56 -510.38)"/>
    <path class="cls-1" d="M743.91,981.28q-4-2.84-12.86-3.4h-0.32c0.52-.93,1-1.85,1.56-2.72a30.88,30.88,0,0,1,3.17-3.84,41,41,0,0,1,5.92-5.42l-0.5-1.26-2.28,1.64a10.87,10.87,0,0,0-5.16-4.29,13.6,13.6,0,0,0-2.4-.88,24.87,24.87,0,0,0-5.54-.63,16.81,16.81,0,0,0-11.86,4.41,13.92,13.92,0,0,0-4.78,10.59,7.46,7.46,0,0,0,3.52,6.8q3.59,2.27,12.11,3l-1.77,3.53c-6-.63-10.2-1.51-12.48-2.77a7.71,7.71,0,0,1-1.64-1.13,6,6,0,0,1-1.64-4.42v-0.37a9.57,9.57,0,0,0-2,3.4,8.56,8.56,0,0,0-.76,3.66,7.53,7.53,0,0,0,3.28,6.56c0.25,0.12.63,0.38,1.14,0.63,2.64,1,7.31,1.64,11.72,2-1,3.53-1.47,6.2-2.53,10.88a25,25,0,0,0-9.92,1.73,22.85,22.85,0,0,0-10.17,7.58c-6.44,8.85-4.33,20.23,3.33,22.62,6.44,2,9.49-3.14,10.91-5.67,3.73-6.64,5.09-13.59,6.36-17.75,1,0.25,1.9.66,2.66,0.91a27.1,27.1,0,0,1,7.45,4.91c0.75-1.13,1.63-2.52,2.64-4,1.76-2.27,3.78-4.92,6.3-7.94,1.26-1.51,2.27-2.65,2.78-3.41,3-3.65,5.17-6.68,6.17-9.07a15.52,15.52,0,0,0,1.65-6.93c0-4-1.4-7.06-4-9h0ZM714,1022.81c-3.79,12.12-8.75,13.38-11.21,12.51-7.6-2.66-3.29-13.33.8-17.32a12.41,12.41,0,0,1,12.45-3l-2,7.76h0Zm2.89-47.34c-2.65-1.14-4-2.77-4-4.79a6.59,6.59,0,0,1,2.39-4.91,9.33,9.33,0,0,1,5.93-2,8.45,8.45,0,0,1,6.18,2.78,18.46,18.46,0,0,1,3.66,5.55,6.59,6.59,0,0,1,.46,1c-0.88,1.45-1.82,3.05-2.68,4.66-5.31-.39-9.33-1.13-11.89-2.23h0ZM741,1001.7c-0.15.28-.32,0.58-0.53,0.91-0.79,1-1.64,2.11-2.53,3.19l-2.12,2.63-3,3.9a27.15,27.15,0,0,0-12.81-4.87l2.51-10.62c2.21-.57,6.9,1.17,8.52,2s3.59,2.47,3.59,4.36a6.3,6.3,0,0,1-.56,2.45,10.87,10.87,0,0,0,3.16-3.66,11,11,0,0,0,1-4.54,6.23,6.23,0,0,0-3.15-5.92,11.06,11.06,0,0,0-4-1.51,45.69,45.69,0,0,0-6-.8c0.54-1.19,1.1-2.38,1.66-3.52,1.59,0.13,3,.33,4.29.54a23.39,23.39,0,0,1,7.94,2.52,7.33,7.33,0,0,1,3.65,6.8,12.91,12.91,0,0,1-1.64,6.18h0Z" transform="translate(-502.56 -510.38)"/>
    <path class="cls-1" d="M670.79,963.5l-4.54,6.43a13.35,13.35,0,0,1,2.64,3.91,10.23,10.23,0,0,1,.88,4.66c0,0.63-.12,1.26-0.12,1.89s-0.26,1.14-.38,1.89a15.57,15.57,0,0,0,3.53-4.16,11.82,11.82,0,0,0,1.13-5,13,13,0,0,0-.63-4.41,26.87,26.87,0,0,0-2.52-5.17h0Z" transform="translate(-502.56 -510.38)"/>
    <path class="cls-1" d="M565.14,1002.59l1-.76,11.47-8.69a37.25,37.25,0,0,1-4.41-6.81,40.59,40.59,0,0,1-3-7.69,21.34,21.34,0,0,1-4,3.15l-0.69.33-4.56,1.67a21.28,21.28,0,0,1-5.47.78H552.8a8.88,8.88,0,0,1,1.64,3,13.13,13.13,0,0,1,.5,4v19.79a6.36,6.36,0,0,0-2.9,2.52,7,7,0,0,0-.88,3.79,10.45,10.45,0,0,1,1.89-.63,9.57,9.57,0,0,1,1.89-.25,15.57,15.57,0,0,1,5.8,1.26,19.91,19.91,0,0,1,5.17,3.53l0.25-.25,2.79-2.74,5.5-5-1.18-1.29-2.09,1.91A17.62,17.62,0,0,0,567,1012c-0.25-.12-0.63-0.25-0.88-0.38a39.17,39.17,0,0,0-4.54-1v-5.27l3.52-2.79h0Zm-3.52-17.21,2.49-.91,2.05,3.87,4.18,7.89-8.72,6.92V985.38h0Z" transform="translate(-502.56 -510.38)"/>
    <path class="cls-1" d="M765.1,984.69a5.87,5.87,0,0,0,2,2.89,6.14,6.14,0,0,0,3.79,1.14,6.68,6.68,0,0,0,3.78-1.38,15.57,15.57,0,0,0,3.41-3.91h-0.25a7.58,7.58,0,0,1-1.51.12,5,5,0,0,1-3-1.13,10.19,10.19,0,0,1-2.65-3.28,17.28,17.28,0,0,1-4.4,3.2l-3,1.23a18.86,18.86,0,0,1-6,1.12,4.38,4.38,0,0,1-1.51-.12h-1.14a6.78,6.78,0,0,1,1.51,2.78,12.33,12.33,0,0,1,.51,4.16v19.91a8,8,0,0,0-2.78,2.65,6.35,6.35,0,0,0-1,3.78,7.18,7.18,0,0,1,2.15-.75,5.82,5.82,0,0,1,2.14-.25,12.21,12.21,0,0,1,5,1.14,24.65,24.65,0,0,1,5.54,3.65l0.5-.5,0,0,7.9-7.9-1.23-1.23-2.12,2.12a12.82,12.82,0,0,0-4.07-2.35,17.86,17.86,0,0,0-5.29-1.13V985.36l1.65-.67h0Z" transform="translate(-502.56 -510.38)"/>
    <path class="cls-1" d="M902.38,1014.47a9.42,9.42,0,0,0-1.78-2.05,8.53,8.53,0,0,0-2.77-1.64V973.84a42.84,42.84,0,0,1,.63-8.57,5.87,5.87,0,0,1,.18-0.58l2.72-3.28L900,960.29l-0.06.07a22.49,22.49,0,0,1-5.53,4.65,15.78,15.78,0,0,1-5.8,1.89,6.81,6.81,0,0,1,2,3,14.61,14.61,0,0,1,.63,4.79v37.82a8.56,8.56,0,0,0-2.9,2,8.05,8.05,0,0,0-1.39,3.15c0.63-.13,1.27-0.25,1.76-0.38a7.72,7.72,0,0,1,1.64-.13,7.12,7.12,0,0,1,4,1.39,7.87,7.87,0,0,1,3,3.4,12.21,12.21,0,0,1,2.64-3.15c0.78-.78,1.68-1.59,2.65-2.43l2.62-2.1-1.09-1.36-1.89,1.52h0Z" transform="translate(-502.56 -510.38)"/>
  </g>
</svg>
