<?xml version="1.0" encoding="utf-8"?>
<!-- Generator: Adobe Illustrator 18.0.0, SVG Export Plug-In . SVG Version: 6.00 Build 0)  -->
<!DOCTYPE svg PUBLIC "-//W3C//DTD SVG 1.1//EN" "http://www.w3.org/Graphics/SVG/1.1/DTD/svg11.dtd">
<svg version="1.1" id="Layer_1" xmlns="http://www.w3.org/2000/svg" xmlns:xlink="http://www.w3.org/1999/xlink" x="0px" y="0px"
	 viewBox="148.7 356.1 311.9 50.3" enable-background="new 148.7 356.1 311.9 50.3" xml:space="preserve">
<g>
	<path fill="#000000" d="M156.1,405c0,0.2-0.2,0.4-0.4,0.4h-6.6c-0.3,0-0.4-0.2-0.4-0.4v-47.6c0-0.3,0.2-0.4,0.4-0.4h6.6
		c0.2,0,0.4,0.2,0.4,0.4V405z"/>
	<path fill="#000000" d="M234.3,405c0,0.2-0.2,0.4-0.4,0.4h-6.2c-0.3,0-0.4-0.2-0.4-0.4v-47.6c0-0.2,0.2-0.4,0.4-0.4h6.2
		c0.3,0,0.4,0.2,0.4,0.4V405z"/>
	<path fill="#000000" d="M301.4,405c0,0.2-0.2,0.4-0.4,0.4h-6.2c-0.3,0-0.4-0.2-0.4-0.4v-47.6c0-0.3,0.2-0.5,0.4-0.5h6.2
		c0.3,0,0.4,0.2,0.4,0.5V405z"/>
	<path fill="#000000" d="M287.3,405c0,0.2-0.2,0.4-0.4,0.4h-6.2c-0.3,0-0.4-0.2-0.4-0.4v-34.6c0-0.3,0.2-0.4,0.4-0.4h6.2
		c0.3,0,0.4,0.2,0.4,0.4V405z"/>
	<path fill="#000000" d="M287.3,363.7c0,0.3-0.2,0.4-0.4,0.4h-6.2c-0.3,0-0.4-0.2-0.4-0.4v-6.3c0-0.3,0.2-0.5,0.4-0.5h6.2
		c0.3,0,0.4,0.2,0.4,0.5V363.7z"/>
	<path fill="#000000" d="M166.8,381.1c2.8-3.2,20.4-23.1,20.8-23.6c0.2-0.2,0-0.7-0.3-0.7h-8c-0.2,0-0.4,0.1-0.7,0.4L160.5,378v6.3
		l18.1,20.7c0.2,0.2,0.4,0.4,0.7,0.4h8.7c0.2,0,0.4-0.4,0.3-0.7C187.6,404.3,169.3,384,166.8,381.1z"/>
	<path fill="#000000" d="M310.8,387.2c3.6-4.3,13.4-16.2,14-16.7c0.2-0.2,0-0.7-0.3-0.7h-6.8c-0.2,0-0.4,0.1-0.7,0.4L305.7,384v6.3
		l11.8,14.7c0.2,0.3,0.4,0.4,0.7,0.4h7.4c0.2,0,0.5-0.4,0.3-0.7C325.4,404.3,319.9,398.1,310.8,387.2z"/>
	<path fill="#000000" d="M257.5,368.9c-4.3,0-16.1,0-16.1,16.1V405c0,0.2,0.2,0.4,0.4,0.4h6.2c0.3,0,0.4-0.2,0.4-0.4v-20.6
		c0-9.3,6.4-9.2,8.9-9.2c2.4,0,8.8,0.1,8.8,9.2V405c0,0.2,0.2,0.4,0.4,0.4h6.2c0.3,0,0.4-0.2,0.4-0.4v-19.8
		C273.2,368.9,261.8,368.9,257.5,368.9z"/>
	<path fill="#000000" d="M216.6,373.7c-2.9-3.2-6.8-4.8-11.8-4.8c-5.2,0-9.1,1.5-12,4.9c-3,3.3-4.4,7.9-4.4,13.8
		c0,6,1.5,10.6,4.4,14c2.9,3.4,6.8,4.8,11.8,4.8c4.1,0,7.4-0.9,10.3-3.1c2.8-2.2,4.6-5.1,5.3-8.7l0,0c0,0,0,0,0-0.1
		c0-0.3-0.3-0.3-0.3-0.3h-6.5c-0.4,1.8-1.4,3.5-2.8,4.5c-1.4,1-3.6,1.6-5.6,1.6c-2.8,0-5.4-1-6.9-2.8c-1.6-1.7-2.8-4.6-2.7-7.9H220
		c0.5,0,0.7-0.3,0.7-0.7c0.1-1.1,0.1-1.5,0.1-1.9C220.9,381.5,219.5,377,216.6,373.7z M195.5,384.3c0.2-3,1.3-5.5,2.8-7.1
		c1.5-1.5,3.9-2.5,6.4-2.5c2.7,0,5.3,0.9,6.8,2.5c1.5,1.6,2.4,4.1,2.4,7L195.5,384.3L195.5,384.3z"/>
</g>
<g>
	<path fill="#000000" d="M425.3,397.1c0-0.9-0.6-2-1.3-2.5l-14.5-10.3c-0.7-0.5-1.3-0.1-1.3,0.7v18.8c0,0.9,0.7,1.6,1.6,1.6h14
		c0.9,0,1.5-0.7,1.5-1.5L425.3,397.1L425.3,397.1z"/>
	<path fill="#000000" d="M374.3,357.7c0-0.9,0.7-1.6,1.6-1.6h12.8c0.9,0,1.6,0.7,1.6,1.6v46.2c0,0.9-0.7,1.6-1.6,1.6h-12.8
		c-0.9,0-1.6-0.7-1.6-1.6V357.7z"/>
	<path fill="#000000" d="M425.3,364.3c0,0.9-0.6,2-1.3,2.5l-14.5,10.3c-0.7,0.5-1.3,0.1-1.3-0.7v-18.8c0-0.9,0.7-1.6,1.6-1.6h14
		c0.9,0,1.5,0.7,1.5,1.6V364.3z"/>
	<path fill="#000000" d="M460.5,397.1c0-0.9-0.6-2-1.3-2.5l-14.5-10.3c-0.7-0.5-1.3-0.1-1.3,0.7v18.8c0,0.9,0.7,1.5,1.5,1.5h14
		c0.9,0,1.5-0.7,1.5-1.5v-6.7H460.5z"/>
	<path fill="#000000" d="M460.5,364.3c0,0.9-0.6,2-1.3,2.5l-14.5,10.3c-0.7,0.5-1.3,0.1-1.3-0.7v-18.8c0-0.9,0.7-1.6,1.5-1.6h14
		c0.9,0,1.5,0.7,1.5,1.6v6.7H460.5z"/>
</g>
</svg>
