<svg width="210" height="70px" id="Layer_1" data-name="Layer 1" xmlns="http://www.w3.org/2000/svg" viewBox="0 0 186.78 121.05">
  <defs>
    <style>
      .cls-1 {
        fill: #ffffff;
      }

      .cls-2 {
        fill: #ffffff;
      }
    </style>
  </defs>
  <title>logo_astra</title>
  <g>
    <path class="cls-1" d="M379,388.68l-6.08-1.93a0.81,0.81,0,0,0,0,.47l2.21,6.25-5.31-4.14a2.67,2.67,0,0,0-3.21,0l-5.31,4.14,2.26-6.39a2.65,2.65,0,0,0-1-3.06l-5.55-3.83,6.74,0.2a2.69,2.69,0,0,0,2.56-1.9l1.89-6.49,1.89,6.5a0.58,0.58,0,0,0,.07.15,0.78,0.78,0,0,0,.26.35l3.69-5.44-3.39-11.68c-0.31-1-1.86-1.16-2.52-1.16s-2.21.11-2.51,1.16l-3.83,13.19-13.64-.4c-1.13,0-1.72,1.73-1.88,2.25-0.21.72-.44,2,0.36,2.56L358,387.22l-4.58,12.94a1.5,1.5,0,0,0,.3,1.4,4.6,4.6,0,0,0,3,1.83,1.25,1.25,0,0,0,.78-0.25l10.77-8.39,10.69,8.32a1.21,1.21,0,0,0,.88.35,4.62,4.62,0,0,0,3-1.84,1.51,1.51,0,0,0,.31-1.41Z" transform="translate(-203.54 -360.71)"/>
    <path class="cls-2" d="M374.18,380.35l5.26-.15-4.54,3.13a0.77,0.77,0,0,0-.31.61l5.87,1.86a0.69,0.69,0,0,0,.21-0.06l9.08-6.27c0.83-.57.58-1.9,0.35-2.64s-0.77-2.15-1.91-2.17L377,375l-3.44,5.07A0.74,0.74,0,0,0,374.18,380.35Z" transform="translate(-203.54 -360.71)"/>
  </g>
  <path class="cls-2" d="M265.4,431.23v-0.71a1.13,1.13,0,0,0-.2-0.65c-0.16-.24-4.09-5.77-13.93-5.77h-0.12a11.42,11.42,0,0,1-7.49-2.54v-3.28a11.61,11.61,0,0,1,7.63-2.56,11.23,11.23,0,0,1,8.75,3.72,1.15,1.15,0,0,0,.78.39,1.17,1.17,0,0,0,.83-0.28l3.38-3a1.14,1.14,0,0,0,.19-1.51c-0.17-.24-4.11-5.76-14-5.76-8.73,0-12.85,4.37-13.76,5.49a1.13,1.13,0,0,0-.42.88v8.39a1.14,1.14,0,0,0,.2.65c0.16,0.24,4.09,5.76,13.93,5.76h0.12a11.42,11.42,0,0,1,7.51,2.56v3.27a11.62,11.62,0,0,1-7.63,2.56,11.22,11.22,0,0,1-8.75-3.72,1.14,1.14,0,0,0-.78-0.39,1.16,1.16,0,0,0-.83.28l-3.38,3a1.14,1.14,0,0,0-.19,1.51c0.16,0.23,4.11,5.77,14,5.77s13.81-5.53,14-5.77a1.16,1.16,0,0,0,.2-0.65v-7.44A0.94,0.94,0,0,0,265.4,431.23Z" transform="translate(-203.54 -360.71)"/>
  <path class="cls-2" d="M231.81,415.11c-0.16-.24-4.11-5.76-14-5.76s-13.81,5.53-14,5.76a1.14,1.14,0,0,0,.19,1.51l3.38,3a1.18,1.18,0,0,0,.83.28,1.15,1.15,0,0,0,.78-0.39,11.29,11.29,0,0,1,8.84-3.72,11.51,11.51,0,0,1,7.54,2.56v5.07a21.28,21.28,0,0,0-7.58-1.3c-9.86,0-13.81,5.53-14,5.76a1.15,1.15,0,0,0-.2.65v10.4a1.15,1.15,0,0,0,.2.65c0.17,0.23,4.11,5.77,14,5.77a20.27,20.27,0,0,0,9.24-2c1.32,0.77,3.18,1.81,3.18,1.8a1.16,1.16,0,0,0,.63.22,1.13,1.13,0,0,0,1.13-1.13v-28.4A1.14,1.14,0,0,0,231.81,415.11Zm-14,23.78h0a11.51,11.51,0,0,1-7.54-2.56V431a12.51,12.51,0,0,1,15.16,0v5.32a11.48,11.48,0,0,1-7.52,2.56h-0.07Z" transform="translate(-203.54 -360.71)"/>
  <path class="cls-2" d="M349.72,415.11c-0.16-.24-4.11-5.76-14-5.76s-13.81,5.53-14,5.76a1.14,1.14,0,0,0,.19,1.51l3.38,3a1.15,1.15,0,0,0,1.61-.11,11.28,11.28,0,0,1,8.83-3.72,11.52,11.52,0,0,1,7.54,2.56v5.07a21.31,21.31,0,0,0-7.59-1.3c-9.87,0-13.81,5.53-14,5.76a1.15,1.15,0,0,0-.2.65v10.4a1.15,1.15,0,0,0,.2.65c0.16,0.23,4.11,5.77,14,5.77a20.28,20.28,0,0,0,9.24-2c1.32,0.77,3.18,1.81,3.18,1.8a1.16,1.16,0,0,0,.63.22,1.13,1.13,0,0,0,1.13-1.13v-28.4A1.13,1.13,0,0,0,349.72,415.11Zm-14,23.78h0a11.51,11.51,0,0,1-7.54-2.56V431a12.52,12.52,0,0,1,15.17,0v5.32a11.5,11.5,0,0,1-7.52,2.56h-0.07Z" transform="translate(-203.54 -360.71)"/>
  <path class="cls-2" d="M291.76,443.72a1.1,1.1,0,0,0-.11-0.47s-1.45-3.94-1.51-4.06a1.09,1.09,0,0,0-1-.63,1.15,1.15,0,0,0-.3.06h0c-1.26.3-6.4,1.31-10.67-2.23V416h3.44a1.63,1.63,0,0,0,1-.36h0c0.19-.18,2.59-4.47,2.58-4.47a1.18,1.18,0,0,0,.22-0.63,1.13,1.13,0,0,0-1.13-1.13h-6.13V405c-0.49-1.26-6-1.31-6.59,0v33.91a1,1,0,0,0,.2.65c6.57,7.91,18.56,5.33,19,5.25l0.09,0A1.09,1.09,0,0,0,291.76,443.72Z" transform="translate(-203.54 -360.71)"/>
  <path class="cls-2" d="M316.34,409.84l-0.09,0a25.05,25.05,0,0,0-12.63.8v-0.3c-0.49-1.26-6-1.31-6.6,0v34c0.6,1.3,6.11,1.26,6.6,0V418.24c4.27-3.54,9.41-2.53,10.67-2.23h0a1,1,0,0,0,.3.06,1.09,1.09,0,0,0,1-.64c0.06-.12,1.51-4.06,1.51-4.06A1.07,1.07,0,0,0,316.34,409.84Z" transform="translate(-203.54 -360.71)"/>
  <path class="cls-2" d="M316.34,409.84l-0.09,0a25.05,25.05,0,0,0-12.63.8v-0.3c-0.49-1.26-6-1.31-6.6,0v34c0.6,1.3,6.11,1.26,6.6,0V418.24c4.27-3.54,9.41-2.53,10.67-2.23h0a1,1,0,0,0,.3.06,1.09,1.09,0,0,0,1-.64c0.06-.12,1.51-4.06,1.51-4.06A1.07,1.07,0,0,0,316.34,409.84Z" transform="translate(-203.54 -360.71)"/>
  <g>
    <path class="cls-1" d="M227.89,473.73c0.07,0.1,1.8,2.53,6.14,2.53s6.06-2.43,6.14-2.53a0.5,0.5,0,0,0-.09-0.66l-1.48-1.3a0.52,0.52,0,0,0-.37-0.12,0.5,0.5,0,0,0-.34.17,5,5,0,0,1-3.88,1.63,5,5,0,0,1-3.31-1.12V470.1a9.28,9.28,0,0,0,3.33.58c4.33,0,6.06-2.43,6.14-2.53a0.52,0.52,0,0,0,.09-0.28v-4.57a0.52,0.52,0,0,0-.09-0.29c-0.08-.1-1.81-2.53-6.14-2.53s-6.07,2.43-6.14,2.53a0.52,0.52,0,0,0-.09.29v10.15A0.54,0.54,0,0,0,227.89,473.73Zm9.46-7a5.5,5.5,0,0,1-6.66,0V464.4a5.06,5.06,0,0,1,3.3-1.12h0a5.06,5.06,0,0,1,3.31,1.12v2.34Z" transform="translate(-203.54 -360.71)"/>
    <g>
      <path class="cls-1" d="M257.21,458v1.56c0.22,0.56,2.63.58,2.89,0V458C259.89,457.43,257.47,457.4,257.21,458Z" transform="translate(-203.54 -360.71)"/>
      <path class="cls-1" d="M257.21,461.71v14.12c0.22,0.55,2.63.58,2.89,0V461.71C259.89,461.16,257.47,461.14,257.21,461.71Z" transform="translate(-203.54 -360.71)"/>
    </g>
    <path class="cls-1" d="M274.72,463c-0.07-.1-1.8-2.53-6.14-2.53s-6.06,2.43-6.13,2.53a0.5,0.5,0,0,0,.08.66L264,465a0.51,0.51,0,0,0,.36.12,0.5,0.5,0,0,0,.34-0.17,5,5,0,0,1,3.88-1.64,5.07,5.07,0,0,1,3.31,1.12v2.23a9.32,9.32,0,0,0-3.33-.57c-4.33,0-6.06,2.43-6.13,2.53a0.49,0.49,0,0,0-.09.29v4.57a0.5,0.5,0,0,0,.09.29c0.07,0.1,1.8,2.53,6.13,2.53a8.91,8.91,0,0,0,4.06-.89l1.4,0.79a0.53,0.53,0,0,0,.28.1,0.49,0.49,0,0,0,.49-0.49V463.29A0.52,0.52,0,0,0,274.72,463Zm-6.14,10.44h0a5,5,0,0,1-3.31-1.12V470a5.5,5.5,0,0,1,6.66,0v2.34a5,5,0,0,1-3.3,1.12h0Z" transform="translate(-203.54 -360.71)"/>
    <g>
      <path class="cls-1" d="M203.54,460.9v14.93c0.22,0.55,2.63.58,2.89,0V460.9C206.22,460.35,203.81,460.33,203.54,460.9Z" transform="translate(-203.54 -360.71)"/>
      <path class="cls-1" d="M213.09,463.27v12.57c0.22,0.55,2.63.58,2.9,0V463.27C215.77,462.71,213.36,462.69,213.09,463.27Z" transform="translate(-203.54 -360.71)"/>
      <path class="cls-1" d="M216,463.35a0.33,0.33,0,0,0,0-.07v-0.06a0.44,0.44,0,0,0-.07-0.15c-0.07-.1-1.8-2.53-6.13-2.53s-6.06,2.43-6.14,2.53a0.6,0.6,0,0,0-.07.15v0.06a0.51,0.51,0,0,0,0,.07h0a0.49,0.49,0,0,0,.16.37l1.49,1.3a0.51,0.51,0,0,0,.36.12,0.51,0.51,0,0,0,.34-0.17,4.35,4.35,0,0,1,.53-0.51h0l0.17-.13,0.13-.1,0.16-.11,0.26-.16,0.13-.07a4.87,4.87,0,0,1,1-.39l0.06,0c0.19,0,.38-0.08.59-0.11h0.07a6.11,6.11,0,0,1,1.43,0h0.08l0.59,0.11,0.06,0a4.93,4.93,0,0,1,1,.39l0.12,0.07,0.26,0.16,0.17,0.11,0.12,0.1,0.17,0.13h0a4.19,4.19,0,0,1,.53.51,0.5,0.5,0,0,0,.71,0l1.49-1.3a0.5,0.5,0,0,0,.17-0.37h0Z" transform="translate(-203.54 -360.71)"/>
      <path class="cls-1" d="M222.65,463.27v12.57c0.21,0.55,2.63.58,2.89,0V463.27C225.33,462.71,222.91,462.69,222.65,463.27Z" transform="translate(-203.54 -360.71)"/>
      <path class="cls-1" d="M225.54,463.35a0.5,0.5,0,0,0,0-.07s0,0,0-.06a0.45,0.45,0,0,0-.07-0.15c-0.07-.1-1.81-2.53-6.13-2.53s-6.07,2.43-6.14,2.53a0.66,0.66,0,0,0-.07.15v0.06s0,0,0,.07h0a0.5,0.5,0,0,0,.16.37l1.49,1.3a0.51,0.51,0,0,0,.36.12,0.53,0.53,0,0,0,.35-0.17,4.09,4.09,0,0,1,.53-0.51h0l0.17-.13,0.12-.1,0.17-.11,0.26-.16,0.12-.07a4.8,4.8,0,0,1,1-.39l0.06,0c0.19,0,.39-0.08.6-0.11h0.07a6.15,6.15,0,0,1,1.43,0h0.07c0.21,0,.4.07,0.59,0.11l0.06,0a5,5,0,0,1,1,.39l0.12,0.07,0.26,0.16,0.17,0.11,0.12,0.1,0.17,0.13h0a4.4,4.4,0,0,1,.53.51,0.5,0.5,0,0,0,.71,0l1.48-1.3a0.49,0.49,0,0,0,.16-0.37h0Z" transform="translate(-203.54 -360.71)"/>
    </g>
    <path class="cls-1" d="M252.06,455.4V461a9.36,9.36,0,0,0-3.33-.57c-4.33,0-6.06,2.43-6.14,2.53a0.5,0.5,0,0,0-.09.29v10.15a0.51,0.51,0,0,0,.09.29c0.07,0.1,1.81,2.53,6.14,2.53a8.9,8.9,0,0,0,4.05-.89l1.4,0.79a0.51,0.51,0,0,0,.28.1,0.49,0.49,0,0,0,.49-0.49V455.4C254.74,454.84,252.32,454.82,252.06,455.4Zm0,16.93a5,5,0,0,1-3.3,1.12h0a5.05,5.05,0,0,1-3.31-1.12V464.4a5.51,5.51,0,0,1,6.66,0v7.92Z" transform="translate(-203.54 -360.71)"/>
    <g>
      <path class="cls-1" d="M295.36,479V461a0.49,0.49,0,0,0-.49-0.49,0.52,0.52,0,0,0-.28.09l-1.4.79a8.91,8.91,0,0,0-4.06-.89c-4.33,0-6.06,2.43-6.13,2.53a0.48,0.48,0,0,0-.09.29v10.15a0.49,0.49,0,0,0,.09.29c0.07,0.1,1.8,2.53,6.13,2.53a9.33,9.33,0,0,0,3.33-.57V479C292.68,479.58,295.1,479.6,295.36,479Zm-2.89-14.63v7.92a5.5,5.5,0,0,1-6.66,0V464.4a5.08,5.08,0,0,1,3.31-1.12h0A5.07,5.07,0,0,1,292.47,464.4Z" transform="translate(-203.54 -360.71)"/>
      <path class="cls-1" d="M292.47,477.83a5,5,0,0,1-3.31,1.12,5,5,0,0,1-3.88-1.63,0.52,0.52,0,0,0-.34-0.17,0.49,0.49,0,0,0-.36.13l-1.49,1.3a0.49,0.49,0,0,0-.08.66c0.07,0.1,1.8,2.53,6.13,2.53s6.06-2.43,6.14-2.53a0.52,0.52,0,0,0,.09-0.28" transform="translate(-203.54 -360.71)"/>
    </g>
    <path class="cls-1" d="M320.57,463.21s0,0,0,0a0.54,0.54,0,0,0-.07-0.16c-0.07-.1-1.8-2.53-6.14-2.53s-6.06,2.43-6.13,2.53a0.44,0.44,0,0,0-.07.16,0.33,0.33,0,0,0,0,0,0.35,0.35,0,0,0,0,.08v10.15a0.34,0.34,0,0,0,0,.08,0.5,0.5,0,0,0,0,.05,0.48,0.48,0,0,0,.07.16c0.07,0.1,1.81,2.53,6.13,2.53s6.06-2.43,6.14-2.53a0.61,0.61,0,0,0,.07-0.16,0.51,0.51,0,0,1,0-.05,0.3,0.3,0,0,0,0-.08V463.29A0.31,0.31,0,0,0,320.57,463.21Zm-2.88,9.11-0.17.13-0.12.09-0.17.11-0.26.16-0.12.06a4.84,4.84,0,0,1-1,.39l-0.06,0a6,6,0,0,1-.59.11h-0.07a6.29,6.29,0,0,1-1.43,0h-0.07a5.59,5.59,0,0,1-.59-0.11l-0.06,0a4.78,4.78,0,0,1-1-.39l-0.13-.06-0.26-.16-0.17-.11-0.13-.09-0.17-.13V464.4l0.17-.13,0.13-.1,0.17-.11,0.26-.15,0.13-.07a4.93,4.93,0,0,1,1-.39l0.06,0a5.63,5.63,0,0,1,.59-0.1h0.07a5.75,5.75,0,0,1,1.43,0h0.07a6,6,0,0,1,.59.1l0.06,0a5,5,0,0,1,1,.39l0.12,0.07,0.26,0.15,0.17,0.11,0.12,0.1,0.17,0.13v7.92Z" transform="translate(-203.54 -360.71)"/>
    <path class="cls-1" d="M332.39,460.9v11.43l-0.17.13-0.12.09-0.17.11-0.26.16-0.13.06a4.85,4.85,0,0,1-1,.39l-0.06,0a5.79,5.79,0,0,1-.59.11h-0.07a6.32,6.32,0,0,1-1.44,0h-0.07a5.64,5.64,0,0,1-.59-0.11l-0.06,0a4.87,4.87,0,0,1-1-.39l-0.12-.06-0.26-.16-0.16-.11-0.13-.09-0.16-.13V460.9c-0.22-.55-2.64-0.57-2.9,0v12.54s0,0.05,0,.08a0.53,0.53,0,0,0,0,.05,0.55,0.55,0,0,0,.07.16c0.07,0.1,1.8,2.53,6.14,2.53s6.06-2.43,6.13-2.53a0.63,0.63,0,0,0,.07-0.16,0.33,0.33,0,0,0,0-.05,0.51,0.51,0,0,0,0-.08V460.9C335,460.33,332.6,460.35,332.39,460.9Z" transform="translate(-203.54 -360.71)"/>
    <path class="cls-1" d="M350,463.21a0.19,0.19,0,0,0,0,0,0.57,0.57,0,0,0-.07-0.16c-0.07-.1-1.81-2.53-6.14-2.53s-6.06,2.43-6.13,2.53a0.5,0.5,0,0,0-.07.16,0.2,0.2,0,0,0,0,0,0.69,0.69,0,0,0,0,.08v10.15a0.68,0.68,0,0,0,0,.08,0.26,0.26,0,0,0,0,.05,0.56,0.56,0,0,0,.07.16c0.07,0.1,1.8,2.53,6.13,2.53s6.06-2.43,6.14-2.53a0.64,0.64,0,0,0,.07-0.16,0.26,0.26,0,0,0,0-.05s0,0,0-.08V463.29S350,463.24,350,463.21Zm-2.88,9.11-0.17.13-0.13.09-0.16.11-0.26.16-0.13.06a4.7,4.7,0,0,1-1,.39l-0.06,0a5.86,5.86,0,0,1-.59.11h-0.08a6.25,6.25,0,0,1-1.43,0H343a5.74,5.74,0,0,1-.59-0.11l-0.06,0a4.78,4.78,0,0,1-1-.39l-0.12-.06-0.26-.16-0.16-.11-0.12-.09-0.17-.13V464.4l0.17-.13,0.13-.1,0.16-.11,0.26-.15,0.12-.07a4.93,4.93,0,0,1,1-.39l0.06,0a5.77,5.77,0,0,1,.59-0.1H343a5.71,5.71,0,0,1,1.43,0h0.08a5.9,5.9,0,0,1,.59.1l0.06,0a4.85,4.85,0,0,1,1,.39l0.13,0.07,0.26,0.15,0.16,0.11,0.13,0.1,0.17,0.13v7.92Z" transform="translate(-203.54 -360.71)"/>
    <path class="cls-1" d="M337.54,460.9v20.44c0.22,0.55,2.63.57,2.9,0V460.9C340.22,460.35,337.8,460.33,337.54,460.9Z" transform="translate(-203.54 -360.71)"/>
    <path class="cls-1" d="M306.08,460.7l0,0a11,11,0,0,0-5.54.35V460.9c-0.22-.55-2.63-0.57-2.9,0v14.94c0.27,0.57,2.68.55,2.9,0V464.39a5.46,5.46,0,0,1,4.69-1h0l0.13,0a0.47,0.47,0,0,0,.44-0.28c0-.05.66-1.78,0.66-1.78a0.49,0.49,0,0,0,0-.21A0.48,0.48,0,0,0,306.08,460.7Z" transform="translate(-203.54 -360.71)"/>
  </g>
</svg>
