<svg width="210" height="70px" id="Слой_1" data-name="Слой 1" xmlns="http://www.w3.org/2000/svg" viewBox="0 0 710.01 563.89">
  <defs>
    <style>
      .cls-1 {
        fill: #fff;
      }
    </style>
  </defs>
  <title>logo_pdg</title>
  <path class="cls-1" d="M799.43,239.71c2.4-.91,4.58.14,6.73,0.62-0.61,4.22.29,9.93-.61,13.86-2.1.16-4,.55-6.12,0.62-1.48-4.19-1.33-10.57,0-15.1m3.42-25.17a4.9,4.9,0,0,1,2.29-.13c3.07,0.9.63,12,.82,14.69a28,28,0,0,0-3.79.1c-0.89.06-1.77,0.13-2.74,0.12,0-4.73-1-11,.39-14.69a5.36,5.36,0,0,0,1.19.13,9.43,9.43,0,0,0,1.83-.22m-7.53-10.32c-1.8,0-4.81,1.93-5.47,3.87-1,2.79-.42,8.43-0.62,12.44-0.4,8.6-.17,17.75.21,25.91,0.22,4.54-.61,9.4.2,12.86,0.49,2.07,2.65,3.44,3.66,4.48,2.82,0.09,5.45,0,8.09-.08,2.29-.08,4.59-0.15,7-0.11,2.23-1.72,4.92-3,5.72-6.12,0.36-7.41,1.79-17.18-.41-23.46,2.16-5.94.8-15.37,1.62-22.66-1.52-2.18-3-5.26-6.52-6.11-1.8-.42-4.44-0.2-6.74-0.4s-4.84-.6-6.73-0.61h0" transform="translate(-158.38 -204.22)"/>
  <path class="cls-1" d="M575.44,239.51c-1.14-4.67,2.67-7.41,2.24-12.64,1.66,1.47,1.11,3.57,1.64,5.7,0.49,2,2.5,4.52,2.65,7.35a2.58,2.58,0,0,1-2,.7,12.6,12.6,0,0,1-4.5-1.11m-4.9-26.31c-1.25,5.55-2.66,12-3.27,17.14-0.16,1.4.12,2.91-.2,4.27-0.39,1.74-1.67,3.29-2,4.9-0.31,1.35-.1,2.8-0.41,4.08-0.82,3.49-2.74,6.56-2.65,10.2-1.07,1.74-2,4.29-1.43,6.52a5.21,5.21,0,0,0,5.3,3.47c1.49-.29,3.18-2.31,3.87-3.47,1.29-2.11.57-4.91,1.44-7.35,1.08-3,4.38-3.07,7.74-3.87,0.91,1,2.63,1.21,4.71,1,2.44,0.87,1.61,4.06,2.23,6.73,0.65,2.83,2.54,4.9,3.46,6.93a42,42,0,0,0,4.71-.19c0.86-1.82,3.08-3.12,3.05-5.51,0-1-1.53-2.6-1.83-4.48-0.49-3.09.35-4.91-1.41-5.93v-2c-1.74-1.41-1.11-4-1.83-6.32-0.28-.81-1-1.42-1.24-2.25-0.58-2.12.09-4.31-.61-6.52-0.2-.65-0.8-1.18-1-1.83-1.25-3.8-1-8-2.25-11-0.71-1.7-2.79-3.1-1.83-6.12-1.22-2.18-1.92-4.9-3.48-6.73a13.41,13.41,0,0,0-3.21-.19,12.84,12.84,0,0,1-3.32-.22c-3.11,2-3.5,4.44-4.48,8.78" transform="translate(-158.38 -204.22)"/>
  <path class="cls-1" d="M266.43,207.27c-2.36,2.92-1.42,7.86-1.42,12.87s-0.84,10.6-.82,16.31c0,9.15.8,18.39,0.82,25.1,1,0.65,1.27,2.65,2.85,3.05a11.56,11.56,0,0,0,2.65-.19c5-.21,12.26,0,16.73-0.43,1.26-1.38,3.11-2,2.85-4.48-0.6-5.86-10.85-3.28-16.12-3.26-1.17-2.39.06-4.81,0-7.54-0.07-3.52-2.27-6.7-.19-9,3.82-.73,9.36.26,11.62-2,0.09-1.57,1.2-2.47,1-3.88a5.54,5.54,0,0,0-2.65-3.26,12.68,12.68,0,0,0-4.89-.22,21.75,21.75,0,0,1-4.28,0c-2.81-3.42-1.49-10.76-1.44-16.33,2-.76,5.27-0.88,8.17-1.21,2.72-.32,6.13-0.33,5.5-4.08a1,1,0,0,0-1.21-.35,0.9,0.9,0,0,1-.84-0.07c-0.9-.61-0.47-2.06-1.83-2.45a12.25,12.25,0,0,0-3.8,0,20.7,20.7,0,0,1-3.15.16c-2.35-.18-4.18-0.63-5.73-0.63a4.52,4.52,0,0,0-3.85,1.85" transform="translate(-158.38 -204.22)"/>
  <path class="cls-1" d="M365,207.27c-2.38,2.92-1.42,7.86-1.43,12.87s-0.83,10.6-.83,16.31c0,9.15.82,18.39,0.83,25.1,1,0.65,1.27,2.65,2.85,3.05a11.66,11.66,0,0,0,2.66-.19c5-.21,12.26,0,16.72-0.43,1.27-1.38,3.12-2,2.86-4.48-0.61-5.86-10.85-3.28-16.11-3.26-1.19-2.4.06-4.81,0-7.54-0.07-3.5-2.27-6.7-.21-9,3.84-.73,9.38.26,11.63-2,0.11-1.57,1.2-2.47,1-3.88a5.57,5.57,0,0,0-2.66-3.26,12.65,12.65,0,0,0-4.88-.22,21.83,21.83,0,0,1-4.29,0c-2.8-3.42-1.49-10.76-1.43-16.33,2-.76,5.25-0.88,8.15-1.21,2.73-.32,6.15-0.33,5.52-4.08a1,1,0,0,0-1.21-.35,0.87,0.87,0,0,1-.83-0.07c-0.92-.61-0.48-2.06-1.83-2.45a12.36,12.36,0,0,0-3.81,0,20.44,20.44,0,0,1-3.12.16c-2.37-.18-4.2-0.63-5.75-0.63a4.5,4.5,0,0,0-3.84,1.85" transform="translate(-158.38 -204.22)"/>
  <path class="cls-1" d="M305.81,230.32c-0.79-4.79-.48-10.65-0.62-16.12a59.73,59.73,0,0,0,7.35.62,55,55,0,0,1-.61,14.68,15.58,15.58,0,0,1-4.59,1,5.56,5.56,0,0,1-1.53-.2m1.26-24.94a36.13,36.13,0,0,1-7.37.06c-3.49,1-2.8,4.26-3.07,8.56-1,15-.32,32.17-1,46.74,1.18,1.46,2.36,3.16,5.09,2.64,5-1,2.72-8.23,3.06-14.28,0.23-4.23.57-7.74,1.83-9.78,3.15-.13,5.94-0.61,9.19-0.62,1.82-1.28,3.94-2.31,5.71-3.68,2.49-6,.63-15.37,1-23.45-1.14-2.61-3.74-5.52-6.72-6.14a17.12,17.12,0,0,0-3.32-.29c-1.43,0-2.9.12-4.4,0.23" transform="translate(-158.38 -204.22)"/>
  <path class="cls-1" d="M633.38,206.87c-2.39,2.94-1.41,7.87-1.41,12.86s-0.84,10.62-.83,16.33c0,9.14.8,18.37,0.83,25.08,1,0.65,1.27,2.65,2.84,3.06a11.9,11.9,0,0,0,2.65-.2c5-.22,12.26,0,16.71-0.41,1.28-1.39,3.13-2,2.86-4.5-0.59-5.85-10.85-3.27-16.11-3.26-1.18-2.39.06-4.81,0-7.54-0.08-3.49-2.29-6.7-.2-9,3.81-.73,9.36.25,11.62-2,0.1-1.59,1.2-2.45,1-3.89a5.6,5.6,0,0,0-2.65-3.26,12.65,12.65,0,0,0-4.89-.22,20.64,20.64,0,0,1-4.29,0c-2.8-3.42-1.49-10.76-1.43-16.32,2-.77,5.27-0.9,8.15-1.22s6.16-.33,5.53-4.1a1,1,0,0,0-1.2-.34,0.88,0.88,0,0,1-.85-0.08c-0.91-.61-0.48-2-1.83-2.44a12.36,12.36,0,0,0-3.81.05,19.73,19.73,0,0,1-3.12.16c-2.35-.18-4.18-0.62-5.73-0.62a4.54,4.54,0,0,0-3.86,1.84" transform="translate(-158.38 -204.22)"/>
  <path class="cls-1" d="M203.81,205.65c-0.57.67-2.32,2-2.65,3.48-0.64,2.81,1,7.1.6,10.4-0.1.76-.65,1.6-0.82,2.42a59.28,59.28,0,0,0-.42,9c0,4.69.42,9.89,0.42,14.9,0,5.22-.56,11.86.41,15.09,0.48,1.59,2.68,4,4.28,3.89,2.82-.16,4.52-3.86,4.69-6.75,0.32-5.41-.84-13-0.41-18.15a41.85,41.85,0,0,1,5.71-2.24c1.13,1.09,3.28,1.64,3.68,3.47s-0.44,4.74-.62,7.54c-0.28,4.38,0,8.36,0,12.65,1.3,3.1,6.49,4,8.56,1,1.41-5,0-10.7-.41-16.74-0.12-2.17-.27-4.46-0.41-6.74s-0.67-4.79-.4-6.72c0.1-.76.69-1.5,0.81-2.25,0.84-5.29-1.1-11-.61-16.12,0.14-1.35.69-2.64,0.82-4.08-0.66-.89-1.18-1.94-1.84-2.85-1.23-.19-2.43-0.41-3.67-0.6-0.82.66-1.57,1.41-2.45,2-0.5,7.46-1,15-1.62,22.24a13.26,13.26,0,0,0-2.83.27c-2,.33-4,0.66-4.73-0.88,1.55-2.59-.76-7.14-0.62-11.44,0.06-1.47.83-2.93,0.83-4.28,0-4.59-1.35-8.59-5.56-8.59-0.24,0-.5,0-0.76,0" transform="translate(-158.38 -204.22)"/>
  <path class="cls-1" d="M330.28,205.65c-0.57.67-2.32,2-2.65,3.48-0.65,2.81,1,7.1.61,10.4-0.09.76-.65,1.6-0.82,2.42a58.86,58.86,0,0,0-.4,9c0,4.69.4,9.89,0.4,14.9,0,5.22-.57,11.86.42,15.09,0.47,1.59,2.68,4,4.28,3.89,2.81-.16,4.53-3.86,4.68-6.75,0.34-5.41-.81-13-0.39-18.15a41.84,41.84,0,0,1,5.71-2.24c1.13,1.09,3.28,1.64,3.67,3.47s-0.44,4.74-.61,7.54c-0.29,4.38,0,8.36,0,12.65,1.3,3.1,6.49,4,8.57,1,1.4-5-.05-10.7-0.41-16.74-0.13-2.17-.26-4.46-0.41-6.74s-0.68-4.79-.41-6.72c0.11-.76.69-1.5,0.82-2.25,0.84-5.29-1.11-11-.61-16.12,0.13-1.35.69-2.64,0.82-4.08-0.64-.89-1.18-1.94-1.83-2.85l-3.67-.6c-0.84.66-1.59,1.41-2.46,2-0.51,7.46-1,15-1.62,22.24a13.3,13.3,0,0,0-2.82.27c-2,.33-4,0.66-4.72-0.88,1.54-2.59-.76-7.14-0.62-11.44,0-1.47.82-2.93,0.82-4.28,0-4.59-1.35-8.59-5.56-8.59-0.24,0-.5,0-0.77,0" transform="translate(-158.38 -204.22)"/>
  <path class="cls-1" d="M705.79,238.9a0.57,0.57,0,0,1,.41-0.61,9.9,9.9,0,0,1,5.91,1,53,53,0,0,1,.62,14.49c-2.51.14-5,.35-7.34,0.61,0-5.32.05-10.56,0.4-15.51m-8.15-33.25a12.92,12.92,0,0,1-1.85,2.23c0.55,18.13.36,36.21,1.43,53.46,0.8,0.63,1.67,1.19,2.45,1.84h15.71c2.6-1.47,5.19-3,6.33-5.93-0.39-8.16,1.46-17.59-1-23.65-1.92-.88-3.4-2.82-5.9-3.48-2.69-.69-5.9-0.27-9.2-0.81-1-2.18-1.45-5.75-1.62-10-0.17-3.91.92-8.39,0.21-11a4.54,4.54,0,0,0-4.53-3,5.42,5.42,0,0,0-2,.37" transform="translate(-158.38 -204.22)"/>
  <path class="cls-1" d="M737,205.43c-3.52.63-8.9,6.1-9.58,10.21-0.3,1.91.09,4.13,0,6.33-0.22,5,0,10.3,0,15.5,0,7.61-1.49,16,1,21,0.67,1.33,4.29,4.67,5.71,5.11a16.07,16.07,0,0,0,6,.23,25.62,25.62,0,0,1,5.58,0c1.06-1.17,3.39-1.4,4.69-3,0.94-1.19,3.33-6.73,3.27-8-0.07-1.53-2.33-4.74-3.47-5.11-3.91-1.21-6.58,2-6.33,6.13-1.73,3.33-7.71,2.69-8.57-.62-0.3-1.18.13-3.16,0.2-4.9,0.23-4.85-.12-10.58.2-14.89,0.12-1.44.9-2.79,1-4.29,0.35-3.71-.48-7.36-0.21-10.79,0.92-3.59,6-3.53,8.36-1.24-0.22,5.36,6.75,6.87,8,2.45,1.14-4.13-.58-6.67-2-8.57a14.18,14.18,0,0,0-11.28-5.75,15,15,0,0,0-2.61.23" transform="translate(-158.38 -204.22)"/>
  <path class="cls-1" d="M479.76,210.54c-1.5,3.69.51,6.69,2.25,9.19,4.39,1.11,4.63-2.79,7.14-3.67a5.53,5.53,0,0,1,1.89-.19,8.58,8.58,0,0,0,2.39-.22c3.28,2.13,3.28,9.94,1.62,13.46-2.31,1.43-5,2.45-7.34,3.89-0.12,1.4-.48,3.55,0,4.89a6.8,6.8,0,0,0,2.64.21,13.43,13.43,0,0,1,1.63,0c-0.1.5-.77,0.43-0.6,1.23,1.37,1.48,4.13,1.9,4.9,4.28,1.48,4.6-.29,10.64-3.67,12.23-3.22-2.43-7.42-3.87-11.21-5.7-2.07,1.54-4.57,2.65-3.68,7.14,1.18,1.25,2.34,2.54,3.68,3.87,1.19,1.19,2.5,3.19,3.85,3.68a7.36,7.36,0,0,0,2.53.2c0.45,0,.91,0,1.35,0,2.05,0.11,4.21.61,5.71,0.43,2.32-.32,6.7-3.41,7.74-4.7a20.74,20.74,0,0,0,2.87-5.52c0.72-3.69-.45-8.11.2-12.44-1.61-2.4-3.32-4.69-4.9-7.14a11.64,11.64,0,0,0,4.7-9.18c0.22-3,.65-7.08.2-9.38-0.39-2.09-3.24-6.51-4.48-7.75-3.47-3.48-8.74-3.61-14.7-3.67-1.56,1.94-5.69,2.34-6.73,4.89" transform="translate(-158.38 -204.22)"/>
  <path class="cls-1" d="M527.91,258.48c0.24-4.32,2.7-9,2.86-13.66,0.07-2-1-4.34-1-6.53,0-3.76,2.42-7.4.41-10.2,1.57-4,1.54-9.6,4.68-12a5.69,5.69,0,0,1,1.53.12,5.53,5.53,0,0,0,1.75.08,26.93,26.93,0,0,1,1.64,8.56c0.3,10.7-1.81,23.16-.83,34.27-3.54-.33-7.21-0.52-11-0.61m16.33-52.83c-3.44.38-10.76,0.72-13.06,1.43-1.61.5-4.55,3.43-5.92,5.32-2.22,3.05-2.12,8-2.65,13.25-1.13,11.15-3.29,23.4-3.47,33.25h-2.85c-2.28,1.75-3.45,6-2.25,10a8.44,8.44,0,0,0,3.48.09,12.85,12.85,0,0,1,2.85-.09c1-.77,1.15-2.39,2.24-3,3.71,0,7.26.09,10.8,0.2s7.37,0.25,11.23.19c1.14,1,1,3,2.66,3.47a6,6,0,0,0,6.73-3c-0.66-1.4-.68-3.43-0.61-5.52-1.15-1.29-3.35-1.55-5.52-1.83-0.64-8.72,1.49-17.57.42-25.3-0.19-1.37-1.18-2.85-1.22-4.28-0.11-2.79,1.58-5.36,1.62-8.17,0-2-1-3.89-1-5.69-0.12-2.78.4-5.22-.4-8-1.14-.5-1.39-2.23-2.84-2.23h-0.22" transform="translate(-158.38 -204.22)"/>
  <path class="cls-1" d="M166.89,206.46a1.14,1.14,0,0,0-.63.61,76.56,76.56,0,0,0-2.64,14.69c-0.63,8.35,1.23,19.14.82,28-0.3,6.23-1.08,12,3.06,13.87h3.06a27.92,27.92,0,0,0,3.05-2.45c2.65-8.43,5.28-16.89,8.57-24.69,1.63,7.08,1.07,15.72,1,24.08,1,1.83,1.83,4.31,5.09,3.45,1-.24,3.41-2.84,3.66-4.28,0.59-3.16-.79-8.14-0.81-12.64-0.06-12.84.15-29.37-1.41-39.56-1.08-.84-3.21-0.23-4.49,0-1.14,2-3.49,3.81-4.28,6.12-0.31.89-.06,1.92-0.4,2.85s-1.2,1.78-1.64,2.65c-2.27,4.58-3.58,9.56-5.3,14.5-0.11-8.21-1.43-16.22-.8-24.48a4.89,4.89,0,0,0-4.69-2.74,9.92,9.92,0,0,0-1.24.08" transform="translate(-158.38 -204.22)"/>
  <path class="cls-1" d="M233,212.17c0.22,1.08,2.16,2.8,3.47,3.27,1.86,0.66,4.57-.16,5.5,1.83-0.27,9-.25,23.39.21,33.45,0.27,6-.61,13,2.86,14.7,3,1.46,4.29-.7,5.5-2.26,0.67-12.51-.22-25.73-0.41-38.35,0-3.11-.82-6.33.41-9.17,4.13,0.56,7.75-1.67,8-4.29,0.41-5.08-6.83-4.05-11.83-4.28-3.65-.17-7-0.45-9.59-0.61-2.16,1.22-4.67,2.76-4.07,5.71" transform="translate(-158.38 -204.22)"/>
  <path class="cls-1" d="M391.07,212.17c0.22,1.08,2.16,2.8,3.47,3.27,1.85,0.66,4.58-.16,5.5,1.83-0.27,9-.25,23.39.21,33.45,0.27,6-.61,13,2.86,14.7,3,1.46,4.29-.7,5.5-2.26,0.66-12.51-.22-25.73-0.41-38.35,0-3.11-.83-6.33.41-9.17,4.13,0.56,7.75-1.67,8-4.29,0.4-5.08-6.84-4.05-11.84-4.28-3.64-.17-7-0.45-9.58-0.61-2.17,1.22-4.67,2.76-4.07,5.71" transform="translate(-158.38 -204.22)"/>
  <path class="cls-1" d="M445.28,206.05a1.15,1.15,0,0,0-.6.62A73.64,73.64,0,0,0,442,221.36c-0.64,8.34,1.23,19.13.82,27.94-0.3,6.22-1.08,12,3.06,13.88H449a30.73,30.73,0,0,0,3-2.45c2.65-8.45,5.29-16.89,8.57-24.68,1.65,7.06,1.07,15.73,1,24.06,1,1.84,1.86,4.32,5.11,3.48,1-.25,3.41-2.85,3.67-4.28,0.58-3.17-.8-8.14-0.82-12.66-0.07-12.84.13-29.36-1.43-39.57-1.07-.81-3.21-0.22-4.49,0-1.14,2-3.48,3.82-4.28,6.12-0.3.88-.05,1.92-0.41,2.85a28.63,28.63,0,0,1-1.62,2.64c-2.28,4.58-3.59,9.56-5.32,14.5-0.11-8.2-1.41-16.22-.8-24.49a4.94,4.94,0,0,0-4.73-2.74,10.57,10.57,0,0,0-1.21.08" transform="translate(-158.38 -204.22)"/>
  <path class="cls-1" d="M599.92,211.77c0.23,1.09,2.17,2.8,3.47,3.27,1.87,0.65,4.58-.16,5.51,1.83-0.27,9-.25,23.37.22,33.45,0.25,6-.61,13,2.85,14.69,3,1.47,4.28-.69,5.5-2.25,0.66-12.5-.23-25.72-0.41-38.33,0-3.12-.82-6.34.41-9.19,4.13,0.56,7.76-1.67,8-4.28,0.4-5.11-6.83-4.06-11.84-4.28-3.66-.16-7-0.46-9.59-0.62-2.16,1.22-4.67,2.78-4.08,5.71" transform="translate(-158.38 -204.22)"/>
  <path class="cls-1" d="M757.82,211.77c0.2,1.09,2.14,2.8,3.46,3.27,1.85,0.65,4.56-.16,5.5,1.83-0.28,9-.25,23.37.2,33.45,0.26,6-.6,13,2.85,14.69,3,1.47,4.29-.69,5.51-2.25,0.66-12.5-.21-25.72-0.42-38.33,0-3.12-.81-6.34.42-9.19,4.13,0.56,7.75-1.67,8-4.28,0.4-5.11-6.84-4.06-11.84-4.28-3.65-.16-7-0.46-9.58-0.62-2.18,1.22-4.68,2.78-4.07,5.71" transform="translate(-158.38 -204.22)"/>
  <path class="cls-1" d="M832.26,254.61a3.61,3.61,0,0,0-1-1.64c0.58-4.28.43-9.48,0.41-14.68,0-4.59,1.26-9.25.82-13-0.13-1.06-1.14-2.1-1.23-3.07-0.19-2.25,1.1-6.14,2.24-7.14,3.13-.07,5.71.41,6.73,2.43,0.06,5.1-.21,10.81-0.21,16.54,0,8.35,1.4,18-2.64,22a32.14,32.14,0,0,1-5.11-1.44m1.44-47.94c-2.44.33-8.42,5.14-8.78,6.31-0.27.91,0.24,2.27,0,3.47-0.29,1.45-1.5,2.55-1.62,3.47a41.59,41.59,0,0,0,.4,10.42c0.45,3.1,2.44,6,2.25,8.77-0.08,1.18-1.14,2.58-1.43,4.07-0.35,1.87.07,4-.2,5.51-0.22,1.2-1.19,2-1.23,3.05a19.44,19.44,0,0,0,.61,2.67c1,4.54,4.65,8.71,8.78,9.78,4.92,1.29,10-.78,13.88-4.5,2.48-3.57,1.75-8.62,2-14.67,0.5-10.49-.29-21.44-0.39-31.22a13.91,13.91,0,0,0-12.28-7.26,15.62,15.62,0,0,0-2,.13" transform="translate(-158.38 -204.22)"/>
  <path class="cls-1" d="M671.73,207.49c-3.23,3.27-2.27,8.39-3.47,13.45-0.51,2.16-1.11,4.15-1.44,6.33-0.69,4.5-1.15,9.35-2.25,13.47-0.24,1-1,1.86-1.2,2.85-0.53,2.61,0,5.45-.62,8-0.46,1.84-2,3.32-2.23,5.09-0.27,2,.58,4.38.39,6.12,1.3,1,1.82,2.44,3.48,2.68,5.65,0.78,5.64-8.19,6.53-12.86,0.65-3.39,1.52-6.52,1.41-8.78,2.17-1.44,1.06-6.15,2.86-7.95,2.49,3.21,1.76,8.67,2.85,13.87,1,4.53,3.53,7.37,2.86,12.65,1.3,1.41,2.52,3.39,5.5,2.64,3.84-.94,2.85-6.25,2-10.4-1.3-6.84-3.17-14.47-3.67-20.61-3.06-5.34-2.1-18.51-5.08-24.27a4.5,4.5,0,0,0-4.5-2.6,24.18,24.18,0,0,0-3.47.36" transform="translate(-158.38 -204.22)"/>
  <path class="cls-1" d="M425.54,713.6c-0.27-2.05-1.88-3.91-.33-6.81,5.65-1.44,17.3,1.74,11,9.41-0.27,12.63,1.46,26.12-.32,37.34-1.27,1.44-4,1.38-6.78,1.31-0.9,0-1.8,0-2.63,0-3.57-11.55,1.06-26.31-1-41.22m-7.14-12c-1.15,12-1.32,27.08.33,39,0.39,1.22,3.19,0,3.25,1.62-5.6,2.44-4.38,13-3.25,19.8,9.11,0.17,22.62,2.3,24.66-5.2,0.75-2.69-.14-6.21,0-9.42,0.45-9.72-.71-20.17,1.31-27.6-2.13-5.89.22-19-7.8-20.11a35.49,35.49,0,0,1-7.57-.07c-1.58-.13-3.12-0.25-4.55-0.25-2.74,0-5.07.46-6.38,2.26" transform="translate(-158.38 -204.22)"/>
  <path class="cls-1" d="M330.11,738.92c-1.81-3.44.25-4.78,1.31-8.12s0.27-6.49,1.94-7.79a12.52,12.52,0,0,1,2.27,7.47,24.19,24.19,0,0,1,2.92,8.77,4.33,4.33,0,0,1-3,1,14.21,14.21,0,0,1-5.41-1.29m-5.51-23.06c-0.8,4.23-2,9-2.26,12.66-0.42,4.94-1.79,6.89-2.6,10.4-1.21,5.16-1.65,10.57-3.24,15.27-0.69,2-2.14,4.22-1.64,7.13,1.31,1.29,2,3.24,4.88,2.92,6.81-.91,2.9-12.34,9.09-14.92,3.89-1.64,6.08-.1,11.36,0,3.41,3.49,2.57,11.27,5.84,14.92h4.87c1-1.77,2.3-3.31,2.92-5.52a13.07,13.07,0,0,1-2-8.75c-5.81-10.86-5.51-27.83-11.35-38.64,0.37-5.12-1.81-7.71-3.58-10.72-0.62,0-1.26,0-1.9,0a17.57,17.57,0,0,1-4.59-.31c-4.12,3-4.51,8.5-5.85,15.55" transform="translate(-158.38 -204.22)"/>
  <path class="cls-1" d="M168.81,728.52c-1.31-5.08-1.24-13.26-.67-19.15,3.17,0.09,5.86.66,9.1,0.65a63.47,63.47,0,0,1-.66,17.21,13.14,13.14,0,0,1-6.1,1.37c-0.53,0-1.09,0-1.67-.08m1.93-27.59c-5.21,0-8.9-.44-10.71,1.62-0.77,14.69-.79,32.25-1.29,46.75-0.16,4.91-1.32,10.36,1.62,14,3.4,1,4.5-.78,6.17-2.28,0-8.42-1.25-18.12,1.94-24,6.84,0,12.59-1,16.22-4.22,2.43-6.79,1-17.63,1-26-1.15-1.63-2.94-5-6.83-5.85a12,12,0,0,0-2.28-.18c-1.74,0-3.84.18-5.83,0.18" transform="translate(-158.38 -204.22)"/>
  <path class="cls-1" d="M466.11,700.94c-6.58,1.45-4.11,12-4.53,21.41-0.6,13-.43,26.52,0,39.3,1,1.08,1.52,2.58,2.92,3.24,6.73-.51,14.28-0.2,21.09-0.65,1-1.54,2.6-2,2.6-3.9,0-4.45-5.49-4.06-10.67-3.66-2.95.22-5.81,0.44-7.52-.23,1.12-7.05-2.17-13.58.33-19.16,4.42-.34,9.61.08,12.65-1.61,0.13-1.62.91-2.56,1-4.22-0.69-1.06-1.52-2-2.28-2.94-1.15,0-2.39,0-3.62,0-3,.08-6,0.15-7.74-1-2.08-4.49-1.39-13-.65-18.49,4.26-2.12,13.34.56,14.93-4.22-1.75-.61-2.72-2-3.89-3.24a20.52,20.52,0,0,1-8.14-.28,25.24,25.24,0,0,0-4.49-.58,9.64,9.64,0,0,0-2,.2" transform="translate(-158.38 -204.22)"/>
  <path class="cls-1" d="M502.79,712.95c-0.6,3.69-.14,9,0.33,12.32,1.16,8.27,8.45,11.13,16.87,11.7,4.21,4.47,4.81,19.59-3.89,19.48a27.47,27.47,0,0,1-4.54-2.92c0.87-5.27-4.73-8.37-7.8-4.86v7.46c3.34,6.6,13.5,10.55,21.74,5.85,2.39-2.91,4-6.63,3.26-12.66-3.16-3.43-.56-10.26-2.28-14.61-1-2.53-3.58-3.06-4.87-4.89-4-.61-7.42-1.85-9.41-4.55a25,25,0,0,1,1.3-14.59c2-.43,4-0.76,5.83-1.3,2.06,2,3.16,4.86,5.86,6.17,2.41-.94.65-4.68,2.59-6.49-0.66-2.58-2.33-4.15-3.57-6.17a15.59,15.59,0,0,0-7-1.71c-7.07,0-13.29,5-14.4,11.77" transform="translate(-158.38 -204.22)"/>
  <path class="cls-1" d="M585.3,701a13.65,13.65,0,0,0-12.72,9.34c-2.55,8.19-.24,18,0,26.62,0.28,9.72-2.48,17.92,1.95,22.73,3.39,3.69,7.84,6.73,15.91,5.52,9.58-3.95,8.19-18.85,8.11-32.47-1.4-4.07-11-4.28-14.29-1.62-0.12,2.39-.54,4,0.67,5.52,2,0.75,5,1.28,5.84,4.23a34.65,34.65,0,0,1,.31,11.35c-0.9,3.7-5.46,4.29-7.47,5.83-3.91-2.28-4.85-8.51-4.21-14.92,0.13-1.24.92-2.38,1-3.57,0.16-3-1.09-6.09-1-9.09,0.23-5.69,1.44-11.08.32-16.56,1.67-1.34,1.75-3.66,3.59-4.19,5.67-1.71,6.75,6,11.36,6.14,1.84-1.35,3.33-1.82,3.57-4.22,0.36-3.62-3.71-6.89-4.87-7.78a13.06,13.06,0,0,0-8-2.85h0" transform="translate(-158.38 -204.22)"/>
  <path class="cls-1" d="M685.61,701a13.66,13.66,0,0,0-12.74,9.34c-2.56,8.19-.24,18,0,26.62,0.27,9.72-2.48,17.92,2,22.73,3.38,3.69,7.84,6.73,15.91,5.52,9.56-3.95,8.16-18.85,8.1-32.47-1.4-4.07-11-4.28-14.28-1.62-0.13,2.39-.56,4,0.65,5.52,2,0.75,5,1.28,5.84,4.23a35.28,35.28,0,0,1,.34,11.35c-0.9,3.7-5.48,4.29-7.47,5.83-3.91-2.28-4.85-8.51-4.22-14.92,0.12-1.24.92-2.38,1-3.57,0.14-3-1.09-6.09-1-9.09,0.22-5.69,1.44-11.08.32-16.56,1.66-1.34,1.75-3.66,3.58-4.19,5.67-1.71,6.76,6,11.35,6.14,1.83-1.35,3.34-1.82,3.57-4.22,0.35-3.62-3.71-6.89-4.86-7.78a13,13,0,0,0-8-2.85h0" transform="translate(-158.38 -204.22)"/>
  <path class="cls-1" d="M851.08,728.52c-1.3-5.08-1.2-13.26-.65-19.15,3.16,0.09,5.83.66,9.08,0.65a63.37,63.37,0,0,1-.65,17.21,13.18,13.18,0,0,1-6.1,1.37c-0.54,0-1.1,0-1.68-.08m2-27.59c-5.21,0-8.91-.44-10.72,1.62-0.76,14.69-.8,32.25-1.29,46.75-0.17,4.91-1.34,10.36,1.62,14,3.4,1,4.5-.78,6.16-2.28,0-8.42-1.24-18.12,2-24,6.84,0,12.58-1,16.24-4.22,2.4-6.79,1-17.63,1-26-1.13-1.63-3-5-6.83-5.85a11.92,11.92,0,0,0-2.28-.18c-1.74,0-3.84.18-5.82,0.18" transform="translate(-158.38 -204.22)"/>
  <path class="cls-1" d="M546.95,711.64c-0.51,11.11-1.57,24-1,36.69,0.22,4.81.52,9.53,0.34,14,1.44,1.7,3.92,2.34,7.47,2,1.88-7.21,0-18.84,0-28.23,0-5.21,1.13-9.26-2-11,0.82-.8.92-2.32,1.64-3.26-0.25-.7-2.94-1.75-2.92-2.92,0-.48,2.59-2.89,2.92-4.22,1-3.93,0-7.84-.32-12a6.55,6.55,0,0,0-2.81-.81c-3.47,0-3.16,5.39-3.36,9.89" transform="translate(-158.38 -204.22)"/>
  <path class="cls-1" d="M252.54,709.72H260c2.85,3.26,2.77,14.71.66,18.8-2.33,1-6.08.65-8.77,1.29-0.37-7.29,1-12.88.65-20.1m-8.12-4.89c-1.17,16-.65,30.22-0.65,47.07,0,5.38-.84,12.39,2.59,13.31,7.46,2,5.19-13.07,4.87-20.45-0.18-3.94-.91-7.57,2.27-7.8,4.89-.34,5.08,9.8,6.19,14,1,4,1.92,13.87,5.19,14.93,2.3,0.76,6-1.81,6.16-4.86,0.08-1.38-1.19-3-1.63-4.54-0.63-2.3-1.13-6-1.95-9.41-0.75-3.29-2.52-7-2.27-9.09s3.61-4.06,4.22-6.82c0.53-2.33-.18-5.56-0.32-8.43-0.33-7.17.22-12.19-1.95-16.88-2.6-2.37-7.74-3.69-12.67-3.69-4,0-7.8.86-10,2.71" transform="translate(-158.38 -204.22)"/>
  <path class="cls-1" d="M723.84,709.72h7.46c2.84,3.26,2.77,14.71.64,18.8-2.31,1-6.06.65-8.75,1.29-0.39-7.29,1-12.88.65-20.1m-8.12-4.89c-1.17,16-.65,30.22-0.65,47.07,0,5.38-.83,12.39,2.61,13.31,7.46,2,5.19-13.07,4.85-20.45-0.15-3.94-.9-7.57,2.29-7.8,4.88-.34,5.07,9.8,6.17,14,1,4,1.93,13.87,5.18,14.93,2.3,0.76,6-1.81,6.16-4.86,0.08-1.38-1.2-3-1.62-4.54-0.63-2.3-1.14-6-1.93-9.41-0.76-3.29-2.53-7-2.29-9.09s3.61-4.06,4.22-6.82c0.54-2.33-.2-5.56-0.32-8.43-0.33-7.17.22-12.19-1.93-16.88-2.61-2.37-7.75-3.69-12.68-3.69-4,0-7.81.86-10.06,2.71" transform="translate(-158.38 -204.22)"/>
  <path class="cls-1" d="M281.1,707.43c0.73,4.15,7.71,2.33,9.74,5.52-0.31,16.87.67,32.46,0.65,49,0.54,4,6,5.86,7.79,1.62,0.18-15.2-.14-31.86-0.64-46.42-0.07-2-.88-4.33.64-6.17,4.17-.2,8.53-0.84,8.77-4.22,0.3-4.32-7.52-4.25-14.54-4.18a44.52,44.52,0,0,1-8.51-.37c-2.12,1.23-4.34,2.68-3.9,5.2" transform="translate(-158.38 -204.22)"/>
  <path class="cls-1" d="M633.94,703.21c-0.62,0-.24,1.09-1,1,0.11,10.08-.65,19.27-1.3,28.57-2.93-3.57-3.76-10.84-6.49-16.55-0.63-1.33-1.81-2.29-2.27-3.57-1.71-4.7-3.51-11.72-9.42-9.41-1.23,18.45-.16,39.23-2,57.13,1.28,3.65,7.11,5.64,8.45.66a161.71,161.71,0,0,1,.33-19.47c0.18-2.81-.65-6.18,1.62-7.8,4.27,8.39,6.8,18.53,10.05,27.93,1.51,0.87,2.23,2.58,4.88,2.25,3.94-.46,4.08-5.46,3.9-9.4-0.8-16.49,3-40-2.28-52.27a11,11,0,0,1-1.6,0l-0.92,0c-1,0-1.85.15-2,1" transform="translate(-158.38 -204.22)"/>
  <path class="cls-1" d="M208.72,754.18c-0.87-1.93.17-6.3,0.31-9.74,0.15-3.09-.12-7.06,0-10.72,0.15-3.92,1-8,.65-10.71-0.16-1.35-1.19-2.55-1.3-3.57-0.33-3.54,1.38-7.89,2.92-8.77,4.19-.29,7,0.81,8.44,3.24-1.48,10.68,1,26.23-.32,36.69a9.57,9.57,0,0,1-3.57,6.83c-1.83-1-5.88-.49-7.13-3.24m2.92-51.3c-3.13.58-8.3,4.38-9.09,6.83-0.33,1,.27,2.46,0,3.88s-1.51,2.85-1.63,3.9a45,45,0,0,0,.34,10c0.48,3.69,2.81,6.91,2.58,10.4-0.1,1.67-1.34,3.23-1.61,4.87-0.32,1.83,0,4-.32,5.84-0.27,1.32-1,2.54-1,3.57-0.25,12.42,16,17.52,24,7.8,1-2,2.08-3.55,2.28-5.84,1.16-12.92-.58-30.16-0.32-43.84a14.59,14.59,0,0,0-12.78-7.69,14.07,14.07,0,0,0-2.48.23" transform="translate(-158.38 -204.22)"/>
  <path class="cls-1" d="M364.85,703.87c-2,19.65-.82,40.57-0.66,61.35,2.86,2.76,8.57,2.67,14.29,2.6a57.57,57.57,0,0,1,8.77.31c0.92-1,3.21-.65,3.57-2.27a6.19,6.19,0,0,0-.33-5.52c-2.17-1.38-5.78-1.34-9.39-1.3-3.28,0-6.57.07-8.77-1,0.62-3.71,0-7.39-.33-10.7-0.61-5.25.4-12,.64-18.18,0.27-6.49.41-13,.66-18.5,0.1-2.48,1.3-5.53-1-7.47a9.48,9.48,0,0,0-3.64-.67c-1.61,0-3.17.38-3.83,1.33" transform="translate(-158.38 -204.22)"/>
  <path class="cls-1" d="M764.41,754.18c-0.88-1.93.18-6.3,0.34-9.74,0.14-3.09-.14-7.06,0-10.72,0.14-3.92.94-8,.65-10.71-0.15-1.35-1.21-2.55-1.3-3.57-0.33-3.54,1.36-7.89,2.92-8.77,4.17-.29,7,0.81,8.45,3.24-1.49,10.68,1,26.23-.33,36.69a9.67,9.67,0,0,1-3.57,6.83c-1.86-1-5.88-.49-7.15-3.24m2.94-51.3c-3.12.58-8.31,4.38-9.1,6.83-0.33,1,.28,2.46,0,3.88s-1.49,2.85-1.63,3.9a46.3,46.3,0,0,0,.34,10c0.48,3.69,2.81,6.91,2.61,10.4-0.13,1.67-1.37,3.23-1.64,4.87-0.32,1.83,0,4-.32,5.84-0.26,1.32-1,2.54-1,3.57-0.25,12.42,16,17.52,24,7.8,1-2,2.06-3.55,2.27-5.84,1.16-12.92-.59-30.16-0.34-43.84a14.58,14.58,0,0,0-12.77-7.69,13.86,13.86,0,0,0-2.46.23" transform="translate(-158.38 -204.22)"/>
  <path class="cls-1" d="M817.65,703.87c-1.17,8.11-.38,17.7-0.33,26.93s1.68,18.69-1.94,25.32a25.24,25.24,0,0,0-6.17.65c-3.5-2.55-1.32-10.81-3.56-14.61,2.54-2.67-.34-7-0.34-11,0-2,.85-4.12,1-6.16,0.42-6.32-.35-12.77-0.33-19.15a4.44,4.44,0,0,0-7.45-1.64c-2.25,16.14-.3,35.54-0.33,52.6,2.85,6.11,8,9.9,18.17,8.76,5.93-2.74,10.08-8.49,9.73-16.54-0.12-2.81-1.79-5.6-1.62-8.77,0.09-1.6,1.09-3.18,1.3-4.87,1.17-9.58-.88-20.86,0-30.84a5.86,5.86,0,0,0-4.42-1.82,6.14,6.14,0,0,0-3.69,1.17" transform="translate(-158.38 -204.22)"/>
  <path class="cls-1" d="M477.93,590.1c-1.14-2.11-2.94-4-3.38-6.4-1.21-6.72-.33-14.76-0.33-21.9,0-7.32-1.38-14.91-.33-21.59,0.5-3.21,2.45-6.84,3.71-10.45,1.1-3.2,2.91-7.06,3.35-10.43,0.61-4.51-.25-10.12-0.33-15.51-0.22-14.91-1-30.58-1.69-45.17-0.71-14.95-.28-30.27-1-45.85-0.23-4.89.3-10.79-.68-14.85-0.94-3.86-5.47-4.58-7.07-8.42a15.66,15.66,0,0,0,2.7-10.11c1.55-1.6,5.41-2.67,7.07-3,6.15,1.23,12.28,1.55,18.2,2.36,1.55,0.22,3.15,1.09,4.71,1.34a16.73,16.73,0,0,0,2.82.15,14.45,14.45,0,0,1,2.92.19c3.4,0.71,6.9,2.06,10.45,3,4.81,1.3,11.83,3.45,17.19,4.71,5.67,3.79,11.28,7.62,16.86,11.47-0.63,2.87.75,5.28,0.34,7.42-0.5,2.58-3.86,5.58-5.74,7.75-2.17,2.51-4.63,4.6-6.06,7.07,1.69,33.28.85,69.32,3.37,103.15,0.45,6,.33,12.12.33,18.22s0.78,12.1.33,17.86c-0.62,7.84-3.84,16.14-4.38,24.26-4.08,1.43-8.48,5.2-13.49,6.39-3.63.87-7.91,0.45-12.14,1-10.87,1.45-23.61,2.7-34,3.7-2.07-1.76-2.55-4.24-3.71-6.41M430.4,334.25c-2.73,1.14-5.3,3.82-8.09,5.73-3.06,2.09-6.65,3.63-7.75,6.41s-1.51,9.3-2,14.17c-1.19,10.89-2.41,19.23-3.37,29.66-0.5,5.38-1.61,10.63-1.69,14.84-0.15,9.1.54,19.94,1,30.66,1.16,27,1.67,50.78,2.35,75.51,0.15,5.25-.72,11,0.33,14.83,0.85,3.1,3.85,5.89,6.07,9.1,2.06,3,4.46,8.36,6.41,9.1,1.43,0.55,3.69.24,5.84-.07a15.14,15.14,0,0,1,4.61-.27c-4.16,4.33-13,5.93-16.51,10.45-1.61,2.08-2.2,5.11-3.73,8.09-1.29,2.52-3.65,5-4,7.75-0.65,4.63.82,10.58,1,16.18,0.61,16.27.84,33.36,1.69,49.56a59.72,59.72,0,0,0,5.38,4.71c1.79,1.39,4,3.92,5.74,4.39,4.26,1.14,11.37.33,17.52,0.33,19.2,0,33.8,1,52.93,1,10.23,0,21.53,1.35,30.33,0,2-.31,4.14-1.2,6.07-1.69,14.69-3.8,30.13-8.18,44.16-11.81,7.78-7.52,15-14,22.93-21.56,2.29-2.2,6.89-5,7.76-7.42,1.23-3.55.33-10.92,0.33-16.18,0-5.81.5-11.75,0.67-16.17,1.12-28.06.29-53.73-1-80.91-0.29-5.69-1.23-11.67-.69-16.18,0.48-3.94,2.65-8.69,4-12.82s4.1-9.27,4-13.14c0-2.56-1.74-5.72-2.69-8.42s-2.66-5.54-3-8.45c-0.94-7.32-.38-15.07-0.67-22.24-0.31-7.6.67-15.34-.33-22.58-0.52-3.67-3.24-8.21-5.07-12.47-1.67-3.86-2.86-8.56-4.71-11.46-1.52-2.38-6-5.57-9.11-8.08s-6.8-6.36-9.78-7.77c-5-2.35-11.8-3.28-17.53-5.06a104,104,0,0,0-18.54-4.38c-12.88-1.54-26.67-4.09-40.45-5.06-9.59-.68-18.6-0.68-28.65-0.68-7.41,0-15.07-.62-22.32-0.62-7.09,0-13.79.6-19.47,3" transform="translate(-158.38 -204.22)"/>
  <path class="cls-1" d="M732.76,340c-3.78.6-7.86,0.5-11.46,1.34-2.61.61-6.42,2.8-9.77,4.39-7.27,3.44-12.59,6-19.21,9.11-3.53,1.65-7.66,2.59-10.11,4.36-2.14,1.57-4.1,4.61-6.08,6.75-6.41,7-13,13.6-18.86,20.57-2.61,15.13-5.86,32.58-8.09,48.2-0.8,5.54-2.56,11.07-2.71,16.18s1.69,11.1,2.71,16.86c2,11.7,3.46,22.9,5.38,34.37,1,5.65,2.59,11.75,2.71,17.2,0.11,5.23-1,10.78-1.36,16.5-1.12,16.57-2.4,35.15-3.71,50.91-0.27,3.24-1.48,6.59-1,9.77,0.52,3.55,3.32,8.23,5.05,12.47,1.51,3.74,3.27,9.43,5.39,12.15,2.94,3.74,8.43,5.15,10.79,8.77,3.86,2.76,8.1,5.15,11.12,8.75,15.08,6.61,29,14.37,43.48,21.58,23.57-.34,44.76-1,68.45-1.34,12.17-7.27,25.2-13.67,37.74-20.58,6.16-10.68,11.35-22.35,17.53-33,5.27-17.71,4.37-41.16,4.37-63.72,0-15.92.69-31.72,0.69-47.2-6.15-5.2-15.46-9.66-23.26-14.17-2.85-1.63-5.32-4.2-7.75-4.7-4.54-1-10.49-.44-16.39.07-3.54.3-7.06,0.6-10.25,0.6-4.5,0-11.8-.56-15.49.35-8.43,2.06-17.8,7.51-24.28,10.1,2.44,8.68-4.3,13.34-4,18.21,0.14,2.95,3.58,7,5.05,9.77,1.8,3.42,3.47,6.46,5.39,9.45,8.3,2.11,18.2.12,23.59,3,5.13,2.77,10.25,7.09,14.85,10.12,0.44,14.76,1.49,35.84,2,51.57a449.24,449.24,0,0,1-61,23.26c-7.42-2.36-11.05-5.9-16.18-10.79-2.51-2.38-6.47-5.2-7.08-7.74s0.11-5.25,0-7.76c-0.52-12.66-.85-26.33-1.69-38.43,1.11-4.15,6.82-8.77,7.09-12.82,0.2-3.07-1.7-7.38-2.37-11.12-1.48-8.48-2.55-15.17-4-23.26-0.67-3.72-2.47-8.3-2.37-11.46,0.07-1.5,1.12-3.76,1.69-5.73s1.16-4.18,1.69-6.07c1.12-4,3.13-8.41,3.38-12.13,0.35-5.37-.57-11.1-0.68-16.53-0.24-12.33-1.55-24.67-1.69-38.41,5.22-5.46,11.16-10.2,16.52-15.5,5.22,0.09,9.59,0,14-.16,3.48-.09,7-0.19,11-0.19,5.11,3.71,11.6,5.36,16.85,8.77,2.89,1.87,4.93,5,7.09,7.42,2.32,2.62,5.15,4.42,6.4,7.08,2.32,1.11,5,.76,8.77,1.34,1.12,0.18,2.42,1.11,3.7,1.35A13,13,0,0,0,809,420a10.76,10.76,0,0,1,2.68.18c1.08,0.27,2,1.14,3,1.35,4.11,0.82,8.35,1.1,12.46,1.68,1.67-1.32,3.16-2.28,4.71-3.37,1.81-1.24,3.31-1.82,5.06-3,1-.72,1.6-2,2.7-2.7s2.53-.88,3.7-1.69c1-.67,1.61-1.88,2.7-2.69,2.18-1.66,5.47-2.93,6.08-5.06,1.7-6.09-1.28-13.3,0-20.9-7.92-7.24-16.86-15.41-25.3-22.58-2.83-2.43-5.81-5.81-8.76-7.43-4-2.15-10.09-3.55-15.17-5.39s-10.22-4.26-15.51-5.38c-2.75-.6-5.7-0.36-8.78-0.68-10.09-1-21.43-3.33-31.34-4-0.63,0-1.25-.07-1.86-0.07-4.47,0-8.62,1.12-12.65,1.75" transform="translate(-158.38 -204.22)"/>
  <path class="cls-1" d="M241.28,495c-1.35-32.61-1.85-67.71-3-102.13a1,1,0,0,1,.68-1c19.32,1.51,37.85,2,55.62,3.37,0.36,14.12,2.48,30.34,1.35,45.85-0.48,6.39-1.19,12.92-1.69,19.22-1,11.67-1.19,22.37-4.39,31.68-5.81.71-12.43,4.13-19.21,5.06-4.89.67-11,0-16.18,0-2.07,0-4.23.19-6.24,0.19-2.85,0-5.39-.38-6.91-2.22m44.5-155.4h-93c-6.58,3.65-14.55,5.89-20.56,10.1-1.79,10.15-2.67,20.94-3.71,32-1,10.87-2.6,22.12-3,33-0.7,17.51,1.67,36.22,1.67,54.61,0,9.2-.7,18.82-1.34,28s-1,18.31-1.34,27.3c-1.32,31.18-5.55,63.58-3.71,96.06,0.29,5.07-.67,11.07.33,14.5,0.71,2.42,5.42,5.49,7.43,7.42,2.6,2.51,5.09,4.43,7.75,6.74,9.57,1.34,19.93,1.87,29.66,3,7.69-6.12,16.66-11,23.93-17.54,0-15-1.36-31.51-1.68-46.17-0.11-5.19-.84-10.88-0.34-15.17,0.29-2.37,1.92-5.42,3-8.09,2.84-6.86,5-12.11,9.77-15.85,11.65,0.2,23.48-.58,35.3-1.35,12-.79,24-1.58,35.82-1.35,15.22-6.24,30.68-12.25,45.52-18.87,3.39-6.59,6.44-14.26,9.78-21.23,1.15-2.44,3-4.92,3.36-7.09,0.59-4-.31-9.35-0.35-14.49-0.15-26.89-.78-53.87-2-79.89-0.23-5-.33-10.7-0.33-16.18,0-5.32.72-12.13-.34-16.18-0.4-1.51-2.81-3.29-4-4.73-3.9-4.59-7.88-11.58-12.13-14.5-2-1.3-5.48-2.47-8.44-3.7-6-2.51-11.5-4.78-17.18-7.07-3.12-1.28-6.6-3-9.1-3.38a63.8,63.8,0,0,0-9.75-.64c-6.76,0-14,.64-20.93.64" transform="translate(-158.38 -204.22)"/>
</svg>
