<svg width="210" height="70px" id="Layer_1" data-name="Layer 1" xmlns="http://www.w3.org/2000/svg" viewBox="0 0 78.34 41.75">
  <defs>
    <style>
      .cls-1 {
        fill: #fff;
        fill-rule: evenodd;
      }
    </style>
  </defs>
  <title>logo_ladoga</title>
  <path class="cls-1" d="M99.51,55.82h0c5.81,0.72,10.24,4.15,10.24,8.26,0,2.38-1.49,4.54-3.88,6.07l0,0a36.47,36.47,0,0,1-6.33-14.28M93.85,72.16h0a8.17,8.17,0,0,1-.92-3.38,10.58,10.58,0,0,1,1.44-6c0.93-1.72,1.43-2.21,1.68-2.94,0.44,4.59,1,8.18,3.8,12.4a14.37,14.37,0,0,1-2.59.2A19,19,0,0,1,93.85,72.16Zm0.48-16.24h0a1.86,1.86,0,0,1,1,1.77,6.19,6.19,0,0,1-1.11,2.52c-0.74,1.1-1.57,2-2.67,3.49a11,11,0,0,0-2.36,5.2,10.73,10.73,0,0,0,0,1.57c-2.69-1.54-4.4-3.83-4.4-6.38C84.76,60.13,88.85,56.81,94.33,55.92ZM83.87,64.15h0c0,5.11,6,9.26,13.42,9.26s13.42-4.15,13.42-9.26-6-9.26-13.42-9.26S83.87,59,83.87,64.15Zm-1.69,0c0,5.94,6.75,10.76,15.07,10.76s15.07-4.82,15.07-10.76S105.58,53.4,97.26,53.4,82.18,58.21,82.18,64.15Z" transform="translate(-58.09 -53.4)"/>
  <polygon class="cls-1" points="58.29 39.24 58.29 27.19 65.34 27.19 65.34 29.36 60.52 29.36 60.52 39.24 58.29 39.24"/>
  <path class="cls-1" d="M96.07,92.64H88.26v2.51H86.15V90.48h1.29l3.86-9.89H93l3.86,9.89h1.29v4.67H96.07V92.64Zm-6.28-2.16h4.76l-2.37-6.73Z" transform="translate(-58.09 -53.4)"/>
  <polygon class="cls-1" points="5.19 30.56 5.14 30.73 2.47 39.24 0 39.24 4.48 27.19 6.23 27.19 10.76 39.24 8.12 39.24 5.19 30.56"/>
  <path class="cls-1" d="M71.61,92.64l5-12.05h1.75l5.07,12.05H81l-1.3-3.1H75.41l-1.34,3.1H71.61Zm4.38-5h2.94l-1.46-3.91-0.05.15Z" transform="translate(-58.09 -53.4)"/>
  <path class="cls-1" d="M124.6,92.64l5-12.05h1.75l5.07,12.05H134l-1.3-3.1h-4.28l-1.34,3.1H124.6Zm4.38-5h2.94l-1.46-3.91-0.05.15Z" transform="translate(-58.09 -53.4)"/>
  <path class="cls-1" d="M106.51,80.34l0.44,0,0.44,0,0.39,0,0.44,0.1,0.39,0.1L109,80.83,109.4,81l0.34,0.2,0.34,0.2,0.34,0.25,0.34,0.25,0.29,0.29,0.29,0.29,0.25,0.29,0.25,0.34,0.2,0.34,0.2,0.39,0.2,0.34,0.15,0.39,0.1,0.39,0.1,0.39,0,0.44,0,0.39v0.83l0,0.44,0,0.39-0.1.39-0.1.39-0.15.39-0.2.34-0.2.39-0.2.34-0.25.34-0.25.29-0.29.29-0.29.29-0.29.25-0.34.25-0.34.2-0.39.2-0.39.2-0.34.15-0.39.1-0.39.1-0.44,0-0.39,0-0.39,0-0.44,0-0.39,0-0.44,0-0.39-.1-0.39-.1-0.34-.15-0.39-.2-0.39-.2-0.34-.2-0.34-.25-0.29-.25-0.29-.29-0.29-.29-0.25-.29-0.25-.34-0.2-.34-0.2-.39-0.2-.34-0.15-.39-0.1-.39-0.1-.39,0-.39,0-.44V86.23l0-.39,0-.39,0.1-.39,0.1-.39,0.15-.39,0.2-.39,0.2-.34,0.2-.34,0.25-.34,0.25-.34,0.29-.29,0.29-.25,0.29-.29,0.34-.25,0.34-.2,0.34-.2,0.34-.2,0.39-.15,0.39-.1,0.39-.1,0.39,0,0.39,0Zm0.2,2.21h-0.54l-0.54.1-0.49.2-0.49.2-0.44.34-0.39.34-0.34.39-0.34.44-0.2.44-0.2.54-0.1.54,0,0.54,0,0.54,0.1,0.54,0.2,0.49,0.25,0.49,0.29,0.44,0.34,0.39,0.39,0.39,0.44,0.29,0.44,0.25,0.49,0.2,0.54,0.1h1l0.54-.1,0.49-.2,0.49-.25,0.44-.29,0.39-.39,0.34-.39,0.29-.44,0.25-.49,0.15-.49,0.1-.54,0-.54,0-.54-0.1-.54-0.15-.49-0.25-.49-0.29-.44-0.34-.39-0.39-.34-0.44-.29-0.44-.25-0.49-.2-0.49-.1H106.7Z" transform="translate(-58.09 -53.4)"/>
</svg>
