<svg width="210" height="70px" id="Layer_1" data-name="Layer 1" xmlns="http://www.w3.org/2000/svg" viewBox="0 0 470.98 137.55">
  <defs>
    <style>
      .cls-1 {
        fill: #fff;
      }
    </style>
  </defs>
  <title>logo_calltracking</title>
  <g>
    <g>
      <rect class="cls-1" x="55.22" y="48.86" width="24.43" height="6.35"/>
      <rect class="cls-1" x="73.3" width="6.35" height="48.86"/>
      <path class="cls-1" d="M1984.58,95.46V81.78A10.76,10.76,0,0,1,1995.33,71h38.12v6.35h-38.12a4.4,4.4,0,0,0-4.4,4.4V95.46h-6.35Z" transform="translate(-1960.15 -46.59)"/>
      <rect class="cls-1" x="24.43" y="55.22" width="6.35" height="27.12"/>
      <rect class="cls-1" x="48.86" y="30.79" width="6.35" height="75.98"/>
      <path class="cls-1" d="M1970.9,135.28a10.76,10.76,0,0,1-10.75-10.74V106.21a10.77,10.77,0,0,1,10.75-10.75H2009v6.35H1970.9a4.4,4.4,0,0,0-4.4,4.4v18.32a4.4,4.4,0,0,0,4.4,4.4H2009v6.35H1970.9Z" transform="translate(-1960.15 -46.59)"/>
      <path class="cls-1" d="M2009,71V57.35a10.76,10.76,0,0,1,10.75-10.75h13.69v6.35h-13.69a4.4,4.4,0,0,0-4.4,4.4V71H2009Z" transform="translate(-1960.15 -46.59)"/>
      <rect class="cls-1" x="55.22" y="82.34" width="24.43" height="6.35"/>
      <rect class="cls-1" x="73.3" y="88.68" width="6.35" height="48.87"/>
      <path class="cls-1" d="M1995.33,159.71A10.76,10.76,0,0,1,1984.58,149V135.28h6.35V149a4.4,4.4,0,0,0,4.4,4.4h38.12v6.35h-38.12Z" transform="translate(-1960.15 -46.59)"/>
      <path class="cls-1" d="M2019.76,184.15A10.76,10.76,0,0,1,2009,173.4V159.71h6.35V173.4a4.4,4.4,0,0,0,4.4,4.4h13.69v6.35h-13.69Z" transform="translate(-1960.15 -46.59)"/>
    </g>
    <path class="cls-1" d="M2136.49,102.17a9.48,9.48,0,0,0-2-4.64,10.14,10.14,0,0,0-4.51-3,23.7,23.7,0,0,0-7.92-1.07q-1.5,0-3.36.08t-3.76.29a33.86,33.86,0,0,0-7.61,1.73l1.39,4.88a55,55,0,0,1,12.09-1.36c3.65,0,6.16.58,7.58,1.74s2.11,3.25,2.11,6.29v2.81h-11.43q-8.29,0-11.85,3.44t-3.56,10.47q0,5.64,2.57,8.53c1.71,1.94,4.22,2.9,8.25,2.9,5.44,0,11.68-2.46,15.94-5.13l0.17,4.47h6.29V108.21A40.33,40.33,0,0,0,2136.49,102.17Zm-6,22.69a35.37,35.37,0,0,1-3.19,1.65c-2.66,1.24-12.86,5.46-15.9,1.91-0.95-1.11-1.37-2.49-1.37-4.81,0-3.31.8-5.49,2.23-6.71s3.51-1.74,6-1.74h12.18v9.69Z" transform="translate(-1960.15 -46.59)"/>
    <path class="cls-1" d="M2258.69,102.17a9.45,9.45,0,0,0-2-4.64,10.16,10.16,0,0,0-4.51-3,23.68,23.68,0,0,0-7.92-1.07c-1,0-2.11,0-3.36.08s-2.49.15-3.76,0.29a33.84,33.84,0,0,0-7.61,1.73l1.39,4.88A55,55,0,0,1,2243,99.1c3.65,0,6.18.58,7.58,1.74s2.11,3.25,2.11,6.29v2.81H2241.3q-8.28,0-11.85,3.44t-3.55,10.47q0,5.64,2.56,8.53c1.72,1.94,4.22,2.9,8.25,2.9,5.45,0,11.68-2.46,15.94-5.13l0.17,4.47h6.29V108.21A40.54,40.54,0,0,0,2258.69,102.17Zm-6,22.69a35,35,0,0,1-3.18,1.65c-2.65,1.24-12.86,5.46-15.9,1.91-1-1.11-1.37-2.49-1.37-4.81,0-3.31.8-5.49,2.24-6.71s3.51-1.74,6-1.74h12.18v9.69Z" transform="translate(-1960.15 -46.59)"/>
    <path class="cls-1" d="M2099,128.17a51.11,51.11,0,0,1-12.79,1.49,12.78,12.78,0,0,1-4.64-.75,6.37,6.37,0,0,1-3.06-2.53,12.44,12.44,0,0,1-1.66-4.75,47.45,47.45,0,0,1-.5-7.54,42.53,42.53,0,0,1,.5-7.08,12.51,12.51,0,0,1,1.62-4.6,6.47,6.47,0,0,1,3-2.53,12.45,12.45,0,0,1,4.72-.79q2.24,0,5.35.29a66.48,66.48,0,0,1,7.22,1l1.25-4.76a57.12,57.12,0,0,0-13.74-2.16,18.64,18.64,0,0,0-8.73,1.74,12.79,12.79,0,0,0-5.05,4.64,17.19,17.19,0,0,0-2.32,6.62,53.85,53.85,0,0,0-.54,7.7,58.86,58.86,0,0,0,.54,8.21,17.29,17.29,0,0,0,2.32,6.7,12.21,12.21,0,0,0,5.05,4.55,19.43,19.43,0,0,0,8.73,1.66,41.61,41.61,0,0,0,14.11-2.56Z" transform="translate(-1960.15 -46.59)"/>
    <path class="cls-1" d="M2295.59,128.17a51.1,51.1,0,0,1-12.79,1.49,12.77,12.77,0,0,1-4.64-.75,6.33,6.33,0,0,1-3.06-2.53,12.37,12.37,0,0,1-1.66-4.75,46.66,46.66,0,0,1-.5-7.54,41.82,41.82,0,0,1,.5-7.08,12.42,12.42,0,0,1,1.61-4.6,6.45,6.45,0,0,1,3-2.53,12.37,12.37,0,0,1,4.71-.79c1.49,0,3.27.1,5.35,0.29a66.21,66.21,0,0,1,7.23,1l1.24-4.76a57.08,57.08,0,0,0-13.73-2.16,18.67,18.67,0,0,0-8.74,1.74,12.87,12.87,0,0,0-5.05,4.64,17.38,17.38,0,0,0-2.31,6.62,53.56,53.56,0,0,0-.54,7.7,58.56,58.56,0,0,0,.54,8.21,17.48,17.48,0,0,0,2.31,6.7,12.28,12.28,0,0,0,5.05,4.55,19.47,19.47,0,0,0,8.74,1.66,41.71,41.71,0,0,0,14.12-2.56Z" transform="translate(-1960.15 -46.59)"/>
    <rect class="cls-1" x="185.85" y="29.65" width="6.21" height="58.39"/>
    <rect class="cls-1" x="201.6" y="29.65" width="6.21" height="58.39"/>
    <path class="cls-1" d="M2193,129.6a21.45,21.45,0,0,1-6.35.31,3.61,3.61,0,0,1-1.78-.78,3.26,3.26,0,0,1-.87-1.68,15.9,15.9,0,0,1-.28-2.91v-25h9.9V94.29h-9.9v-13l-6.21,2.83V126.5a14.16,14.16,0,0,0,.41,3.6,6.79,6.79,0,0,0,1.41,2.78,6.27,6.27,0,0,0,2.73,1.78,11.32,11.32,0,0,0,4.39.62A30,30,0,0,0,2194,134Z" transform="translate(-1960.15 -46.59)"/>
    <path class="cls-1" d="M2223.22,99.28l0-5.51a34,34,0,0,0-5.2,1.06c-1.21.41-2.4,0.89-3.56,1.41s-2.22,1.05-3.19,1.57a15.42,15.42,0,0,0-2.28,1.45l-0.17-.17V94.3h-6.37v40.33h6.37V104A54.26,54.26,0,0,1,2223.22,99.28Z" transform="translate(-1960.15 -46.59)"/>
    <polygon class="cls-1" points="374.81 88.03 359.81 64.02 373.37 47.71 366.09 47.71 353.6 62.69 349.29 68.24 349.13 68.16 349.13 31.82 342.76 31.82 342.76 88.03 349.13 88.03 349.13 76.85 355.75 68.82 367.57 88.03 374.81 88.03"/>
    <rect class="cls-1" x="380.98" y="47.71" width="6.22" height="40.33"/>
    <path class="cls-1" d="M2344.24,87.26q2.31,0,2.93-1.08a5.17,5.17,0,0,0,.63-2.65,4.51,4.51,0,0,0-.67-2.61q-0.65-.94-2.89-0.95c-1.44,0-2.39.33-2.87,1a4.39,4.39,0,0,0-.7,2.57,5.6,5.6,0,0,0,.58,2.61C2341.64,86.89,2342.64,87.26,2344.24,87.26Z" transform="translate(-1960.15 -46.59)"/>
    <path class="cls-1" d="M2382,101.09c1.17,1.6,1.37,4.52,1.37,7.62v25.92h6.37V108.79a46.46,46.46,0,0,0-.37-6.13,12.24,12.24,0,0,0-1.62-4.84,8.45,8.45,0,0,0-3.6-3.19,14.79,14.79,0,0,0-6.42-1.16,16.89,16.89,0,0,0-4.39.58,32,32,0,0,0-7.61,3.14c-1,.61-1.91,1.13-2.56,1.58l-0.25-.08V94.3h-6.21v40.33h6.21V103.91c0.6-.34,1.49-0.76,2.65-1.29s2.39-1,3.72-1.53,2.65-.94,4-1.33a12.69,12.69,0,0,1,3.48-.58,10.67,10.67,0,0,1,3.19.41A4.08,4.08,0,0,1,2382,101.09Z" transform="translate(-1960.15 -46.59)"/>
    <path class="cls-1" d="M2413.94,93.47c1.27,0,2.59,0,4,.16s2.73,0.25,4,.41,7,1.17,9.17,1.76v39a35.22,35.22,0,0,1-.5,6.09,10.35,10.35,0,0,1-2.15,4.81,10.5,10.5,0,0,1-4.78,3.14,25.8,25.8,0,0,1-8.43,1.12q-1.56,0-3.38-.08c-1.21-.06-2.41-0.16-3.6-0.29a34.87,34.87,0,0,1-3.46-.58,34.51,34.51,0,0,1-4.25-1.24l0.93-4.57a16.55,16.55,0,0,0,1.8.38,57.31,57.31,0,0,0,5.88.58c2.15,0.1,4.08.17,5.79,0.17a20.78,20.78,0,0,0,4.76-.46,6.94,6.94,0,0,0,3-1.45,5.32,5.32,0,0,0,1.57-2.53,13.08,13.08,0,0,0,.45-3.68v-3.31a43,43,0,0,1-6.67,1.94,27.64,27.64,0,0,1-5.09.54,18.74,18.74,0,0,1-7.91-1.45,11.67,11.67,0,0,1-4.92-4.19,17.19,17.19,0,0,1-2.53-6.54,47.34,47.34,0,0,1-.71-8.54,44.1,44.1,0,0,1,.83-9,17.26,17.26,0,0,1,2.81-6.67,12.4,12.4,0,0,1,5.25-4.14A20.57,20.57,0,0,1,2413.94,93.47Zm-10.39,20.45a45.59,45.59,0,0,0,.5,7.37,14.35,14.35,0,0,0,1.61,4.89,6.59,6.59,0,0,0,2.85,2.73,10,10,0,0,0,4.31.83,38,38,0,0,0,5.54-.49,52,52,0,0,0,6.38-1.41V100.26c-1.61-.22-3.33-0.43-5.18-0.62a51.44,51.44,0,0,0-5.42-.29,16.71,16.71,0,0,0-4.18.5,7,7,0,0,0-3.4,2,10.25,10.25,0,0,0-2.24,4.39A30.26,30.26,0,0,0,2403.55,113.92Z" transform="translate(-1960.15 -46.59)"/>
  </g>
</svg>
