<svg width="210" height="70px" height="50px" id="Layer_1" data-name="Layer 1" xmlns="http://www.w3.org/2000/svg" viewBox="0 0 313 86.04">
  <defs>
    <style>
      .cls-1 {
        fill: #fff;
      }

      .cls-2 {
        fill: #3d3d49;
      }

      .cls-3 {
        fill: #fff;
      }
    </style>
  </defs>
  <title>logo_technokod</title>
  <g>
    <polygon class="cls-1" points="98.11 43.02 86.04 30.96 86.04 0 0 0 0 86.04 86.04 86.04 86.04 55.08 98.11 43.02"/>
    <polygon class="cls-1" points="86.04 0 86.04 2.5 310.5 2.5 310.5 83.54 86.04 83.54 86.04 86.04 313 86.04 313 0 86.04 0"/>
    <g>
      <path class="cls-2" d="M112.07,288.47L110,290.57a1.32,1.32,0,1,0,1.87,1.87l2.11-2.11A1.32,1.32,0,1,0,112.07,288.47Z" transform="translate(-80.19 -232.3)"/>
      <path class="cls-2" d="M138.34,275.39a10,10,0,0,0,7.09-2.88,10.17,10.17,0,0,0,2.68-9.12,0.91,0.91,0,0,0-1.52-.48L140.87,268l-5.77-.66-0.73-6.06,5.13-5.43a0.91,0.91,0,0,0-.47-1.53,10,10,0,0,0-11.45,13.15l-3.88,3.88-7.84-6.84,0.4-.39a0.91,0.91,0,0,0,.26-0.66,0.89,0.89,0,0,0-.29-0.65l0,0a0.75,0.75,0,0,1,0-1,0.73,0.73,0,0,1,.3-0.17l0.11,0,7.6-2.61a0.92,0.92,0,0,0,.59-0.65,0.9,0.9,0,0,0-.24-0.84,12.52,12.52,0,0,0-8.68-3.85,8.17,8.17,0,0,0-5.84,2.29l-6.25,6.25a0.9,0.9,0,0,0,0,1.28,0.79,0.79,0,0,1-.56,1.35h0a0.79,0.79,0,0,1-.56-0.22,0.9,0.9,0,0,0-.64-0.26h0a0.9,0.9,0,0,0-.64.25l-3,3a0.9,0.9,0,0,0,0,1.28l5.94,5.93a0.91,0.91,0,0,0,.64.25h0a0.89,0.89,0,0,0,.63-0.26l3-3a0.91,0.91,0,0,0,0-1.27,0.78,0.78,0,0,1,.56-1.34h0a0.8,0.8,0,0,1,.57.22,0.91,0.91,0,0,0,1.28,0l0.34-.34,6.85,7.85-11.33,11.33a5.22,5.22,0,1,0,7.38,7.38l10.83-10.83,8,9.2a5,5,0,0,0,.51.61,5.5,5.5,0,1,0,7.78-7.78,4.28,4.28,0,0,0-.56-0.47l-0.07-.06-9.18-8,3.38-3.38A10.92,10.92,0,0,0,138.34,275.39Zm-5.59-15.07a0.88,0.88,0,0,0-.25.81l0.94,7.15a0.9,0.9,0,0,0,.71.7l6.81,0.86a0.9,0.9,0,0,0,.82-0.23l4.7-4.09a8.25,8.25,0,0,1-2.34,5.71,8.13,8.13,0,0,1-5.81,2.35,9.55,9.55,0,0,1-6.68-2.83c-3.57-3.57-3.79-9.17-.47-12.49a8.12,8.12,0,0,1,5.68-2.34Zm0.42,13.75L113,294.27l0,0a3.5,3.5,0,0,1-4.8,0,3.41,3.41,0,0,1,0-4.82l20.2-20.2A11.38,11.38,0,0,0,133.16,274.07Zm-13.69,1.48-6.85-7.84,1.93-1.93,7.84,6.84Zm-5.05-12.19-4.17,4.15a2.6,2.6,0,0,0-3.46,3.43L105,272.77l-4.66-4.65,1.8-1.81a2.61,2.61,0,0,0,3.46-3.45l5.73-5.73a6.28,6.28,0,0,1,4.56-1.76,10.3,10.3,0,0,1,6.28,2.33l-6.24,2.14-0.12.05a2.43,2.43,0,0,0-.86.56,2.55,2.55,0,0,0-.75,1.81A2.47,2.47,0,0,0,114.42,263.36ZM140.1,288a3.69,3.69,0,1,1-5.22,5.22,3.07,3.07,0,0,1-.38-0.47,0.58,0.58,0,0,0-.14-0.15l-8-9.19,3.94-3.94,9.16,8a1,1,0,0,0,.18.17A4.09,4.09,0,0,1,140.1,288Z" transform="translate(-80.19 -232.3)"/>
    </g>
    <g>
      <path class="cls-3" d="M197.23,265a1,1,0,0,1,.94-0.94H211a1.05,1.05,0,0,1,.94.94v1.85a0.84,0.84,0,0,1-.3.64,0.89,0.89,0,0,1-.64.3h-4.49l0,18.18a0.91,0.91,0,0,1-.29.65,0.93,0.93,0,0,1-.64.29h-1.9a1,1,0,0,1-.94-0.94V267.83h-4.51a1,1,0,0,1-.94-0.94V265Z" transform="translate(-80.19 -232.3)"/>
      <path class="cls-3" d="M219.13,265.95A2,2,0,0,1,221,264.1h10.93a2,2,0,0,1,1.86,1.85v2.79a1,1,0,0,1-.94.94H231a1,1,0,0,1-.94-0.94,0.83,0.83,0,0,0-.3-0.62,1,1,0,0,0-.64-0.32h-5.31a0.84,0.84,0,0,0-.64.3,0.89,0.89,0,0,0-.3.64v5.16h5.19v3.76h-5.19v4.6a1.05,1.05,0,0,0,.94.94h5.31a0.89,0.89,0,0,0,.64-0.3,0.83,0.83,0,0,0,.3-0.62,0.87,0.87,0,0,1,.29-0.62,0.91,0.91,0,0,1,.65-0.29h1.86a1,1,0,0,1,.64.27,0.83,0.83,0,0,1,.3.62v2.84a1.76,1.76,0,0,1-.59,1.27,1.8,1.8,0,0,1-1.27.57H221a1.87,1.87,0,0,1-1.31-.57,1.83,1.83,0,0,1-.57-1.27V265.95Z" transform="translate(-80.19 -232.3)"/>
      <path class="cls-3" d="M255.71,271.35L251,275.57l4.67,4.21V286a1,1,0,0,1-.94.94H252.9A1,1,0,0,1,252,286v-4.68l-3.58-3.11-3.6,3.11V286a1,1,0,0,1-.94.94H242A1,1,0,0,1,241,286v-6.23l4.7-4.21-4.7-4.22V265a1,1,0,0,1,.94-0.94h1.86a1.05,1.05,0,0,1,.94.94v4.75l3.6,3.12,3.58-3.12V265a1,1,0,0,1,.94-0.94h1.86a1.05,1.05,0,0,1,.94.94v6.31Z" transform="translate(-80.19 -232.3)"/>
      <path class="cls-3" d="M273.87,265a1,1,0,0,1,.94-0.94h1.86a1.05,1.05,0,0,1,.94.94v21a1,1,0,0,1-.94.94h-1.86a1,1,0,0,1-.94-0.94v-8.35h-7.18V286a1,1,0,0,1-.94.94h-1.86a1,1,0,0,1-.94-0.94V265a1,1,0,0,1,.94-0.94h1.86a1.05,1.05,0,0,1,.94.94v8.86h7.18V265Z" transform="translate(-80.19 -232.3)"/>
      <path class="cls-3" d="M284.84,265.95a2,2,0,0,1,1.88-1.85h10.93a2,2,0,0,1,1.86,1.85v19.15a1.76,1.76,0,0,1-.59,1.27,1.8,1.8,0,0,1-1.27.57H286.72a1.87,1.87,0,0,1-1.31-.57,1.83,1.83,0,0,1-.57-1.27V265.95Zm10.93,2.79a0.83,0.83,0,0,0-.3-0.62,0.93,0.93,0,0,0-.64-0.29h-5.24a1,1,0,0,0-.7.29,0.83,0.83,0,0,0-.3.62v13.52a1.05,1.05,0,0,0,.94.94h5.3a0.89,0.89,0,0,0,.64-0.3,0.84,0.84,0,0,0,.3-0.64V268.73Z" transform="translate(-80.19 -232.3)"/>
      <path class="cls-3" d="M317.67,268.61V265a1,1,0,0,1,.94-0.94h1.86a1.05,1.05,0,0,1,.94.94v5.27l-4,3.46,4,4.11V286a1,1,0,0,1-.94.94h-1.86a1,1,0,0,1-.94-0.94v-6.56l-3.07-3.19-4.11,3.57V286a1,1,0,0,1-.94.94h-1.86a1,1,0,0,1-.94-0.94V265a1,1,0,0,1,.94-0.94h1.86a1.05,1.05,0,0,1,.94.94v9.8Z" transform="translate(-80.19 -232.3)"/>
      <path class="cls-3" d="M328.65,265.95a2,2,0,0,1,1.88-1.85h10.93a2,2,0,0,1,1.86,1.85v19.15a1.76,1.76,0,0,1-.59,1.27,1.8,1.8,0,0,1-1.27.57H330.53a1.87,1.87,0,0,1-1.31-.57,1.83,1.83,0,0,1-.57-1.27V265.95Zm10.93,2.79a0.83,0.83,0,0,0-.3-0.62,0.93,0.93,0,0,0-.64-0.29h-5.24a1,1,0,0,0-.7.29,0.83,0.83,0,0,0-.3.62v13.52a1.05,1.05,0,0,0,.94.94h5.3a0.89,0.89,0,0,0,.64-0.3,0.84,0.84,0,0,0,.3-0.64V268.73Z" transform="translate(-80.19 -232.3)"/>
      <path class="cls-3" d="M350.69,286.94a1.05,1.05,0,0,1-.94-0.94v-1.9a0.89,0.89,0,0,1,.3-0.64,0.93,0.93,0,0,1,.64-0.29h0.94V267.83l3.74-3.73h9.06a1.73,1.73,0,0,1,1.27.59,1.75,1.75,0,0,1,.59,1.26v17.24h0.94a0.93,0.93,0,0,1,.64.29,0.89,0.89,0,0,1,.3.64V286a1.05,1.05,0,0,1-.94.94H350.69Zm11.87-3.74V268.67a0.94,0.94,0,0,0-.73-0.83h-4.6l-1.85,1.83V283.2h7.18Z" transform="translate(-80.19 -232.3)"/>
    </g>
  </g>
</svg>
