<svg width="210" height="70px" id="Layer_1" data-name="Layer 1" xmlns="http://www.w3.org/2000/svg" viewBox="0 0 458.75 94.34">
  <defs>
    <style>
      .cls-1, .cls-2, .cls-3 {
        fill-rule: evenodd;
      }

      .cls-1 {
        fill: #fff;
      }

      .cls-2 {
        fill: #fff;
      }

      .cls-3 {
        fill: #3d3d49;
      }
    </style>
  </defs>
  <title>logo_eventlife</title>
  <g>
    <path class="cls-1" d="M67.82,66.28V80.11h1.26c6.6,0,13.2,0,19.79,0a22.15,22.15,0,0,1,2.84.2c1.38,0.2,2.13.81,2.14,2.09a58.89,58.89,0,0,1-.32,7.08c-0.15,1.48-1.15,2.12-2.86,2.24-1.1.08-2.2,0.14-3.31,0.14q-9,0-18.08,0H67.84v14.75c0.37,0,.73.06,1.1,0.06H94.33c3,0,4.07.93,4,3.75,0,1.41-.07,2.83-0.16,4.23-0.16,2.7-1.29,3.74-4.23,3.8s-6.18.07-9.27,0.06c-5.18,0-10.37,0-15.55-.08a28.69,28.69,0,0,1-6-.79c-5.58-1.32-8.72-4.78-9.33-10.11a37.38,37.38,0,0,1-.23-4V59.06a15.57,15.57,0,0,1,.1-2.34c0.23-1.46.89-2,2.51-2.07,2.47-.07,4.95-0.07,7.43-0.07l30.09,0c0.37,0,.76,0,1.13,0,2.28,0.1,3.29.84,3.42,2.91a37.44,37.44,0,0,1-.15,5.92A2.84,2.84,0,0,1,95.25,66a50,50,0,0,1-5,.25c-7,0-14,0-20.94,0H67.82Z" transform="translate(-53.62 -39.83)"/>
    <path class="cls-1" d="M166.6,102.56c0.11,3.91,2,5.91,6.06,6,4.23,0.1,8.46-.1,12.68-0.12,2.28,0,4.57,0,6.85.09,0.89,0,1.52.3,1.53,1.29,0,2.33.18,4.67,0.15,7a1.56,1.56,0,0,1-1.06,1c-1.88.43-3.78,0.79-5.7,1.07a59,59,0,0,1-14.91.64,50,50,0,0,1-8.15-1.46c-6.3-1.82-9.6-6.09-10-12.19a188.74,188.74,0,0,1,0-22.88c0.29-4.81,3.48-8.81,8.7-10.54a40.11,40.11,0,0,1,22.37-.55c5.81,1.39,8.54,4.37,9.21,10a30.67,30.67,0,0,1,.07,9.29c-1,5.26-4.35,8.4-9.85,9.45-3.46.65-7,.93-10.52,1.32-2.45.26-4.92,0.43-7.46,0.65h0ZM166.31,93c4.3-.41,8.54-0.75,12.76-1.26A3,3,0,0,0,181.72,89a19.73,19.73,0,0,0,.13-4.63c-0.2-2-1.55-3.24-3.7-3.65-1-.2-2.08-0.42-3.13-0.55-5-.62-8.09,1.51-8.66,6.1A56.85,56.85,0,0,0,166.31,93Z" transform="translate(-53.62 -39.83)"/>
    <path class="cls-1" d="M204.42,97.91c0-5.87,0-11.74,0-17.6a4.91,4.91,0,0,1,3.16-4.84,46.59,46.59,0,0,1,29.25-3.91c4.38,0.81,7.18,3.29,7.78,7.56a98.4,98.4,0,0,1,.83,12c0.15,8,.1,16,0.11,24.08a9.29,9.29,0,0,1-.18,1.9,2.78,2.78,0,0,1-2.91,2.38c-2.77-.08-5.55-0.3-8.29-0.63-1.42-.16-2-1.2-2-2.9,0-4.7,0-9.4,0-14.11,0-4.91,0-9.82,0-14.74a12.18,12.18,0,0,0,0-1.27c-0.19-2.44-1.28-3.47-3.91-3.45a53.32,53.32,0,0,0-6.72.41c-2.53.33-3.63,1.53-3.78,3.93-0.17,2.57-.22,5.16-0.23,7.74,0,7,0,14.07,0,21.1a12.58,12.58,0,0,1-.06,1.48,2.57,2.57,0,0,1-2.75,2.47c-2.81-.09-5.61-0.35-8.4-0.68-1.26-.16-1.84-1.18-1.85-2.71,0-3.92,0-7.85,0-11.77,0-2.15,0-4.31,0-6.47h0Z" transform="translate(-53.62 -39.83)"/>
    <path class="cls-1" d="M126.33,104.29q2.68-9.41,5.34-18.84c1-3.46,2-6.89,3-10.34,0.14-.51.33-1,0.5-1.51a3.52,3.52,0,0,1,3.31-2.53c2.66-.12,5.33-0.21,8-0.07,2.32,0.12,3.33,1.44,2.65,3.51-1.15,3.5-2.5,7-3.83,10.41q-5.86,15.3-11.8,30.59a12.94,12.94,0,0,1-1,2.14,4.24,4.24,0,0,1-4.18,2.08c-1.33-.09-2.66-0.19-4-0.38-2.59-.39-4.47-1.58-5.4-4-5-12.89-10-25.77-14.92-38.66a13.44,13.44,0,0,1-.77-3,2.07,2.07,0,0,1,1.92-2.58,24.24,24.24,0,0,1,9.63.11,3.33,3.33,0,0,1,2.45,2.47c0.8,2.43,1.55,4.88,2.26,7.33,2.15,7.47,4.26,15,6.4,22.43,0.07,0.26.17,0.52,0.26,0.79Z" transform="translate(-53.62 -39.83)"/>
    <path class="cls-1" d="M272.38,83.23V86.4c0.05,6.21.09,12.44,0.17,18.66,0,1.86.79,2.74,2.78,3s4,0.45,6,.6a1.84,1.84,0,0,1,2,1.74c0.18,2.08.41,4.15,0.53,6.22,0.07,1-.82,1.46-1.63,1.69-5.46,1.61-11,2.16-16.41,0a9.72,9.72,0,0,1-6.45-8.38A104.75,104.75,0,0,1,259,99.42c0-4.88,0-9.76,0-14.63v-1.3c-1.32-.15-2.58-0.29-3.85-0.45-2.39-.29-3-0.83-3-3,0-1.8.08-3.61,0.24-5.4a3.06,3.06,0,0,1,2.75-2.74,22.89,22.89,0,0,1,2.93-.44,0.8,0.8,0,0,0,.94-0.89c-0.06-2.22,0-4.45-.09-6.67-0.08-2.07.57-3,2.78-3.27s4.16-.52,6.25-0.59c2.34-.09,3.43.71,3.72,2.87,0.31,2.34.3,4.72,0.4,7.09,0.08,1.59.06,1.6,1.79,1.59,2.21,0,4.41,0,6.63-.07A3.23,3.23,0,0,1,283.73,74a14.11,14.11,0,0,1,0,3.35c-0.07,1-.3,2-0.38,3-0.13,1.93-1.18,2.86-3.29,2.85l-6.29,0h-1.37Z" transform="translate(-53.62 -39.83)"/>
    <path class="cls-2" d="M306.56,51.5s0.57-10.91,11.39-11.44c3-.15,17.38-0.21,36.43-0.23h24c47,0,104.09.23,104.09,0.23s29.4,2.29,29.78,25.86c0.12,7,.16,14.89.17,22.54v6c0,15.65-.17,28.84-0.17,28.84s-2.28,10.91-12.14,10.91H334.63s-28.07-1.23-28.07-27.62V51.5h0Zm65.85,61.84h11V63.28h-11v50.06h0Zm-44.74-50v50h36v-10H338.67v-40h-11Zm121.85,0v50h38.1v-9.8H460.45V93H484v-9.8H460.45V73.08h26.8V63.29H449.51Zm-57.89,0,20.22,50.4h9.72l20.22-50.4H429.93L416.85,98.54,403.77,63.29H391.62Z" transform="translate(-53.62 -39.83)"/>
    <path class="cls-2" d="M372.4,113.34h11V63.28h-11v50.06h0Zm-44.74-50h11v40h24.94v10h-36v-50h0Zm121.85,0h37.74v9.79h-26.8V83.24H484V93H460.45v10.51h27.16v9.8h-38.1v-50h0Zm-57.89,0h12.15l13.08,35.25,13.07-35.25h11.86l-20.22,50.4h-9.72Z" transform="translate(-53.62 -39.83)"/>
    <path class="cls-3" d="M372.4,113.34h11V63.28h-11v50.06h0Zm-44.74-50h11v40h24.94v10h-36v-50h0Zm121.85,0h37.74v9.79h-26.8V83.24H484V93H460.45v10.51h27.16v9.8h-38.1v-50h0Zm-57.89,0h12.15l13.08,35.25,13.07-35.25h11.86l-20.22,50.4h-9.72Z" transform="translate(-53.62 -39.83)"/>
  </g>
</svg>
