<svg width="210" height="70px" id="Слой_1" data-name="Слой 1" xmlns="http://www.w3.org/2000/svg" xmlns:xlink="http://www.w3.org/1999/xlink" viewBox="0 0 805.56 163.49">
  <defs>
    <style>
      .cls-1 {
        fill: none;
      }

      .cls-2 {
        clip-path: url(#clip-path);
      }

      .cls-3 {
        fill: #fff;
      }

      .cls-4 {
        fill: #fff;
      }

      .cls-5 {
        clip-path: url(#clip-path-8);
      }

      .cls-6 {
        fill: url(#Безымянный_градиент_3);
      }

      .cls-7 {
        clip-path: url(#clip-path-9);
      }

      .cls-8 {
        fill: url(#Безымянный_градиент_2);
      }

      .cls-9 {
        clip-path: url(#clip-path-10);
      }

      .cls-10 {
        fill: url(#Безымянный_градиент_3-2);
      }

      .cls-11 {
        fill: #f9f9f9;
      }

      .cls-12 {
        fill: #fff;
      }

      .cls-13 {
        fill: #f2f2f2;
      }
    </style>
    <clipPath id="clip-path">
      <rect class="cls-1" width="805.56" height="163.49"/>
    </clipPath>
    <clipPath id="clip-path-8">
      <polygon class="cls-1" points="18.77 0 0 32.5 121.72 32.5 94.18 80.22 108.6 105.19 169.46 0 18.77 0"/>
    </clipPath>
    <linearGradient id="Безымянный_градиент_3" data-name="Безымянный градиент 3" x1="110.51" y1="584.91" x2="114.9" y2="584.91" gradientTransform="matrix(-38.65, 0, 0, 38.65, 4440.49, -22553.11)" gradientUnits="userSpaceOnUse">
      <stop offset="0" stop-color="#981b1f"/>
      <stop offset="0.54" stop-color="#d11f2e"/>
      <stop offset="1" stop-color="#f08273"/>
    </linearGradient>
    <clipPath id="clip-path-9">
      <polygon class="cls-1" points="108.6 105.14 82.12 59.34 53.02 59.34 112.84 163.07 188.23 32.5 169.46 0 108.6 105.14"/>
    </clipPath>
    <linearGradient id="Безымянный_градиент_2" data-name="Безымянный градиент 2" x1="122.75" y1="598.78" x2="127.13" y2="598.78" gradientTransform="matrix(0, -37.19, -37.19, 0, 22389.28, 4728.14)" gradientUnits="userSpaceOnUse">
      <stop offset="0" stop-color="#981b1f"/>
      <stop offset="1" stop-color="#d11f2e"/>
    </linearGradient>
    <clipPath id="clip-path-10">
      <polygon class="cls-1" points="0 32.5 75.39 163.07 112.84 163.07 53.08 59.34 106.5 59.34 121.72 32.5 0 32.5"/>
    </clipPath>
    <linearGradient id="Безымянный_градиент_3-2" x1="107.04" y1="615.67" x2="111.42" y2="615.67" gradientTransform="matrix(27.76, 0, 0, -27.76, -2971.49, 17189.85)" xlink:href="#Безымянный_градиент_3"/>
    <linearGradient id="Безымянный_градиент_4" data-name="Безымянный градиент 4" x1="110.51" y1="584.91" x2="114.9" y2="584.91" gradientTransform="matrix(-38.65, 0, 0, 38.65, 4440.49, -22553.11)" gradientUnits="userSpaceOnUse">
      <stop offset="0" stop-color="#981b1f"/>
      <stop offset="0.52" stop-color="#e81c2f"/>
      <stop offset="1" stop-color="#f08273"/>
    </linearGradient>
    <linearGradient id="Безымянный_градиент_5" data-name="Безымянный градиент 5" x1="122.75" y1="598.78" x2="127.13" y2="598.78" gradientTransform="matrix(0, -37.19, -37.19, 0, 22389.28, 4728.14)" gradientUnits="userSpaceOnUse">
      <stop offset="0" stop-color="#981b1f"/>
      <stop offset="1" stop-color="#e81c2f"/>
    </linearGradient>
    <linearGradient id="Безымянный_градиент_6" data-name="Безымянный градиент 6" x1="107.04" y1="615.67" x2="111.42" y2="615.67" gradientTransform="matrix(27.76, 0, 0, -27.76, -2971.49, 17189.85)" gradientUnits="userSpaceOnUse">
      <stop offset="0" stop-color="#981b1f"/>
      <stop offset="0.54" stop-color="#e81c2f"/>
      <stop offset="1" stop-color="#f08273"/>
    </linearGradient>
  </defs>
  <title>logo_vektor</title>
  <g class="cls-2">
    <path class="cls-3" d="M520.12,99.3h12.61V47.22a7.45,7.45,0,0,1,.16-1.94,3.47,3.47,0,0,1,1.18-1.79,3.61,3.61,0,0,1,1.57-.89,6.83,6.83,0,0,1,1.78-.17h20.46a17.83,17.83,0,0,1,3.54.25A6.74,6.74,0,0,1,565,44.45a7.16,7.16,0,0,1,1.7,3.17,22.22,22.22,0,0,1,.69,6.1,38.85,38.85,0,0,1-.26,4.66,11.72,11.72,0,0,1-1.27,4.52,5.94,5.94,0,0,1-3.26,2.49,11.69,11.69,0,0,1-3.62.48H546.3a6.35,6.35,0,0,0-4.18,1.28,4.18,4.18,0,0,0-1.46,3.29V72a6.21,6.21,0,0,0,1.07,3,15.35,15.35,0,0,0,2.08,2.6l22,21.69h15.86l-25.42-23.6V75.22h8.61q5.64-.12,8.52-2.22a12.32,12.32,0,0,0,4.08-4.65,22.84,22.84,0,0,0,2.43-7.59,49.85,49.85,0,0,0,.43-7.51,42.3,42.3,0,0,0-.49-7.47A18.16,18.16,0,0,0,577,38.53a12.68,12.68,0,0,0-6.88-5.24,24.29,24.29,0,0,0-7.45-.87H530.91a15.44,15.44,0,0,0-4.05.48,9.11,9.11,0,0,0-4,2.2,8.45,8.45,0,0,0-2.39,4.27,19.1,19.1,0,0,0-.39,4.42V99.3Z"/>
    <path class="cls-3" d="M322.53,99.3v-10H286.78a17.12,17.12,0,0,1-2.62-.14,3,3,0,0,1-1.68-.72,2.55,2.55,0,0,1-.69-1.07,4.34,4.34,0,0,1-.26-1.5V70.14h39.67v-10H281.52V46.64a7.21,7.21,0,0,1,.13-1.63,3,3,0,0,1,.92-1.63,3.49,3.49,0,0,1,1.65-.8,8.37,8.37,0,0,1,1.79-.16h36.14v-10H279.23a17.72,17.72,0,0,0-4.16.39A7.54,7.54,0,0,0,271.2,35a8.94,8.94,0,0,0-1.68,3.09,12.58,12.58,0,0,0-.61,3.88V89.37a16.64,16.64,0,0,0,.38,4.06,7.59,7.59,0,0,0,2.1,3.77A7,7,0,0,0,275,99a20.42,20.42,0,0,0,4.07.26h43.49Z"/>
    <path class="cls-3" d="M210.59,32.4H196.92L221.2,92.8q2.14,4.77,5.26,6.1a12.25,12.25,0,0,0,5.54,1.16q5-.16,7.48-2.45a11.83,11.83,0,0,0,3.32-4.81l24.28-60.4H253.42l-20,54a3.66,3.66,0,0,1-.46.89,1.2,1.2,0,0,1-1,.54,1.22,1.22,0,0,1-1-.54,3.82,3.82,0,0,1-.46-0.89Z"/>
    <path class="cls-3" d="M457.78,65.85a53.56,53.56,0,0,1,1.09-12,16.7,16.7,0,0,1,3-6.75,13.42,13.42,0,0,1,7.46-4.55,40.19,40.19,0,0,1,9.75-.9,40.71,40.71,0,0,1,9.73.9,13.56,13.56,0,0,1,7.58,4.55,15.19,15.19,0,0,1,2.85,6q1.21,4.22,1.27,12.74a50.7,50.7,0,0,1-1.23,12.33,16.35,16.35,0,0,1-2.88,6.31,13.5,13.5,0,0,1-7.58,4.67,54.81,54.81,0,0,1-19.48,0,13.12,13.12,0,0,1-7.46-4.67A16.26,16.26,0,0,1,459,78.22a50.89,50.89,0,0,1-1.23-12.36M479.2,31.64a74.28,74.28,0,0,0-13.59.88,25.35,25.35,0,0,0-13.08,6.18,23.94,23.94,0,0,0-6.59,12.75,69.54,69.54,0,0,0-1.14,14.4q-0.07,3.86.29,8.73a39.18,39.18,0,0,0,2,9.74A22.34,22.34,0,0,0,452.53,93a25.11,25.11,0,0,0,13.12,6.18,73.84,73.84,0,0,0,13.55.88q3.95,0.07,8.74-.26A40.12,40.12,0,0,0,497.45,98a22,22,0,0,0,8.42-5,21.56,21.56,0,0,0,5-8.06,40.9,40.9,0,0,0,2.15-9.63,85.09,85.09,0,0,0,.45-9.46,87.05,87.05,0,0,0-.43-9.46,40.44,40.44,0,0,0-2.13-9.63,21.22,21.22,0,0,0-5.08-8.06,25.15,25.15,0,0,0-13.12-6.18,74.65,74.65,0,0,0-13.55-.88"/>
  </g>
  <polygon class="cls-3" points="471.55 53.99 492.73 66.22 471.55 78.45 471.55 53.99"/>
  <g class="cls-2">
    <path class="cls-4" d="M601.46,99.3V70.43h29.63v-10H601.46V45.87a6.8,6.8,0,0,1,.1-1.38,2.52,2.52,0,0,1,.67-1.3,2.1,2.1,0,0,1,1.16-.71,6,6,0,0,1,1.23-.06h37.48v-10H598.5a14.14,14.14,0,0,0-3.58.37,8.05,8.05,0,0,0-3.58,2,7.57,7.57,0,0,0-2,3.13,10.11,10.11,0,0,0-.49,3.27V99.3h12.61Z"/>
  </g>
  <rect class="cls-4" x="648.31" y="32.4" width="12.61" height="66.89"/>
  <polygon class="cls-3" points="238.58 135.25 232.53 153.22 231.26 157.48 230.03 153.22 224.07 135.25 218.06 135.25 227.71 162.9 234.62 162.9 244.19 135.25 238.58 135.25"/>
  <rect class="cls-3" x="270.21" y="135.25" width="5.61" height="27.65"/>
  <g class="cls-2">
    <path class="cls-3" d="M321.68,149.07q0-4.43-2.41-6.8a9.06,9.06,0,0,0-6.64-2.37h-3.2v18.33h3.2a10,10,0,0,0,5.14-1.26q3.91-2.25,3.91-7.9m5.93,0q0,5.77-2.73,9.16-3.76,4.66-12.33,4.67h-8.73V135.24h8.73a22.72,22.72,0,0,1,6,.71,12,12,0,0,1,6.16,3.84q2.85,3.43,2.85,9.28"/>
  </g>
  <polygon class="cls-3" points="354.63 135.25 354.63 162.9 371.15 162.9 371.15 158 360.25 158 360.25 150.93 370.17 150.93 370.17 146.39 360.25 146.39 360.25 140.14 371.15 140.14 371.15 135.25 354.63 135.25"/>
  <g class="cls-2">
    <path class="cls-3" d="M418.58,149.07q0-6.08-3-8.61a7.51,7.51,0,0,0-9.21,0q-3,2.53-3,8.61t3,8.61a7.49,7.49,0,0,0,9.21,0q3-2.53,3-8.61m5.93,0q0,7-4.19,10.83a14.89,14.89,0,0,1-18.7,0q-4.23-3.8-4.23-10.87t4.19-10.83a14.89,14.89,0,0,1,18.69,0q4.24,3.8,4.23,10.87"/>
    <path class="cls-3" d="M492.77,157.65l-6.29-7a5.57,5.57,0,0,0-2.57,2,4.15,4.15,0,0,0-.71,2.33,4.28,4.28,0,0,0,1.25,3.1,4.41,4.41,0,0,0,3.34,1.28,7.86,7.86,0,0,0,2.72-.45,7.5,7.5,0,0,0,2.26-1.32m-1.23-16.55a2.32,2.32,0,0,0-.87-1.82,3.15,3.15,0,0,0-2.14-.75,3.43,3.43,0,0,0-2,.63,2,2,0,0,0-.89,1.74,3.38,3.38,0,0,0,.34,1.44,7.32,7.32,0,0,0,1.4,1.84l0.87,0.91a6.24,6.24,0,0,0,2.25-1.54,3.54,3.54,0,0,0,1.07-2.45m12.21,21.81h-6.48l-1.66-1.82a11.22,11.22,0,0,1-3.75,1.88,16.34,16.34,0,0,1-4.38.53,9.89,9.89,0,0,1-7.31-2.61,8.24,8.24,0,0,1-2.37-6.08,6.85,6.85,0,0,1,1.62-4.46,9,9,0,0,1,4.23-2.85,17,17,0,0,1-2.45-3.08,6.32,6.32,0,0,1-1-3.24,6,6,0,0,1,1.58-4.15q2.09-2.33,6.32-2.33t6.4,2a5.55,5.55,0,0,1,1.94,4.31,6.81,6.81,0,0,1-2.1,4.9A11.18,11.18,0,0,1,491,148.2l5.26,5.89a9,9,0,0,0,1.43-3.32,14.07,14.07,0,0,0,.27-2.85h4.86a15.82,15.82,0,0,1-.71,4.78,13.78,13.78,0,0,1-2.85,5Z"/>
    <path class="cls-3" d="M575.74,149.07q0-4.43-2.41-6.8a9.06,9.06,0,0,0-6.64-2.37h-3.2v18.33h3.2a10,10,0,0,0,5.14-1.26q3.91-2.25,3.91-7.9m5.93,0q0,5.77-2.73,9.16-3.76,4.66-12.33,4.67h-8.73V135.24h8.73a22.74,22.74,0,0,1,6,.71,12,12,0,0,1,6.16,3.84q2.85,3.43,2.85,9.28"/>
  </g>
  <polygon class="cls-3" points="608.69 135.25 608.69 162.9 625.21 162.9 625.21 158 614.31 158 614.31 150.93 624.22 150.93 624.22 146.39 614.31 146.39 614.31 140.14 625.21 140.14 625.21 135.25 608.69 135.25"/>
  <g class="cls-2">
    <path class="cls-3" d="M669.52,155.16a7.11,7.11,0,0,1-2.57,5.69q-2.8,2.37-8,2.37a18.45,18.45,0,0,1-3.66-.36,22.77,22.77,0,0,1-3.53-1l0.59-4.82a19.9,19.9,0,0,0,3.52,1.21,14,14,0,0,0,3.32.46,4.84,4.84,0,0,0,3.26-1,3,3,0,0,0,1.17-2.31q0-2.14-2.69-3.56c-1.29-.61-2.25-1.07-2.89-1.38a16.83,16.83,0,0,1-4.74-3.12,6.52,6.52,0,0,1-1.66-4.58,7.67,7.67,0,0,1,1.62-4.9q2.3-2.89,7.08-2.89a31.31,31.31,0,0,1,4.11.25,18.09,18.09,0,0,1,3.79.93l-0.59,4.42a21.74,21.74,0,0,0-2.94-.93,12.85,12.85,0,0,0-3.1-.42,4.71,4.71,0,0,0-3.36,1,2.51,2.51,0,0,0-.79,1.9,3.29,3.29,0,0,0,1.18,2.53,9.46,9.46,0,0,0,2.49,1.43,25.07,25.07,0,0,1,5.93,3.2,7.4,7.4,0,0,1,2.45,5.89"/>
  </g>
  <rect class="cls-3" x="696.75" y="135.25" width="5.61" height="27.65"/>
  <g class="cls-2">
    <path class="cls-3" d="M753.64,161.71a49.94,49.94,0,0,1-5.14,1.1,29.2,29.2,0,0,1-4.54.39q-6.64,0-10.55-3.67t-4-10.47q0-6.79,4.09-10.47t11.2-3.67a31.28,31.28,0,0,1,4.21.26,21.31,21.31,0,0,1,3.89.93L752.45,141a16.34,16.34,0,0,0-4-1.26,22.29,22.29,0,0,0-4-.36,9,9,0,0,0-6.74,2.59,11.13,11.13,0,0,0-.08,14,8.68,8.68,0,0,0,6.58,2.55,16.2,16.2,0,0,0,2-.1A7.91,7.91,0,0,0,748,158v-6.6h-5.65v-4.35h11.26v14.66Z"/>
  </g>
  <polygon class="cls-3" points="799.94 135.25 799.94 151.52 799.94 156.42 798.48 152.66 788.91 135.25 781.64 135.25 781.64 162.9 787.26 162.9 787.26 146.62 787.26 141.72 788.64 144.81 798.28 162.9 805.55 162.9 805.55 135.25 799.94 135.25"/>
  <g class="cls-2">
    <path class="cls-3" d="M385,99.3h-28.2A38.52,38.52,0,0,1,346.1,98a22.05,22.05,0,0,1-10.58-6.53,26,26,0,0,1-5.76-12.22,61.56,61.56,0,0,1-1-12.44,71.47,71.47,0,0,1,1.14-14.11,26,26,0,0,1,5.36-11.89,21.78,21.78,0,0,1,7.59-5.66,29.63,29.63,0,0,1,8-2.31,42.76,42.76,0,0,1,6.31-.44H445.2v10H419V99.3H406.4V42.43H363a38.45,38.45,0,0,0-10.15,1,12.55,12.55,0,0,0-7.44,5.26A18.87,18.87,0,0,0,342.83,55a51,51,0,0,0-1.11,11.6,47,47,0,0,0,1.07,11.1,16.55,16.55,0,0,0,2.08,5.15A12.61,12.61,0,0,0,351.94,88a34.89,34.89,0,0,0,10.43,1.23H385v10Z"/>
    <path class="cls-4" d="M679.93,99.3a14.08,14.08,0,0,1-3.35-.39,7.43,7.43,0,0,1-2.85-1.32,6.35,6.35,0,0,1-1.59-2,7.67,7.67,0,0,1-.8-3.52V32.4h12.61V85.64A7.25,7.25,0,0,0,684,87a2.55,2.55,0,0,0,.79,1.47,3.11,3.11,0,0,0,1,.49,7.16,7.16,0,0,0,2.19.28h34.25V40.42q0.14-4.27,2.37-6.14a9.86,9.86,0,0,1,4.77-2.3,18,18,0,0,1,3.65-.35q5.65,0.1,8.1,2.55a15.14,15.14,0,0,1,3.66,6l17.3,44.64a9,9,0,0,0,.91,1.78,0.94,0.94,0,0,0,1.82,0,9.19,9.19,0,0,0,.91-1.78L783,40.23q2.17-5.49,5.17-7.13a12.31,12.31,0,0,1,6.6-1.47,12.9,12.9,0,0,1,7.72,2.1q3,2.12,3.07,6.68V99.3H792.95l0.38-52.09a2.52,2.52,0,0,0-.43-1.68,0.92,0.92,0,0,0-.72-0.32,1.44,1.44,0,0,0-1,.81,8.41,8.41,0,0,0-.67,1.39L773.44,92A15.89,15.89,0,0,1,770.16,98q-2,2.08-6.28,2.11-4.64-.11-6.57-2.43a16.77,16.77,0,0,1-3-5.59L737.21,47.4A7.53,7.53,0,0,0,736.5,46a1.53,1.53,0,0,0-.92-0.81,1,1,0,0,0-.93.89,4.53,4.53,0,0,0-.13,1.11l0.29,52.09H679.93Z"/>
  </g>
  <g class="cls-5">
    <rect class="cls-6" width="169.46" height="105.19"/>
  </g>
  <g class="cls-7">
    <rect class="cls-8" x="53.02" width="135.21" height="163.07"/>
  </g>
  <g class="cls-9">
    <rect class="cls-10" y="32.5" width="121.72" height="130.57"/>
  </g>
  <g class="cls-5">
    <rect class="cls-11" width="169.46" height="105.19"/>
  </g>
  <g class="cls-7">
    <rect class="cls-12" x="53.02" width="135.21" height="163.07"/>
  </g>
  <g class="cls-9">
    <rect class="cls-13" y="32.5" width="121.72" height="130.57"/>
  </g>
</svg>
