<svg width="210" height="70px" id="Ñëîé_1" data-name="Ñëîé 1" xmlns="http://www.w3.org/2000/svg" viewBox="0 0 682.54 668.75">
  <defs>
    <style>
      .cls-1 {
        fill: #ffffff;
        fill-rule: evenodd;
      }
    </style>
  </defs>
  <title>denis_school_logo_round [Converted]</title>
  <g>
    <path class="cls-1" d="M555.36,770.8a43.87,43.87,0,0,0,8.07-17.8c1.69-6.75,2.24-15.74,2.06-26.79l-0.75-41.78-11.8.37q-7.88,0-11.24,3.37c-2.07,2.25-3.19,5.82-3.19,10.87a31,31,0,0,1-5.82-9.92,37.22,37.22,0,0,1-2.23-12.93c-0.2-12.36,1.68-21,6-25.86,4.11-4.86,11.62-7.5,22.66-7.68h4.69L563.43,623c-0.2-16.49,3.2-28.87,10.12-36.72,7.12-8.07,19.69-14.25,37.66-18.36a54.53,54.53,0,0,0-7.86,15.36c-1.5,5.06-2.07,12-1.88,21l1.88,105.67c0.38,15.35-3,27.53-9.94,36.33S573.73,763.3,555.36,770.8Z" transform="translate(-366.89 -373.04)"/>
    <path class="cls-1" d="M887,772.68c-0.37-20.61-7.86-35.79-22.67-45.34s-39-15-72.32-16.12a231.42,231.42,0,0,1,25.85-33.89A220.9,220.9,0,0,1,849,649l-2.62-6-11.6,8.44c-6.56-9.38-16.12-16.5-28.13-21.38-12.17-4.86-26.42-7.1-42.52-6.74a115.4,115.4,0,0,0-16.31,1.32A97.8,97.8,0,0,0,726,630.78l-1.24-63.08c-0.38-20.79-4.5-35.21-12.57-43.64-7.87-8.44-22.3-12.37-43.27-12l-10.69.19-110.9,2.23c-5.26,0-9.38-.19-12.36-0.94a29.6,29.6,0,0,1-8.63-3.17c0.37,17.41,4.13,30,11.06,37.46,7.11,7.69,18.55,11.24,34.29,11.06L623,557.78l4.12,205.88c-21.91,1.7-40.83,7.71-56.58,18-15.73,10.11-27.36,23.6-34.29,40.46A114.89,114.89,0,0,1,562.11,810a84.82,84.82,0,0,1,25.68-4.32,135.26,135.26,0,0,1,33.52,3.56,137.41,137.41,0,0,1,31.66,12c1.69-1.88,3.39-3.55,5.25-5.25a176.14,176.14,0,0,1,20.73-17c12.06,4.67,29.22,7.65,51.61,9.11C724.37,822,718,832.44,711.83,839.74c-6.38,7.31-12.39,11.07-18.18,11.27h-1.51c-0.55-.2-0.95-0.2-1.31-0.39a52.23,52.23,0,0,0,4.51-8.24,32.82,32.82,0,0,0,1.3-8.43c-0.19-5.62-1.68-10.29-4.87-13.67A13.07,13.07,0,0,0,680.33,815,16.91,16.91,0,0,0,667,821.37c-3.38,4.33-5.08,9.76-4.88,16.33,0.19,6.92,2.42,12.73,7.12,17.42A22.34,22.34,0,0,0,686.15,862c8.81-.18,17.42-4.68,26-13.5,8.26-8.81,16.67-22.1,24.93-39.72,3.75,0.21,7.31.57,10.67,0.76,24.93,2.26,42.37,5.24,51.71,9.18,10.89,4.51,16.32,11.43,16.5,21a32.79,32.79,0,0,1-.38,5.82,61.6,61.6,0,0,1-1.31,7.12,55.17,55.17,0,0,0,16.3-18.75,49.83,49.83,0,0,0,5.25-23.61c-0.37-13.85-6.18-23.79-17.62-30-11.24-6.19-31.66-9.75-60.5-10.87l9.91-18.54c34.12,2.62,57.9,7.67,71.2,15,13.49,7.29,20.23,18.72,20.61,34.46,0.2,9.93-2.82,20.42-8.63,31.3-6,11-20,29.79-42.32,56a89.71,89.71,0,0,0-30-16.12,105.47,105.47,0,0,0-30.74-4.87h-5.24a134.2,134.2,0,0,0-64.07,17.62c-20.05,11.25-35,26-45.17,44,11.62-8.23,22.68-14.24,33.36-18.18a95.33,95.33,0,0,1,32.41-6.36c17.23-.38,32.41,2,45.92,6.93l2.79,1.12c12.38,4.87,24.55,12.74,37.12,23.41,10.29-16.49,26-37.08,47.21-62.38,6.74-7.87,11.61-13.67,14.8-17.6,15.73-19.11,26.6-34.68,32-46.86C884.57,796.47,887.37,784.48,887,772.68ZM628.81,557.78l29.41-.56,1.89-.19c10.86-.2,18,1.48,21.35,4.87,3.54,3.36,5.25,9.17,5.42,17.6l0.75,34.67A63.35,63.35,0,0,1,674,620,78.47,78.47,0,0,1,658.6,622h-0.38a122.92,122.92,0,0,1-15.16-.94A57,57,0,0,1,630,617.34Zm1.32,66.32a79.75,79.75,0,0,0,13.3,3.74A85.06,85.06,0,0,0,657.29,629a1.68,1.68,0,0,1,.93-0.19,67.68,67.68,0,0,0,13.87-1.69,116.72,116.72,0,0,0,15.55-5.25l0.8,38.9a65.89,65.89,0,0,0-11.85,31.46l-0.56-.1a100.32,100.32,0,0,0-15.74-.93c-0.76,0-1.49.19-2.07,0.19a138.36,138.36,0,0,0-14.79,1.12,45.79,45.79,0,0,0-12,3.56Zm1.49,78.7a49.16,49.16,0,0,1,12.93-4.14,86.7,86.7,0,0,1,13.67-1.49c1.12,0,2.44-.19,3.75-0.19a91.22,91.22,0,0,1,14.25.85c0,1.21,0,2.42,0,3.65,0.15,13,4.82,23.1,13.64,30.44l0.46,26c-2.08-.75-4-1.53-5.7-2.34-12.34-6.18-18.72-15.57-18.91-28.48v-1.5a60.7,60.7,0,0,0-10.48,17.24A51.5,51.5,0,0,0,652,761.62c0,1.6.15,3.14,0.32,4.64a62.08,62.08,0,0,0-19.62-2.77ZM752.1,768.37c-1.3-.19-2.81-0.19-4.32-0.38-6.17-.5-11.94-1.07-17.33-1.72A71.37,71.37,0,0,1,728.29,748l0-1.61q8.91,1.53,19.51,2.53c4.32,0.37,8.63.57,13.31,0.94Zm-4.32-60.72a188.19,188.19,0,0,1-20.36-4.34l-1.19-60.64a59,59,0,0,1,15-2.28c2.25,0,4.51.19,6.55,0.37A45.91,45.91,0,0,1,774,653.7q15.17,13.5,23.61,38.2l-12,18.94C771,710.29,758.66,709.16,747.78,707.65Z" transform="translate(-366.89 -373.04)"/>
    <g>
      <path class="cls-1" d="M486.78,929.49L452.7,958.35l-5.82-6.75,17.43-28.49c1.5-2.61,2.8-4.67,3.55-6-1.5.75-3.93,1.68-6.92,2.81l-30.74,11.8-5-6,34.09-28.87,3.75,4.33-28.66,24.17,37.09-14.25,3.36,4.12L454,949.72l29-24.53Z" transform="translate(-366.89 -373.04)"/>
      <path class="cls-1" d="M434.14,877l-2.23-5.25a14,14,0,0,1,9.16.18c2.82,0.94,5.25,3.2,7.3,6.38q3.66,5.9,2.25,11.8c-0.94,4-3.75,7.31-8.25,10.14s-8.8,3.92-12.92,3.17a15.39,15.39,0,0,1-11.62-18.16c1.14-3.74,3.93-7.13,8.44-10.12,0.2-.18.57-0.37,1.12-0.75l13.12,20.42a13,13,0,0,0,5.24-6.94,8.89,8.89,0,0,0-1.3-7.12,7.64,7.64,0,0,0-4.14-3.56,9.74,9.74,0,0,0-6.18-.18h0Zm2.25,20-9.73-15.36a11.49,11.49,0,0,0-3.94,5.07,8.2,8.2,0,0,0,.95,7.48,8.79,8.79,0,0,0,5.61,3.93A9.89,9.89,0,0,0,436.39,897.08Z" transform="translate(-366.89 -373.04)"/>
      <path class="cls-1" d="M399.87,858.86l12.73-6.18a6.2,6.2,0,0,0-2.44-2.81c-0.93-.36-3.17-0.36-6.75-0.18-3.36.18-5.61,0-6.92-.55a8.44,8.44,0,0,1-3.19-3.77l-0.74-1.86,4.12-1.88,0.56,1.32a4,4,0,0,0,1.88,2.24,16.26,16.26,0,0,0,4.29,0,20.75,20.75,0,0,1,5.07,0,9.52,9.52,0,0,1,3.38,2.06c-0.36-2.43.57-5.44,2.82-9.18l6.55-9.75,2.63,5.44-6.57,9.56A14.08,14.08,0,0,0,415,848a4.9,4.9,0,0,0,.55,3.2l13.5-6.37,2.43,5.06L418,856.25a5.74,5.74,0,0,0,2.26,2.41,12,12,0,0,0,4.87,1.12l11.61,0.94,2.63,5.44-11.63-.94c-4.3-.56-7.3-1.69-9-3.54a8,8,0,0,1-.75,4.11,41.69,41.69,0,0,1-4.49,5.43,5.73,5.73,0,0,0-1.33,2.06,4.56,4.56,0,0,0,.77,2.45,12.87,12.87,0,0,0,.74,1.3l-4.12,2.06-0.37-.75a12.28,12.28,0,0,1-1.5-4.12,4.83,4.83,0,0,1,.39-2.8,20.16,20.16,0,0,1,3.55-4.71c2.24-2.6,3.54-4.29,3.92-5.24a4.74,4.74,0,0,0-.55-3.75l-12.74,6.19Z" transform="translate(-366.89 -373.04)"/>
      <path class="cls-1" d="M388.45,831.88l-7.12-21.16,26.41-9-1.12-3.36L419.54,794l1.5,4.32-8.61,2.8,8,24.17,8.63-3,1.49,4.32-12.92,4.5-1-2.81c-6.36-2-15.72-.94-28.27,3.56h0Zm2.8-5.81c10.12-3,18-3.93,23.8-2.79L409.42,807l-22.1,7.49Z" transform="translate(-366.89 -373.04)"/>
      <path class="cls-1" d="M422.16,789.72l-4.87,1.69a16.23,16.23,0,0,0-.19-3.2,9.9,9.9,0,0,0-1.31-2.81,5.66,5.66,0,0,0-2.06-1.31c-0.56-.19-2.05-0.37-4.31-0.76a5.13,5.13,0,0,1-1.5-.19l-29,19.11-1.32-5.79,16.68-10.68c2.25-1.31,4.5-2.63,6.75-3.75-2.45-.18-4.89-0.35-7.3-0.75l-20.07-2.61-1.12-5.44,34.85,4.87c3.77,0.57,6.38.94,7.87,1.3a13,13,0,0,1,4.51,2.44A8,8,0,0,1,422,786,12,12,0,0,1,422.16,789.72Z" transform="translate(-366.89 -373.04)"/>
      <polygon class="cls-1" points="4.5 393.27 3.93 387.84 17.23 386.33 15.55 371.34 2.25 372.84 1.51 367.21 33.73 363.66 34.48 369.1 20.05 370.79 21.74 385.78 36.16 384.08 36.73 389.71 4.5 393.27"/>
      <path class="cls-1" d="M396.11,708.61a19.33,19.33,0,0,1,3.76,5.61,16.41,16.41,0,0,1,1.13,6.18,12.45,12.45,0,0,1-2.63,8.24,9.22,9.22,0,0,1-11,1.68,6.56,6.56,0,0,1-3.2-2.8,20.77,20.77,0,0,1-1.87-3.93,44.45,44.45,0,0,1-.74-4.88,52.6,52.6,0,0,0-1.88-9.72h-1.5c-2.25,0-3.94.55-4.69,1.48-1.32,1.48-1.88,3.56-1.88,6.37,0,2.62.37,4.49,1.31,5.62a8.22,8.22,0,0,0,4.88,2.8L377,730.51a12.6,12.6,0,0,1-5.62-2.22,11.72,11.72,0,0,1-3.18-4.89,26.54,26.54,0,0,1-1.32-7.31,16.71,16.71,0,0,1,1.13-6.73,7,7,0,0,1,2.42-3.77,7.36,7.36,0,0,1,3.57-1.87,39.28,39.28,0,0,1,5.25-.17l7.3-.2c5,0,8.25,0,9.55-.36a8.85,8.85,0,0,0,3.94-1.31v5.62a12.55,12.55,0,0,1-3.94,1.32h0Zm-12.18.55A41.26,41.26,0,0,1,386,718a22.66,22.66,0,0,0,1.13,4.68,4.9,4.9,0,0,0,1.68,2.24,4.61,4.61,0,0,0,2.62.76,4.76,4.76,0,0,0,3.75-1.69,7.57,7.57,0,0,0,1.49-4.87,10.56,10.56,0,0,0-1.49-5.62,9.06,9.06,0,0,0-3.75-3.73,14.8,14.8,0,0,0-5.61-.74Z" transform="translate(-366.89 -373.04)"/>
      <path class="cls-1" d="M412.8,697.35l-44.6-4.69,0.38-5,4.29,0.36a12.18,12.18,0,0,1-3.36-4.31,12.63,12.63,0,0,1-.57-5.44,11.69,11.69,0,0,1,2.81-7.11,13.31,13.31,0,0,1,6.56-4.13,22,22,0,0,1,8.64-.75,25.61,25.61,0,0,1,8.81,2.63,13.55,13.55,0,0,1,5.43,5.78,12.85,12.85,0,0,1,1.49,7.32,10,10,0,0,1-1.68,4.86,10.68,10.68,0,0,1-3.38,3.2l15.74,1.68-0.56,5.62h0Zm-27.75-8c4.14,0.37,7.13,0,9.39-1.5A7.85,7.85,0,0,0,398,682a7.49,7.49,0,0,0-2.45-6.56c-1.85-2.07-4.86-3.19-9.18-3.55-4.12-.57-7.31,0-9.55,1.48a8.09,8.09,0,0,0-3.75,5.81,8.76,8.76,0,0,0,2.62,6.56C377.76,687.62,380.75,688.93,385,689.31Z" transform="translate(-366.89 -373.04)"/>
      <path class="cls-1" d="M387.88,661.18c-5.8-1.29-9.74-3.73-12-7.67a15.93,15.93,0,0,1-1.32-10.68,15.14,15.14,0,0,1,6.56-9.75c3.56-2.06,7.68-2.6,12.75-1.48,4.11,0.94,7.12,2.23,9.17,3.92a12.53,12.53,0,0,1,4.3,6.37,14.73,14.73,0,0,1,.38,8.07,15,15,0,0,1-6.55,9.93c-3.38,2-7.88,2.44-13.3,1.29h0Zm1.31-5.42c3.94,0.94,7.3.56,9.55-.77a8.5,8.5,0,0,0,4.49-6,9.38,9.38,0,0,0-1.49-7.32c-1.69-2.21-4.69-3.73-8.83-4.66-3.93-.76-7.1-0.56-9.36.74a9.11,9.11,0,0,0-4.5,6,8.91,8.91,0,0,0,1.51,7.31C382.25,653.32,385,654.82,389.19,655.76Z" transform="translate(-366.89 -373.04)"/>
      <path class="cls-1" d="M381.89,616.8l7.1-21.18,26.43,8.81,1.11-3.36,13.12,4.3-1.49,4.31-8.8-2.8-7.87,24,8.62,3-1.33,4.32-13.11-4.32,0.94-2.81c-3.74-5.42-12-10.11-24.73-14.23h0Zm5.79-2.81c9.75,3.75,16.68,7.68,20.61,12l5.43-16.3-22.3-7.31Z" transform="translate(-366.89 -373.04)"/>
      <polygon class="cls-1" points="26.41 211.33 28.86 206.28 41.03 211.91 47.41 198.22 35.03 192.6 37.47 187.56 66.88 201.22 64.64 206.1 51.52 200.11 45.16 213.96 58.28 219.96 56.03 225.01 26.41 211.33"/>
      <path class="cls-1" d="M444.46,547.66a17.56,17.56,0,0,1,.19,6.92,22.16,22.16,0,0,1-2.06,5.82c-1.88,3-4.13,4.86-6.56,5.61a8,8,0,0,1-7.13-.94,7.53,7.53,0,0,1-3.18-3.17,8.23,8.23,0,0,1-1.31-3.94,12.26,12.26,0,0,1,.56-4.48c0.2-1,.94-2.46,1.69-4.51a66.05,66.05,0,0,0,3.55-9.37,10.65,10.65,0,0,0-1.31-.76c-1.88-1.1-3.55-1.49-4.87-1.1-1.69.55-3.37,2-4.87,4.29q-2,3.37-1.68,5.63a8.25,8.25,0,0,0,2.63,4.86l-3.39,4.14a14,14,0,0,1-3.55-4.88A9.89,9.89,0,0,1,413,546a19.42,19.42,0,0,1,2.8-6.94,17.82,17.82,0,0,1,4.32-5.25,7.5,7.5,0,0,1,3.92-1.87,8.1,8.1,0,0,1,4.13.37,30.22,30.22,0,0,1,4.48,2.45l6.38,3.73a81.41,81.41,0,0,0,8.42,4.68,9.78,9.78,0,0,0,3.94.76l-2.81,4.87a9.09,9.09,0,0,1-4.11-1.13h0Zm-10.69-5.82a43.42,43.42,0,0,1-2.81,8.8,18.35,18.35,0,0,0-1.49,4.71,4.1,4.1,0,0,0,.36,2.61,5,5,0,0,0,1.89,2.06,4.19,4.19,0,0,0,3.91.38c1.51-.38,2.65-1.5,3.77-3.37a13.55,13.55,0,0,0,1.87-5.63,9.53,9.53,0,0,0-1.49-5.06,13,13,0,0,0-4.32-3.56Z" transform="translate(-366.89 -373.04)"/>
      <path class="cls-1" d="M444.09,499.5l25.85,19.67-3.2,4.32-10.1-7.68-1.89,2.61a8.37,8.37,0,0,0-2,3.75c-0.19,1.13.37,3.18,1.31,6.18l2.81,8.25-4.12,5.23-3.38-9.92c-1.13-3-1.13-5.43-.38-6.93-2.24,2.25-4.48,3.37-6.94,3.37a10,10,0,0,1-6.37-1.87,8.63,8.63,0,0,1-3.53-6.57c-0.19-2.61.74-5.44,3-8.42l9-12h0Zm0.38,7.11-4.69,6.19c-1.89,2.62-2.82,4.69-2.63,6a5.25,5.25,0,0,0,2.05,3.2,4.84,4.84,0,0,0,4.7.94c1.5-.57,3.37-2.26,5.42-5.06l3.56-4.68Z" transform="translate(-366.89 -373.04)"/>
      <path class="cls-1" d="M493,477.77l4.51-3.18a15.32,15.32,0,0,1,2.79,9.56,13.19,13.19,0,0,1-4.29,8.41,14.18,14.18,0,0,1-10.68,4.31c-3.93-.36-7.86-2.43-11.62-6.17a23.54,23.54,0,0,1-5.05-7.87,11.34,11.34,0,0,1-.37-7.87,15.84,15.84,0,0,1,4.12-6.75c2.62-2.61,5.26-3.94,8.05-4.12a11.65,11.65,0,0,1,8.45,2.44l-3.39,4.3a10,10,0,0,0-5.25-1.68,8.2,8.2,0,0,0-4.49,2,9.14,9.14,0,0,0-2.81,6.93c0.19,2.62,1.68,5.45,4.69,8.43,3,3.19,5.82,4.88,8.43,5.06a7.62,7.62,0,0,0,6.74-2.44,7.21,7.21,0,0,0,2.43-5C495.43,482.08,494.67,480,493,477.77Z" transform="translate(-366.89 -373.04)"/>
      <polygon class="cls-1" points="121.03 81.89 125.34 78.32 140.7 97.8 137.15 69.14 141.84 65.39 161.87 90.88 157.56 94.24 142.4 74.94 145.76 103.6 141.07 107.35 121.03 81.89"/>
      <path class="cls-1" d="M546.19,438.43l5.05-2.25a14.06,14.06,0,0,1,.75,9.93,13,13,0,0,1-5.8,7.32,14.06,14.06,0,0,1-11.41,2c-3.76-.93-7.13-3.74-10-8.43a22.41,22.41,0,0,1-3.53-8.62,12.45,12.45,0,0,1,1.32-7.87,16,16,0,0,1,5.42-5.8,13.32,13.32,0,0,1,8.8-2.26,11.64,11.64,0,0,1,7.68,4.13l-4.1,3.56c-1.69-1.69-3.2-2.62-4.88-2.81a7.53,7.53,0,0,0-4.88,1.12,8.86,8.86,0,0,0-4.12,6.19c-0.38,2.61.56,5.62,2.81,9.35,2.42,3.56,4.87,5.82,7.29,6.56a8,8,0,0,0,7.14-.93,7.24,7.24,0,0,0,3.37-4.49C547.69,443.29,547.32,441,546.19,438.43Z" transform="translate(-366.89 -373.04)"/>
      <polygon class="cls-1" points="176.3 43.27 199.74 31.48 201.78 35.6 192.62 40.3 205.16 65.01 200.28 67.64 187.55 42.73 178.36 47.4 176.3 43.27"/>
      <path class="cls-1" d="M601.27,414.26l5.44-1.51a14.68,14.68,0,0,1-1.67,9,15.08,15.08,0,0,1-7.71,6c-4.3,1.68-8.42,1.68-12,0-3.76-1.7-6.55-5.07-8.43-10-2.07-5.06-2.25-9.54-.77-13.29,1.5-3.94,4.32-6.57,8.63-8.24a14.2,14.2,0,0,1,11.43.19c3.56,1.86,6.37,5.24,8.45,10.09a5.62,5.62,0,0,0,.38,1.53l-22.51,8.8c1.51,3.18,3.39,5.42,5.8,6.55a9.06,9.06,0,0,0,7.32,0,8.65,8.65,0,0,0,4.3-3.37,10.67,10.67,0,0,0,1.31-5.8h0Zm-20-1.69,16.87-6.74A11.11,11.11,0,0,0,594,401a8.1,8.1,0,0,0-7.49-.37,8.43,8.43,0,0,0-5.07,4.68A9.75,9.75,0,0,0,581.23,412.57Z" transform="translate(-366.89 -373.04)"/>
      <polygon class="cls-1" points="240.94 15.56 248.99 13.31 263.8 36.35 266.42 8.99 274.1 6.93 282.17 38.41 276.73 39.71 270.36 14.42 267.54 42.16 262.87 43.27 247.32 19.11 254.04 45.52 248.99 46.85 240.94 15.56"/>
      <path class="cls-1" d="M676.4,403.59a16.8,16.8,0,0,1-5.25,4.5,19,19,0,0,1-5.81,1.86,13.71,13.71,0,0,1-8.62-1.49,8.81,8.81,0,0,1-3.55-6.36,12.12,12.12,0,0,1,.37-4.5,10.83,10.83,0,0,1,2.45-3.38,14.86,14.86,0,0,1,3.75-2.25,27.74,27.74,0,0,1,4.68-1.5,54,54,0,0,0,9.55-3.2,7,7,0,0,0-.17-1.3,6.57,6.57,0,0,0-2.07-4.68,10.18,10.18,0,0,0-6.55-.95c-2.42.38-4.31,0.95-5.43,2.08a7.79,7.79,0,0,0-2.05,5h-5.46a13.3,13.3,0,0,1,1.7-5.81,13,13,0,0,1,4.3-3.93,27,27,0,0,1,7.12-2,19.18,19.18,0,0,1,6.75.18,9.49,9.49,0,0,1,4.13,1.87,10,10,0,0,1,2.25,3.56c0.18,0.93.56,2.62,0.92,5.06l0.94,7.1a75.54,75.54,0,0,0,1.51,9.56,14,14,0,0,0,1.86,3.73l-5.62.77a12.58,12.58,0,0,1-1.68-3.93h0Zm-2.06-12a39.46,39.46,0,0,1-8.62,3.18,19.69,19.69,0,0,0-4.5,1.69,4.91,4.91,0,0,0-1.88,2.06,4.41,4.41,0,0,0-.37,2.62,4.79,4.79,0,0,0,2.05,3.56c1.14,0.75,2.81.92,5.05,0.75a10.68,10.68,0,0,0,5.44-2.06,8.52,8.52,0,0,0,3-4.33,9.83,9.83,0,0,0,.2-5.43Z" transform="translate(-366.89 -373.04)"/>
      <polygon class="cls-1" points="341.18 0 346.6 0.36 344.94 28.28 357.48 28.86 358.97 1.11 364.59 1.5 362.9 29.23 375.28 29.98 376.96 2.05 382.59 2.43 380.51 34.85 339.31 32.42 341.18 0"/>
      <path class="cls-1" d="M760.16,377.54l5.43,0.94-2.44,13.86a5.94,5.94,0,0,0,3.75-.19c0.75-.56,2.06-2.43,3.94-5.43a34,34,0,0,1,3.37-4.51,5.94,5.94,0,0,1,2.63-1.3,19.17,19.17,0,0,1,4.11.37l1.14,0.19L781.33,386l-1.51-.18a4.12,4.12,0,0,0-2.79,0,12.09,12.09,0,0,0-2.62,3.74,34,34,0,0,1-3,3.93A10.78,10.78,0,0,1,768,395c1.89,1.14,3.75,3.73,5.45,7.68l4.13,11.06-6-1.13-3.77-10.87a14.4,14.4,0,0,0-2.42-4.48,5,5,0,0,0-2.81-1.5l-2.82,14.61-5.43-.94Z" transform="translate(-366.89 -373.04)"/>
      <path class="cls-1" d="M783.4,398.32c1.49-5.8,4.48-9.55,8.42-11.43a16.08,16.08,0,0,1,10.68-.75,15,15,0,0,1,9.36,7.31c1.88,3.57,2.06,7.87.57,12.75-1.14,4.13-2.62,7.13-4.51,9a13.76,13.76,0,0,1-6.75,3.92,14.67,14.67,0,0,1-8-.36,14.15,14.15,0,0,1-9.37-7.12c-1.87-3.54-2.06-8-.36-13.31h0Zm5.23,1.51c-1.13,3.94-1.13,7.31,0,9.74a9.37,9.37,0,0,0,5.81,4.86,8.46,8.46,0,0,0,7.32-1.1c2.42-1.52,4.1-4.31,5.23-8.45,1.13-3.73,1.13-6.93,0-9.35a9,9,0,0,0-5.62-4.88,8.85,8.85,0,0,0-7.5,1.12C791.62,393.09,789.94,395.9,788.63,399.84Z" transform="translate(-366.89 -373.04)"/>
      <path class="cls-1" d="M826.48,394.6l23.42,9.74-12.19,30-5.23-2.08,10.67-25.85L829.84,401l-6.18,15c-1.48,3.57-2.42,5.82-3.19,6.75a6,6,0,0,1-3,2.24,8.38,8.38,0,0,1-5.05-.56c-1.14-.56-2.45-1.32-3.93-2.07l1.68-4.12,2.25,0.93a7.91,7.91,0,0,0,2.43.57,1.38,1.38,0,0,0,1.31-.76,17.1,17.1,0,0,0,2.06-4.5Z" transform="translate(-366.89 -373.04)"/>
      <polygon class="cls-1" points="509.05 44.6 513.74 47.58 500.82 68.58 526.67 55.46 531.71 58.64 514.49 86.19 509.79 83.37 522.91 62.39 497.07 75.33 492 72.31 509.05 44.6"/>
      <polygon class="cls-1" points="540.34 64.83 544.65 68.22 536.4 78.88 548.4 88.05 556.64 77.56 560.94 80.94 541.08 106.42 536.6 103.05 545.6 91.81 533.59 82.43 524.8 93.7 520.48 90.3 540.34 64.83"/>
      <path class="cls-1" d="M923.17,471.21q6.18-6.45,12.92-6.18a14.88,14.88,0,0,1,9.74,4.5,14.7,14.7,0,0,1,4.69,10.68c0,4.12-1.7,8.05-5.45,11.62-2.8,3-5.62,5-8.05,5.8a12.48,12.48,0,0,1-7.88.19,17.31,17.31,0,0,1-6.93-4A15,15,0,0,1,917.35,483c0-3.92,2.06-7.87,5.81-11.8h0Zm4.12,3.75c-3,3-4.5,6-4.68,8.63a8.08,8.08,0,0,0,2.81,6.92,8.2,8.2,0,0,0,6.92,2.62c2.82-.19,5.64-1.89,8.62-5.06,2.82-2.81,4.32-5.63,4.32-8.43a8.78,8.78,0,0,0-9.74-9.38C932.89,470.46,930.09,472.16,927.28,475Z" transform="translate(-366.89 -373.04)"/>
      <path class="cls-1" d="M959.67,516.55l3,4.49a13,13,0,0,1-17.83-2.61,14.66,14.66,0,0,1-3.56-11.07c0.56-3.93,2.81-7.48,7.12-11a20.38,20.38,0,0,1,8.06-4.49,11.69,11.69,0,0,1,8.05.19,14.93,14.93,0,0,1,6.38,4.67,14.22,14.22,0,0,1,3.59,8.24,13,13,0,0,1-3.21,8.24l-3.93-3.56a9,9,0,0,0,1.88-5.24,7.54,7.54,0,0,0-1.7-4.69,8.29,8.29,0,0,0-6.58-3.19c-2.61,0-5.61,1.32-8.79,4.12-3.38,2.63-5.25,5.45-5.82,7.87a8,8,0,0,0,2.07,6.94,7,7,0,0,0,4.87,2.81A8.45,8.45,0,0,0,959.67,516.55Z" transform="translate(-366.89 -373.04)"/>
      <polygon class="cls-1" points="614.35 137.53 629.33 159.06 625.58 161.71 619.59 153.06 596.73 168.99 593.55 164.49 616.59 148.56 610.6 140.15 614.35 137.53"/>
      <path class="cls-1" d="M960.81,560.2L1000,538.29l2.62,4.49-3.73,2.08a11.49,11.49,0,0,1,5.23,1.68,11.25,11.25,0,0,1,3.57,4.11,12.07,12.07,0,0,1,1.69,7.51,13.63,13.63,0,0,1-2.83,7.11,23.62,23.62,0,0,1-6.73,5.43,20.18,20.18,0,0,1-8.82,2.81,12.59,12.59,0,0,1-7.85-1.5,12.88,12.88,0,0,1-5.27-5.25,9.57,9.57,0,0,1-1.3-4.86,12.41,12.41,0,0,1,.76-4.68l-13.86,7.68-2.63-4.7h0Zm27.35-9.56c-3.56,2.09-6,4.31-6.92,6.77a8.78,8.78,0,0,0,.36,6.92,8.67,8.67,0,0,0,5.82,3.93c2.61,0.57,5.81-.36,9.74-2.44,3.57-2.06,5.79-4.1,6.74-6.74a7.73,7.73,0,0,0-.18-6.75,8.28,8.28,0,0,0-5.81-3.93C995.1,548,991.73,548.79,988.17,550.64Z" transform="translate(-366.89 -373.04)"/>
      <path class="cls-1" d="M999.6,601.43a19.34,19.34,0,0,1-5.8-3.94,19.8,19.8,0,0,1-3.39-5.06c-1.29-3.38-1.48-6.18-.75-8.63a9.35,9.35,0,0,1,5.06-5.25,12.69,12.69,0,0,1,4.5-.75,9,9,0,0,1,3.94,1.5,9.72,9.72,0,0,1,3.19,3,17.6,17.6,0,0,1,2.63,4.11,43.85,43.85,0,0,0,5.61,8.25,2.7,2.7,0,0,0,1.3-.57c2.07-.75,3.39-1.87,3.76-3.19,0.75-1.68.36-3.93-.57-6.56-1.12-2.23-2.24-3.94-3.55-4.68a8.44,8.44,0,0,0-5.45-.55l-1.49-5.25a11.24,11.24,0,0,1,6.18,0,11.05,11.05,0,0,1,4.89,3.19,24,24,0,0,1,3.94,6.36,26.75,26.75,0,0,1,1.66,6.56,8.17,8.17,0,0,1-.91,4.5,9,9,0,0,1-2.82,3,23.61,23.61,0,0,1-4.51,2.25l-6.73,2.81a64.79,64.79,0,0,0-8.82,3.94,10.68,10.68,0,0,0-3,2.81l-2.27-5.06a8.4,8.4,0,0,1,3.38-2.81h0Zm11-5.06a41.8,41.8,0,0,1-5.43-7.51,21.64,21.64,0,0,0-2.81-3.92,4.8,4.8,0,0,0-2.62-1.31,4.5,4.5,0,0,0-2.62.36,5.18,5.18,0,0,0-2.8,2.83,8.15,8.15,0,0,0,.55,5,11.41,11.41,0,0,0,3.57,4.69,8.31,8.31,0,0,0,4.84,1.88c1.32,0.2,3.2-.38,5.45-1.32Z" transform="translate(-366.89 -373.04)"/>
      <polygon class="cls-1" points="664.38 232.52 666.05 237.76 653.12 241.51 657.45 256.11 670.37 252.18 671.86 257.44 640.77 266.8 639.25 261.36 652.94 257.44 648.64 242.82 634.96 246.94 633.27 241.7 664.38 232.52"/>
      <polygon class="cls-1" points="674.3 267.91 675.24 273.36 662.12 275.78 664.74 290.6 678.04 288.14 679 293.6 647.13 299.39 646.03 293.96 660.24 291.35 657.62 276.55 643.39 279.18 642.46 273.73 674.3 267.91"/>
      <path class="cls-1" d="M1047.56,677.68l0.17,5.64-12.54.56,0.37,6.92c0.18,4.5-.56,8.05-2,10.49a8.73,8.73,0,0,1-7.13,4.13,9.41,9.41,0,0,1-7.1-2.61c-2.08-1.89-3.21-5.25-3.39-9.57l-0.76-13.67,32.43-1.88h0Zm1.67,30.54L1020,684.8l10.49-.56,0.39,6.38c0.17,3.73-.19,6.19-1.14,7.3a4.55,4.55,0,0,1-3.73,1.87,4.41,4.41,0,0,1-4.14-1.87c-0.93-1.48-1.48-3.93-1.68-7.5l-0.2-5.62,29.22,23.42-32.39,1.88,0.17,5.44,32.42-1.69Z" transform="translate(-366.89 -373.04)"/>
      <path class="cls-1" d="M1016.84,719.09l16.1,12.93,16.29-9.93-0.36,6.74-8,4.69c-1.5.94-2.63,1.5-3.56,2.06,1.11,0.94,2.24,1.86,3.19,2.61l7.29,5.81-0.36,6.74-14.77-12L1015,749.45l0.37-6.74,10.48-6,2.44-1.31-11.8-9.56Z" transform="translate(-366.89 -373.04)"/>
      <path class="cls-1" d="M1038,801.33l-31.67-7.11,1.31-5.44,12.35,2.82,0.57-3a7.15,7.15,0,0,0,.2-4.32c-0.2-1.13-1.5-2.8-3.77-5l-5.78-6.38,1.48-6.56,7.11,7.68c2.26,2.25,3.37,4.5,3.37,6.18,1.15-2.8,2.62-4.87,4.68-6a9.54,9.54,0,0,1,6.75-.74,8.5,8.5,0,0,1,6,4.29c1.31,2.45,1.49,5.25.74,9l-3.35,14.6h0ZM1034.8,795l1.71-7.5c0.75-3.19.55-5.44-.2-6.56a4.25,4.25,0,0,0-3.19-2c-1.86-.38-3.37-0.19-4.48,1.12-1.12,1.12-2.08,3.36-3,6.74l-1.29,5.81Z" transform="translate(-366.89 -373.04)"/>
      <path class="cls-1" d="M1015.89,812.6l4.12,1.47a17.41,17.41,0,0,0-1.12,4.53,3.66,3.66,0,0,0,.58,2.77,4.26,4.26,0,0,0,2.62,2.09,4.18,4.18,0,0,0,3.73-.39,4.79,4.79,0,0,0,2.44-3.18c0.93-3,0-5.61-3.18-7.87l2.61-4.68c5.25,3.39,6.93,8.06,4.9,14-1.15,3.41-2.84,5.62-5.26,6.76a9.2,9.2,0,0,1-7.32.76c-2.62-.76-4.12-2.82-4.87-5.61a9,9,0,0,1-4.32,2.42,8.77,8.77,0,0,1-4.86-.37,9,9,0,0,1-5.8-5.25c-1.14-2.62-.94-5.63.19-9.18,2.43-7.11,6.74-10.1,13.31-9.18L1013.1,807a8.82,8.82,0,0,0-5.45,1.11,8.57,8.57,0,0,0-3.19,4.14,6.26,6.26,0,0,0,.17,4.87,4.64,4.64,0,0,0,3.21,3,5.71,5.71,0,0,0,3.54,0,5.09,5.09,0,0,0,2.46-1.87,22.91,22.91,0,0,0,1.68-4.32A3.55,3.55,0,0,0,1015.89,812.6Z" transform="translate(-366.89 -373.04)"/>
      <path class="cls-1" d="M1012.14,869l-2.23,5.07-29.43-13.69,2.27-5L1012.14,869h0Zm12.94-27.71-27.54-6.75,9.56,4.49-2.62,5.81c-1.68,3.37-3.18,5.45-4.68,6a6.22,6.22,0,0,1-4.12-.19,4.66,4.66,0,0,1-2.62-3.74c-0.18-1.69.56-4.13,2-7.13l2.44-5.23,27.54,6.75-29.41-13.69-5.82,12.36c-1.86,4.13-2.42,7.5-1.48,10.13a9.36,9.36,0,0,0,5,5.62,8.2,8.2,0,0,0,8.05-.19c2.62-1.5,4.88-4.31,6.93-8.43l2.83-6.18,11.59,5.42Z" transform="translate(-366.89 -373.04)"/>
      <path class="cls-1" d="M1004.27,883.4l-2.81,4.7-12.17-7.32c-0.93,1.5-1.3,2.62-.93,3.56,0.18,0.95,1.29,2.83,3.36,5.61a23.34,23.34,0,0,1,3,5.08,4.81,4.81,0,0,1,.19,2.8,14.5,14.5,0,0,1-1.68,3.75l-0.77.94-3.74-2.43,0.75-1.13c0.77-1.32,1.13-2.25.93-2.81A15.29,15.29,0,0,0,988,892.4a19.17,19.17,0,0,1-2.63-4.13,9.21,9.21,0,0,1-.18-3.93c-1.89,1.69-4.89,2.46-9.18,2.46l-11.8-.21,3.18-5,11.6,0.18a16.52,16.52,0,0,0,5.07-.57,4.64,4.64,0,0,0,2.43-2.23l-12.74-7.7,2.81-4.68Z" transform="translate(-366.89 -373.04)"/>
      <path class="cls-1" d="M976.55,897.63c4.69,3.57,7.31,7.5,7.5,12a15.64,15.64,0,0,1-13.3,16.3c-3.93.58-8-.74-12.19-3.93a20.3,20.3,0,0,1-6.75-7.5,13.37,13.37,0,0,1-1.12-7.67,16.26,16.26,0,0,1,3.17-7.32A13.57,13.57,0,0,1,964,893.33c3.93-.38,8.05.94,12.54,4.3h0Zm-3.37,4.5c-3.38-2.62-6.37-3.75-9.17-3.54a9.21,9.21,0,0,0-6.57,3.54,8.67,8.67,0,0,0-1.69,7.31c0.56,2.82,2.62,5.44,6,7.86,3.19,2.46,6.18,3.58,9,3.39a8.59,8.59,0,0,0,6.56-3.56,9.25,9.25,0,0,0,1.49-7.31C978.43,907.21,976.36,904.58,973.18,902.13Z" transform="translate(-366.89 -373.04)"/>
      <path class="cls-1" d="M965.5,938.1l-8.62,9.19a24.81,24.81,0,0,1-5.45,4.5,7.94,7.94,0,0,1-4.68.95,7.48,7.48,0,0,1-4.68-2.26,6.79,6.79,0,0,1-2.44-3.39,10.22,10.22,0,0,1-.18-4.1,6.56,6.56,0,0,1-4.68.74,7.39,7.39,0,0,1-4.49-2.27,8.76,8.76,0,0,1-2.82-7.1,15,15,0,0,1,4.32-7.86l9.93-10.68,23.8,22.28h0Zm-24.18-15-4.85,5.26c-2.27,2.25-3.4,3.93-3.77,5.43a4.45,4.45,0,0,0,1.5,3.74,4.88,4.88,0,0,0,2.81,1.32,5.22,5.22,0,0,0,3-.76,28,28,0,0,0,3.77-3.56l4.67-4.87-7.12-6.56,10.32,9.75L947.7,937a25.14,25.14,0,0,0-3,3.74,6.3,6.3,0,0,0-.57,2.8,4,4,0,0,0,1.31,2.44c1.31,1.31,2.45,1.69,3.75,1.31,1.49-.58,3-1.89,5-3.94l4.13-4.31-6.74-6.18Z" transform="translate(-366.89 -373.04)"/>
    </g>
    <path class="cls-1" d="M730,981.4h0a2.2,2.2,0,0,0,1.12,0" transform="translate(-366.89 -373.04)"/>
    <path class="cls-1" d="M543,1007.87V972.7c0-4.16-.76-6.93-2.14-8.7s-4.16-2.52-8.07-2.52H510.06a11.06,11.06,0,0,1-2.27-.12,3.84,3.84,0,0,1-1.64-.76c0,3.53.63,5.93,2,7.44,1.14,1.52,3.15,2.27,5.92,2.27h9.83v40.22c0,3.78-6.05,2.65-9.83,3.15a4.76,4.76,0,0,0-2.14.63c-6.05,3.91-9.06,7.66-9.34,11.09a14.8,14.8,0,0,0,0,2.81c0.39,4.26,5.65,8.65,11.45,11.06a35.76,35.76,0,0,0,7.81,2.52,33.92,33.92,0,0,1-7.27-4.06c-3.09-2.36-4.32-2.87-5.86-5.37-4.75-7.76,2-12.36,3.3-12.88a11.41,11.41,0,0,1,4.54-.75,25.85,25.85,0,0,1,6.17.75,27,27,0,0,1,5.93,2.52,11.45,11.45,0,0,1,1.76-1.76,30.71,30.71,0,0,1,5.54-4,14.73,14.73,0,0,1,6.93-1.89h1.52a10.56,10.56,0,0,1-1.13-2.77,14.06,14.06,0,0,1-.38-3.66h0Zm-7.06,5.42-1.76,1a25.29,25.29,0,0,0-3.65-2.39c-0.25-.13-0.63-0.25-0.88-0.38a12.47,12.47,0,0,0-3.9-1V998.72a13.62,13.62,0,0,1,5.21-.82,11,11,0,0,1,5,1v14.41h0Zm0-16.33a13.87,13.87,0,0,0-5-.82,16.79,16.79,0,0,0-5.21.71v-13a16,16,0,0,0,5.32.81,11.34,11.34,0,0,0,4.88-1V997h0Zm0-15.31a10.58,10.58,0,0,1-2.45,1,11.06,11.06,0,0,1-2.43.25,13.54,13.54,0,0,1-5.32-.92V970.31H531c2,0,3.28.38,3.91,1a5.35,5.35,0,0,1,1,3.53v6.81h0Z" transform="translate(-366.89 -373.04)"/>
    <path class="cls-1" d="M512.2,1008.25a8.82,8.82,0,0,1-1.52,3.53c1.26-.63,2.4-1.13,3.4-1.64a13.86,13.86,0,0,0,3.78-3.15c1.26-1.64,1.89-4,1.89-7.06V979.38a12.38,12.38,0,0,1,.51-4.16,11.19,11.19,0,0,1,1.52-3c-3.41.76-5.8,2-7.07,3.53a4,4,0,0,0-.63.88,12.63,12.63,0,0,0-1.38,6.3v3.79h-0.88c-2,0-3.53.5-4.29,1.39a8.42,8.42,0,0,0-1.26,5,8.18,8.18,0,0,0,.38,2.52,4.75,4.75,0,0,0,1.14,1.89,3,3,0,0,1,.63-2,3.08,3.08,0,0,1,2.14-.63h2.14v8.2a19.33,19.33,0,0,1-.5,5.17h0Z" transform="translate(-366.89 -373.04)"/>
    <path class="cls-1" d="M608.14,1007.12v-19a13.46,13.46,0,0,0,1.89-1.89,14,14,0,0,0,1.26-2.4,4.2,4.2,0,0,0-.75.13H610a3.66,3.66,0,0,1-2.9-1.26,7.67,7.67,0,0,1-2.14-3.79l-2.6,2.39h0l-11,10.07v-0.73a24.49,24.49,0,0,0-1-7.82,8.06,8.06,0,0,0-3.28-4.29,22.58,22.58,0,0,1-3,4.41,20.32,20.32,0,0,1-4.54,3.91q3.22,0.38,4.16,1.51c0.76,0.75,1,2.39,1,4.79v18A24,24,0,0,0,582,1013a9.66,9.66,0,0,0-1.89,2.52c0.25,0,.38-0.12.63-0.12h0.76a8.13,8.13,0,0,1,4.54,1.51,10.66,10.66,0,0,1,3.65,4.16,30.36,30.36,0,0,1,3-3.66,28,28,0,0,1,3.78-2.52,8.21,8.21,0,0,0-2-2.14,10.39,10.39,0,0,0-3.15-1.64V993.7l7.36-6.74c0.36,0.44.72,0.88,1.08,1.24s1,0.88,1.52,1.26v20.42c0,3.78.5,6.43,1.38,7.94s2.4,2.52,4.67,3.28a33.87,33.87,0,0,1,2.9-4.16,43.64,43.64,0,0,1,3.28-3.53,5.76,5.76,0,0,1-4.16-1.64c-0.88-1-1.26-2.52-1.26-4.66h0Z" transform="translate(-366.89 -373.04)"/>
    <path class="cls-1" d="M619.48,972.33a10.63,10.63,0,0,0,2.15,2,3.36,3.36,0,0,0,2,.75,5.1,5.1,0,0,0,3.4-1.38,6.72,6.72,0,0,0,2.14-3.53,1,1,0,0,0-.5.13h-0.38a4.46,4.46,0,0,1-2.65-.88,8.29,8.29,0,0,1-1.76-3,12.29,12.29,0,0,1-1.77,2.14c-0.88.75-2.4,2-4.66,3.78l0.5,1,1.51-1h0Z" transform="translate(-366.89 -373.04)"/>
    <path class="cls-1" d="M627,1006V988.59a6.78,6.78,0,0,0,2.77-2.52,6.45,6.45,0,0,0,1-3.53,3.88,3.88,0,0,1-1.38.63,1.81,1.81,0,0,1-.75.25,3.86,3.86,0,0,1-2.65-1.14,7.49,7.49,0,0,1-2-3c-1.39,1.39-2.78,2.77-4.29,4.16-1.21,1-2.51,2-3.82,2.94l-1,.68,1,1.46,2-1.3a4.35,4.35,0,0,0,.91,1,8.1,8.1,0,0,0,1.64,1.26v16.76c0,4.92.5,8.32,1.39,10.34a7.15,7.15,0,0,0,4.66,4,17.86,17.86,0,0,1,2.39-3.65,33.37,33.37,0,0,1,3.66-3.78c-2.14,0-3.53-.63-4.29-1.51s-1.14-2.9-1.14-5.68h0Z" transform="translate(-366.89 -373.04)"/>
    <path class="cls-1" d="M662.35,997a3.37,3.37,0,0,1,1-1.89h-8.45c0.64-.84,1.22-1.62,1.77-2.37a45.84,45.84,0,0,0,3.52-4.88,26,26,0,0,0,2.3-5.47l0-.1c0-.11.06-0.19,0.06-0.2a18.64,18.64,0,0,0,.65-3.11h-1.14a3.36,3.36,0,0,1-.88,2,2,2,0,0,1-1.64.76,3.41,3.41,0,0,1-2.14-.76,8,8,0,0,1-2.15-2,18.89,18.89,0,0,1-6,3.66c-0.75.25-1.51,0.5-2.14,0.76a22,22,0,0,1-4.92.5,14,14,0,0,1-2.14-.13c-0.76,0-1.39-.12-1.64-0.12a7.55,7.55,0,0,1,1.13,1.89,6.37,6.37,0,0,1,.38,2.14v10.09a11.74,11.74,0,0,1-.25,3.15,12.06,12.06,0,0,1-1.13,2.65h6.66l-3.09,3.56a34.5,34.5,0,0,0-5,7.78,11.91,11.91,0,0,0-1.32,4.92V1021h0.88a6.33,6.33,0,0,1,1.13-3.28,3.18,3.18,0,0,1,2.52-1.14,4.64,4.64,0,0,1,2.65,1,18.34,18.34,0,0,1,3.28,3.53,5.49,5.49,0,0,1,.88-0.88,13.41,13.41,0,0,1,4.28-3.28,14.08,14.08,0,0,1,6.31-1.26,11.76,11.76,0,0,1,2.9.25,22.11,22.11,0,0,1,2.77.63,11.4,11.4,0,0,1-1-2.65,16.64,16.64,0,0,1-.25-3.78v-9.58a14.44,14.44,0,0,1,.25-3.53h0Zm-15.76-11.36,3.62-1.42a6.11,6.11,0,0,0,1.81,2.19,4.68,4.68,0,0,0,2.77,1,5.74,5.74,0,0,0,2.9-1,8.55,8.55,0,0,0,2.09-1.65,24.43,24.43,0,0,1-1.1,2.23,50.69,50.69,0,0,1-4,5.46l-0.89,1c-2.19,2.56-3.9,4.63-5.27,6.25l-0.16.18h-1.76V985.67h0Zm8.7,28.15-3.35.85a13.26,13.26,0,0,0-2.82-2.76c-0.76-.38-1.39-0.63-2-0.88-0.51,0-.88-0.13-1.39-0.13a7.58,7.58,0,0,0-3.4.88,11.74,11.74,0,0,0-2.11,1,37.83,37.83,0,0,1,3.24-4.53l3.07-3.54,0.58-.63c1.32-1.51,2.45-2.83,3.49-4.06l1.09-1.24h3.61v15h0Z" transform="translate(-366.89 -373.04)"/>
    <path class="cls-1" d="M808.58,983.92a4.62,4.62,0,0,1-3.15-1.26,12.66,12.66,0,0,1-2.77-3.91l-9.26,8.42-2,1.69V976.49a93.2,93.2,0,0,1,.51-9.71,47.77,47.77,0,0,1,1.64-7.31,25.17,25.17,0,0,1-5.29,4.16,27.9,27.9,0,0,1-5.54,2.52,9.11,9.11,0,0,1,1.77,2.9,14.6,14.6,0,0,1,.5,4.66v37.57a9.53,9.53,0,0,0-3,2.27,7.32,7.32,0,0,0-1.26,3.4,8.35,8.35,0,0,1,1.26-.51c0.25,0,.5-0.12.76-0.12a6.7,6.7,0,0,1,3.53,1.26,8.76,8.76,0,0,1,2.77,3.53,20.77,20.77,0,0,1,3.4-3.28,30.28,30.28,0,0,1,4.42-2.9,19.79,19.79,0,0,0-2.52-2,16.78,16.78,0,0,0-2.9-1.64V991.19l6-5.17a17.77,17.77,0,0,0,2.08,2.57,5.52,5.52,0,0,0,2.27,1.13v24.58c0,1-.8,1.75-1.68,3a4.61,4.61,0,0,0-.9,3.13c0.13,1.36.9,2.27,1.65,4.54a18.34,18.34,0,0,1,.92,5.23,9.79,9.79,0,0,1-.5,3.41,6.28,6.28,0,0,1-1.65,2.39,5.08,5.08,0,0,0,3.91-1.89,7,7,0,0,0,1.51-4.54,9.43,9.43,0,0,0-2.14-5.78c-1.38-1.89-1.65-2.77-1.65-3.65a3.2,3.2,0,0,1,1.24-2.59,4.54,4.54,0,0,1,3.05-1.08,9.27,9.27,0,0,1,1.89.13,13.18,13.18,0,0,1,2.15.51,14,14,0,0,1-1-3,17.87,17.87,0,0,1-.38-4V988.46a8.41,8.41,0,0,0,2.27-2.52,8,8,0,0,0,.89-3,5.39,5.39,0,0,1-1.4.75,6.5,6.5,0,0,1-1.39.25h0Z" transform="translate(-366.89 -373.04)"/>
    <path class="cls-1" d="M846.78,983.92a3,3,0,0,1-1.26.25,5.07,5.07,0,0,1-3.28-1.39,12.33,12.33,0,0,1-2.39-4.29,26.65,26.65,0,0,1-7.44,4.41c-0.25.12-.64,0.25-0.89,0.38a29.78,29.78,0,0,1-9.45,1.64,7.76,7.76,0,0,1-1.89-.13h-1.26a11.84,11.84,0,0,1,1.26,3.28,15.62,15.62,0,0,1,.38,3.65v19a11.46,11.46,0,0,0-2.78,2.78,7.78,7.78,0,0,0-1.25,3.53c0.37-.13.75-0.13,1.12-0.25h1.13a7.27,7.27,0,0,1,3.79,1.14,12.77,12.77,0,0,1,3.53,3.4,27,27,0,0,1,6.31-4.54c0.37-.12.63-0.25,1-0.38a20.24,20.24,0,0,1,7.82-1.64c0.5,0,1,.13,1.64.13s1.64,0.25,3,.51a18.52,18.52,0,0,1-1.26-4.29,30.5,30.5,0,0,1-.38-5V988a8,8,0,0,0,1.77-1.76,7,7,0,0,0,1.13-2.4c0,0.13-.13.13-0.38,0.13h0Zm-9.2,29.38a25.18,25.18,0,0,0-2.7.61,19.24,19.24,0,0,0-2.34.86c0-.07-0.08-0.13-0.12-0.21a10.6,10.6,0,0,0-5.17-4.29V986.43a24.26,24.26,0,0,0,2.53-.62c0.93-.29,1.74-0.56,2.43-0.81a2,2,0,0,1,.21.31,14,14,0,0,0,2.14,2.39,6.86,6.86,0,0,0,3,1.51v24.08h0Z" transform="translate(-366.89 -373.04)"/>
    <path class="cls-1" d="M880.82,984.18a5.06,5.06,0,0,1-3.28-1.39,10.72,10.72,0,0,1-2.39-4.29,26.45,26.45,0,0,1-7.44,4.41c-0.25.12-.63,0.25-0.88,0.38a29.8,29.8,0,0,1-9.45,1.64,7.31,7.31,0,0,1-1.9-.13h-1.26a11.52,11.52,0,0,1,1.26,3.28,15.4,15.4,0,0,1,.37,3.65v19a9.81,9.81,0,0,0-2.77,2.78,8,8,0,0,0-1.26,3.53c0.38-.13.76-0.13,1.14-0.25h1.13a7.27,7.27,0,0,1,3.78,1.14,12.73,12.73,0,0,1,3.53,3.4,27.3,27.3,0,0,1,6.3-4.54c0.38-.12.63-0.25,1-0.38a20.23,20.23,0,0,1,7.82-1.64c0.5,0,1,.13,1.64.13s1.63,0.25,2.89.51a26.73,26.73,0,0,1-1.13-4.29,30.54,30.54,0,0,1-.38-5V988a7.81,7.81,0,0,0,1.76-1.76,7.07,7.07,0,0,0,1.14-2.4c0,0.13-.25.13-0.39,0.13a3,3,0,0,1-1.26.25h0Zm-7.94,28.95c-0.71.14-1.46,0.29-2.22,0.49a22.13,22.13,0,0,0-2.94.95h0a8.16,8.16,0,0,0-1.89-2.27,9.48,9.48,0,0,0-3.27-2V986.41c0.74-.15,1.63-0.36,2.71-0.66,0.92-.25,1.66-0.48,2.29-0.69a2,2,0,0,1,.16.25,14.38,14.38,0,0,0,2.15,2.39,6.84,6.84,0,0,0,3,1.51v23.9h0Z" transform="translate(-366.89 -373.04)"/>
    <path class="cls-1" d="M743.91,981.28q-4-2.84-12.86-3.4h-0.32c0.52-.93,1-1.85,1.56-2.72a30.88,30.88,0,0,1,3.17-3.84,41,41,0,0,1,5.92-5.42l-0.5-1.26-2.28,1.64a10.87,10.87,0,0,0-5.16-4.29,13.6,13.6,0,0,0-2.4-.88,24.87,24.87,0,0,0-5.54-.63,16.81,16.81,0,0,0-11.86,4.41,13.92,13.92,0,0,0-4.78,10.59,7.46,7.46,0,0,0,3.52,6.8q3.59,2.27,12.11,3l-1.77,3.53c-6-.63-10.2-1.51-12.48-2.77a7.71,7.71,0,0,1-1.64-1.13,6,6,0,0,1-1.64-4.42v-0.37a9.57,9.57,0,0,0-2,3.4,8.56,8.56,0,0,0-.76,3.66,7.53,7.53,0,0,0,3.28,6.56c0.25,0.12.63,0.38,1.14,0.63,2.64,1,7.31,1.64,11.72,2-1,3.53-1.47,6.2-2.53,10.88a25,25,0,0,0-9.92,1.73,22.85,22.85,0,0,0-10.17,7.58c-6.44,8.85-4.33,20.23,3.33,22.62,6.44,2,9.49-3.14,10.91-5.67,3.73-6.64,5.09-13.59,6.36-17.75,1,0.25,1.9.66,2.66,0.91a27.1,27.1,0,0,1,7.45,4.91c0.75-1.13,1.63-2.52,2.64-4,1.76-2.27,3.78-4.92,6.3-7.94,1.26-1.51,2.27-2.65,2.78-3.41,3-3.65,5.17-6.68,6.17-9.07a15.52,15.52,0,0,0,1.65-6.93c0-4-1.4-7.06-4-9h0ZM714,1022.81c-3.79,12.12-8.75,13.38-11.21,12.51-7.6-2.66-3.29-13.33.8-17.32a12.41,12.41,0,0,1,12.45-3l-2,7.76h0Zm2.89-47.34c-2.65-1.14-4-2.77-4-4.79a6.59,6.59,0,0,1,2.39-4.91,9.33,9.33,0,0,1,5.93-2,8.45,8.45,0,0,1,6.18,2.78,18.46,18.46,0,0,1,3.66,5.55,6.59,6.59,0,0,1,.46,1c-0.88,1.45-1.82,3.05-2.68,4.66-5.31-.39-9.33-1.13-11.89-2.23h0ZM741,1001.7c-0.15.28-.32,0.58-0.53,0.91-0.79,1-1.64,2.11-2.53,3.19l-2.12,2.63-3,3.9a27.15,27.15,0,0,0-12.81-4.87l2.51-10.62c2.21-.57,6.9,1.17,8.52,2s3.59,2.47,3.59,4.36a6.3,6.3,0,0,1-.56,2.45,10.87,10.87,0,0,0,3.16-3.66,11,11,0,0,0,1-4.54,6.23,6.23,0,0,0-3.15-5.92,11.06,11.06,0,0,0-4-1.51,45.69,45.69,0,0,0-6-.8c0.54-1.19,1.1-2.38,1.66-3.52,1.59,0.13,3,.33,4.29.54a23.39,23.39,0,0,1,7.94,2.52,7.33,7.33,0,0,1,3.65,6.8,12.91,12.91,0,0,1-1.64,6.18h0Z" transform="translate(-366.89 -373.04)"/>
    <path class="cls-1" d="M670.79,963.5l-4.54,6.43a13.35,13.35,0,0,1,2.64,3.91,10.23,10.23,0,0,1,.88,4.66c0,0.63-.12,1.26-0.12,1.89s-0.26,1.14-.38,1.89a15.57,15.57,0,0,0,3.53-4.16,11.82,11.82,0,0,0,1.13-5,13,13,0,0,0-.63-4.41,26.87,26.87,0,0,0-2.52-5.17h0Z" transform="translate(-366.89 -373.04)"/>
    <path class="cls-1" d="M565.14,1002.59l1-.76,11.47-8.69a37.25,37.25,0,0,1-4.41-6.81,40.59,40.59,0,0,1-3-7.69,21.34,21.34,0,0,1-4,3.15l-0.69.33-4.56,1.67a21.28,21.28,0,0,1-5.47.78H552.8a8.88,8.88,0,0,1,1.64,3,13.13,13.13,0,0,1,.5,4v19.79a6.36,6.36,0,0,0-2.9,2.52,7,7,0,0,0-.88,3.79,10.45,10.45,0,0,1,1.89-.63,9.57,9.57,0,0,1,1.89-.25,15.57,15.57,0,0,1,5.8,1.26,19.91,19.91,0,0,1,5.17,3.53l0.25-.25,2.79-2.74,5.5-5-1.18-1.29-2.09,1.91A17.62,17.62,0,0,0,567,1012c-0.25-.12-0.63-0.25-0.88-0.38a39.17,39.17,0,0,0-4.54-1v-5.27l3.52-2.79h0Zm-3.52-17.21,2.49-.91,2.05,3.87,4.18,7.89-8.72,6.92V985.38h0Z" transform="translate(-366.89 -373.04)"/>
    <path class="cls-1" d="M765.1,984.69a5.87,5.87,0,0,0,2,2.89,6.14,6.14,0,0,0,3.79,1.14,6.68,6.68,0,0,0,3.78-1.38,15.57,15.57,0,0,0,3.41-3.91h-0.25a7.58,7.58,0,0,1-1.51.12,5,5,0,0,1-3-1.13,10.19,10.19,0,0,1-2.65-3.28,17.28,17.28,0,0,1-4.4,3.2l-3,1.23a18.86,18.86,0,0,1-6,1.12,4.38,4.38,0,0,1-1.51-.12h-1.14a6.78,6.78,0,0,1,1.51,2.78,12.33,12.33,0,0,1,.51,4.16v19.91a8,8,0,0,0-2.78,2.65,6.35,6.35,0,0,0-1,3.78,7.18,7.18,0,0,1,2.15-.75,5.82,5.82,0,0,1,2.14-.25,12.21,12.21,0,0,1,5,1.14,24.65,24.65,0,0,1,5.54,3.65l0.5-.5,0,0,7.9-7.9-1.23-1.23-2.12,2.12a12.82,12.82,0,0,0-4.07-2.35,17.86,17.86,0,0,0-5.29-1.13V985.36l1.65-.67h0Z" transform="translate(-366.89 -373.04)"/>
    <path class="cls-1" d="M902.38,1014.47a9.42,9.42,0,0,0-1.78-2.05,8.53,8.53,0,0,0-2.77-1.64V973.84a42.84,42.84,0,0,1,.63-8.57,5.87,5.87,0,0,1,.18-0.58l2.72-3.28L900,960.29l-0.06.07a22.49,22.49,0,0,1-5.53,4.65,15.78,15.78,0,0,1-5.8,1.89,6.81,6.81,0,0,1,2,3,14.61,14.61,0,0,1,.63,4.79v37.82a8.56,8.56,0,0,0-2.9,2,8.05,8.05,0,0,0-1.39,3.15c0.63-.13,1.27-0.25,1.76-0.38a7.72,7.72,0,0,1,1.64-.13,7.12,7.12,0,0,1,4,1.39,7.87,7.87,0,0,1,3,3.4,12.21,12.21,0,0,1,2.64-3.15c0.78-.78,1.68-1.59,2.65-2.43l2.62-2.1-1.09-1.36-1.89,1.52h0Z" transform="translate(-366.89 -373.04)"/>
  </g>
</svg>
