<svg width="210" height="70px" id="Layer_1" data-name="Layer 1" xmlns="http://www.w3.org/2000/svg" viewBox="0 0 322.73 170.98">
  <defs>
    <style>
      .cls-1 {
        fill: #ffffff;
      }
    </style>
  </defs>
  <title>logo_specia</title>
  <g>
    <circle class="cls-1" cx="125.14" cy="58.97" r="5.55"/>
    <circle class="cls-1" cx="140.56" cy="32.26" r="5.55"/>
    <circle class="cls-1" cx="186.82" cy="58.97" r="5.55"/>
    <circle class="cls-1" cx="155.98" cy="58.97" r="5.55"/>
    <circle class="cls-1" cx="171.4" cy="32.26" r="5.55"/>
    <circle class="cls-1" cx="155.98" cy="5.55" r="5.55"/>
  </g>
  <path class="cls-1" d="M-2822.59,195.36c0-9.18,7.09-16.63,19.17-16.63,7.36,0,13.9,2.63,17.54,6.63l-4.18,5.82A17.1,17.1,0,0,0-2803,186c-7.09,0-11.45,3.73-11.45,9.36,0,15.72,31.08,9.81,31.08,31.53,0,10.45-9.18,17.26-20.72,17.26-7.81,0-16.9-3.54-20.08-9.54l4.45-5.27c3.73,4.91,10.36,7.54,15.72,7.54,6.63,0,12.45-3.45,12.45-9.9C-2791.51,211.45-2822.59,216.44-2822.59,195.36Zm57,47.89V179.64c3.54,0,12.63-.18,16.63-0.18,18.17,0,23.53,9.81,23.53,19.72,0,10.36-7.36,20-22.9,20-2.54,0-6.36-.09-9.54-0.36v24.44h-7.72Zm7.72-56.34v24.53c3.09,0.27,6.09.45,9.27,0.45,9.36,0,15-4.82,15-12.81,0-7.54-4.54-12.36-14.63-12.36C-2750.81,186.73-2754.9,186.82-2757.9,186.91Zm50.15-7.27h35.89v7.27H-2700v20.54h25.44v7.27H-2700V236h29.08v7.27h-36.8V179.64Zm103.22,57.43c-4.27,4.36-12.18,7.09-20.08,7.09-19.08,0-32.26-12.9-32.26-32.71,0-18.26,11.81-32.71,31.71-32.71,8.18,0,14.81,2.27,19.35,6.18l-3.54,5.82c-4.18-3.09-9.09-4.72-15.72-4.72-13.81,0-23.63,10.36-23.63,25.44s10.09,25.44,24.81,25.44a26,26,0,0,0,16.27-5.63Zm17.71-57.43h7.72v63.61h-7.72V179.64Zm51.43-.36h6.63l27.35,64h-8.27l-8.18-19.26h-29l-8.09,19.26h-7.81Zm-8.36,37.44h22.9l-11.45-27.17Z" transform="translate(2824.13 -73.18)"/>
</svg>
