<svg height="70px" id="Layer_1" data-name="Layer 1" xmlns="http://www.w3.org/2000/svg" viewBox="0 0 180.07 35.56">
  <defs>
    <style>
      .cls-1 {
        fill: #ffffff;
      }
    </style>
  </defs>
  <title>logo_adindex</title>
  <g>
    <path class="cls-1" d="M245.31,148.63h6.32v34.92h-6.32v-2.66a12.37,12.37,0,0,1-3.71,2.53,10.4,10.4,0,0,1-4,.78,11.21,11.21,0,0,1-8.44-3.79,13.2,13.2,0,0,1-3.56-9.41,13.53,13.53,0,0,1,3.45-9.56,11,11,0,0,1,8.37-3.73,10.64,10.64,0,0,1,4.25.86,11.63,11.63,0,0,1,3.68,2.57v-12.5Zm-6.64,14.91a6.39,6.39,0,0,0-4.87,2.07,8.28,8.28,0,0,0,0,10.69,6.39,6.39,0,0,0,4.86,2.11,6.51,6.51,0,0,0,4.94-2.07,7.58,7.58,0,0,0,2-5.43,7.36,7.36,0,0,0-2-5.33,6.59,6.59,0,0,0-5-2" transform="translate(-192.82 -148.63)"/>
    <path class="cls-1" d="M267,158.35h6.32v2.58a15.16,15.16,0,0,1,3.89-2.52,9.43,9.43,0,0,1,3.57-.71,8.65,8.65,0,0,1,6.36,2.62q2.2,2.22,2.2,6.58v16.65h-6.25v-11a27.82,27.82,0,0,0-.41-6,4.1,4.1,0,0,0-1.41-2.25,3.94,3.94,0,0,0-2.48-.77,4.66,4.66,0,0,0-3.29,1.28,6.86,6.86,0,0,0-1.91,3.55,28.57,28.57,0,0,0-.28,5.11v10.11H267V158.35Z" transform="translate(-192.82 -148.63)"/>
    <path class="cls-1" d="M311.87,148.63h6.32v34.92h-6.32v-2.66a12.37,12.37,0,0,1-3.71,2.53,10.4,10.4,0,0,1-4,.78,11.21,11.21,0,0,1-8.44-3.79,13.2,13.2,0,0,1-3.56-9.41,13.53,13.53,0,0,1,3.45-9.56,11,11,0,0,1,8.37-3.73,10.64,10.64,0,0,1,4.25.86,11.63,11.63,0,0,1,3.68,2.57v-12.5Zm-6.64,14.91a6.39,6.39,0,0,0-4.87,2.07,8.28,8.28,0,0,0,0,10.69,6.39,6.39,0,0,0,4.86,2.11,6.51,6.51,0,0,0,4.94-2.07,7.58,7.58,0,0,0,2-5.43,7.36,7.36,0,0,0-2-5.33,6.59,6.59,0,0,0-5-2" transform="translate(-192.82 -148.63)"/>
    <path class="cls-1" d="M347.66,172.78H327.36a6.76,6.76,0,0,0,2.35,4.27,7.38,7.38,0,0,0,4.87,1.59,8.42,8.42,0,0,0,6.09-2.48l5.32,2.5a12.56,12.56,0,0,1-4.77,4.18,14.92,14.92,0,0,1-6.6,1.35,13,13,0,0,1-9.66-3.74,12.72,12.72,0,0,1-3.73-9.37,13.15,13.15,0,0,1,3.72-9.57,12.48,12.48,0,0,1,9.32-3.81,12.94,12.94,0,0,1,9.68,3.81,13.77,13.77,0,0,1,3.73,10.06Zm-6.32-5a6.35,6.35,0,0,0-2.47-3.43,7.16,7.16,0,0,0-4.28-1.32,7.56,7.56,0,0,0-4.64,1.48,8.26,8.26,0,0,0-2.32,3.26h13.71Z" transform="translate(-192.82 -148.63)"/>
    <polygon class="cls-1" points="154.46 9.72 161.8 9.72 166.78 16.59 171.73 9.72 178.95 9.72 170.4 21.58 180.07 34.92 172.73 34.92 166.74 26.65 160.77 34.92 153.55 34.92 163.12 21.66 154.46 9.72"/>
    <path class="cls-1" d="M206,149.49h6.58l13.1,34.06h-6.74l-2.67-7h-13.9l-2.77,7h-6.74Zm3.33,9-4.57,11.69h9.11Z" transform="translate(-192.82 -148.63)"/>
    <polygon class="cls-1" points="63.27 0 63.27 5.84 69.63 5.84 63.27 9.1 63.27 34.92 69.71 34.92 69.71 0 63.27 0"/>
  </g>
</svg>
