<svg width="210" height="70px" id="Layer_1" data-name="Layer 1" xmlns="http://www.w3.org/2000/svg" viewBox="0 0 319.88 42.39">
  <defs>
    <style>
      .cls-1 {
        fill: #fff;
      }

      .cls-1, .cls-2, .cls-3 {
        fill-rule: evenodd;
      }

      .cls-2 {
        fill: #3d3d49;
      }

      .cls-3 {
        fill: #fff;
      }
    </style>
  </defs>
  <title>logo_mediasfera</title>
  <g>
    <path class="cls-1" d="M202.56,406.89v-22h6l0.21,0.35,7.15,11.88,7-11.87,0.21-.36h6.11v22.7H223.9V397.28h0L224,392.7,217.68,403l-0.21.35H214.1l-0.21-.35-6.23-10.31,0.05,3.42h0v11.48h-5.15v-0.73h0Zm52.62-11.15a11.22,11.22,0,0,1-.32,1.69l-0.15.54H237.89a5.87,5.87,0,0,0,2,3.67,8.12,8.12,0,0,0,5.26,1.68A17.79,17.79,0,0,0,249,403a11.44,11.44,0,0,0,3.19-1.21l0.75-.42,0.29,0.81,1.15,3.23,0.22,0.62-0.6.28a17.07,17.07,0,0,1-4.18,1.4,25.76,25.76,0,0,1-4.88.37c-4,0-7.08-1.12-9.23-3.11a11.33,11.33,0,0,1-3.4-8.63,11.49,11.49,0,0,1,3.47-8.49,12.64,12.64,0,0,1,8.86-3.33c3.43,0,6,.92,7.79,2.49a9.06,9.06,0,0,1,2.88,7,15.25,15.25,0,0,1-.09,1.73h0Zm-15.56-5.14a5,5,0,0,0-1.79,2.86H250a4.44,4.44,0,0,0-1.31-3.18c-0.92-.8-2.39-1.15-4.48-1.15a7.29,7.29,0,0,0-4.55,1.47h0Zm22.09,0.65v-6.34h17.77V403h2.72l0,0.77-0.47,8.33,0,0.69h-4.32l-0.06-.67-0.41-4.52H261.29l-0.63,4.56-0.09.63h-4.46v-9.32l0.39-.21a8.72,8.72,0,0,0,4.08-4.61h0a20,20,0,0,0,1.14-7.41h0Zm12.37-1.69h-7.26v3.14a19.72,19.72,0,0,1-1,6.53,12.59,12.59,0,0,1-2.09,3.79h10.32V389.55h0Zm10.62,17.33v-22H290v11.52h0L290,399.7l11.32-14.51,0.22-.28h4.82v22.7H301v-9.1h0L301,393l-11.22,14.3-0.22.28h-4.9v-0.73h0Zm32-17.27a21.13,21.13,0,0,0-3.91,1.27l-0.77.33-0.22-.81L311,387.27l-0.17-.61,0.59-.24a25.62,25.62,0,0,1,4.52-1.47,22.55,22.55,0,0,1,4.8-.46c3.29,0,5.73.6,7.38,1.91s2.52,3.38,2.52,6.21v8.88A2.36,2.36,0,0,0,331,403h0a2.42,2.42,0,0,0,1.6.32h0.73v4.06l-0.51.16a9.48,9.48,0,0,1-1.45.35,10.15,10.15,0,0,1-1.58.11,3.31,3.31,0,0,1-2.61-1.17,4.31,4.31,0,0,1-.82-1.53,9.85,9.85,0,0,1-2.92,1.78A14.48,14.48,0,0,1,318,408a9.14,9.14,0,0,1-6.08-1.88,6.74,6.74,0,0,1-2.25-5.35,7.76,7.76,0,0,1,.51-2.89,9,9,0,0,1,1.67-2.65l0.14-.16,0.19-.06a36.5,36.5,0,0,1,6.17-1.34,67.12,67.12,0,0,1,7-.5v-0.48a3.2,3.2,0,0,0-.93-2.66c-0.72-.59-2-0.86-3.87-0.86a18,18,0,0,0-3.83.41h0Zm5.53,13.14a10.29,10.29,0,0,0,3.1-1.82v-3.43c-2.1.05-3.86,0.18-5.42,0.36a30.46,30.46,0,0,0-4.27.81,2.79,2.79,0,0,0-.38.75,3.68,3.68,0,0,0-.16,1.16,2.51,2.51,0,0,0,.81,2,4.06,4.06,0,0,0,2.63.73,10.75,10.75,0,0,0,3.69-.59h0Zm29.6-17.88a13.45,13.45,0,0,1,3.63,1.31l0.66,0.35-0.37.65-1.66,2.93-0.35.61-0.62-.32a11.34,11.34,0,0,0-2.65-1,12.34,12.34,0,0,0-2.88-.31A8.17,8.17,0,0,0,341.9,391a7,7,0,0,0-2,5.34,7,7,0,0,0,2,5,7.18,7.18,0,0,0,5.1,2,15.07,15.07,0,0,0,3.62-.42,13.45,13.45,0,0,0,3.26-1.27l0.73-.4,0.3,0.78,1.19,3.1,0.23,0.59-0.56.3a15.67,15.67,0,0,1-4.27,1.57,22.56,22.56,0,0,1-4.7.43,12.64,12.64,0,0,1-8.85-3.23,11.81,11.81,0,0,1,.2-16.94,13.59,13.59,0,0,1,9.24-3.39,21.94,21.94,0,0,1,4.48.39h0Zm18.72-.15v-9.17h5.28v9.17l0.53-.1h0a9.07,9.07,0,0,1,1.5-.14,11.65,11.65,0,0,1,8.52,3.19,12.9,12.9,0,0,1-.15,17,11.64,11.64,0,0,1-8.38,3.36,9.07,9.07,0,0,1-1.5-.14h0l-0.53-.1v9.59H370.6V407.8l-0.53.1h0a9,9,0,0,1-1.5.14,11.65,11.65,0,0,1-8.52-3.19,12.9,12.9,0,0,1,.15-17,11.64,11.64,0,0,1,8.38-3.36,9,9,0,0,1,1.5.14h0l0.53,0.1h0Zm5.93,4.4a6.56,6.56,0,0,0-.65.14v14a6.58,6.58,0,0,0,.65.14,7.31,7.31,0,0,0,1.17.09,6.16,6.16,0,0,0,4.74-1.87,9.21,9.21,0,0,0,0-10.69A6.16,6.16,0,0,0,377.7,389a7.23,7.23,0,0,0-1.17.09h0Zm-6.57,14.26a6.52,6.52,0,0,0,.65-0.14v-14a6.55,6.55,0,0,0-.65-0.14,7.16,7.16,0,0,0-1.17-.09,6.16,6.16,0,0,0-4.74,1.87,9.21,9.21,0,0,0,0,10.69,6.16,6.16,0,0,0,4.74,1.87,7.23,7.23,0,0,0,1.17-.09h0Zm44.47-7.66a11.22,11.22,0,0,1-.32,1.69L414,398H397.12a5.87,5.87,0,0,0,2,3.67,8.13,8.13,0,0,0,5.26,1.68,17.79,17.79,0,0,0,3.81-.35,11.43,11.43,0,0,0,3.19-1.21l0.75-.42,0.29,0.81,1.15,3.23,0.22,0.62-0.6.28a17.08,17.08,0,0,1-4.18,1.4,25.76,25.76,0,0,1-4.88.37c-4,0-7.08-1.12-9.23-3.11a11.33,11.33,0,0,1-3.4-8.63,11.49,11.49,0,0,1,3.47-8.49,12.64,12.64,0,0,1,8.86-3.33c3.43,0,6,.92,7.79,2.49a9.06,9.06,0,0,1,2.88,7,15.25,15.25,0,0,1-.09,1.73h0Zm-15.56-5.14a5,5,0,0,0-1.79,2.86H409.2a4.44,4.44,0,0,0-1.31-3.18c-0.92-.8-2.39-1.15-4.48-1.15a7.29,7.29,0,0,0-4.55,1.47h0Zm23.33,26.79h-4.68V385.88l0.55-.14a44.05,44.05,0,0,1,4.72-.93,37.37,37.37,0,0,1,5.1-.32c4,0,7.06,1.09,9.18,3.1s3.31,5,3.31,8.72a11.94,11.94,0,0,1-3.1,8.62c-1.94,2-4.77,3.11-8.5,3.11a13.31,13.31,0,0,1-3.87-.47,8.88,8.88,0,0,1-2-.87v10.7h-0.73Zm2.67-28.17a13.17,13.17,0,0,0-1.94.44v11.66a8.5,8.5,0,0,0,2.61,1.47,9.93,9.93,0,0,0,3.25.48,5.88,5.88,0,0,0,4.55-1.8,8.93,8.93,0,0,0-.16-10.57,7.13,7.13,0,0,0-5.28-1.85,20.83,20.83,0,0,0-3,.17h0Zm24.48,0.41a21.13,21.13,0,0,0-3.91,1.27l-0.77.33-0.22-.81-0.85-3.15-0.17-.61,0.59-.24a25.62,25.62,0,0,1,4.52-1.47,22.56,22.56,0,0,1,4.8-.46c3.29,0,5.73.6,7.38,1.91s2.52,3.38,2.52,6.21v8.88a2.36,2.36,0,0,0,.31,1.55h0a2.42,2.42,0,0,0,1.6.32h0.73v4.06l-0.51.16a9.47,9.47,0,0,1-1.45.35,10.15,10.15,0,0,1-1.58.11,3.31,3.31,0,0,1-2.61-1.17,4.32,4.32,0,0,1-.82-1.53,9.85,9.85,0,0,1-2.92,1.78,14.48,14.48,0,0,1-5.38.92,9.14,9.14,0,0,1-6.08-1.88,6.74,6.74,0,0,1-2.25-5.35,7.76,7.76,0,0,1,.51-2.89,9,9,0,0,1,1.67-2.65l0.14-.16,0.19-.06a36.49,36.49,0,0,1,6.17-1.34,67.12,67.12,0,0,1,7-.5v-0.48a3.2,3.2,0,0,0-.93-2.66c-0.72-.59-2-0.86-3.87-0.86a18,18,0,0,0-3.83.41h0Zm5.53,13.14a10.29,10.29,0,0,0,3.1-1.82v-3.43c-2.1.05-3.86,0.18-5.42,0.36a30.45,30.45,0,0,0-4.27.81,2.79,2.79,0,0,0-.38.75,3.69,3.69,0,0,0-.16,1.16,2.51,2.51,0,0,0,.81,2,4.05,4.05,0,0,0,2.63.73,10.75,10.75,0,0,0,3.69-.59h0Z" transform="translate(-146 -375)"/>
    <polygon class="cls-2" points="0 0 42.39 0 42.39 42.39 0 42.39 0 0 0 0"/>
    <path class="cls-3" d="M146,375h42.39v5.59a42,42,0,0,0-37.17,36.8H146V375h0Zm10,4.66a5.2,5.2,0,1,1-5.2,5.2,5.2,5.2,0,0,1,5.2-5.2h0Zm32.36,5.3v32.44H153.07A39.84,39.84,0,0,1,188.39,385h0Z" transform="translate(-146 -375)"/>
  </g>
</svg>
