<svg height="70px" id="layer_1" data-name="layer 1" xmlns="http://www.w3.org/2000/svg" viewBox="0 0 242.11 78">
  <defs>
    <style>
      .cls-1 {
        fill: #fff;
      }
    </style>
  </defs>
  <title>logo_uley</title>
  <g>
    <path class="cls-1" d="M917.14,423h9.15a3.32,3.32,0,0,0,2.68-2l26.32-52.85A2.88,2.88,0,0,0,952.6,364H942.47a3,3,0,0,0-2.71,1.72L930.63,385h-0.41l-10.09-19.39a3,3,0,0,0-2.66-1.61H906.52a2.78,2.78,0,0,0-2.63,4.14l18.37,33.16-7.86,17.21A3.18,3.18,0,0,0,917.14,423Z" transform="translate(-903.52 -345)"/>
    <path class="cls-1" d="M986.62,388.43l14.12,32.47a3.31,3.31,0,0,0,2.75,2.1h9.24a3.25,3.25,0,0,0,2.72-4.58l-24.79-52.85a2.87,2.87,0,0,0-2.72-1.57h-2.55a2.75,2.75,0,0,0-2.73,1.44L958.39,418.6a3.12,3.12,0,0,0,2.73,4.4h8.79a3.31,3.31,0,0,0,2.75-2.11C986.62,388.69,986.62,388.43,986.62,388.43Z" transform="translate(-903.52 -345)"/>
    <path class="cls-1" d="M1072.63,373a4,4,0,0,1-4,4h-32a4,4,0,0,1-4-4v-5a4,4,0,0,1,4-4h32a4,4,0,0,1,4,4v5Zm8,18a4,4,0,0,0-4-4h-48a4,4,0,0,0-4,4v6a4,4,0,0,0,4,4h48a4,4,0,0,0,4-4v-6Zm-8,23a4,4,0,0,0-4-4h-32a4,4,0,0,0-4,4v5a4,4,0,0,0,4,4h32a4,4,0,0,0,4-4v-5Z" transform="translate(-903.52 -345)"/>
    <path class="cls-1" d="M1104.57,423h-6.34a2.46,2.46,0,0,1-2.61-2.71v-53c0-1.66.95-3.29,2.61-3.29h7a3.62,3.62,0,0,1,3.39,3.29v33.62l23.61-35a3.81,3.81,0,0,1,3.11-1.89h6.89a3.62,3.62,0,0,1,3.39,3.29v53c0,1.65-1.74,2.71-3.39,2.71h-7a2.46,2.46,0,0,1-2.61-2.71V387L1108,421.45A4.24,4.24,0,0,1,1104.57,423Z" transform="translate(-903.52 -345)"/>
    <rect class="cls-1" x="1114.63" y="345" width="12" height="10" rx="4" ry="4" transform="translate(1337.73 355) rotate(180)"/>
  </g>
</svg>
