<svg width="210" height="70px" id="Layer_1" data-name="Layer 1" xmlns="http://www.w3.org/2000/svg" viewBox="0 0 769.89 109.2">
  <defs>
    <style>
      .cls-1 {
        fill: #ffffff;
      }
    </style>
  </defs>
  <title>logo_FT</title>
  <g>
    <path class="cls-1" d="M36,319.72v3.57H88.94v-3.57H80V254.77h9V251.2H80q-10.22-.09-16.89-4.9a16,16,0,0,1-6.91-13.21,13.4,13.4,0,0,1,3.16-9.17q3.12-3.46,8.67-3.55a11.47,11.47,0,0,1,1.85.13,9,9,0,0,1,1.74.47,7.91,7.91,0,0,0-5,4A14.17,14.17,0,0,0,65,231.74q0.21,6.13,4.43,8.93a17.32,17.32,0,0,0,9.93,2.75q6.47-.09,10.22-3.55a12.12,12.12,0,0,0,3.83-9.17,11.49,11.49,0,0,0-3.37-8.46A17.88,17.88,0,0,0,82.2,218a33.52,33.52,0,0,0-9-1.18Q57.8,217.1,50.4,224A21.67,21.67,0,0,0,43,240.57a29.32,29.32,0,0,0,.58,5.43A43.27,43.27,0,0,0,45,251.2H36v3.57h9v64.95H36Z" transform="translate(-36 -216.79)"/>
    <path class="cls-1" d="M149.26,323.29v-3.57H135.78V288.29A41.79,41.79,0,0,1,138,275a31.66,31.66,0,0,1,5.46-10.16q3.3-3.92,6.83-4a3.76,3.76,0,0,1,.78,0,0.58,0.58,0,0,1,.56.58,2.8,2.8,0,0,1-.52,1.33,7.74,7.74,0,0,1-1,1.22,9.75,9.75,0,0,0-1.57,3,15,15,0,0,0,4.32,15.59q4.83,4.17,12.5,4.28a16.06,16.06,0,0,0,11.94-5q4.53-4.82,4.65-12.69-0.2-9.48-5.37-14.58a17.78,17.78,0,0,0-12.88-5.16,28.61,28.61,0,0,0-17.41,6q-7.88,5.91-11.48,17.07H134v-3.59q0-5,.39-9.94t1.4-10.39A92.35,92.35,0,0,1,124,250.36q-7.56.8-21.23,0.84H91.81v3.57h9v65h-9v3.57h57.45Z" transform="translate(-36 -216.79)"/>
    <path class="cls-1" d="M233.94,287.1H219.86v-26.2a10.34,10.34,0,0,1,1-5.09q1.18-2.63,6-2.84,4.86,0.21,6.05,2.84a10.35,10.35,0,0,1,1,5.09v26.2Zm33,14.5a53.31,53.31,0,0,1-7,7.47,44.31,44.31,0,0,1-10.63,7,32.93,32.93,0,0,1-13.73,3.08q-7.37.22-11.51-5.17t-4.21-19.09v-4.19h49.07a48.82,48.82,0,0,0-3.33-17.88,35.34,35.34,0,0,0-12.74-16.29q-9.24-6.8-26.27-7.11-15.1.16-25,5.46a36,36,0,0,0-14.82,13.91,37,37,0,0,0-4.88,18.63Q182,299.61,188.2,308a38.39,38.39,0,0,0,16.56,12.73,60,60,0,0,0,23.19,4.35,53.73,53.73,0,0,0,21.5-4q10.84-4.28,20.38-17Z" transform="translate(-36 -216.79)"/>
    <path class="cls-1" d="M324,287.1H309.92v-26.2a10.3,10.3,0,0,1,1-5.09q1.19-2.63,6-2.84,4.86,0.21,6.05,2.84a10.35,10.35,0,0,1,1,5.09v26.2Zm33,14.5a53.26,53.26,0,0,1-7,7.47,44.29,44.29,0,0,1-10.63,7,32.92,32.92,0,0,1-13.72,3.08q-7.37.22-11.52-5.17t-4.21-19.09v-4.19H359a48.74,48.74,0,0,0-3.33-17.88,35.33,35.33,0,0,0-12.73-16.29q-9.24-6.8-26.27-7.11-15.09.16-25,5.46a36,36,0,0,0-14.82,13.91,37,37,0,0,0-4.88,18.63q0.15,12.21,6.32,20.61a38.38,38.38,0,0,0,16.57,12.73A59.94,59.94,0,0,0,318,325.09a53.76,53.76,0,0,0,21.51-4q10.83-4.28,20.37-17Z" transform="translate(-36 -216.79)"/>
    <path class="cls-1" d="M521,304.3a21.75,21.75,0,0,1-.23,3.5,9.55,9.55,0,0,1-1.79,4.47q-1.49,2.07-5,2.21a6,6,0,0,1-4.87-2.73q-2.07-2.74-2.17-8.35v-6.74q-0.06-6.55,1.82-9.38t6.42-2.75q1.59,0,3.09.11A27.2,27.2,0,0,1,521,285V304.3ZM564.06,313a8,8,0,0,1-2.8,2.17,4.28,4.28,0,0,1-1.68.38q-2.58-.2-3.14-1.89a6.12,6.12,0,0,1-.45-2.45V271.53a21.72,21.72,0,0,0-1.94-9.79q-2.23-5.27-10.38-9.09t-25.67-4q-16.48.11-25.1,2.8t-11.67,6.65a11.89,11.89,0,0,0-2.86,7.89q0.13,6.21,4.5,9.52t11.35,3.35a21.61,21.61,0,0,0,11.38-3.11q5.31-3.15,5.66-10.06a13.07,13.07,0,0,0-.24-2.6,11.2,11.2,0,0,0-.8-2.49,20.42,20.42,0,0,0-2.09-3.44,5.14,5.14,0,0,1-1.2-2.55,2.12,2.12,0,0,1,1.76-1.93,12.49,12.49,0,0,1,3.78-.47q6.23,0,7.53,2a9.34,9.34,0,0,1,1,5.75v20.81a171.18,171.18,0,0,0-23.58,1.56q-11.48,1.57-19,6.74t-7.81,15.93q0.35,9.34,5.37,13.63a23.47,23.47,0,0,0,10.49,5.43,31.64,31.64,0,0,0,7.17,1,38.88,38.88,0,0,0,12.1-1.77q7.19-2,16.94-9.28a27.55,27.55,0,0,0,8.15,8.16q4.58,2.86,11.74,2.89a38.31,38.31,0,0,0,12.11-2.16,26.46,26.46,0,0,0,11.67-7.54Z" transform="translate(-36 -216.79)"/>
    <path class="cls-1" d="M702.39,323.29h8.38l24.84-62.83h0.75v59.26h-9.13v3.57h52.65v-3.57h-8.53v-65h8.53V251.2H734.71l-13.32,34.25h-0.75l-13-34.25H663.8v3.57h8.53V307.9q-0.09,7.42-2.43,9.73a7.23,7.23,0,0,1-5.8,2.1h-1.94v3.57h25v-3.57h-2.7a7.24,7.24,0,0,1-5.8-2.1q-2.34-2.31-2.43-9.73V260.46h0.6Z" transform="translate(-36 -216.79)"/>
    <path class="cls-1" d="M411.13,319.75H402v3.57h52.66v-3.57h-8.54v-66a22.62,22.62,0,0,1,11.67,4,30,30,0,0,1,12.44,19.53h3.13v-26H383.91v26H387a30,30,0,0,1,12.43-19.53,22.66,22.66,0,0,1,11.68-4v66Z" transform="translate(-36 -216.79)"/>
    <path class="cls-1" d="M652,319.72l0-64.95h8.47V251.2H652a41.66,41.66,0,0,0,1.36-5.2,28.91,28.91,0,0,0,.58-5.43A21.67,21.67,0,0,0,646.62,224q-7.41-6.87-22.85-7.18a33.56,33.56,0,0,0-9,1.18,17.91,17.91,0,0,0-7.86,4.26,11.52,11.52,0,0,0-3.37,8.46,12.12,12.12,0,0,0,3.84,9.17q3.75,3.46,10.22,3.55a17.32,17.32,0,0,0,9.93-2.75q4.22-2.79,4.43-8.93a14.22,14.22,0,0,0-1.55-6.74,7.91,7.91,0,0,0-5-4,9,9,0,0,1,1.74-.47,11.47,11.47,0,0,1,1.85-.13q5.56,0.09,8.67,3.55a13.39,13.39,0,0,1,3.17,9.17,16,16,0,0,1-6.91,13.21q-6.67,4.81-16.89,4.9h-4.21v3.57H617v46.39q-0.1,7.11-2.4,10.18a6.55,6.55,0,0,1-5.54,3q-4.22-.24-5.26-3.07a12.84,12.84,0,0,1-.88-5.31l0-54.8h0V248.5a92.32,92.32,0,0,1-11.81,1.85c-4.8.51-11.52,0.78-20,.83H559v3.57h9v41.6q-0.12,11.81,5.31,20.08t17.87,8.63q10.29-.25,17-4.05a34.14,34.14,0,0,0,10.13-8.2h0.9V326a150.76,150.76,0,0,1,16.39-2.13q8-.59,16.5-0.56h9v-3.57h-9Z" transform="translate(-36 -216.79)"/>
    <path class="cls-1" d="M796.33,254.26h1.58a2.23,2.23,0,0,1,1.19.25,1.06,1.06,0,0,1,.46,1,1.31,1.31,0,0,1-.27.87,1.49,1.49,0,0,1-1.21.43h-1.74v-2.53Zm-1.5,7h1.5V257.9h1.23a1.85,1.85,0,0,1,1.53.47,1.68,1.68,0,0,1,.26,1q0,1,.06,1.31a0.91,0.91,0,0,0,.24.54h1.55a1.23,1.23,0,0,1-.26-0.66,20.94,20.94,0,0,0-.27-2.46,1.21,1.21,0,0,0-1-.74v0a2.15,2.15,0,0,0,1.13-.9,1.87,1.87,0,0,0,.23-1,2.26,2.26,0,0,0-.5-1.54,2.21,2.21,0,0,0-1.09-.66,4,4,0,0,0-1.07-.14h-3.59v8.1Zm-3.61-4a7.07,7.07,0,0,1,.9-3.48,6.76,6.76,0,0,1,2.36-2.46,6.34,6.34,0,0,1,6.63,0,6.73,6.73,0,0,1,2.36,2.46,7.19,7.19,0,0,1,0,7,6.73,6.73,0,0,1-2.35,2.47,6.34,6.34,0,0,1-6.64,0,6.8,6.8,0,0,1-2.36-2.47,7.05,7.05,0,0,1-.9-3.47m-1.52,0a8.06,8.06,0,0,0,1.11,4.09,8.16,8.16,0,0,0,2.91,2.91,8.1,8.1,0,1,0,0-14,8.17,8.17,0,0,0-2.91,2.91,8.06,8.06,0,0,0-1.11,4.09" transform="translate(-36 -216.79)"/>
  </g>
</svg>
