<svg width="210" height="70px" id="Layer_1" data-name="Layer 1" xmlns="http://www.w3.org/2000/svg" viewBox="0 0 203.18 45.91">
  <defs>
    <style>
      .cls-1 {
        fill: #fff;
      }

      .cls-2 {
        fill: #fff;
      }

      .cls-3 {
        fill: #fff;
      }

      .cls-4 {
        fill: #fff;
      }

      .cls-5 {
        fill: #fff;
      }

      .cls-6 {
        fill: #fff;
      }
    </style>
  </defs>
  <title>Popsters_ish_</title>
  <g>
    <path class="cls-1" d="M367.82,472.11a4.24,4.24,0,1,1,4.23,4.23,4.23,4.23,0,0,1-4.23-4.23h0Z" transform="translate(-353.57 -447.13)"/>
    <path class="cls-2" d="M377.43,479.65L375.94,478a7,7,0,0,1-4.62,1.12l-0.59,2.14a9.22,9.22,0,0,0,6.7-1.63h0Z" transform="translate(-353.57 -447.13)"/>
    <path class="cls-2" d="M364.53,460.76l-1-1.75a15.53,15.53,0,0,0-7,11.47l2,0.09a13.61,13.61,0,0,1,6-9.81h0Z" transform="translate(-353.57 -447.13)"/>
    <path class="cls-3" d="M377.55,476.54l1.47,1.64a9.23,9.23,0,0,0-.42-12.58l-0.27-.25L377,467.14h0a7,7,0,0,1,.5,9.39h0Z" transform="translate(-353.57 -447.13)"/>
    <path class="cls-3" d="M358.47,472.29l-4.9-.26v0.08a18.51,18.51,0,0,0,18.48,18.49,17.57,17.57,0,0,0,2.07-.12l-0.79-4.84c-0.42,0-.84.06-1.28,0.06a13.6,13.6,0,0,1-13.58-13.41h0Z" transform="translate(-353.57 -447.13)"/>
    <path class="cls-4" d="M365.56,465.6a9.16,9.16,0,0,0-1.83,2.62l2.11,0.69a6.88,6.88,0,0,1,1.27-1.76,7,7,0,0,1,8.15-1.28l1.3-1.78a9.2,9.2,0,0,0-11,1.51h0Z" transform="translate(-353.57 -447.13)"/>
    <path class="cls-4" d="M375.05,485.36l1.2,7.68a21.36,21.36,0,0,0,15.23-29.76l-6.92,3.51a13.57,13.57,0,0,1-9.51,18.57h0Z" transform="translate(-353.57 -447.13)"/>
    <path class="cls-5" d="M365.15,471l-2.1-.69a9.21,9.21,0,0,0,5.55,10.33l0.59-2.15a6.59,6.59,0,0,1-2.08-1.42,7,7,0,0,1-2-6.07h0Z" transform="translate(-353.57 -447.13)"/>
    <path class="cls-5" d="M383.74,465.19l10.18-5.14a24.94,24.94,0,0,0-33.47-10l5.66,9.89a13.58,13.58,0,0,1,17.63,5.3h0Z" transform="translate(-353.57 -447.13)"/>
    <path class="cls-6" d="M420.59,467c0-2.4-1.71-3.61-5.14-3.61h-1.14v7.42h1.06a6.33,6.33,0,0,0,3.88-1,3.32,3.32,0,0,0,1.33-2.79h0Zm6.2,0a7.62,7.62,0,0,1-.9,3.73,8.15,8.15,0,0,1-2.49,2.77,12,12,0,0,1-3.75,1.7,17.34,17.34,0,0,1-4.67.59h-0.67v8.83h-6.43V458.44h7.53a19.43,19.43,0,0,1,4.57.51,11,11,0,0,1,3.61,1.55,7.3,7.3,0,0,1,2.35,2.65,8.07,8.07,0,0,1,.84,3.8h0Z" transform="translate(-353.57 -447.13)"/>
    <path class="cls-6" d="M442.48,475a9.87,9.87,0,0,0-.2-2,5.61,5.61,0,0,0-.65-1.73,3.49,3.49,0,0,0-1.21-1.22,4.24,4.24,0,0,0-3.81,0,3.47,3.47,0,0,0-1.22,1.22,5.62,5.62,0,0,0-.65,1.73,10.08,10.08,0,0,0,0,4,5.54,5.54,0,0,0,.65,1.72,3.39,3.39,0,0,0,1.22,1.22,4.24,4.24,0,0,0,3.81,0,3.4,3.4,0,0,0,1.21-1.22,5.54,5.54,0,0,0,.65-1.72,9.84,9.84,0,0,0,.2-2h0Zm6.28,0a11.47,11.47,0,0,1-.67,3.94,8.79,8.79,0,0,1-5.18,5.3,13.06,13.06,0,0,1-8.79,0,8.79,8.79,0,0,1-5.18-5.3,12,12,0,0,1,0-7.88,9,9,0,0,1,2-3.18,8.85,8.85,0,0,1,3.22-2.12,12.92,12.92,0,0,1,8.79,0,8.86,8.86,0,0,1,3.22,2.12,9,9,0,0,1,2,3.18,11.44,11.44,0,0,1,.67,3.94h0Z" transform="translate(-353.57 -447.13)"/>
    <path class="cls-6" d="M461.62,469.78a4.74,4.74,0,0,0-1.84.33,3.92,3.92,0,0,0-1.37,1V480a5,5,0,0,0,1,.23,7.59,7.59,0,0,0,1.26.08,4.1,4.1,0,0,0,3.57-1.51,6.75,6.75,0,0,0,1.1-4.06,6.66,6.66,0,0,0-.88-3.55,3.05,3.05,0,0,0-2.8-1.43h0Zm-9.5-4.43h6v2.27a6.58,6.58,0,0,1,5.77-2.67,6.77,6.77,0,0,1,3,.69,7.19,7.19,0,0,1,2.45,2,9.42,9.42,0,0,1,1.63,3.08,13,13,0,0,1,.59,4,11.35,11.35,0,0,1-.81,4.45,9.38,9.38,0,0,1-2.16,3.2,8.88,8.88,0,0,1-3.16,1.94,11.13,11.13,0,0,1-3.85.65,9.65,9.65,0,0,1-1.8-.14,10.94,10.94,0,0,1-1.41-.33v8.16h-6.28v-27.3h0Z" transform="translate(-353.57 -447.13)"/>
    <path class="cls-6" d="M488.85,478.28a6.56,6.56,0,0,1-.61,2.87,5.76,5.76,0,0,1-1.73,2.09,7.83,7.83,0,0,1-2.65,1.28,12.31,12.31,0,0,1-3.37.43,20.1,20.1,0,0,1-3.3-.29,14.29,14.29,0,0,1-3.14-.89l0.86-4.35a12.44,12.44,0,0,0,2.69.76,15.16,15.16,0,0,0,2.57.26,5.48,5.48,0,0,0,2-.33A1.17,1.17,0,0,0,483,479a1,1,0,0,0-.75-1c-0.5-.2-1.24-0.48-2.24-0.85a17.91,17.91,0,0,1-2.27-1,7.53,7.53,0,0,1-1.83-1.25,5.48,5.48,0,0,1-1.2-1.67,6,6,0,0,1,1.69-6.83,9.42,9.42,0,0,1,5.53-1.49,14.67,14.67,0,0,1,3.29.34,10,10,0,0,1,2.87,1.12l-0.87,4.11a14.17,14.17,0,0,0-2.24-.76,10,10,0,0,0-2.47-.29,5.65,5.65,0,0,0-1.75.21,0.85,0.85,0,0,0-.61.88,1,1,0,0,0,.73,1l1.86,0.73c0.57,0.21,1.22.47,1.92,0.77a9.1,9.1,0,0,1,2,1.15,6.41,6.41,0,0,1,1.55,1.71,4.45,4.45,0,0,1,.63,2.41h0Z" transform="translate(-353.57 -447.13)"/>
    <path class="cls-6" d="M490.06,465.35H493v-4l6.28-3v7h5.53v4.78h-5.53v7.51a2.85,2.85,0,0,0,.49,1.77,2.11,2.11,0,0,0,1.78.65A11.59,11.59,0,0,0,503,480a10.25,10.25,0,0,0,1.4-.29l0.43,4.38a8.89,8.89,0,0,1-2.32.67,16,16,0,0,1-2.74.24,7.63,7.63,0,0,1-3.12-.57,5.74,5.74,0,0,1-2.08-1.53,6.09,6.09,0,0,1-1.18-2.27,10.16,10.16,0,0,1-.37-2.81v-7.65h-2.94v-4.78h0Z" transform="translate(-353.57 -447.13)"/>
    <path class="cls-6" d="M516.26,469a2.82,2.82,0,0,0-2.29,1,4,4,0,0,0-.81,2.64h5.57a2.36,2.36,0,0,0,.08-0.66,3.29,3.29,0,0,0-.66-2.1,2.28,2.28,0,0,0-1.89-.84h0Zm0.2-4a8,8,0,0,1,6,2.22,8.31,8.31,0,0,1,2.2,6.14,15.87,15.87,0,0,1-.35,3.18H513.14a4,4,0,0,0,1.19,2.84,4.79,4.79,0,0,0,3.43,1.08,18.09,18.09,0,0,0,3-.25,10.79,10.79,0,0,0,2.68-.77l0.79,4a13.71,13.71,0,0,1-3.36,1.14A18.84,18.84,0,0,1,517,485a12.56,12.56,0,0,1-4.43-.72,9.09,9.09,0,0,1-3.22-2,8.55,8.55,0,0,1-2-3.1,11.46,11.46,0,0,1-.67-4,12.26,12.26,0,0,1,.69-4.23,9,9,0,0,1,2-3.2,8.58,8.58,0,0,1,3.08-2,11,11,0,0,1,4-.71h0Z" transform="translate(-353.57 -447.13)"/>
    <path class="cls-6" d="M540.47,470.75h-0.75q-3.72,0-5.25,1.88v11.93H528.2V465.35h6.08v3.21a5.33,5.33,0,0,1,1.69-2.47,4.66,4.66,0,0,1,3-.9,5.86,5.86,0,0,1,.92.06c0.25,0,.5.1,0.77,0.17l-0.16,5.34h0Z" transform="translate(-353.57 -447.13)"/>
    <path class="cls-6" d="M556.75,478.28a6.49,6.49,0,0,1-.61,2.87,5.71,5.71,0,0,1-1.73,2.09,7.7,7.7,0,0,1-2.64,1.28,12.36,12.36,0,0,1-3.38.43,20.11,20.11,0,0,1-3.29-.29,14.28,14.28,0,0,1-3.14-.89l0.86-4.35a12.47,12.47,0,0,0,2.69.76,15.19,15.19,0,0,0,2.57.26,5.44,5.44,0,0,0,2-.33,1.16,1.16,0,0,0,.84-1.12,1,1,0,0,0-.74-1c-0.5-.2-1.24-0.48-2.24-0.85a17.74,17.74,0,0,1-2.27-1,7.5,7.5,0,0,1-1.83-1.25,5.23,5.23,0,0,1-1.19-1.67,5.17,5.17,0,0,1-.44-2.2,5.29,5.29,0,0,1,2.12-4.63,9.43,9.43,0,0,1,5.53-1.49,14.7,14.7,0,0,1,3.3.34A9.93,9.93,0,0,1,556,466.4l-0.86,4.11a14.23,14.23,0,0,0-2.24-.76,9.92,9.92,0,0,0-2.47-.29,5.57,5.57,0,0,0-1.74.21,0.85,0.85,0,0,0-.61.88,1,1,0,0,0,.72,1l1.87,0.73c0.57,0.21,1.21.47,1.92,0.77a8.9,8.9,0,0,1,2,1.15,6.38,6.38,0,0,1,1.55,1.71,4.45,4.45,0,0,1,.63,2.41h0Z" transform="translate(-353.57 -447.13)"/>
  </g>
</svg>
