<svg width="210" height="70px" id="Layer_1" data-name="Layer 1" xmlns="http://www.w3.org/2000/svg" viewBox="0 0 225.7 142.47">
  <defs>
    <style>
      .cls-1, .cls-2 {
        fill: #fff;
      }

      .cls-2 {
        fill-rule: evenodd;
      }

      .cls-3 {
        fill: #fff;
      }

      .cls-4 {
        fill: #3d3d49;
      }

      .cls-5 {
        fill: #fff;
      }

      .cls-6 {
        fill: #fff;
      }
    </style>
  </defs>
  <title>logo_PJ</title>
  <g>
    <path class="cls-1" d="M508.19,330.06a3.74,3.74,0,1,1,3.44-3.73A3.6,3.6,0,0,1,508.19,330.06Zm0-6.43a2.72,2.72,0,1,0,2.41,2.7A2.57,2.57,0,0,0,508.19,323.63Z" transform="translate(-285.93 -239.32)"/>
    <path class="cls-2" d="M506.6,328.18l0.73-3.76h0.89a1.73,1.73,0,0,1,1.07.27,1,1,0,0,1,.35.83,1.12,1.12,0,0,1-.34.84,1.57,1.57,0,0,1-.94.4l0.77,1.41H508.7l-0.88-1.71h0.12a1.64,1.64,0,0,0,1-.25,0.82,0.82,0,0,0,.35-0.71,0.78,0.78,0,0,0-.06-0.33,0.64,0.64,0,0,0-.19-0.24,0.78,0.78,0,0,0-.33-0.14,3.85,3.85,0,0,0-.68,0h-0.36L507,328.18H506.6Z" transform="translate(-285.93 -239.32)"/>
  </g>
  <g>
    <g>
      <path class="cls-3" d="M294.83,327.32a8.89,8.89,0,0,1-8.9-8.9V288.88c0-2.61,1.27-5.09,3.51-7.32,5.88-5.82,20.07-11.5,39-16A299.21,299.21,0,0,1,395,258.11v2.46A297.26,297.26,0,0,0,329,268c-18.66,4.35-32.76,10.2-37.8,15.31-1.93,1.94-2.78,3.79-2.78,5.58v29.54a6.44,6.44,0,0,0,6.44,6.44H495.08a6.45,6.45,0,0,0,6.43-6.44V288.88c0-1.79-.84-3.64-2.78-5.58-5-5.11-19.13-11-37.81-15.31a297.26,297.26,0,0,0-66-7.42v-2.46a299.3,299.3,0,0,1,66.53,7.48c18.9,4.47,33.1,10.15,39,16,2.23,2.23,3.51,4.71,3.51,7.32v29.54a8.91,8.91,0,0,1-8.9,8.9H294.83" transform="translate(-285.93 -239.32)"/>
      <path class="cls-4" d="M395,262.41c53.7,0,104.72,15.34,104.72,26.47v29.54a4.6,4.6,0,0,1-4.6,4.6H294.83a4.6,4.6,0,0,1-4.6-4.6V288.88c0-11.13,51-26.47,104.73-26.47" transform="translate(-285.93 -239.32)"/>
      <path class="cls-5" d="M294.83,323.85a5.43,5.43,0,0,1-5.43-5.43V288.88c0.09-3.45,3.58-6.49,9.25-9.56s13.81-6,23.58-8.64c19.54-5.25,45.79-9.09,72.73-9.09v1.64c-40.16,0-78.9,8.64-95.54,17.54-5.58,2.93-8.47,6-8.37,8.1v29.54a3.78,3.78,0,0,0,3.78,3.78H495.08a3.78,3.78,0,0,0,3.78-3.78V288.88c0.09-2.12-2.8-5.18-8.37-8.1s-13.56-5.91-23.25-8.51c-19.38-5.21-45.52-9-72.28-9v-1.64c40.4,0,79.18,8.62,96.29,17.73,5.67,3.07,9.15,6.11,9.25,9.56v29.54a5.42,5.42,0,0,1-5.42,5.43H294.83" transform="translate(-285.93 -239.32)"/>
      <polyline class="cls-3" points="78.59 9.65 62.99 13.11 68.62 19.25 66.96 28.97 84.47 26.16 78.59 9.65"/>
      <path class="cls-5" d="M353.37,258.92l-6.54-7.14,17.46-3.86,0.94-.21,6.64,18.64-20.33,3.27,1.83-10.7M351,253.09l4.71,5.14-1.5,8.74,14.71-2.37-5.12-14.34Zm12.48-3.74,1-.36Z" transform="translate(-285.93 -239.32)"/>
      <polyline class="cls-3" points="139.73 9.65 155.33 13.11 149.69 19.25 151.36 28.97 133.84 26.16 139.73 9.65"/>
      <path class="cls-5" d="M418.29,266.35l6.33-17.73,0.33-.91,18.39,4.07-6.55,7.14,1.84,10.7-20.34-3.27m2.95-1.74L435.95,267l-1.49-8.74,4.7-5.14-12.81-2.83Z" transform="translate(-285.93 -239.32)"/>
      <path class="cls-3" d="M395.08,262.36c7.42-.26,27,1.79,27,1.79l6.84-17.59s-4.27-6.14-33.85-6.14c-29.23,0-33.84,6.14-33.84,6.14l6.84,17.59s19.59-2,27-1.79" transform="translate(-285.93 -239.32)"/>
      <path class="cls-5" d="M422,265.24s-17.35-1.81-25.45-1.81l-1.4,0H395l-1.39,0c-8.11,0-25.43,1.81-25.46,1.81l-0.82.08L360,246.38l0.37-.49c0.39-.46,5.35-6.56,34.71-6.58,29.7,0,34.34,6.1,34.75,6.61l0.33,0.47-7.36,18.92-0.84-.08M421.38,263l6.27-16.14-0.45-.33a17.62,17.62,0,0,0-4.43-2c-4.61-1.49-13-3-27.68-3-23.6,0-30.87,4-32.54,5.33L368.8,263c3.56-.35,17.59-1.73,24.85-1.73l1.43,0,1.43,0C403.78,261.24,417.82,262.62,421.38,263Zm-26.29-.62,0-1.09Z" transform="translate(-285.93 -239.32)"/>
      <path class="cls-3" d="M303.26,317.9v-5.78c0.88-.53.79-1.36,0.79-2.2V291.2l-2.8,1.24v17.48c0,0.84-.09,1.67.79,2.2v5.78h-9v-5.78a1.5,1.5,0,0,0,.8-1.3V299.41c0-1.74.08-1.68-.8-2.2V290.6c8.22-5.85,19.18-8.74,19.18-8.74v6.25c-0.88.53-.8,1.65-0.8,2.5v19.31c0,0.84-.08,1.67.8,2.2v5.78h-9" transform="translate(-285.93 -239.32)"/>
      <path class="cls-3" d="M344.7,317.9v-5.78c0.88-.53,1.37-0.53,1.37-1.36V280.13l-3.87.59,0.09,30.07c0,0.84.31,0.8,1.2,1.33v5.78h-9v-5.78c0.88-.53.8-1.36,0.8-2.2V284.64a3.09,3.09,0,0,0-1.6-2.33v-5.74c6.41-1.71,20.51-3.52,20.51-3.52v5.78a2.73,2.73,0,0,0-1.33,2.31v28.78c0,0.84-.09,1.67.79,2.2v5.78h-9" transform="translate(-285.93 -239.32)"/>
      <path class="cls-3" d="M313.87,317.9v-5.78c0.79-.53,1.29-4.39,1.52-5.24L318.6,280a76.07,76.07,0,0,1,9.06-2.26l3,29.5c0.14,0.7.83,4.66,1.66,4.89v5.78H324v-5.78c0.58-.21.86-2.43,0.86-3l-0.11-3.36h-3.56L321,309.1c0,0.63.33,2.87,1,3v5.78h-8.14m9-30.54h-0.06l-1.16,13.1h2.43Z" transform="translate(-285.93 -239.32)"/>
      <path class="cls-3" d="M355.43,317.9v-5.78c0.8-.53,1.3-4.39,1.52-5.24l3-34.47c3.59-.44,9.35-0.94,9.35-0.94L374,307.23c0.14,0.7.83,4.66,1.66,4.89v5.78H366.5v-5.78c0.58-.21.86-2.43,0.86-3l-0.12-5.16h-4.5l-0.12,5.16c0,0.63.34,2.87,1,3v5.78h-8.15m9.44-35.74h0l-1.64,15.6h3.39Z" transform="translate(-285.93 -239.32)"/>
      <path class="cls-3" d="M385.28,307.8V278.44c0-.84.08-1.67-0.8-2.19v-5.56c9.16-.47,19.52,0,19.52,0v5.57c-0.88.52-.8,1.35-0.8,2.2v31.47c0,1.1,1.15,1.73,2.56,2.2v8h-6.86v-1.54c0-1-.25-0.69-1.31-0.69h-5.45c-1.05,0-1.31-.33-1.31.69v1.54h-8.25V312c2.74,0,2.7-2.61,2.7-4.19m11.08-31.65h-3.77v30a9,9,0,0,1-.64,3.82h4.41V276.15Z" transform="translate(-285.93 -239.32)"/>
      <path class="cls-3" d="M426.73,277.78c-0.88.52-.79,1.36-0.79,2.21L425.72,291l3.75-9.18c0.71-1.69.54-3.34,0.1-3.76v-5.75c2.47,0.2,8,1,8,1V279a3.38,3.38,0,0,0-2.2,2.35l-4.87,14,3.54,14.39a3.59,3.59,0,0,0,3.1,2.39v6.73H428.7v-6.73c0.54-.84.22-1.17-0.2-2.86l-2.72-10h0v10.39c0,0.83,0,1.93.83,2.45l0,6.73h-9l0-6.73c0.88-.52.75-1.71,0.75-2.55V301l-0.05-1.73-2.74,9.84c-0.43,1.84-.73,2.27-0.25,3l0.06,6.73h-8.17v-6.51a4.43,4.43,0,0,0,2.74-2.4l3.38-14.41L408.89,281c-1.11-4.24-1.68-4-2.49-4.64v-5.62c1.69,0,9,.41,9,0.41l0,5.68c-0.32.29-2,.65-0.27,5.66l3.26,8.57,0.23-11.69c0-.84.07-2-0.81-2.52V271.3c1.33,0,9,.72,9,0.72v5.76" transform="translate(-285.93 -239.32)"/>
      <path class="cls-3" d="M447.05,319.29c-5.09,0-8.59-3.08-8.59-8.5V282c0-5.42,3.51-8.09,8.59-7.81,6.89,0.38,8.6,3.35,8.6,8.77v27.87c0,5.41-3.5,8.5-8.6,8.5m0-6.46a1.48,1.48,0,0,0,1.41-1.72V282.53a1.43,1.43,0,1,0-2.8,0v28.58A1.48,1.48,0,0,0,447.05,312.83Z" transform="translate(-285.93 -239.32)"/>
      <path class="cls-3" d="M468.55,317.9v-5.78c0.88-.53.81-1.36,0.81-2.2v-7.79h-2.82v7.79c0,0.84-.09,1.67.8,2.2v5.78h-9v-5.78c0.88-.53.8-1.36,0.8-3.1V284.17a1.5,1.5,0,0,0-.8-1.3v-6l9,2.17v6c-0.88.53-.8,1.16-0.8,2v10.75h2.82v-10.2c0-.84.07-1.68-0.81-2.2v-6.09l9,2.31V288a1.47,1.47,0,0,0-.81,1.3V309c0,1.74-.08,2.57.81,3.1v5.78h-9" transform="translate(-285.93 -239.32)"/>
      <path class="cls-3" d="M488.44,292.41c-1.55,0-1.35,1.56-1.35,2.48V311c0,0.93-.2,2.49,1.35,2.49s1.88-1.56,1.88-2.49v-2.54H496V316a11,11,0,0,1-7,2.38c-2.95.08-5.83-.55-7.29-1.85-2.05-1.81-2-4.16-2-6.63V293.7c0-2,.28-4.55,2-5.92s4.23-1.2,7-1.09,4.85,2.24,7.22,3.74v6.74h-5.65v-2.28c0-.92-0.33-2.48-1.88-2.48" transform="translate(-285.93 -239.32)"/>
      <path class="cls-3" d="M482.92,282.1a1.69,1.69,0,0,1,.57,1.72c-0.22,1.18-1.47,2.06-2.4,2.87-0.27-.17-0.71-0.51-0.35-0.84a1.76,1.76,0,0,0,.66-1.14c-0.54-.37-1.37-0.63-1.37-1.39a1.7,1.7,0,0,1,.36-1.26,2.23,2.23,0,0,1,2.54,0" transform="translate(-285.93 -239.32)"/>
      <path class="cls-5" d="M304.25,317.45v-5.78c0.89-.52.8-1.36,0.8-2.2V290.74L302.24,292l0,17.48c0,0.83-.07,1.67.82,2.2v5.78h-9v-5.78a1.49,1.49,0,0,0,.8-1.3V299c0-1.74.08-1.67-.8-2.21v-6.61c8.22-5.85,19.16-8.74,19.16-8.74v6.26c-0.88.52-.8,1.65-0.8,2.49v19.32c0,0.83-.08,1.67.8,2.2v5.78h-9" transform="translate(-285.93 -239.32)"/>
      <path class="cls-5" d="M345.69,317.45v-5.78c0.88-.52,1.37-0.52,1.37-1.36V279.67l-3.87.59,0.09,30.08c0,0.83.31,0.8,1.21,1.32v5.78h-9v-5.78c0.88-.52.81-1.36,0.81-2.2V284.19a3.13,3.13,0,0,0-1.61-2.33l-0.3-5.62c6.4-1.71,21.47-3.64,21.47-3.64v5.78a2.74,2.74,0,0,0-1.33,2.31l-0.66,28.78c0,0.83-.09,1.67.79,2.2v5.78h-9" transform="translate(-285.93 -239.32)"/>
      <path class="cls-5" d="M314.86,317.45v-5.78c0.79-.52,1.29-4.37,1.52-5.24l3.21-26.88a54.75,54.75,0,0,1,9.32-2.09l2.75,29.32c0.13,0.71.82,4.66,1.64,4.9v5.78H325v-5.78c0.59-.2.86-2.43,0.86-3l-0.11-3.35h-3.56L322,308.64c0,0.63.33,2.88,1,3v5.78h-8.14m9-30.54h-0.06L322.62,300H325Z" transform="translate(-285.93 -239.32)"/>
      <path class="cls-5" d="M356.43,317.45v-5.78c0.8-.52,1.3-4.37,1.53-5.24l3-34.47c3.6-.43,9.37-1,9.37-1L375,306.77c0.14,0.71.83,4.66,1.66,4.9v5.78h-9.2v-5.78c0.6-.2.87-2.43,0.87-3l-0.11-5.15h-4.51l-0.12,5.15c0,0.63.34,2.88,1,3v5.78h-8.15m9.45-35.73h-0.06l-1.62,15.6h3.38Z" transform="translate(-285.93 -239.32)"/>
      <path class="cls-5" d="M386.27,307.34V278c0-.83.08-1.68-0.79-2.2v-5.56c9.16-.47,19.52,0,19.52,0v5.56c-0.88.52-.81,1.37-0.81,2.21v31.47c0,1.09,1.15,1.72,2.57,2.2v8h-6.87v-1.53c0-1-.25-0.7-1.29-0.7h-5.46c-1,0-1.3-.33-1.3.7v1.53h-8.26v-8.13c2.73,0,2.7-2.62,2.7-4.19m11.08-31.64h-3.77v29.95a9,9,0,0,1-.64,3.83h4.41V275.7Z" transform="translate(-285.93 -239.32)"/>
      <path class="cls-5" d="M427.73,277.32c-0.89.53-.8,1.36-0.8,2.19l-0.21,11.05,3.75-9.16c0.71-1.69.53-3.35,0.1-3.76V271.9c2.47,0.2,8,1,8,1v5.68a3.4,3.4,0,0,0-2.2,2.35l-4.87,13.95,3.55,14.38a3.57,3.57,0,0,0,3.1,2.4v6.73h-8.45v-6.73c0.54-.84.22-1.18-0.2-2.87l-2.71-10h-0.06v10.39c0,0.84-.05,1.93.84,2.46l0,6.73h-9l0-6.73c0.89-.53.76-1.71,0.76-2.55v-8.56l-0.06-1.73-2.75,9.84c-0.43,1.84-.7,2.27-0.24,3l0.07,6.73h-8.17v-6.5a4.44,4.44,0,0,0,2.73-2.41L414.29,295l-4.41-14.49c-1.11-4.24-1.68-4-2.49-4.64v-5.62c1.69,0,9,.41,9,0.41l0,5.67c-0.31.29-2,.66-0.26,5.67l3.27,8.55,0.21-11.66c0-.85.08-2-0.81-2.53v-5.54c1.34,0,9,.72,9,0.72v5.76" transform="translate(-285.93 -239.32)"/>
      <path class="cls-5" d="M448.05,318.83c-5.1,0-8.61-3.08-8.61-8.5V281.51c0-5.42,3.52-8.1,8.61-7.81,6.87,0.37,8.59,3.35,8.59,8.77v27.86c0,5.42-3.5,8.5-8.59,8.5m0-6.47a1.47,1.47,0,0,0,1.39-1.7V282.07a1.42,1.42,0,1,0-2.8,0v28.58A1.47,1.47,0,0,0,448.05,312.36Z" transform="translate(-285.93 -239.32)"/>
      <path class="cls-5" d="M469.54,317.45v-5.78c0.88-.52.8-1.36,0.8-2.2v-7.8h-2.82v7.8c0,0.83-.07,1.67.81,2.2v5.78h-9v-5.78c0.9-.52.81-1.36,0.81-3.1V283.72a1.48,1.48,0,0,0-.81-1.3v-6l9,2.17v6c-0.88.52-.81,1.15-0.81,2v10.76h2.82V287.09c0-.83.09-1.67-0.8-2.2V278.8l9,2.31v6.38a1.46,1.46,0,0,0-.8,1.3v19.77c0,1.73-.09,2.58.8,3.1v5.78h-9" transform="translate(-285.93 -239.32)"/>
      <path class="cls-5" d="M489.44,292c-1.55,0-1.36,1.57-1.36,2.48v16.12c0,0.92-.19,2.49,1.36,2.49s1.87-1.58,1.87-2.49V308H497v7.5a11.15,11.15,0,0,1-7,2.38c-3,.08-5.82-0.55-7.28-1.86-2-1.81-2-4.17-2-6.63V293.25c0-2,.28-4.55,2-5.92s4.24-1.21,7-1.1,4.84,2.25,7.23,3.74v6.75h-5.66v-2.29c0-.91-0.33-2.48-1.87-2.48" transform="translate(-285.93 -239.32)"/>
      <path class="cls-5" d="M483.9,281.64a1.64,1.64,0,0,1,.58,1.72c-0.22,1.18-1.46,2.06-2.4,2.87-0.27-.18-0.71-0.51-0.35-0.84s0.75-.64.66-1.13c-0.53-.39-1.38-0.64-1.38-1.4a1.74,1.74,0,0,1,.36-1.26,2.21,2.21,0,0,1,2.53,0" transform="translate(-285.93 -239.32)"/>
      <path class="cls-4" d="M378.64,248.09a0.92,0.92,0,0,0-.91,1.22l0.74,6.07c0.13,1,.38,1.21,1.2,1.11l0.06,0.5-4.16.54,0-.48a0.9,0.9,0,0,0,.91-1.19l-0.79-6.3c-0.08-.63-0.28-0.93-0.88-0.84l-1.52.2c-0.6.09-.71,0.44-0.64,1l0.78,6.31a0.87,0.87,0,0,0,1.17.91l0.11,0.46-4.19.7-0.07-.58a0.91,0.91,0,0,0,.91-1.2l-0.77-6.27c-0.11-.85-0.42-0.94-1.18-0.94l0-.34c3.11-.62,9.24-1.43,9.24-1.43l0.07,0.5" transform="translate(-285.93 -239.32)"/>
      <path class="cls-4" d="M389.7,246.81l0,0.51a0.92,0.92,0,0,0-1,1.15l0.39,6.23c0,0.85.36,1,1.12,1l0,0.5-4.18.26,0-.47a0.91,0.91,0,0,0,1-1.14l-0.4-6.49h-0.13l-2.68,8.26-3.19.28,0-.56c0.75-.13,1-0.29,1-1.14L381.25,249c-0.06-.85-0.36-1-1.12-1l0-.5,4.14-.39,0.06,0.6c-0.77.18-1,.31-1,1.14l0.39,6.23,0.12,0,2.66-8.08,3.21-.17" transform="translate(-285.93 -239.32)"/>
      <path class="cls-4" d="M400.88,247.27c-0.75.08-1.06,0.22-1.06,1.05v6.2c0,0.83.39,1,1.15,1l0.2,3.38h-0.65a4,4,0,0,0-.65-2.1A2.13,2.13,0,0,0,398,256s-4.87-.1-6.47,0v-0.55a0.88,0.88,0,0,0,1.06-1v-6.14c0-.83-0.31-1-1.06-1.05v-0.44l4.2-.06v0.5c-0.76.08-1.06,0.22-1.06,1.05v6.27a0.73,0.73,0,0,0,.77.92H397a0.73,0.73,0,0,0,.77-0.92v-6.27c0-.83-0.31-1-1.06-1.05v-0.5l4.2,0.1v0.4" transform="translate(-285.93 -239.32)"/>
      <path class="cls-4" d="M411.81,248.19c-0.76,0-1.07.15-1.11,1l-0.41,6.17c-0.05.82,0.32,1,1.08,1.05l0,3.37-0.65,0a4.05,4.05,0,0,0-.51-2.13,2.16,2.16,0,0,0-1.81-.92s-4.92-.48-6.47-0.48l0-.49a0.87,0.87,0,0,0,1.12-1l0.41-6.11c0.06-.82-0.24-1-1-1.13l0-.49,4.19,0.31,0,0.49c-0.75,0-1.07.14-1.12,1l-0.4,6.22a0.73,0.73,0,0,0,.7,1l1.54,0.11a0.73,0.73,0,0,0,.83-0.85l0.41-6.23c0.05-.83-0.24-1-1-1.12l0-.5,4.18,0.4,0,0.4" transform="translate(-285.93 -239.32)"/>
      <path class="cls-4" d="M421.13,258.4c-1.86-.37-4.46-0.67-4.46-0.67l0.07-.5c0.53,0,1.21.09,1.3-.5l0-.48-0.28-1.72-2.84-.42-0.49,1.12-0.18.55a1.08,1.08,0,0,0,.89,1.21l-0.06.5-2.84-.43,0.07-.5a2.74,2.74,0,0,0,1.55-1.67l3.08-6.71,1.86,0.29,1.35,7.45c0.14,0.8.35,2,1.08,2l-0.07.5m-3.51-4.57L416.95,250l-0.19,0-1.59,3.51Z" transform="translate(-285.93 -239.32)"/>
    </g>
    <g>
      <path class="cls-6" d="M300,337.38v12.38h-3.33V340.1h-2.24v2.59c0,3.4-.51,5.62-2.44,6.67a5.56,5.56,0,0,1-2.72.63l-0.4-2.66a2.35,2.35,0,0,0,1.45-.68c0.66-.7.88-1.93,0.88-3.75v-5.51H300Z" transform="translate(-285.93 -239.32)"/>
      <path class="cls-6" d="M305.25,337.35l1.51,4.1c0.35,0.92.59,1.69,0.86,2.44h0.06c0.13-.5.33-1.36,0.64-2.5l1.08-4h3.49l-2.2,6a19.68,19.68,0,0,1-2.5,5,4.21,4.21,0,0,1-3.51,1.69,4.38,4.38,0,0,1-1.58-.24l0.22-2.66a4,4,0,0,0,1.07.11,1.38,1.38,0,0,0,1.36-.72,0.52,0.52,0,0,0-.06-0.5l-4.19-8.71h3.75Z" transform="translate(-285.93 -239.32)"/>
      <path class="cls-6" d="M317.56,337.38v3.53a1.66,1.66,0,0,0,1.84,1.87,3.73,3.73,0,0,0,1.54-.37v-5h3.31V350h-3.31v-5.13h-0.06a6.4,6.4,0,0,1-2.68.57,3.58,3.58,0,0,1-4-3.91v-4.12h3.31Z" transform="translate(-285.93 -239.32)"/>
      <path class="cls-6" d="M330.15,337.38V347h2.63v-9.66H336V347h2.65v-9.66h3.25v12.38h-15V337.38h3.25Z" transform="translate(-285.93 -239.32)"/>
      <path class="cls-6" d="M352.34,344.77H347.9V347h5v2.72h-8.3V337.38h8v2.72H347.9v2h4.45v2.68Z" transform="translate(-285.93 -239.32)"/>
      <path class="cls-6" d="M362.12,337.38v3c0,2-.06,4.1-0.15,5.75H362c0.68-1.52,1.54-3.29,2.19-4.56l2.11-4.21h3.4v12.38h-3v-3a48.32,48.32,0,0,1,.22-5.29h-0.06a36.73,36.73,0,0,1-2,4.52l-1.93,3.73h-3.82V337.38h3Z" transform="translate(-285.93 -239.32)"/>
      <path class="cls-6" d="M375.71,337.38V342h4v-4.59h3.33v12.38h-3.33v-4.89h-4v4.89h-3.33V337.38h3.33Z" transform="translate(-285.93 -239.32)"/>
      <path class="cls-6" d="M393.61,337.38v2.72H389v9.66h-3.33V337.38h7.9Z" transform="translate(-285.93 -239.32)"/>
      <path class="cls-6" d="M395.52,337.57a25.38,25.38,0,0,1,4.08-.28,6.38,6.38,0,0,1,3.93,1,3.67,3.67,0,0,1,1.41,3,4,4,0,0,1-1.21,3,6.1,6.1,0,0,1-4.12,1.29c-0.33,0-.61,0-0.81,0v4.21h-3.29v-12.2Zm3.29,5.46a7,7,0,0,0,.75,0c1.29,0,2.09-.66,2.09-1.73s-0.61-1.54-1.87-1.54a5,5,0,0,0-1,.07V343Z" transform="translate(-285.93 -239.32)"/>
      <path class="cls-6" d="M414.72,344.77h-4.45V347h5v2.72H407V337.38h8v2.72h-4.72v2h4.45v2.68Z" transform="translate(-285.93 -239.32)"/>
      <path class="cls-6" d="M428,337.38v9.77l1.3,0.09L429.13,353h-2.5l-0.17-3.2h-7l-0.17,3.2h-2.5l-0.11-5.71,1.08-.09a12.06,12.06,0,0,0,1.16-2.76,14,14,0,0,0,.44-3.64v-3.38H428Zm-5.55,4a13.82,13.82,0,0,1-.51,3.66,10.32,10.32,0,0,1-.79,2h3.53v-7h-2.22v1.34Z" transform="translate(-285.93 -239.32)"/>
      <path class="cls-6" d="M434.05,337.38v3c0,2-.05,4.1-0.15,5.75H434c0.68-1.52,1.54-3.29,2.19-4.56l2.11-4.21h3.4v12.38h-3v-3a48.07,48.07,0,0,1,.22-5.29h-0.06a36.67,36.67,0,0,1-2,4.52l-1.93,3.73H431V337.38h3Z" transform="translate(-285.93 -239.32)"/>
      <path class="cls-6" d="M452.09,344.77h-4.45V347h5v2.72h-8.3V337.38h8v2.72h-4.72v2h4.45v2.68Z" transform="translate(-285.93 -239.32)"/>
      <path class="cls-6" d="M458.16,337.38V342h4v-4.59h3.33v12.38h-3.33v-4.89h-4v4.89h-3.33V337.38h3.33Z" transform="translate(-285.93 -239.32)"/>
      <path class="cls-6" d="M470.56,340.17H467.4v-2.79h9.7v2.79h-3.21v9.59h-3.33v-9.59Z" transform="translate(-285.93 -239.32)"/>
      <path class="cls-6" d="M482.28,337.38v4.17a9.11,9.11,0,0,1,1.34-.11c2.57,0,5,1.34,5,4.15a3.7,3.7,0,0,1-1,2.68c-1.27,1.27-3.51,1.64-5.38,1.64a18.47,18.47,0,0,1-3.22-.22V337.38h3.29Zm0,10a4.81,4.81,0,0,0,.83.06,1.87,1.87,0,0,0,2-1.76,1.84,1.84,0,0,0-2-1.69,7.91,7.91,0,0,0-.88.07v3.33Zm10.67-10v12.36h-3.33V337.38h3.33Z" transform="translate(-285.93 -239.32)"/>
      <path class="cls-6" d="M497.77,350a1.93,1.93,0,1,1,1.91-1.93,1.82,1.82,0,0,1-1.91,1.93h0Z" transform="translate(-285.93 -239.32)"/>
      <path class="cls-6" d="M305.8,358.41V377h-5V362.5h-3.36v3.89c0,5.1-.77,8.44-3.67,10a8.35,8.35,0,0,1-4.08.94l-0.61-4a3.52,3.52,0,0,0,2.18-1c1-1,1.32-2.89,1.32-5.62v-8.27H305.8Z" transform="translate(-285.93 -239.32)"/>
      <path class="cls-6" d="M313.65,358.36l2.26,6.15c0.52,1.38.88,2.54,1.3,3.67h0.08c0.19-.74.5-2,1-3.75l1.63-6.07h5.24l-3.31,9c-1.19,3.06-2.34,5.85-3.75,7.55a6.32,6.32,0,0,1-5.27,2.54,6.59,6.59,0,0,1-2.37-.36l0.33-4a6,6,0,0,0,1.6.16,2.07,2.07,0,0,0,2-1.08,0.79,0.79,0,0,0-.08-0.74L308,358.36h5.62Z" transform="translate(-285.93 -239.32)"/>
      <path class="cls-6" d="M332.12,358.41v5.29a2.49,2.49,0,0,0,2.76,2.81,5.6,5.6,0,0,0,2.32-.55v-7.55h5V377.3h-5v-7.69h-0.08a9.6,9.6,0,0,1-4,.85c-3.75,0-5.93-2.12-5.93-5.87v-6.18h5Z" transform="translate(-285.93 -239.32)"/>
      <path class="cls-6" d="M351,358.41v14.5h3.94v-14.5h4.88v14.5h4v-14.5h4.88V377H346.13V358.41H351Z" transform="translate(-285.93 -239.32)"/>
      <path class="cls-6" d="M384.31,369.5h-6.67v3.42h7.47V377H372.64V358.41h12.08v4.08h-7.09v3h6.67v4Z" transform="translate(-285.93 -239.32)"/>
      <path class="cls-6" d="M410.14,358.41V377h-5V362.5h-5.74V377h-5V358.41h15.72Z" transform="translate(-285.93 -239.32)"/>
      <path class="cls-6" d="M418.62,358.41v4.52c0,3-.08,6.15-0.22,8.63h0.08c1-2.29,2.32-4.94,3.28-6.84l3.17-6.31H430V377h-4.55v-4.44a72.56,72.56,0,0,1,.33-7.94h-0.08a55.11,55.11,0,0,1-3,6.78l-2.9,5.6h-5.73V358.41h4.55Z" transform="translate(-285.93 -239.32)"/>
      <path class="cls-6" d="M439,358.41v14.5h5.62v-14.5h5v14.67l2,0.14-0.22,8.58h-3.75l-0.25-4.8H434V358.41h5Z" transform="translate(-285.93 -239.32)"/>
      <path class="cls-6" d="M459.23,358.41v14.5h5.62v-14.5h5v14.67l2,0.14-0.22,8.58h-3.75l-0.25-4.8H454.24V358.41h5Z" transform="translate(-285.93 -239.32)"/>
      <path class="cls-6" d="M479.6,372.7l-1,4.3h-5.16l5.4-18.58h6.62L491,377h-5.38l-1.19-4.3h-4.8Zm4.11-3.67-0.85-3.34c-0.28-1-.63-2.56-0.91-3.67h-0.06c-0.28,1.1-.55,2.62-0.83,3.67l-0.8,3.34h3.45Z" transform="translate(-285.93 -239.32)"/>
      <path class="cls-6" d="M496.33,377.3a2.9,2.9,0,1,1,2.87-2.9,2.73,2.73,0,0,1-2.87,2.9h0Z" transform="translate(-285.93 -239.32)"/>
    </g>
  </g>
</svg>
