<svg height="70px" id="Design" xmlns="http://www.w3.org/2000/svg" viewBox="0 0 119.84 69.24">
  <defs>
    <style>
      .cls-1 {
        fill: #fff;
      }
    </style>
  </defs>
  <title>logo_molinos</title>
  <g>
    <path class="cls-1" d="M521.8,210.77c1.68,3.46,2.4,5.17,3,6.58h0.15c0.64-1.54,1.33-3.27,2.84-6.38l2.86-6H533v16.66h-1.9V208.05H531c-0.45,1.06-.87,2.05-1.34,3.07l-3.93,8.16H524l-3.36-6.85c-0.7-1.41-1.41-3-2-4.32h-0.1v13.57h-1.88V205H519Z" transform="translate(-516.71 -152.65)"/>
    <path class="cls-1" d="M553.19,213.49c0,4.23-1.59,8.38-7.1,8.38s-7.1-3.41-7.1-8.36c0-5.12,2-8.68,7.17-8.68C551.68,204.83,553.19,208.94,553.19,213.49Zm-12.27,0c0,4.55,1.78,6.68,5.17,6.68,3.17,0,5.12-2.12,5.12-6.7,0-4.13-1.36-6.92-5.07-6.92C542.26,206.57,540.92,209.36,540.92,213.52Z" transform="translate(-516.71 -152.65)"/>
    <path class="cls-1" d="M559.23,205h1.93v14.94h9v1.73H559.23V205Z" transform="translate(-516.71 -152.65)"/>
    <path class="cls-1" d="M576.2,205h1.88v16.66H576.2V205Z" transform="translate(-516.71 -152.65)"/>
    <path class="cls-1" d="M587,208.18v13.5h-1.9V205h1.78l5.61,7.89c1.28,1.81,2.55,3.74,3.78,5.59h0.13V205h1.9v16.66h-1.77l-6.11-8.6c-1.11-1.56-2.27-3.14-3.32-4.92A0.15,0.15,0,0,1,587,208.18Z" transform="translate(-516.71 -152.65)"/>
    <path class="cls-1" d="M618.55,213.49c0,4.23-1.58,8.38-7.09,8.38s-7.1-3.41-7.1-8.36c0-5.12,2-8.68,7.17-8.68C617,204.83,618.55,208.94,618.55,213.49Zm-12.26,0c0,4.55,1.78,6.68,5.17,6.68,3.16,0,5.11-2.12,5.11-6.7,0-4.13-1.36-6.92-5.07-6.92C607.62,206.57,606.29,209.36,606.29,213.52Z" transform="translate(-516.71 -152.65)"/>
    <path class="cls-1" d="M634.57,217.2c0-2-1.38-3-4.35-3.34s-6-.94-6-4.23c0-2.43,1.53-4.82,6.08-4.82,2.72,0,5.81,1.31,5.81,4.4a5,5,0,0,1,0,.54h-1.8c-0.05-1.71-1.33-3.19-4.08-3.19s-4,1.31-4,2.79c0,2,1.86,2.3,4.85,2.75,3.39,0.5,5.59,1.73,5.59,4.92,0,2.47-1.93,4.87-6.5,4.87-3.46,0-6.45-1.48-6.45-4.77a6.39,6.39,0,0,1,0-.67h1.78c0.05,2,1.41,3.73,4.67,3.73S634.57,218.64,634.57,217.2Z" transform="translate(-516.71 -152.65)"/>
    <g>
      <path class="cls-1" d="M551,188.76H534a1,1,0,0,1-1-1V170.71a1,1,0,0,1,.29-0.71l17.05-17.06a1,1,0,0,1,.71-0.29H568.1a1,1,0,0,1,0,2H551.46L535,171.12v15.64h15.64L567.39,170a1,1,0,1,1,1.41,1.41l-17.05,17.05A1,1,0,0,1,551,188.76Z" transform="translate(-516.71 -152.65)"/>
      <path class="cls-1" d="M585.16,188.76H568.1a1,1,0,0,1-.71-0.29l-8.53-8.53a1,1,0,1,1,1.41-1.41l8.24,8.23h16.64A1,1,0,0,1,585.16,188.76Z" transform="translate(-516.71 -152.65)"/>
      <path class="cls-1" d="M585.16,171.71a1,1,0,0,1-.71-0.29l-16.76-16.76H551a1,1,0,0,1,0-2H568.1a1,1,0,0,1,.71.29L585.86,170A1,1,0,0,1,585.16,171.71Z" transform="translate(-516.71 -152.65)"/>
      <path class="cls-1" d="M576.63,163.18a1,1,0,0,1-.71-1.71l8.53-8.53a1,1,0,1,1,1.41,1.41l-8.53,8.53A1,1,0,0,1,576.63,163.18Z" transform="translate(-516.71 -152.65)"/>
      <path class="cls-1" d="M585.16,188.76H568.1a1,1,0,0,1-1-1V170.71a1,1,0,0,1,2,0v16.05h15.64L601.5,170a1,1,0,1,1,1.41,1.41l-17.05,17.05A1,1,0,0,1,585.16,188.76Z" transform="translate(-516.71 -152.65)"/>
      <path class="cls-1" d="M619.27,188.76H602.21a1,1,0,0,1-.71-0.29L593,179.94a1,1,0,1,1,1.41-1.41l8.23,8.23h15.64V171.12L601.8,154.65H586.16v16.06a1,1,0,0,1-2,0V153.65a1,1,0,0,1,1-1h17.05a1,1,0,0,1,.71.29L620,170a1,1,0,0,1,.29.71v17.05A1,1,0,0,1,619.27,188.76Z" transform="translate(-516.71 -152.65)"/>
      <path class="cls-1" d="M602.21,188.76a1,1,0,0,1-1-1V170.71a1,1,0,1,1,2,0v17.05A1,1,0,0,1,602.21,188.76Z" transform="translate(-516.71 -152.65)"/>
      <path class="cls-1" d="M619.27,171.71H551a1,1,0,0,1-1-1V153.65a1,1,0,1,1,2,0v16.06h67.22A1,1,0,0,1,619.27,171.71Z" transform="translate(-516.71 -152.65)"/>
    </g>
  </g>
</svg>
