<svg width="210" height="70px" id="Layer_1" data-name="Layer 1" xmlns="http://www.w3.org/2000/svg" viewBox="0 0 713 226.51">
  <defs>
    <style>
      .cls-1 {
        fill: #fff;
      }

      .cls-2 {
        fill: #3d3d49;
      }

      .cls-3 {
        fill: #fff;
      }

      .cls-4 {
        fill: #fff;
      }
    </style>
  </defs>
  <title>logo_prnews</title>
  <rect class="cls-1" width="713" height="226.51"/>
  <rect class="cls-2" x="251.76" y="9" width="453.73" height="207.61"/>
  <path class="cls-2" d="M68.46,314.86q0,17,3.3,22t14.92,5v6.5H30.86v-6.5q11.82,0,15.12-5.13t3.29-21.88V237.61q0-17-3.29-22t-15.12-5v-6.5H98.11q18.41,0,30.24,9.07,13.37,10.24,13.37,28.38,0,21.68-17.64,31.34-14,7.67-38.77,7.68H68.46v34.3Zm0-40.8h7.37q21.9,0,32-5.91,13.57-7.89,13.57-27.79,0-15.19-9.5-22.87-8.53-6.88-24.23-6.9-12.78,0-16.47,5.91-2.72,4.34-2.71,18.33v39.23Z" transform="translate(-20 -166.19)"/>
  <path class="cls-2" d="M175.29,278.25v36.86q0,17,3.2,22t14.31,5v6.5H139.15v-6.5q11.11,0,14.3-5.13t3.2-21.88V238.24q0-15.76-1.69-19.71-3.21-7.68-15.81-7.68v-6.5h55.34q20.33,0,33.32,7.29,16.94,9.47,16.94,28.78,0,14.39-10.91,24.63a43.64,43.64,0,0,1-24.45,11.43l25.19,47.14c3.64,6.56,5.84,10.39,6.6,11.42q5.26,7.1,17.32,7.1v6.5H227.25l-38.59-70.37H175.29Zm0-6.5h9.79q16.19,0,27.1-7.1,12.8-8.46,12.8-24.25,0-13.79-10.35-22.06-9.41-7.51-23.15-7.5-10.92,0-13.93,5.13c-1.5,2.5-2.26,8-2.26,16.35v39.43Z" transform="translate(-20 -166.19)"/>
  <path class="cls-3" d="M403.66,311.85V237.78q0-16.79-3.08-21.91t-14.32-5.13v-6.5h43.41v6.5c-7.22,0-11.94,1.75-14.12,5.22s-3.28,10.74-3.28,21.77V348.52h-6.36l-81-120.06V315q0,17,3.18,22t14.41,5l-0.19,6.52H298.69V342q11.23,0,14.4-5.11c2.12-3.43,3.19-10.7,3.19-21.88V237.73q0-16.54-3.27-21.77t-14.32-5.22v-6.5l32.56,0Z" transform="translate(-20 -166.19)"/>
  <path class="cls-3" d="M436.27,292.51q0,18.53,5.66,31.15,7.55,16.76,23.39,16.75a32.83,32.83,0,0,0,17.26-4.83,44.47,44.47,0,0,0,13.67-13.1l3.2,3.15a50.5,50.5,0,0,1-15.74,16.95,37.07,37.07,0,0,1-20.85,6.32,42.08,42.08,0,0,1-32.52-14.49q-13.12-14.5-13.1-35a55.83,55.83,0,0,1,11.69-35.08q12.46-16.16,31.48-16.17,17.17,0,28.47,13.2a46.26,46.26,0,0,1,11.33,31.15H436.27ZM481.16,285c0.12-1.58.18-2.77,0.18-3.55q0-10.65-4.89-18.13a18.23,18.23,0,0,0-16.22-8.68q-11.12,0-17.53,10A37.18,37.18,0,0,0,437.23,285h43.93Z" transform="translate(-20 -166.19)"/>
  <path class="cls-3" d="M543.83,348.19h-5l-25.17-71q-3.8-10.65-5.53-13.4a13.59,13.59,0,0,0-12-6.32V251.8h38.91v5.72a12.6,12.6,0,0,0-6,1.38,4.59,4.59,0,0,0-2.59,4.33,14.18,14.18,0,0,0,.38,3.17,37.89,37.89,0,0,0,1.32,4.13L544.74,320l17.52-48.57c-1.63-4.84-3.66-8.39-6.07-10.61s-5.83-3.35-10.26-3.35V251.8h40.62v5.72a26.33,26.33,0,0,0-7.43.89,4,4,0,0,0-3.05,4.22,14.39,14.39,0,0,0,.5,3.55A38.54,38.54,0,0,0,578,270.7l16.33,47.88,17.4-47.84a16.78,16.78,0,0,0,.53-3.93c0-2.76-.66-4.77-2-6a10.76,10.76,0,0,0-5-2.57,31.29,31.29,0,0,0-7-.69V251.8h37.76v5.72q-7.25,0-12,7.09c-1.8,2.62-3.83,7.23-6.11,13.8L593.8,348.19h-5.72l-21.36-62.67Z" transform="translate(-20 -166.19)"/>
  <path class="cls-4" d="M702.29,278.85l-4.5,2.57q-9.37-12.59-15.55-18.1-9.74-8.65-20-8.66a15.64,15.64,0,0,0-10.31,3.75,12,12,0,0,0-4.5,9.65q0,9.48,15.17,15.78,14.07,5.71,28.31,11.23,15.34,8.65,15.35,24a27.66,27.66,0,0,1-9.36,21.08q-9.37,8.68-21.18,8.68a25.35,25.35,0,0,1-6.37-.79q-3.92-1.39-5.8-2c-1.26-.39-2.47-0.78-3.66-1.18a11.14,11.14,0,0,0-3.46-.59,14.18,14.18,0,0,0-5.62,1.19,18.59,18.59,0,0,0-5.25,3.35l-11.6-33.52L638,313.2a68.77,68.77,0,0,0,16.68,19.12q12.36,10.05,22.1,10.07a16.36,16.36,0,0,0,11.53-4.64,15.09,15.09,0,0,0,5-11.53q0-10.27-15-16.37-14.05-5.13-28.11-10.45Q635,291.32,635,276.14a25.79,25.79,0,0,1,8.89-20,29.86,29.86,0,0,1,20.53-8,44.81,44.81,0,0,1,9.74,1.57,44,44,0,0,0,8.81,1.58q4.67,0,8.43-4.59Z" transform="translate(-20 -166.19)"/>
</svg>
