<svg height="70px" id="Layer_1" data-name="Layer 1" xmlns="http://www.w3.org/2000/svg" viewBox="0 0 134.58 61.59">
  <defs>
    <style>
      .cls-1 {
        fill: #fff;
      }
    </style>
  </defs>
  <title>logo_epicskills</title>
  <g>
    <path class="cls-1" d="M51.66,103.3c3.5,0,6.53-2.43,6.53-11.94,0-10.1,4.81-14.13,9.74-15.8l3.5,5.52c-3.86,1.37-6.12,3.74-6.12,12.65,0,9.38-3.27,12-5.23,12.59,2,0.59,5.23,3.33,5.23,12.71,0,8.91,2.14,11.22,6.12,12.65l-3.5,5.46c-4.93-1.66-9.74-5.76-9.74-15.86,0-9.5-3-11.94-6.53-11.94V103.3Z" transform="translate(-51.66 -75.57)"/>
    <g>
      <path class="cls-1" d="M97.34,81.24v4.48H82.64V92h10.5v4.44H82.64v7.67H97.34v4.48H77.44V81.24h19.9Z" transform="translate(-51.66 -75.57)"/>
      <path class="cls-1" d="M101.82,108.64V81.24H116.1c5.78,0,7.63,4,7.63,9.4,0,4.72-2.24,9-7.51,9H107v9h-5.19Zm12.82-13.37c2.16,0,3.38-1.57,3.38-4.68,0-3.34-1.14-5-3.26-5H107v9.63h7.63Z" transform="translate(-51.66 -75.57)"/>
      <path class="cls-1" d="M133.48,81.24v27.41h-5.19V81.24h5.19Z" transform="translate(-51.66 -75.57)"/>
      <path class="cls-1" d="M151.88,80.57a33.12,33.12,0,0,1,7.86,1l-1.14,4.56a20.36,20.36,0,0,0-5.82-.87c-6,0-8.22,1-8.22,9.44s2.24,9.71,8.22,9.71a20.36,20.36,0,0,0,5.82-.87l1.14,4.64a33.11,33.11,0,0,1-7.86,1c-8.69,0-12.86-3.34-12.86-14.51S143.19,80.57,151.88,80.57Z" transform="translate(-51.66 -75.57)"/>
    </g>
    <g>
      <path class="cls-1" d="M89.3,117.55a16.66,16.66,0,0,0-4.85-.66c-2.93,0-4.14.61-4.14,2.4,0,1.4.69,2,4,2.35,4.27,0.45,6.17,2,6.17,5.51,0,4.32-2.64,5.77-7.94,5.77a19.43,19.43,0,0,1-5.72-.82l0.76-3a18.08,18.08,0,0,0,4.9.66c2.93,0,4.25-.53,4.25-2.43,0-1.37-.66-2.24-4.19-2.56-4.06-.4-6-1.66-6-5.06,0-4.32,2.69-6,7.83-6a19.57,19.57,0,0,1,5.62.82Z" transform="translate(-51.66 -75.57)"/>
      <path class="cls-1" d="M97.53,132.55H94V114.17h3.48v18.38Zm7.73,0c-3.69-6.09-6.64-9.28-7.7-9.7,1.13-.82,4-3.93,7.17-8.67h4.22a56.55,56.55,0,0,1-6.93,8.44c0.9,0.61,3.85,3.85,7.51,9.94h-4.27Z" transform="translate(-51.66 -75.57)"/>
      <path class="cls-1" d="M115,114.17v18.38H111.5V114.17H115Z" transform="translate(-51.66 -75.57)"/>
      <path class="cls-1" d="M123.1,114.17v15.35h8.67v3H119.62V114.17h3.48Z" transform="translate(-51.66 -75.57)"/>
      <path class="cls-1" d="M137.63,114.17v15.35h8.67v3H134.15V114.17h3.48Z" transform="translate(-51.66 -75.57)"/>
      <path class="cls-1" d="M160.33,117.55a16.65,16.65,0,0,0-4.85-.66c-2.93,0-4.14.61-4.14,2.4,0,1.4.69,2,4,2.35,4.27,0.45,6.17,2,6.17,5.51,0,4.32-2.64,5.77-7.94,5.77a19.43,19.43,0,0,1-5.72-.82l0.76-3a18.08,18.08,0,0,0,4.9.66c2.93,0,4.25-.53,4.25-2.43,0-1.37-.66-2.24-4.19-2.56-4.06-.4-6-1.66-6-5.06,0-4.32,2.69-6,7.83-6a19.57,19.57,0,0,1,5.62.82Z" transform="translate(-51.66 -75.57)"/>
    </g>
    <path class="cls-1" d="M186.24,109.36c-3.5,0-6.53,2.44-6.53,11.94,0,10.1-4.81,14.19-9.74,15.86l-3.5-5.46c4-1.43,6.12-3.74,6.12-12.65,0-9.38,3.27-12.12,5.23-12.71-2-.59-5.23-3.21-5.23-12.59,0-8.91-2.26-11.28-6.12-12.65l3.5-5.52c4.93,1.66,9.74,5.7,9.74,15.8,0,9.5,3,11.94,6.53,11.94v6.06Z" transform="translate(-51.66 -75.57)"/>
  </g>
</svg>
