<svg width="210" height="70px" id="Layer_1" data-name="Layer 1" xmlns="http://www.w3.org/2000/svg" viewBox="0 0 769.89 124.27">
  <defs>
    <style>
      .cls-1 {
        fill: #ffffff;
      }
    </style>
  </defs>
  <title>logo_NN</title>
  <g>
    <path class="cls-1" d="M203.86,338.47c-4.23.5-9,1.46-14,1.7s-9.83.24-14.3,0c0-2.84.12-6.23,0.21-9s0.33-5.25.39-7.53A26.82,26.82,0,0,1,165.8,336c-4.84,3.22-10.65,4.58-17.46,4.69H117.61V275.37c-6.1,1.92-13,4.39-21,7.57-7.24,2.88-13.94,5.79-20.16,8.69v49.1H53.87V303.16c-6.6,3.67-12.51,7.25-17.87,10.66l0.18-13.16C42,297.32,48,294,53.87,290.79V218.27h22.6V279.2C83.24,276,89.8,273.14,96,270.86c6.7-2.46,14-5,21.61-7.13V218.27h22.65v40.45a112,112,0,0,1,18.95-1.29c11.53,0.27,19.65,3.24,24.06,8s6.51,11.23,6.3,19.31V328.2q3,0.49,6.84.92t7.46,0.68v8.67Zm-28.6-34.38v-1.46c-28.74,0-34.89,8.62-34.89,15.93,0,6.83,4.82,11.22,12.46,11.22,13.46,0,22.43-13,22.43-25.69m-35-4.6q12.62-6.7,34.54-6.84v-6c0.1-5.57-1.17-9.82-3.9-12.69-3-3.12-7.79-5.42-15.9-5.23A119.64,119.64,0,0,0,140.26,270v29.51Z" transform="translate(-36 -218.27)"/>
    <path class="cls-1" d="M396,292.78c0-18.53-9.8-34-33.06-34-23.43,0-36.88,18-36.88,42.27,0,28.45,13.62,41.46,39,41.46a74.72,74.72,0,0,0,27.91-5l-1.33-11.87a60,60,0,0,1-24.09,5c-17.61,0-26.75-9.27-26.08-30.89h54a58.88,58.88,0,0,0,.5-7m-15.28-3.41H342.21c1.66-11.87,9.3-19.67,20.1-19.67,11.63,0,18.77,7.81,18.44,19.67" transform="translate(-36 -218.27)"/>
    <path class="cls-1" d="M465.41,317.33c0-8.94-6.31-16.26-15.61-18.86V298c8.31-3.09,13.79-10.08,13.79-18,0-14.15-12.63-20.16-33.39-20.16-9.14,0-13.62,0-20.27.33-7.31.33-13,.65-19.62,1.47v8.62c4.82,0.32,9.32,1,13.31,1.62v69.27c8.8,0.16,21.93.32,28.91,0.32,26.42,0,32.89-13,32.89-24.06m-16.61-35c0,8.13-6.15,12.19-19.27,12.19-2.66,0-9.64-.16-11.3-0.16V270.83c4.65-.33,7.81-0.49,14.12-0.49,12.46,0,16.45,5.36,16.45,12M450.62,317c0,7.81-4.65,13.82-18.77,13.82-5.32,0-10-.33-13.62-0.49V304c2.49-.16,10.3-0.16,11.46-0.16,12.63,0,20.93,4.07,20.93,13.17" transform="translate(-36 -218.27)"/>
    <path class="cls-1" d="M679.52,299.29c0-29.1-16.11-40.49-37.21-40.49-24.92,0-40.21,18.86-40.21,42.6,0,28.45,14.62,41.14,37,41.14,24.42,0,40.37-18.86,40.37-43.25m-15.62.81c0,20.65-10.63,30.08-22.93,30.08-15.12,0-23.26-10.73-23.26-30.24,0-20,11.46-28.94,23.26-28.94,15.28,0,22.93,10.73,22.93,29.1" transform="translate(-36 -218.27)"/>
    <path class="cls-1" d="M609.12,341.24l-0.83-9.92h-3c-4.32-.33-6.15-2.76-7.48-5.53-1.33-3.09-3.32-8.46-4.15-11.22-1.33-4.39-2.66-7.8-5.48-10.73a19.15,19.15,0,0,0-10-5.53c0.17,0,0-.49,0-0.49a16.39,16.39,0,0,0,10-8.62,56.26,56.26,0,0,0,3.32-8.78,25.48,25.48,0,0,1,3.65-8,7.91,7.91,0,0,1,6.15-2.6c0.5,0,1.33.16,3,.16l1-10.73c-2-.16-3.82-0.49-5.15-0.49-4.15-.16-11,0.49-15.12,5.53a40.32,40.32,0,0,0-5.48,9.76c-2,4.55-3.16,8.78-5.48,12.68-3.32,5.53-8.47,6.34-12.8,6.5-2.49.16-6,.16-6.64,0.16V260.26a194.27,194.27,0,0,0-28,1.44v8.62c4.82,0.32,9,.84,13,1.49v69.27h15V304.49c0.33,0,4.48-.32,7.64-0.16,5.32,0.33,11.13,1.46,14.45,7.64,3,5.69,4.65,14.31,7.81,20,3.66,6.5,7.48,10.41,16.12,10.41a31.19,31.19,0,0,0,8.47-1.14" transform="translate(-36 -218.27)"/>
    <path class="cls-1" d="M525.08,338l-1.16-12.68a44.47,44.47,0,0,1-19.6,4.39c-18.27,0-23.59-12.52-23.59-28.29C480.72,283,489,271,505.47,271a50.76,50.76,0,0,1,17.78,3.41l1.66-12.85a70.66,70.66,0,0,0-18.77-2.6c-27.58,0-41.2,18.37-41.2,44.39,0,29.76,16.45,38.86,36.22,38.86A69.75,69.75,0,0,0,525.08,338" transform="translate(-36 -218.27)"/>
  </g>
  <polygon class="cls-1" points="264.34 0 286.99 0 286.99 122.46 264.34 122.46 264.34 61.9 223.22 61.9 223.22 122.46 200.6 122.46 200.6 0 223.22 0 223.22 49.21 264.34 49.21 264.34 0"/>
  <g>
    <path class="cls-1" d="M785.84,341.07l-14-80.81H754.44l-19.27,52A140.2,140.2,0,0,0,731,326h-0.33c-1.16-4.23-1.83-8.13-3.82-13.5l-19.44-52.19H690l-12.63,80.81h14l6.31-46.5c0.83-6.5,1.16-11.22,1.83-17.07h0.33c1.66,7.15,2.16,9.27,4.15,14.63L722,341.07H737l18.78-49.76a142.55,142.55,0,0,0,4.15-13.82h0.5c0.66,6.34,1,10.73,2,17.23l7.31,46.34h16.12Z" transform="translate(-36 -218.27)"/>
    <path class="cls-1" d="M796.08,259h1.62a2.28,2.28,0,0,1,1.22.26,1.09,1.09,0,0,1,.47,1,1.35,1.35,0,0,1-.28.89,1.53,1.53,0,0,1-1.24.44h-1.78V259Zm-1.54,7.18h1.54v-3.45h1.26a1.89,1.89,0,0,1,1.57.49,1.71,1.71,0,0,1,.27,1.06q0,1,.07,1.34a0.93,0.93,0,0,0,.24.56h1.59a1.24,1.24,0,0,1-.26-0.67q0-.37-0.07-1.3a3.75,3.75,0,0,0-.21-1.23,1.24,1.24,0,0,0-1-.76v0a2.21,2.21,0,0,0,1.16-.92,1.94,1.94,0,0,0,.24-1,2.33,2.33,0,0,0-.51-1.58,2.27,2.27,0,0,0-1.12-.67,4,4,0,0,0-1.1-.14h-3.68v8.31Zm-3.71-4.09a7.28,7.28,0,0,1,.93-3.57,7,7,0,0,1,2.43-2.53,6.51,6.51,0,0,1,6.8,0,6.92,6.92,0,0,1,2.42,2.53,7.38,7.38,0,0,1,0,7.13,6.89,6.89,0,0,1-2.42,2.53,6.5,6.5,0,0,1-6.81,0,7,7,0,0,1-2.43-2.53,7.26,7.26,0,0,1-.93-3.56m-1.56,0a8.27,8.27,0,0,0,1.14,4.19,8.38,8.38,0,0,0,3,3,8.31,8.31,0,1,0,0-14.35,8.38,8.38,0,0,0-3,3,8.28,8.28,0,0,0-1.14,4.19" transform="translate(-36 -218.27)"/>
  </g>
</svg>
