<svg height="70px" id="Layer_1" data-name="Layer 1" xmlns="http://www.w3.org/2000/svg" viewBox="0 0 94.93 47.88">
  <defs>
    <style>
      .cls-1 {
        fill: #ffffff;
      }

      .cls-2 {
        fill: #ffffff;
      }
    </style>
  </defs>
  <title>tiramisu-logo [Converted]</title>
  <g>
    <g>
      <g>
        <path class="cls-1" d="M188.49,167.61s0.53,5.21,5.51,5.9C194,173.51,193.27,168.18,188.49,167.61Z" transform="translate(-103.15 -126.12)"/>
        <path class="cls-1" d="M188.33,166.53s-2.46-4.15,1.61-8.37C189.94,158.16,191.76,164,188.33,166.53Z" transform="translate(-103.15 -126.12)"/>
        <path class="cls-1" d="M189.27,166.88s2.21-3.95,8.52-2.52C197.79,164.36,194.25,169,189.27,166.88Z" transform="translate(-103.15 -126.12)"/>
      </g>
      <path class="cls-1" d="M104.26,165a0.49,0.49,0,0,0-.47.36,0.51,0.51,0,0,0,.35.59c45.17,16.7,83,2.19,83.36,2.1a0.49,0.49,0,0,0-.22-1c-0.38.09-39.26,14.58-82.9-2.09A0.34,0.34,0,0,0,104.26,165Z" transform="translate(-103.15 -126.12)"/>
    </g>
    <g>
      <path class="cls-2" d="M103.59,142.53H112v1.28h-3.49v8.75H107V143.8h-3.43v-1.28Z" transform="translate(-103.15 -126.12)"/>
      <path class="cls-2" d="M117.88,142.54h1.43v10h-1.43v-10Z" transform="translate(-103.15 -126.12)"/>
      <path class="cls-2" d="M125.63,152.56v-10h2.51a3.62,3.62,0,0,1,2.41.75,2.52,2.52,0,0,1,.89,2,2.51,2.51,0,0,1-1.69,2.47,4.44,4.44,0,0,1,.94.86,17.43,17.43,0,0,1,1.29,1.9q0.52,0.85.84,1.28l0.53,0.72h-1.7l-0.44-.66-0.09-.12-0.28-.4-0.44-.73-0.48-.78a8.11,8.11,0,0,0-.81-1,3.17,3.17,0,0,0-.67-0.52,2.26,2.26,0,0,0-1-.16h-0.37v4.36h-1.44Zm1.87-8.8h-0.43v3.16h0.55a4,4,0,0,0,1.49-.19,1.39,1.39,0,0,0,.63-0.56,1.63,1.63,0,0,0,.23-0.86,1.52,1.52,0,0,0-.25-0.86,1.35,1.35,0,0,0-.71-0.54A5,5,0,0,0,127.5,143.76Z" transform="translate(-103.15 -126.12)"/>
      <path class="cls-2" d="M142.53,142.48h1L148,152.56h-1.47l-1.33-3H141l-1.25,3h-1.47Zm2.1,5.83L143,144.68l-1.5,3.63h3.11Z" transform="translate(-103.15 -126.12)"/>
      <path class="cls-2" d="M162.12,142.54h1.34v10H162v-7.79l-3.07,3.87h-0.27l-3.11-3.87v7.79h-1.43v-10h1.36l3.32,4.12Z" transform="translate(-103.15 -126.12)"/>
      <path class="cls-2" d="M169.77,142.54h1.43v10h-1.43v-10Z" transform="translate(-103.15 -126.12)"/>
      <path class="cls-2" d="M180.49,148.36l-1.09-.66a4.9,4.9,0,0,1-1.46-1.23,2.32,2.32,0,0,1-.44-1.39,2.46,2.46,0,0,1,.82-1.92,3.06,3.06,0,0,1,2.13-.74,4,4,0,0,1,2.3.7v1.63a3.31,3.31,0,0,0-2.33-1,1.93,1.93,0,0,0-1.15.32,1,1,0,0,0-.45.83,1.27,1.27,0,0,0,.33.84,4.19,4.19,0,0,0,1.07.83l1.09,0.65a3.21,3.21,0,0,1,1.83,2.79,2.56,2.56,0,0,1-.8,2,3,3,0,0,1-2.09.75,4.4,4.4,0,0,1-2.7-.91v-1.82a3.37,3.37,0,0,0,2.69,1.47,1.69,1.69,0,0,0,1.12-.37,1.18,1.18,0,0,0,.45-0.94A2.23,2.23,0,0,0,180.49,148.36Z" transform="translate(-103.15 -126.12)"/>
      <path class="cls-2" d="M196.54,142.54H198v5.69a6.69,6.69,0,0,1-.17,1.74,3.82,3.82,0,0,1-.41,1,3.1,3.1,0,0,1-.61.7,4.59,4.59,0,0,1-3.11,1,4.65,4.65,0,0,1-3.14-1,3.25,3.25,0,0,1-.61-0.71,3.6,3.6,0,0,1-.41-1,7.08,7.08,0,0,1-.16-1.78v-5.67h1.44v5.69a4.22,4.22,0,0,0,.32,2,2.3,2.3,0,0,0,1,.89,3.4,3.4,0,0,0,1.55.33,3.15,3.15,0,0,0,2.08-.66,2.06,2.06,0,0,0,.61-0.85,5.18,5.18,0,0,0,.19-1.67v-5.69Z" transform="translate(-103.15 -126.12)"/>
    </g>
    <g>
      <path class="cls-2" d="M103.15,126.21h2.66v0.52h-2.08v1.47l0.29,0,0.34,0a3.46,3.46,0,0,1,.68.07,1.63,1.63,0,0,1,.57.23,1.14,1.14,0,0,1,.39.44,1.5,1.5,0,0,1,.14.7,1.64,1.64,0,0,1-.15.72,1.39,1.39,0,0,1-.39.5,1.68,1.68,0,0,1-.57.29,2.45,2.45,0,0,1-.68.09h-0.27l-0.32,0-0.32,0-0.29-.05v-4.85Zm1.27,4.45a1.44,1.44,0,0,0,.43-0.06,1.06,1.06,0,0,0,.35-0.19,0.86,0.86,0,0,0,.24-0.31,1.05,1.05,0,0,0,.09-0.44,1.14,1.14,0,0,0-.1-0.52,0.8,0.8,0,0,0-.27-0.31,1,1,0,0,0-.39-0.15,2.7,2.7,0,0,0-.46,0H104l-0.15,0-0.11,0v1.92l0.13,0h0.56Z" transform="translate(-103.15 -126.12)"/>
      <path class="cls-2" d="M110.38,129.75h-1.8l-0.49,1.36h-0.58l1.86-5h0.27l1.86,5h-0.62Zm-1.61-.5h1.43l-0.54-1.49-0.17-.74h0l-0.17.76Z" transform="translate(-103.15 -126.12)"/>
      <path class="cls-2" d="M116.13,128.86h-2.35v2.25H113.2v-4.9h0.58v2.13h2.35v-2.13h0.58v4.9h-0.58v-2.25Z" transform="translate(-103.15 -126.12)"/>
      <path class="cls-2" d="M119.86,128.84h-0.33v2.27H119v-4.9h0.58v2.28l0.32-.1,1.64-2.18h0.67l-1.64,2.11-0.29.23,0.36,0.28,1.79,2.28h-0.74Z" transform="translate(-103.15 -126.12)"/>
      <path class="cls-2" d="M124.27,126.21h2.67v0.52h-2.09v1.6h1.91v0.52h-1.91v1.74H127v0.52h-2.7v-4.9Z" transform="translate(-103.15 -126.12)"/>
      <path class="cls-2" d="M132.24,126.72h-1.53v4.38h-0.58v-4.38H128.6v-0.52h3.63v0.52Z" transform="translate(-103.15 -126.12)"/>
      <path class="cls-2" d="M136.94,128.86h-2.35v2.25H134v-4.9h0.58v2.13h2.35v-2.13h0.58v4.9h-0.58v-2.25Z" transform="translate(-103.15 -126.12)"/>
      <path class="cls-2" d="M139.76,126.21h0.58v1.9l0.11,0,0.15,0h0.34a3,3,0,0,1,.64.07,1.5,1.5,0,0,1,.55.23,1.2,1.2,0,0,1,.38.45,1.59,1.59,0,0,1,.14.72,1.86,1.86,0,0,1-.13.73,1.32,1.32,0,0,1-.37.51,1.59,1.59,0,0,1-.58.3,2.65,2.65,0,0,1-.74.1h-0.5l-0.29,0-0.28-.06v-4.85Zm1.12,4.45a1.26,1.26,0,0,0,.83-0.27,1,1,0,0,0,.33-0.82,1.09,1.09,0,0,0-.1-0.49,0.81,0.81,0,0,0-.26-0.31,1,1,0,0,0-.38-0.16,2.24,2.24,0,0,0-.45,0l-0.28,0-0.23,0v2A2.62,2.62,0,0,0,140.88,130.66Zm2.49-4.45H144v4.9h-0.58v-4.9Z" transform="translate(-103.15 -126.12)"/>
      <path class="cls-2" d="M146.19,126.21h2.67v0.52h-2.09v1.6h1.91v0.52h-1.91v1.74h2.12v0.52h-2.7v-4.9Z" transform="translate(-103.15 -126.12)"/>
      <path class="cls-2" d="M153.92,126.25a3.41,3.41,0,0,1,.57-0.08l0.61,0a3.6,3.6,0,0,1,.65.06,1.79,1.79,0,0,1,.61.23,1.31,1.31,0,0,1,.44.46,1.47,1.47,0,0,1,.17.75,1.62,1.62,0,0,1-.16.76,1.43,1.43,0,0,1-.43.5,1.72,1.72,0,0,1-.61.28,3,3,0,0,1-.71.08H154.5v1.86h-0.58v-4.85Zm1.2,0.4h-0.35a1.16,1.16,0,0,0-.27,0v2l0.11,0H155a2.47,2.47,0,0,0,.47,0,1.23,1.23,0,0,0,.42-0.16,0.88,0.88,0,0,0,.3-0.34,1.19,1.19,0,0,0,.12-0.55,1,1,0,0,0-.11-0.48,0.87,0.87,0,0,0-.29-0.31,1.22,1.22,0,0,0-.4-0.17A2.12,2.12,0,0,0,155.11,126.65Z" transform="translate(-103.15 -126.12)"/>
      <path class="cls-2" d="M158.88,126.21h2.67v0.52h-2.09v1.6h1.91v0.52h-1.91v1.74h2.12v0.52h-2.7v-4.9Z" transform="translate(-103.15 -126.12)"/>
      <path class="cls-2" d="M166.82,130.9a1.27,1.27,0,0,1-.53.22,3.57,3.57,0,0,1-.69.06,2.24,2.24,0,0,1-.83-0.15,1.81,1.81,0,0,1-.67-0.46,2.21,2.21,0,0,1-.46-0.79,3.46,3.46,0,0,1-.17-1.14,3.26,3.26,0,0,1,.19-1.17,2.24,2.24,0,0,1,.49-0.78,1.89,1.89,0,0,1,.68-0.45,2.21,2.21,0,0,1,.77-0.14,4.23,4.23,0,0,1,.69,0,2.17,2.17,0,0,1,.46.12l-0.14.52a2.19,2.19,0,0,0-1-.17,1.59,1.59,0,0,0-.57.11,1.3,1.3,0,0,0-.5.34,1.76,1.76,0,0,0-.35.62,3,3,0,0,0-.13.95,2.79,2.79,0,0,0,.13.88,1.82,1.82,0,0,0,.35.63,1.41,1.41,0,0,0,.52.38,1.65,1.65,0,0,0,.65.13,2.12,2.12,0,0,0,.55-0.06,1.52,1.52,0,0,0,.4-0.16Z" transform="translate(-103.15 -126.12)"/>
      <path class="cls-2" d="M171.7,126.72h-1.53v4.38h-0.58v-4.38h-1.53v-0.52h3.63v0.52Z" transform="translate(-103.15 -126.12)"/>
      <path class="cls-2" d="M172.85,128.65a3,3,0,0,1,.52-1.88,1.77,1.77,0,0,1,1.48-.65,2.05,2.05,0,0,1,.9.18,1.68,1.68,0,0,1,.63.51,2.27,2.27,0,0,1,.37.8,4.21,4.21,0,0,1,.12,1,3,3,0,0,1-.52,1.88,1.79,1.79,0,0,1-1.49.65A2,2,0,0,1,174,131a1.69,1.69,0,0,1-.62-0.51,2.23,2.23,0,0,1-.37-0.8A4.21,4.21,0,0,1,172.85,128.65Zm0.62,0a3.56,3.56,0,0,0,.08.77,2.1,2.1,0,0,0,.25.64,1.33,1.33,0,0,0,.43.44,1.15,1.15,0,0,0,.62.16,1.21,1.21,0,0,0,1-.49,2.54,2.54,0,0,0,.37-1.52,3.56,3.56,0,0,0-.08-0.77,2,2,0,0,0-.25-0.64,1.35,1.35,0,0,0-.43-0.44,1.16,1.16,0,0,0-.63-0.16,1.19,1.19,0,0,0-1,.49A2.55,2.55,0,0,0,173.47,128.65Z" transform="translate(-103.15 -126.12)"/>
      <path class="cls-2" d="M178.47,126.25a3.41,3.41,0,0,1,.57-0.08l0.61,0a3.6,3.6,0,0,1,.65.06,1.79,1.79,0,0,1,.61.23,1.31,1.31,0,0,1,.44.46,1.47,1.47,0,0,1,.17.75,1.62,1.62,0,0,1-.16.76,1.43,1.43,0,0,1-.43.5,1.72,1.72,0,0,1-.61.28,3,3,0,0,1-.71.08h-0.57v1.86h-0.58v-4.85Zm1.2,0.4h-0.35a1.16,1.16,0,0,0-.27,0v2l0.11,0h0.43a2.47,2.47,0,0,0,.47,0,1.23,1.23,0,0,0,.42-0.16,0.88,0.88,0,0,0,.3-0.34,1.18,1.18,0,0,0,.12-0.55,1,1,0,0,0-.11-0.48,0.87,0.87,0,0,0-.29-0.31,1.22,1.22,0,0,0-.4-0.17A2.12,2.12,0,0,0,179.67,126.65Z" transform="translate(-103.15 -126.12)"/>
      <path class="cls-2" d="M185.32,129.75h-1.8L183,131.1h-0.58l1.86-5h0.27l1.86,5h-0.62Zm-1.61-.5h1.43l-0.54-1.49-0.17-.74h0l-0.17.76Z" transform="translate(-103.15 -126.12)"/>
      <path class="cls-2" d="M191.07,128.86h-2.35v2.25h-0.58v-4.9h0.58v2.13h2.35v-2.13h0.58v4.9h-0.58v-2.25Z" transform="translate(-103.15 -126.12)"/>
      <path class="cls-2" d="M193.89,126.21h0.58v1.9l0.11,0,0.15,0h0.34a3,3,0,0,1,.64.07,1.49,1.49,0,0,1,.55.23,1.2,1.2,0,0,1,.38.45,1.59,1.59,0,0,1,.14.72,1.86,1.86,0,0,1-.13.73,1.32,1.32,0,0,1-.37.51,1.59,1.59,0,0,1-.58.3,2.65,2.65,0,0,1-.74.1h-0.5l-0.29,0-0.28-.06v-4.85Zm1.12,4.45a1.26,1.26,0,0,0,.83-0.27,1,1,0,0,0,.33-0.82,1.09,1.09,0,0,0-.1-0.49,0.81,0.81,0,0,0-.26-0.31,1,1,0,0,0-.38-0.16,2.24,2.24,0,0,0-.45,0l-0.28,0-0.23,0v2A2.62,2.62,0,0,0,195,130.66Zm2.49-4.45h0.58v4.9H197.5v-4.9Z" transform="translate(-103.15 -126.12)"/>
    </g>
  </g>
</svg>
