<?xml version="1.0" encoding="utf-8"?>
<!-- Generator: Adobe Illustrator 15.0.0, SVG Export Plug-In . SVG Version: 6.00 Build 0)  -->
<!DOCTYPE svg PUBLIC "-//W3C//DTD SVG 1.1//EN" "http://www.w3.org/Graphics/SVG/1.1/DTD/svg11.dtd">
<svg version="1.1" id="Слой_1" xmlns="http://www.w3.org/2000/svg" xmlns:xlink="http://www.w3.org/1999/xlink" x="0px" y="0px"
	 width="130px" height="130px" viewBox="-35 -35 130 130" enable-background="new -35 -35 130 130" xml:space="preserve">
<path fill="#00837B" d="M0.122,62.371c-2.114,1.665-12.347,4.65-14.921,4.82c0.601-0.87,4.587-2.474,6.419-3.088
	C-7.398,63.773-0.272,62.183,0.122,62.371L0.122,62.371z M30-35l-2.816,4.549l-0.755,1.222c-1.511,0.09-3.006,0.235-4.484,0.436
	l-0.976-1.045l-3.649-3.913l-1.875,5.011l-0.497,1.33c-1.465,0.384-2.908,0.822-4.328,1.312l-1.151-0.828l-4.343-3.125l-0.86,5.28
	l-0.229,1.404c-1.357,0.662-2.684,1.374-3.98,2.133l-1.3-0.592l-4.869-2.217l0.186,5.347l0.05,1.436
	C-7.07-16.354-8.23-15.4-9.351-14.406l-1.403-0.33l-5.208-1.226l1.226,5.208l0.33,1.403C-15.4-8.23-16.354-7.07-17.262-5.876
	l-1.437-0.051l-5.347-0.185l2.217,4.869l0.592,1.301c-0.758,1.295-1.471,2.622-2.131,3.978l-1.405,0.229l-5.28,0.861l3.125,4.343
	l0.829,1.152c-0.49,1.419-0.929,2.861-1.312,4.326l-1.331,0.497l-5.01,1.875l3.912,3.649l1.046,0.976
	c-0.201,1.478-0.347,2.974-0.437,4.483l-1.222,0.756L-35,30l4.549,2.816l1.222,0.755c0.091,1.511,0.236,3.007,0.437,4.484
	l-1.046,0.975l-3.912,3.65l5.011,1.875l1.33,0.497c0.384,1.464,0.822,2.907,1.312,4.327l-0.829,1.152l-3.125,4.342l5.281,0.859
	l1.404,0.23c0.661,1.356,1.373,2.681,2.133,3.979l-0.594,1.301l-0.681,1.496c10.649-3.718,21.901-7.416,32.413-11.46
	c9.431-3.624,26.862-9.972,31.733-14.293c1.303-1.248,2.115-3.174,1.016-4.598c-0.906-1.17-7.521-2.108-15.927-3.193
	c-4.613-0.595-10.188-1.992-10.082-1.543c0.062,0.248,1.803,0.856,2.456,1.089c2.242,0.743,4.511,1.339,6.035,1.968
	c-8.112-0.356-20.26-2.844-26.084-4.705c-7.83-2.287-10.274-9.22-1.468-14.484C3.174,7.976,25.565-6.766,34.731-10.028
	c2.742-0.793,4.13-1.198,6.762,0.181c1.356,0.712,6.608,4.314,6.714,5.879c0.464,1.923-5,5.023-6.817,6.014
	C30.271,8.972,17.521,15.777,17.457,17.731c-0.035,1.535,3.54,1.918,5.586,2.315c9.09,1.23,17.177,1.658,26.042,2.007
	c8.974,0,22.572,1.538,21.227,15.292c-0.848,10.188-11.675,18.408-19.974,22.328C34.215,67.29,17.849,73.356,1.275,79.224
	c-1.542,0.597-3.24,1.153-4.888,1.752c-0.728,0.265-1.584,0.563-2.422,0.832l-0.077,2.236l4.869-2.218l1.301-0.592
	c1.296,0.757,2.622,1.473,3.978,2.133l0.229,1.404l0.861,5.281l4.343-3.127l1.152-0.829c1.419,0.49,2.862,0.931,4.327,1.312
	l0.497,1.331l1.875,5.013l3.649-3.915l0.976-1.045c1.479,0.201,2.974,0.347,4.484,0.436l0.755,1.224L30,95l2.816-4.549l0.755-1.224
	c1.511-0.089,3.005-0.234,4.484-0.436l0.975,1.045l3.65,3.915l1.875-5.013l0.497-1.331c1.464-0.383,2.907-0.821,4.327-1.312
	l1.152,0.829l4.342,3.127l0.861-5.281l0.229-1.404c1.356-0.66,2.681-1.373,3.976-2.133l1.304,0.592l4.868,2.218l-0.184-5.345
	l-0.051-1.438c1.193-0.908,2.353-1.86,3.475-2.854l1.402,0.33l5.207,1.225l-1.225-5.207l-0.33-1.402
	c0.994-1.122,1.946-2.281,2.854-3.475l1.438,0.049l5.345,0.186l-2.218-4.868l-0.592-1.301c0.76-1.298,1.473-2.622,2.133-3.979
	l1.404-0.229l5.281-0.861l-3.127-4.342l-0.829-1.155c0.49-1.417,0.931-2.86,1.312-4.324l1.333-0.497l5.011-1.875l-3.915-3.65
	l-1.045-0.975c0.201-1.479,0.347-2.974,0.436-4.484l1.224-0.755L95,30l-4.549-2.816l-1.224-0.755
	c-0.089-1.511-0.234-3.005-0.436-4.483l1.045-0.977l3.915-3.649l-5.011-1.875l-1.333-0.497c-0.381-1.465-0.821-2.908-1.312-4.327
	l0.829-1.152l3.127-4.343l-5.281-0.861l-1.404-0.229c-0.66-1.356-1.373-2.683-2.133-3.978l0.592-1.301l2.218-4.869l-5.345,0.186
	l-1.438,0.05C76.353-7.07,75.4-8.23,74.406-9.35l0.33-1.404l1.225-5.208l-5.207,1.226l-1.402,0.33
	c-1.122-0.994-2.281-1.947-3.475-2.855l0.051-1.437l0.184-5.347l-4.868,2.217l-1.299,0.592c-1.297-0.758-2.624-1.471-3.98-2.133
	l-0.229-1.404l-0.861-5.28l-4.342,3.125l-1.15,0.828c-1.422-0.49-2.863-0.928-4.329-1.312l-0.497-1.33l-1.875-5.011l-3.65,3.913
	l-0.973,1.045c-1.479-0.201-2.976-0.347-4.486-0.436l-0.755-1.222L30-35L30-35z M-6.004,80.942l0.077-2.243l0.051-1.438
	c-0.529-0.402-1.05-0.813-1.565-1.233c3.881-0.988,7.787-1.971,11.583-3.012c0.925-0.256,7.447-1.995,8.054-1
	C12.757,72.887,0.393,77.614-6.004,80.942L-6.004,80.942z M-15.479,73.909c2.717-1.024,5.436-2.057,8.185-3.183
	c10.585-4.325,26.296-11.282,31.38-15.768c-0.937,0.25-1.68,0.55-2.619,0.88c-4.139,1.46-8.306,2.814-12.527,4.017
	c-1.922,0.546-4.044,1.214-5.967,1.623c0.241-0.498,1.141-1.039,1.681-1.255c3.461-1.389,7.173-3.239,9.57-4.812
	c0.428-0.31,1.243-1.024,1.231-1.471c0.009-0.948-3.697,0.133-4.405,0.349c-9.429,2.891-18.581,5.35-28.219,7.798
	c-0.985,0.305-4.121,0.749-5.415,0.814l-1.462,3.209l5.347-0.186l1.438-0.049c0.908,1.193,1.86,2.353,2.854,3.475l-0.33,1.402
	L-15.479,73.909z"/>
</svg>
