<?xml width="210" height="70px" version="1.0" encoding="utf-8"?>
<!-- Generator: Adobe Illustrator 17.0.0, SVG Export Plug-In . SVG Version: 6.00 Build 0)  -->
<!DOCTYPE svg PUBLIC "-//W3C//DTD SVG 1.1//EN" "http://www.w3.org/Graphics/SVG/1.1/DTD/svg11.dtd">
<svg version="1.1" id="Layer_1" xmlns="http://www.w3.org/2000/svg" xmlns:xlink="http://www.w3.org/1999/xlink" x="0px" y="0px"
	height="75px" viewBox="0 0 158.34 41" enable-background="new 0 0 158.34 41" xml:space="preserve">
<g>
	<path fill="#ffffff" d="M57.882,23.558h-0.108l-0.214-2.339h-2.554v13.199h3.091v-8.064c0.807-1.989,2.07-2.715,3.118-2.715
		c1.126,0,1.746,0.307,1.746,0.307V21.12c-0.403-0.188-0.67-0.223-1.342-0.223C60.221,20.897,58.823,21.838,57.882,23.558z"/>
	<path fill="#ffffff" d="M69.166,20.911c-3.092,0-6.076,2.634-6.076,6.935c0,4.354,2.849,6.908,6.505,6.908
		c2.905,0,4.641-1.361,4.641-1.361v-2.481c0,0-2.027,1.449-4.237,1.449c-2.124,0-3.629-1.344-3.898-3.682h8.387
		c0.081-0.323,0.135-0.914,0.135-1.506C74.622,23.491,72.741,20.911,69.166,20.911z M66.074,26.582
		c0.269-2.123,1.613-3.279,3.172-3.279c1.801,0,2.688,1.236,2.688,3.279H66.074z"/>
	<path fill="#ffffff" d="M83.735,20.911c-1.451,0-2.876,0.779-3.979,1.72h-0.108l-0.214-1.398H76.88v18.414h3.091v-4.139
		l-0.08-2.204c1.075,0.914,2.231,1.451,3.387,1.451c2.93,0,5.645-2.608,5.645-7.123C88.923,23.545,87.014,20.911,83.735,20.911z
		 M82.633,32.2c-0.78,0-1.693-0.295-2.661-1.102v-6.156c1.022-0.995,1.936-1.478,2.904-1.478c1.989,0,2.849,1.559,2.849,4.193
		C85.724,30.641,84.38,32.2,82.633,32.2z"/>
	<path fill="#ffffff" d="M96.96,20.899c-3.279,0-6.263,2.527-6.263,6.935c0,4.382,2.984,6.908,6.263,6.908
		c3.307,0,6.29-2.527,6.29-6.908C103.25,23.426,100.267,20.899,96.96,20.899z M96.96,32.216c-1.936,0-3.092-1.748-3.092-4.382
		c0-2.661,1.156-4.409,3.092-4.409c1.936,0,3.118,1.748,3.118,4.409C100.078,30.469,98.896,32.216,96.96,32.216z"/>
	<path fill="#ffffff" d="M116.694,29.956v-6.29h3.361V21.22h-3.361v-3.601h-2.58l-0.376,3.601c0,0-0.744,0-1.416,0
		c-1.398,0-3.051,0.621-3.992,2.341h-0.108l-0.215-2.339h-2.554V34.42h3.092v-8.064c0.73-1.803,1.835-2.561,2.817-2.689
		c0.033,0,0.292-0.025,0.292-0.025c-0.045,0-0.043,0.01,0,0.008v0.018l1.923-0.002v6.29c0,2.849,1.129,4.785,4.193,4.785
		c1.048,0,1.963-0.242,2.689-0.484V31.77c0,0-1.023,0.499-1.909,0.499C117.286,32.269,116.694,31.516,116.694,29.956z"/>
	<polygon fill="#ffffff" points="133.852,21.22 130.465,21.22 125.572,27.295 125.492,27.295 125.492,17.618 122.454,17.618 
		122.454,34.419 125.492,34.419 125.492,31.059 127.562,28.693 130.949,34.419 134.309,34.419 129.336,26.596 	"/>
	<path fill="#ffffff" d="M155.356,21.22l-1.989,6.479c-0.323,1.183-0.673,2.5-0.995,3.71h-0.108
		c-0.404-1.236-0.779-2.554-1.156-3.71l-2.285-6.479h-3.145l5.189,13.038l-0.242,0.833c-0.43,1.317-1.236,2.258-2.634,2.258
		c-0.323,0-0.699-0.108-0.941-0.188l-0.01,2.51c0,0,0.559,0.177,1.166,0.177c2.876,0,4.247-1.854,5.349-4.839l4.785-13.791H155.356z
		"/>
	<path fill="#ffffff" d="M139.981,20.899c-3.092,0-6.076,2.634-6.076,6.935c0,4.354,2.849,6.908,6.505,6.908
		c2.905,0,4.641-1.361,4.641-1.361v-2.481c0,0-2.027,1.449-4.237,1.449c-2.124,0-3.629-1.344-3.898-3.682h8.387
		c0.081-0.323,0.135-0.914,0.135-1.506C145.438,23.48,143.556,20.899,139.981,20.899z M136.89,26.571
		c0.269-2.123,1.613-3.279,3.172-3.279c1.801,0,2.688,1.236,2.688,3.279H136.89z"/>
</g>
<g>
	<path fill="#ffffff" d="M42.588,0.074V3.65h6.001L35.091,17.844L24.955,7.988c-0.343-0.332-0.807-0.52-1.28-0.506
		c-0.476,0.009-0.93,0.208-1.26,0.553l-9.444,9.893L3.053,8.005C2.521,7.473,1.712,7.33,1.029,7.65
		c-0.682,0.32-1.09,1.033-1.021,1.783l2.146,23.336c0.085,0.921,0.856,1.625,1.78,1.625h39.549c0.924,0,1.696-0.704,1.78-1.625
		l2.079-22.616l4.087-4.3v6.639h3.576V0.074H42.588z M41.852,30.818H5.565L4.022,14.034l7.713,7.716
		c0.336,0.335,0.791,0.524,1.265,0.524c0.007,0,0.014,0,0.02,0c0.482-0.006,0.941-0.205,1.273-0.553l9.463-9.911l10.143,9.864
		c0.344,0.335,0.799,0.533,1.286,0.506c0.476-0.01,0.928-0.211,1.257-0.556l0.001,0.001l6.925-7.287L41.852,30.818z"/>
	<path fill="#ffffff" d="M43.254,37.35H4.103c-0.988,0-1.788,0.8-1.788,1.788c0,0.988,0.8,1.788,1.788,1.788h39.151
		c0.988,0,1.788-0.8,1.788-1.788C45.042,38.151,44.242,37.35,43.254,37.35z"/>
</g>
</svg>
