<svg height="70px" id="Layer_1" data-name="Layer 1" xmlns="http://www.w3.org/2000/svg" viewBox="0 0 426.01 173.53">
  <defs>
    <style>
      .cls-1 {
        fill: #ffffff;
      }

      .cls-1, .cls-2 {
        fill-rule: evenodd;
      }

      .cls-2, .cls-3 {
        fill: #3d3d49;
      }

      .cls-4 {
        fill: #ffffff;
      }
    </style>
  </defs>
  <title>logo_kudago</title>
  <g>
    <g>
      <path class="cls-1" d="M172.91,133.09a86.75,86.75,0,1,1-64.72,104.23A86.76,86.76,0,0,1,172.91,133.09Z" transform="translate(-105.9 -130.8)"/>
      <g>
        <path class="cls-2" d="M198.23,203.71a4.38,4.38,0,1,0-.42-6.18A4.39,4.39,0,0,0,198.23,203.71Z" transform="translate(-105.9 -130.8)"/>
        <path class="cls-2" d="M180.25,249.08A35.75,35.75,0,0,1,172.36,260c-1,1,1.24,2.76,2.24,4.12,0.17,4,.41,13.33,2,16l3.67-.08c-2.4-5.29-1.32-11.07-1.22-17.18a11,11,0,0,0-1.24-2.93c1.64-3.7,3.39-6,4.25-10.48Z" transform="translate(-105.9 -130.8)"/>
        <path class="cls-2" d="M208.88,252.58l-4.35-.34c0.38,4.19,2.19,6.74,4.09,9.13-0.87,4.95-2.18,10.55-1.89,17.91h3.76c0.65-6.52,2.13-14.4,4.06-18.85A25.7,25.7,0,0,1,208.88,252.58Z" transform="translate(-105.9 -130.8)"/>
        <path class="cls-3" d="M206.91,225.86v-1.72a0.57,0.57,0,0,0-1.13,0v1.72a0.54,0.54,0,0,0,.15.35l0.82,0A0.55,0.55,0,0,0,206.91,225.86Z" transform="translate(-105.9 -130.8)"/>
        <path class="cls-3" d="M200.7,224.56v-1.72a0.57,0.57,0,0,0-1.13,0v1.69a3,3,0,0,0,.73.53A0.53,0.53,0,0,0,200.7,224.56Z" transform="translate(-105.9 -130.8)"/>
        <path class="cls-2" d="M209,216.87a2.07,2.07,0,0,1-.42-0.08,3.23,3.23,0,0,1-3.08,2.28h0l-4.2.12a3.5,3.5,0,0,1-1.56-.31c-0.07.37-.12,0.78-0.17,1.19,0.45,1,2.14,1.83,4.66,2.18,3.75,0.53,7.76-.35,9.08-1.84S212.71,217.4,209,216.87Z" transform="translate(-105.9 -130.8)"/>
        <g>
          <path class="cls-2" d="M186.54,221.52l0.88,0.21,0.37-1-1.19-.07C186.57,221,186.55,221.26,186.54,221.52Z" transform="translate(-105.9 -130.8)"/>
          <path class="cls-2" d="M168.25,180.92c3.87,1.19,10.06-2.47,15.44-2.06,4.34,0.33,11.63,2.11,15.69,4.24l0.09,0-5.85,16.23a5.63,5.63,0,0,1-1.37,4h0l-0.1.09-3.76,10.44,0.85,0.05a4,4,0,0,1,.59.1c0.06-.26.12-0.52,0.19-0.77a16.82,16.82,0,0,1,2.37-5.28l3-8.43a5.68,5.68,0,0,1,.77-2.13L211,156.18a0.88,0.88,0,0,0-1.37-1l0-.12c-1.79,2-14,.58-24.68.34-7.95-.18-16.5-0.78-22.29,2.06-3.71,3.69-10.2,15-13.46,21.11C156.9,177.3,163.24,179.37,168.25,180.92Z" transform="translate(-105.9 -130.8)"/>
          <path class="cls-2" d="M247.28,215.27c-7.27-3.52-7.71-8-13.65-12.75a2,2,0,0,1-1.52,0c1.13-.86,2.69-2,5.15.45-0.69-3-5.79-4.52-9.29-2.28-1.11-1.12-1-2.36-1.19-3.71a9.24,9.24,0,0,0-1.77,5.74,6,6,0,0,0-5.84,1.28c-2.58,2.06-2.11,2.49-5.37,3.64a3,3,0,0,0,2.75-.21,5.69,5.69,0,0,1-6.16,2.05c0.41,1.31,2.09,1.65,3.64,1.51a5.72,5.72,0,0,1-5.68,1.55,6.35,6.35,0,0,0,4.2,1.79A22.73,22.73,0,0,1,211,216c3.79,1.17,4.27,3.12,3.61,4.92v3.06a0.66,0.66,0,0,1,.31.64c-0.05.89-1.11,1.68-3.23,2.34a16.26,16.26,0,0,1-2.15.25,3.17,3.17,0,0,1,.75,2v0.13L209,242.28a4.29,4.29,0,0,1-.91,2.65,3.43,3.43,0,0,1-2.75,1.22h-0.14c-1.28,0-3.45-.67-3.59-4.48v-0.12l0.49-9.67c-1.35-.17-3.52-0.45-5.31-0.77-0.31,0-.63-0.1-1-0.18v11.23h0a3.46,3.46,0,0,1-3.54,3.61h-0.14l-0.14,0c-2.07-.34-3.05-1.53-3.3-4v0l-0.43-11-2-.19a46.28,46.28,0,0,1-5.78-.74h0l-0.21,0a5.12,5.12,0,0,1-3.64-2.49,6.2,6.2,0,0,1-.56-1.36,6.32,6.32,0,0,0-1.47.25,13.47,13.47,0,0,0-3.26,1.63c-4.24-3.1-10.13-4.39-14.81-1.93-5.79,3-4.05,8.48-10.84,9.5a8.13,8.13,0,0,0,10.22-4.15c-0.86,4.48-10.73,10.1-14.3,2-1.44,1.63-.25,4.62,1.59,5.64-2.95.76-4.08-.89-5.16-2.72-0.36,8.64,5.78,13.45,14.83,9-0.81,1.86-4,3.82-9.32,3.48,11.48,3.35,18-7,18.06-11.43a7.77,7.77,0,0,1-1,5.43c7.37-3.79,1.18-12.17,7.7-12.7a6.55,6.55,0,0,1,.77,0,12,12,0,0,0-2.7,7.41,8.31,8.31,0,0,0,2.06,5.89c-1.78,5.18-2.72,10.56-5.35,14.5-0.49,2.78.68,5.79,1.22,8.92,1.08,6.38.1,9.59-.1,13.4l4.47,0c0.73-4.33.85-11.06,0.34-19.71a36.06,36.06,0,0,0,9.81-13.05l-0.09,0c12.71,0.77,16.33,3.29,31.48,3.77a21.33,21.33,0,0,0,6.41,9c1.84,4.64,1.34,12.6,1.77,19.18h4a168,168,0,0,1,.29-19.47c-1.41-5-2.48-9.17-2.44-12.76a10.91,10.91,0,0,0,2.46-5.25l0,0.06c0.85-10.26,1.71-21.8,5.06-25.42,4.27-.44,9.54,3.66,17.09,4.65,0.85-.61,1-1.88,1-3.42C246.59,217.32,247.17,216.91,247.28,215.27Z" transform="translate(-105.9 -130.8)"/>
        </g>
        <path class="cls-2" d="M207.91,227.64a27.51,27.51,0,0,1-3.93-.21c-3.2-.34-6-1.4-6.17-3.56a44.31,44.31,0,0,1,.65-5.92S198,217,198,217s-1-3.49-.52-4.14a1.34,1.34,0,0,1,.54-0.45l0.93,3.55a2.6,2.6,0,0,0,.79,1.29,2,2,0,0,0,1.5.57l4.2-.12a1.8,1.8,0,0,0,1.87-1.73,1.62,1.62,0,0,0-2-1.63l-2.52.08-1.19-4.51a2.71,2.71,0,0,0-.2-0.53,3.66,3.66,0,0,0-2.87-3.17c-2-.42-3.23.38-4.85,2.32a16.15,16.15,0,0,0-2.6,6.09,3.71,3.71,0,0,1,.58.47,3.31,3.31,0,0,1,1,2.49v0.08a3.27,3.27,0,0,1-1.23,2.3,3.73,3.73,0,0,1-1.1.61c0,0.2,0,.39,0,0.59,0,0.48,0,.92.08,1.36,0.89,0.25,1.75.51,2.55,0.78a3.61,3.61,0,0,1,2.73,2.78,4.47,4.47,0,0,1,.2,1.34v2.07a10.49,10.49,0,0,0,1.17.26c2.73,0.49,6.37.89,6.54,0.92l-0.55,11c0.08,2,.78,3.09,2.24,3.14s2.33-1,2.36-2.56l1.22-13A1.76,1.76,0,0,0,207.91,227.64Z" transform="translate(-105.9 -130.8)"/>
        <g>
          <path class="cls-2" d="M194.3,226.38a2.29,2.29,0,0,0-1.81-1.78,72,72,0,0,0-7.4-2c0-.64.06-1.3,0.13-2.11l-2.38-.18a2.64,2.64,0,0,1-2.59-3.1,2.19,2.19,0,0,1,1.23-1.59,1.86,1.86,0,0,0-.56,1.19,2.16,2.16,0,0,0,2.14,2.18l5.75,0.36a2.2,2.2,0,0,0,2.46-1.85h0a2.18,2.18,0,0,0-2.16-2.18l-3.2-.2,0-.42a13.7,13.7,0,0,1,1.58-4.25,3.62,3.62,0,0,0-2.42-5.26c-2-.41-3.22.38-4.83,2.3-2.1,2.52-4.05,11-3.16,16.51,0.23,1.42.52,3.87,3.46,4.44l0.25,0h0c2,0.47,5.1.63,8.41,1l0.43,0.08,0.47,12.09c0.2,2,.88,2.53,2.14,2.74a2.09,2.09,0,0,0,2.21-2.24V227.4A3.08,3.08,0,0,0,194.3,226.38Z" transform="translate(-105.9 -130.8)"/>
          <path class="cls-2" d="M185.15,202.85a4.27,4.27,0,1,0-.42-6A4.29,4.29,0,0,0,185.15,202.85Z" transform="translate(-105.9 -130.8)"/>
        </g>
        <path class="cls-3" d="M210.1,223.9a0.56,0.56,0,0,0-.57-0.56h0a0.56,0.56,0,0,0-.57.56v1.72a0.56,0.56,0,0,0,.57.56h0a0.56,0.56,0,0,0,.57-0.56V223.9Z" transform="translate(-105.9 -130.8)"/>
        <path class="cls-3" d="M213,223a0.56,0.56,0,0,0-.57-0.56h0a0.56,0.56,0,0,0-.57.56v1.72a0.56,0.56,0,0,0,.57.56h0a0.56,0.56,0,0,0,.57-0.56V223Z" transform="translate(-105.9 -130.8)"/>
        <path class="cls-3" d="M203.16,223.26a0.56,0.56,0,0,0-.57.56v1.72a0.53,0.53,0,0,0,.12.29l0.78,0.13a0.53,0.53,0,0,0,.23-0.42v-1.72A0.56,0.56,0,0,0,203.16,223.26Z" transform="translate(-105.9 -130.8)"/>
      </g>
    </g>
    <g>
      <path class="cls-4" d="M310.48,181.21h8.63v33.53l17.72-33.53h9.63l-15.9,30L347,253.91h-9.18l-12.54-32.71-6.18,11.72v21h-8.63V181.21Z" transform="translate(-105.9 -130.8)"/>
      <g>
        <path class="cls-4" d="M365.06,245.46a4.77,4.77,0,0,0,4.73-4.82V198.4h8.63V240.1a13.4,13.4,0,1,1-26.81,0V198.4h8.63v42.25A4.85,4.85,0,0,0,365.06,245.46Z" transform="translate(-105.9 -130.8)"/>
        <path class="cls-4" d="M388,198.4h13.45a13.38,13.38,0,0,1,13.36,13.36v27.81a13.38,13.38,0,0,1-13.36,13.36H388V198.4Zm8.63,46.43h4.82a4.69,4.69,0,0,0,4.73-4.73v-28.9a4.69,4.69,0,0,0-4.73-4.73h-4.82v38.35Z" transform="translate(-105.9 -130.8)"/>
        <path class="cls-4" d="M451,252.92h-8.09L441,243.1H430.94l-1.82,9.81H421l10.63-54.52h8.63Zm-18.54-17.81h7L436,216.84Z" transform="translate(-105.9 -130.8)"/>
      </g>
      <path class="cls-4" d="M476.83,246.46a9.33,9.33,0,0,0,9.27-9.36v-4.18h-9.27v-8h17.9v11.63a17.95,17.95,0,1,1-35.89,0v-38a17.95,17.95,0,1,1,35.89,0v3.18H486.1V198a9.31,9.31,0,1,0-18.63,0V237.1A9.35,9.35,0,0,0,476.83,246.46Z" transform="translate(-105.9 -130.8)"/>
      <path class="cls-4" d="M505.1,211.21a13.4,13.4,0,1,1,26.81,0v28.9a13.4,13.4,0,1,1-26.81,0v-28.9Zm13.45,34.26a4.77,4.77,0,0,0,4.72-4.82v-30a4.77,4.77,0,0,0-4.72-4.82,4.85,4.85,0,0,0-4.82,4.82v30A4.85,4.85,0,0,0,518.55,245.46Z" transform="translate(-105.9 -130.8)"/>
    </g>
  </g>
</svg>
