 <svg width="210" height="70px" id="Layer_1" data-name="Layer 1" xmlns="http://www.w3.org/2000/svg" viewBox="0 0 450.22 95.25">
  <defs>
    <style>
      .cls-1 {
        fill: #fff;
      }
    </style>
  </defs>
  <title>media vk_v2</title>
  <g>
    <path class="cls-1" d="M134,406.94V366.46h-0.16l-14,40.48h-9.68l-14-40.08H96v40.08H84.23V349.82h17.68l13.36,39.28h0.16l12.64-39.28h17.68v57.12H134ZM194.79,389H164.95q0.24,5.52,2.8,8t7.36,2.48a10.12,10.12,0,0,0,5.92-1.72,7.14,7.14,0,0,0,3-3.64h10q-2.4,7.44-7.36,10.64a21.67,21.67,0,0,1-12,3.2,23.61,23.61,0,0,1-8.8-1.56,18.28,18.28,0,0,1-6.64-4.44,19.94,19.94,0,0,1-4.2-6.88,25.14,25.14,0,0,1-1.48-8.8,24.16,24.16,0,0,1,1.52-8.64,20,20,0,0,1,11-11.52,21.4,21.4,0,0,1,8.6-1.68,19.67,19.67,0,0,1,9.2,2,18.39,18.39,0,0,1,6.44,5.48,22.51,22.51,0,0,1,3.64,7.84,29.19,29.19,0,0,1,.8,9.2h0Zm-14.2-13.76q-2-2.24-6.2-2.24a9.91,9.91,0,0,0-4.52.92,8.61,8.61,0,0,0-2.88,2.28,8.33,8.33,0,0,0-1.52,2.88,13,13,0,0,0-.52,2.72h18.48a13.12,13.12,0,0,0-2.84-6.56h0ZM231,406.94v-5.28h-0.16a11.72,11.72,0,0,1-5.24,4.84,17.44,17.44,0,0,1-7.32,1.48,17.69,17.69,0,0,1-8.16-1.8,16.42,16.42,0,0,1-5.8-4.88,22.13,22.13,0,0,1-3.44-7.08,29.74,29.74,0,0,1-1.16-8.32,28,28,0,0,1,1.16-8,20.91,20.91,0,0,1,3.44-6.84,16.7,16.7,0,0,1,13.72-6.56,16.27,16.27,0,0,1,7,1.56,12.2,12.2,0,0,1,5.24,4.6h0.16v-20.8h11.36v57.12H231Zm-0.64-25.72a12,12,0,0,0-1.64-4.16,9.24,9.24,0,0,0-3-2.92,8.8,8.8,0,0,0-4.64-1.12,9.22,9.22,0,0,0-4.72,1.12,8.88,8.88,0,0,0-3.08,3,13.05,13.05,0,0,0-1.68,4.2,22.72,22.72,0,0,0-.52,4.92,21.11,21.11,0,0,0,.56,4.8,13.06,13.06,0,0,0,1.8,4.28,10,10,0,0,0,3.12,3,8.44,8.44,0,0,0,4.52,1.16,9,9,0,0,0,4.68-1.12,8.5,8.5,0,0,0,3-3,13.47,13.47,0,0,0,1.6-4.28,25.23,25.23,0,0,0,.48-5,24.63,24.63,0,0,0-.48-4.92h0Zm20.32,25.72V365.58h11.36v41.36H250.71Zm0-57.12h11.36v9.36H250.71v-9.36h0Zm47.36,57.12a16.15,16.15,0,0,1-.52-2,16.92,16.92,0,0,1-.28-2,14.81,14.81,0,0,1-6.4,3.92,25.68,25.68,0,0,1-7.52,1.12,20.34,20.34,0,0,1-5.52-.72,12.65,12.65,0,0,1-4.48-2.24,10.42,10.42,0,0,1-3-3.84,13,13,0,0,1-1.08-5.52,12.06,12.06,0,0,1,1.24-5.8,10.35,10.35,0,0,1,3.2-3.64,14.34,14.34,0,0,1,4.48-2,47.63,47.63,0,0,1,5.08-1.08q2.56-.4,5-0.64a30.23,30.23,0,0,0,4.4-.72,7.66,7.66,0,0,0,3-1.4,3.08,3.08,0,0,0,1-2.68,6,6,0,0,0-.6-2.92,4.41,4.41,0,0,0-1.6-1.68,6.3,6.3,0,0,0-2.32-.8,19.34,19.34,0,0,0-2.84-.2,8.62,8.62,0,0,0-5.28,1.44,6.43,6.43,0,0,0-2.24,4.8H270.55a13.2,13.2,0,0,1,2-6.64,13.61,13.61,0,0,1,4.48-4.24,19.55,19.55,0,0,1,6.12-2.28,35,35,0,0,1,6.84-.68,46.61,46.61,0,0,1,6.32.44,19.43,19.43,0,0,1,5.84,1.72,11.53,11.53,0,0,1,4.32,3.56,9.94,9.94,0,0,1,1.68,6v21.52a43.23,43.23,0,0,0,.32,5.36,9.65,9.65,0,0,0,1.12,3.84H298.07Zm-1.28-20.24a5.05,5.05,0,0,1-1.8,1,18.32,18.32,0,0,1-2.32.6q-1.24.24-2.6,0.4c-0.91.11-1.81,0.24-2.72,0.4a20.77,20.77,0,0,0-2.52.64,7.47,7.47,0,0,0-2.16,1.08,5.14,5.14,0,0,0-1.48,1.72,5.55,5.55,0,0,0-.56,2.64,5.35,5.35,0,0,0,.56,2.56,4.29,4.29,0,0,0,1.52,1.64,6.41,6.41,0,0,0,2.24.84,14.36,14.36,0,0,0,2.64.24,10,10,0,0,0,5.2-1.12,7.48,7.48,0,0,0,2.72-2.68,8.57,8.57,0,0,0,1.08-3.16,21.79,21.79,0,0,0,.2-2.56V386.7h0ZM316.87,390v-9.76h24.08V390H316.87Zm55.52,17H359.74l-14.16-41.36h11.92l8.72,28.24h0.16l8.72-28.24h11.28l-14,41.36h0Zm60.64,0H419.26L407.9,388.46l-4.4,4.24v14.24H392.14V349.82h11.36v30.64l14.32-14.88h13.44l-15.6,15.2L433,406.94h0Zm4.48,0V394.62h12.56v12.32H437.5ZM484,375.14a20.22,20.22,0,0,0-2.16-.12,12.11,12.11,0,0,0-5.28,1,9.15,9.15,0,0,0-3.48,2.84,11.37,11.37,0,0,0-1.88,4.2,22.91,22.91,0,0,0-.56,5.2v18.64H459.26V365.58h10.8v7.68h0.16a14,14,0,0,1,2.16-3.56,14.22,14.22,0,0,1,3.12-2.8,15.34,15.34,0,0,1,3.76-1.8,13.57,13.57,0,0,1,4.16-.64,8.91,8.91,0,0,1,2.48.4v10.56q-0.8-.16-1.92-0.28h0Zm34.4,31.8v-5.76h-0.24a12.8,12.8,0,0,1-5.6,5.2,16.55,16.55,0,0,1-7,1.6,19.84,19.84,0,0,1-7.48-1.2,10.77,10.77,0,0,1-4.6-3.4,13.3,13.3,0,0,1-2.36-5.36,33.38,33.38,0,0,1-.68-7V365.58h11.36v23.36q0,5.12,1.6,7.64T509,399.1q4.64,0,6.72-2.76t2.08-9.08V365.58h11.36v41.36h-10.8Z" transform="translate(-78.96 -349.82)"/>
    <path class="cls-1" d="M95,440.81L93.39,436h-8l-1.68,4.77H79l8.1-21.42h4.83l8,21.42H95Zm-5.55-16.14H89.4l-2.79,7.86h5.55l-2.7-7.86h0Zm22.14,16.14V434.3h-6v6.51h-4.26V425.3h4.26v5.64h6V425.3h4.26v15.51H111.6Zm17.64,0a6.26,6.26,0,0,1-.3-1.5,5.55,5.55,0,0,1-2.4,1.47,9.6,9.6,0,0,1-2.82.42,7.63,7.63,0,0,1-2.07-.27,4.75,4.75,0,0,1-1.68-.84,3.91,3.91,0,0,1-1.12-1.44,4.88,4.88,0,0,1-.4-2.07,4.52,4.52,0,0,1,.46-2.17,3.87,3.87,0,0,1,1.2-1.36,5.39,5.39,0,0,1,1.68-.77,18.16,18.16,0,0,1,1.9-.41q1-.15,1.89-0.24a11.39,11.39,0,0,0,1.65-.27,2.85,2.85,0,0,0,1.14-.53,1.15,1.15,0,0,0,.39-1,2.26,2.26,0,0,0-.23-1.08,1.63,1.63,0,0,0-.6-0.65,2.39,2.39,0,0,0-.87-0.3,7,7,0,0,0-1.06-.07,3.23,3.23,0,0,0-2,.54,2.41,2.41,0,0,0-.84,1.8h-4.26a5,5,0,0,1,.75-2.47,5,5,0,0,1,1.68-1.61,7.31,7.31,0,0,1,2.28-.86,13,13,0,0,1,2.58-.25,17.34,17.34,0,0,1,2.37.16,7.27,7.27,0,0,1,2.19.65,4.26,4.26,0,0,1,1.62,1.35,3.75,3.75,0,0,1,.63,2.25v8.07a16.43,16.43,0,0,0,.12,2,3.63,3.63,0,0,0,.42,1.44h-4.32Zm-0.48-7.59a1.94,1.94,0,0,1-.66.37,6.12,6.12,0,0,1-.87.22c-0.32.06-.65,0.11-1,0.15s-0.68.09-1,.15a6.78,6.78,0,0,0-1,.24,2.92,2.92,0,0,0-.8.4,1.93,1.93,0,0,0-.56.65,2.1,2.1,0,0,0-.21,1,2,2,0,0,0,.21,1,1.64,1.64,0,0,0,.57.6,2.41,2.41,0,0,0,.84.31,5.37,5.37,0,0,0,1,.09,3.76,3.76,0,0,0,1.95-.42,2.82,2.82,0,0,0,1-1,3.22,3.22,0,0,0,.41-1.18,8.45,8.45,0,0,0,.07-1v-1.59h0Zm18,7.59v-12.3h-4.38q-0.12,3.3-.39,5.67a16.28,16.28,0,0,1-.86,3.9,4.75,4.75,0,0,1-1.59,2.25,4.34,4.34,0,0,1-2.6.72,6,6,0,0,1-.84-0.09,4.93,4.93,0,0,1-.9-0.21v-3.21a1.64,1.64,0,0,0,.42.08h0.48a1.53,1.53,0,0,0,1-.35,2.62,2.62,0,0,0,.72-1.33,15.91,15.91,0,0,0,.45-2.82q0.16-1.83.16-4.8v-3h12.6v15.51h-4.26Zm18.18,0v-10.5l-5.85,10.5h-4.83V425.3h4.08v10.5l5.85-10.5H169v15.51H165Zm18.67-8a3,3,0,0,1,1.06.63,3.46,3.46,0,0,1,.8,1.11,4,4,0,0,1,.31,1.7,4.38,4.38,0,0,1-.53,2.19,4.53,4.53,0,0,1-1.47,1.56,6.73,6.73,0,0,1-2.28.93,13.48,13.48,0,0,1-3,.3,12.93,12.93,0,0,1-2.78-.28,6.62,6.62,0,0,1-2.29-.94,4.94,4.94,0,0,1-1.58-1.68,5.22,5.22,0,0,1-.62-2.52h4.05a2.61,2.61,0,0,0,1,1.92,3.71,3.71,0,0,0,2.32.66,3.07,3.07,0,0,0,2.1-.6,1.91,1.91,0,0,0,.66-1.47,2.08,2.08,0,0,0-.61-1.56,2.9,2.9,0,0,0-2.06-.6h-1.65v-2.67h1.11a4.61,4.61,0,0,0,2.14-.42,1.63,1.63,0,0,0,.8-1.59,1.59,1.59,0,0,0-.59-1.22,2.72,2.72,0,0,0-1.85-.52,4,4,0,0,0-2,.43,2.19,2.19,0,0,0-.92,1.7h-4a4.79,4.79,0,0,1,2.29-3.82,6.94,6.94,0,0,1,2.16-.86,11.67,11.67,0,0,1,2.53-.27,9.45,9.45,0,0,1,4.79,1,3.41,3.41,0,0,1,1.69,3.16,3.16,3.16,0,0,1-.25,1.28,4.06,4.06,0,0,1-.65,1,3.38,3.38,0,0,1-.9.74,3.31,3.31,0,0,1-1,.37v0.06a5.62,5.62,0,0,1,1.13.25h0Zm20.65-4.69a3,3,0,0,0-1.71.47,3.69,3.69,0,0,0-1.12,1.2,5.17,5.17,0,0,0-.62,1.64,8.88,8.88,0,0,0-.18,1.74,8.45,8.45,0,0,0,.18,1.71,5.24,5.24,0,0,0,.59,1.57,3.35,3.35,0,0,0,1.09,1.16,3,3,0,0,0,1.68.45,3.12,3.12,0,0,0,2.35-.86,4,4,0,0,0,1-2.29h4.11a7,7,0,0,1-2.4,4.71,7.75,7.75,0,0,1-5.07,1.62,8.47,8.47,0,0,1-3.21-.58,7.12,7.12,0,0,1-2.46-1.64,7.42,7.42,0,0,1-1.59-2.51,8.68,8.68,0,0,1-.57-3.19,10.35,10.35,0,0,1,.53-3.35,7.52,7.52,0,0,1,1.55-2.67,7.09,7.09,0,0,1,2.49-1.76,8.48,8.48,0,0,1,3.36-.63,9.76,9.76,0,0,1,2.66.36,7.11,7.11,0,0,1,2.28,1.09,5.81,5.81,0,0,1,1.64,1.85,5.91,5.91,0,0,1,.72,2.58h-4.17a2.86,2.86,0,0,0-3.15-2.67h0Zm24.81,8.34a7.27,7.27,0,0,1-1.62,2.57,7.06,7.06,0,0,1-2.54,1.64,9.19,9.19,0,0,1-3.32.57,9.06,9.06,0,0,1-3.3-.57,7.07,7.07,0,0,1-2.52-1.64,7.27,7.27,0,0,1-1.62-2.57,9.4,9.4,0,0,1-.57-3.36,9.53,9.53,0,0,1,.57-3.38,7.1,7.1,0,0,1,4.14-4.23,8.86,8.86,0,0,1,3.3-.58,9,9,0,0,1,3.32.58,7.06,7.06,0,0,1,4.15,4.23,9.53,9.53,0,0,1,.57,3.38,9.4,9.4,0,0,1-.57,3.36h0Zm-3.87-5.19a4.7,4.7,0,0,0-.61-1.59,3.41,3.41,0,0,0-1.17-1.12,3.51,3.51,0,0,0-1.82-.44,3.28,3.28,0,0,0-3,1.56,4.66,4.66,0,0,0-.61,1.59,9.17,9.17,0,0,0-.18,1.83,9,9,0,0,0,.18,1.82,4.82,4.82,0,0,0,.61,1.59,3.28,3.28,0,0,0,1.15,1.13,3.54,3.54,0,0,0,1.8.42,3.62,3.62,0,0,0,1.82-.42,3.24,3.24,0,0,0,1.17-1.13,4.86,4.86,0,0,0,.61-1.59,9.12,9.12,0,0,0,.18-1.82,9.31,9.31,0,0,0-.18-1.83h0Zm22.2,5.19a7.27,7.27,0,0,1-1.62,2.57,7,7,0,0,1-2.53,1.64,9.19,9.19,0,0,1-3.32.57,9.06,9.06,0,0,1-3.3-.57,7.07,7.07,0,0,1-2.52-1.64,7.27,7.27,0,0,1-1.62-2.57,9.4,9.4,0,0,1-.57-3.36,9.53,9.53,0,0,1,.57-3.38,7.1,7.1,0,0,1,4.14-4.23,8.86,8.86,0,0,1,3.3-.58,9,9,0,0,1,3.32.58,7.07,7.07,0,0,1,4.15,4.23,9.53,9.53,0,0,1,.57,3.38,9.4,9.4,0,0,1-.57,3.36h0Zm-3.87-5.19a4.66,4.66,0,0,0-.62-1.59,3.4,3.4,0,0,0-1.17-1.12,3.51,3.51,0,0,0-1.82-.44,3.28,3.28,0,0,0-3,1.56,4.66,4.66,0,0,0-.62,1.59,9.31,9.31,0,0,0-.18,1.83,9.12,9.12,0,0,0,.18,1.82,4.82,4.82,0,0,0,.62,1.59,3.28,3.28,0,0,0,1.15,1.13,3.54,3.54,0,0,0,1.8.42,3.62,3.62,0,0,0,1.82-.42,3.23,3.23,0,0,0,1.17-1.13,4.83,4.83,0,0,0,.62-1.59,9.12,9.12,0,0,0,.18-1.82,9.31,9.31,0,0,0-.18-1.83h0Zm20.22-8.75a7.43,7.43,0,0,1-2.28.72q-1.35.22-3.18,0.4a6.48,6.48,0,0,0-2.43.69,5.06,5.06,0,0,0-1.62,1.37,5.88,5.88,0,0,0-.94,1.86,11.53,11.53,0,0,0-.43,2.17H253a7.42,7.42,0,0,1,.77-1.56,6.13,6.13,0,0,1,1.24-1.41,6.36,6.36,0,0,1,1.77-1,6.28,6.28,0,0,1,2.34-.41,6.87,6.87,0,0,1,2.78.57,6.63,6.63,0,0,1,2.26,1.62,7.78,7.78,0,0,1,1.52,2.5,9.11,9.11,0,0,1,.55,3.26,9.3,9.3,0,0,1-.55,3.3,6.89,6.89,0,0,1-1.61,2.51,7.07,7.07,0,0,1-2.55,1.59,9.65,9.65,0,0,1-3.36.55,7.42,7.42,0,0,1-3.72-.84,6.55,6.55,0,0,1-2.33-2.19,8.72,8.72,0,0,1-1.18-3,17.5,17.5,0,0,1-.33-3.39q0-2,.18-3.91a11.22,11.22,0,0,1,.84-3.41,7.56,7.56,0,0,1,1.9-2.66,8.06,8.06,0,0,1,3.37-1.69,7.92,7.92,0,0,1,1.55-.24q0.88-.06,1.7-0.15a7.93,7.93,0,0,0,1.36-.25,0.68,0.68,0,0,0,.59-0.56h3.75a5.38,5.38,0,0,1-.62,2.28,3.53,3.53,0,0,1-1.42,1.33h0Zm-7.94,14.31a3.11,3.11,0,0,0,2.6,1.21,3.07,3.07,0,0,0,2.57-1.23,5.79,5.79,0,0,0,.94-3.57,5.94,5.94,0,0,0-.93-3.56,3.08,3.08,0,0,0-2.64-1.27,3,3,0,0,0-2.55,1.29,6,6,0,0,0-.93,3.57,5.7,5.7,0,0,0,.94,3.56h0Zm32.27,8.27v-4.26H269V425.3h4.26v12.3h4.2V425.3h4.26v12.3h4.2V425.3h4.26v12.3h1.95v7.47h-4Zm20.58-11H297.51a4.31,4.31,0,0,0,1,3,4.36,4.36,0,0,0,5,.28,2.67,2.67,0,0,0,1.14-1.36h3.75a7.12,7.12,0,0,1-2.76,4,8.12,8.12,0,0,1-4.5,1.2,8.88,8.88,0,0,1-3.3-.58,6.87,6.87,0,0,1-2.49-1.67,7.48,7.48,0,0,1-1.58-2.58,9.43,9.43,0,0,1-.56-3.3,9.06,9.06,0,0,1,.57-3.24,7.5,7.5,0,0,1,4.12-4.32,8.05,8.05,0,0,1,3.23-.63,7.44,7.44,0,0,1,3.28.69,6.89,6.89,0,0,1,2.37,1.85,8,8,0,0,1,1.43,2.68,10.63,10.63,0,0,1,.48,3.18v0.4a2.79,2.79,0,0,1,0,.41h0Zm-5.33-5.16a3,3,0,0,0-2.32-.84,3.68,3.68,0,0,0-1.71.35,3.26,3.26,0,0,0-1.06.86,3.14,3.14,0,0,0-.57,1.08,4.78,4.78,0,0,0-.19,1h6.93a4.93,4.93,0,0,0-1.06-2.46h0Zm15.26-.84a3,3,0,0,0-1.71.47,3.67,3.67,0,0,0-1.12,1.2,5.13,5.13,0,0,0-.62,1.64,8.88,8.88,0,0,0-.18,1.74,8.45,8.45,0,0,0,.18,1.71,5.24,5.24,0,0,0,.59,1.57,3.35,3.35,0,0,0,1.09,1.16,3,3,0,0,0,1.68.45,3.12,3.12,0,0,0,2.35-.86,4,4,0,0,0,1-2.29H326a7,7,0,0,1-2.4,4.71,7.75,7.75,0,0,1-5.07,1.62,8.47,8.47,0,0,1-3.21-.58A7.15,7.15,0,0,1,312.9,439a7.44,7.44,0,0,1-1.59-2.51,8.68,8.68,0,0,1-.57-3.19,10.35,10.35,0,0,1,.53-3.35,7.54,7.54,0,0,1,1.54-2.67,7.11,7.11,0,0,1,2.49-1.76,8.48,8.48,0,0,1,3.36-.63,9.76,9.76,0,0,1,2.66.36,7.11,7.11,0,0,1,2.28,1.09,5.83,5.83,0,0,1,1.64,1.85,5.93,5.93,0,0,1,.72,2.58h-4.17a2.86,2.86,0,0,0-3.15-2.67h0Zm17.85,0.42v12.3h-4.26v-12.3h-5.1V425.3h14.46v3.21h-5.1Zm18.9,3.9a4.07,4.07,0,0,1,2,1.24,3.69,3.69,0,0,1,.81,2.54,4.62,4.62,0,0,1-.4,2,4.11,4.11,0,0,1-1.12,1.44,5,5,0,0,1-1.68.89,6.81,6.81,0,0,1-2,.3h-9.33V425.3h8.91a7.83,7.83,0,0,1,1.92.23,4.82,4.82,0,0,1,1.58.69,3.32,3.32,0,0,1,1.06,1.22,3.78,3.78,0,0,1,.39,1.77,3.37,3.37,0,0,1-.57,2,3.55,3.55,0,0,1-1.53,1.24h0Zm-2.43-3.59a1.38,1.38,0,0,0-.55-0.52,2.39,2.39,0,0,0-.81-0.24,7.51,7.51,0,0,0-.94-0.06h-2.82v3.54h2.82a7.15,7.15,0,0,0,.93-0.06,2.34,2.34,0,0,0,.81-0.25,1.48,1.48,0,0,0,.57-0.54,1.81,1.81,0,0,0,.21-0.94,1.74,1.74,0,0,0-.21-0.92h0Zm0.59,6.11a1.63,1.63,0,0,0-.68-0.63,3,3,0,0,0-1-.28,8,8,0,0,0-1.11-.07h-3v4.11H351a7.11,7.11,0,0,0,1-.07,2.72,2.72,0,0,0,.9-0.28,1.63,1.63,0,0,0,.63-0.62,2.45,2.45,0,0,0,0-2.14h0Zm33.15-3.76a6.54,6.54,0,0,1,.34,6.24,5.43,5.43,0,0,1-1.7,1.93,7.49,7.49,0,0,1-2.43,1.11,11,11,0,0,1-2.8.36H369.72V419.39H379.8a13.37,13.37,0,0,1,2.79.27,6,6,0,0,1,2.16.89,4.12,4.12,0,0,1,1.39,1.64,5.73,5.73,0,0,1,.5,2.52,4.69,4.69,0,0,1-.74,2.7,5.33,5.33,0,0,1-2.17,1.77,5.16,5.16,0,0,1,3,2h0Zm-4.87-6.89a2,2,0,0,0-.72-0.75,3.08,3.08,0,0,0-1-.37,7,7,0,0,0-1.22-.1h-4.41v5h4.77a3.38,3.38,0,0,0,2.07-.6,2.27,2.27,0,0,0,.81-2,2.49,2.49,0,0,0-.27-1.23h0ZM382,432a4,4,0,0,0-2.46-.7h-5.13v5.88h5a6.28,6.28,0,0,0,1.32-.13,3.21,3.21,0,0,0,1.11-.45,2.27,2.27,0,0,0,.76-0.85,2.94,2.94,0,0,0,.29-1.38A2.77,2.77,0,0,0,382,432h0Zm24.18,8.84H401l-5.49-6.45-0.9,1v5.46h-4.26V425.3h4.26v6.33l5.7-6.33h5l-6.48,6.84,7.32,8.67h0Zm16.41-4.38A7.27,7.27,0,0,1,421,439a7.06,7.06,0,0,1-2.54,1.64,9.19,9.19,0,0,1-3.32.57,9.06,9.06,0,0,1-3.3-.57,7.07,7.07,0,0,1-2.52-1.64,7.27,7.27,0,0,1-1.62-2.57,9.4,9.4,0,0,1-.57-3.36,9.53,9.53,0,0,1,.57-3.38,7.1,7.1,0,0,1,4.14-4.23,8.86,8.86,0,0,1,3.3-.58,9,9,0,0,1,3.32.58,7.06,7.06,0,0,1,4.15,4.23,9.53,9.53,0,0,1,.57,3.38,9.4,9.4,0,0,1-.57,3.36h0Zm-3.87-5.19a4.7,4.7,0,0,0-.61-1.59,3.43,3.43,0,0,0-1.17-1.12,3.51,3.51,0,0,0-1.82-.44,3.28,3.28,0,0,0-3,1.56,4.7,4.7,0,0,0-.62,1.59,9.31,9.31,0,0,0-.18,1.83,9.12,9.12,0,0,0,.18,1.82,4.87,4.87,0,0,0,.62,1.59,3.28,3.28,0,0,0,1.15,1.13,3.54,3.54,0,0,0,1.8.42,3.62,3.62,0,0,0,1.82-.42,3.25,3.25,0,0,0,1.17-1.13,4.86,4.86,0,0,0,.61-1.59,9.11,9.11,0,0,0,.18-1.82,9.31,9.31,0,0,0-.18-1.83h0Zm17.49,9.57V434.3h-6v6.51h-4.26V425.3h4.26v5.64h6V425.3h4.26v15.51h-4.26Zm15.54-12.3v12.3h-4.26v-12.3h-5.1V425.3h14.46v3.21h-5.1Zm17.16,12.3a5.75,5.75,0,0,1-.19-0.74,6,6,0,0,1-.1-0.77,5.55,5.55,0,0,1-2.4,1.47,9.61,9.61,0,0,1-2.82.42,7.62,7.62,0,0,1-2.07-.27,4.75,4.75,0,0,1-1.68-.84,3.89,3.89,0,0,1-1.12-1.44,4.85,4.85,0,0,1-.41-2.07,4.52,4.52,0,0,1,.47-2.17,3.85,3.85,0,0,1,1.2-1.36,5.37,5.37,0,0,1,1.68-.77,18.16,18.16,0,0,1,1.9-.41q1-.15,1.89-0.24a11.43,11.43,0,0,0,1.65-.27,2.88,2.88,0,0,0,1.14-.53,1.15,1.15,0,0,0,.39-1,2.28,2.28,0,0,0-.22-1.08,1.63,1.63,0,0,0-.6-0.65,2.39,2.39,0,0,0-.87-0.3,7.09,7.09,0,0,0-1.07-.07,3.24,3.24,0,0,0-2,.54,2.42,2.42,0,0,0-.84,1.8h-4.26a5,5,0,0,1,.75-2.47A5.06,5.06,0,0,1,461,426a7.34,7.34,0,0,1,2.28-.86,13,13,0,0,1,2.58-.25,17.29,17.29,0,0,1,2.37.16,7.27,7.27,0,0,1,2.19.65,4.26,4.26,0,0,1,1.62,1.35,3.74,3.74,0,0,1,.63,2.25v8.07a16.07,16.07,0,0,0,.12,2,3.63,3.63,0,0,0,.42,1.44h-4.32Zm-0.48-7.59a1.93,1.93,0,0,1-.66.37,6.12,6.12,0,0,1-.87.22c-0.32.06-.65,0.11-1,0.15s-0.68.09-1,.15a6.78,6.78,0,0,0-1,.24,2.89,2.89,0,0,0-.8.4,1.93,1.93,0,0,0-.56.65,2.08,2.08,0,0,0-.21,1,2,2,0,0,0,.21,1,1.64,1.64,0,0,0,.57.6,2.41,2.41,0,0,0,.84.31,5.37,5.37,0,0,0,1,.09,3.76,3.76,0,0,0,1.95-.42,2.82,2.82,0,0,0,1-1,3.22,3.22,0,0,0,.4-1.18,8,8,0,0,0,.07-1v-1.59h0Zm23.37,7.59h-5.16l-5.49-6.45-0.9,1v5.46H476V425.3h4.26v6.33l5.7-6.33h5l-6.48,6.84,7.32,8.67h0Zm9.45-12.3v12.3H497v-12.3h-5.1V425.3h14.46v3.21h-5.1ZM523,434.09H511.8a4.31,4.31,0,0,0,1,3,4.37,4.37,0,0,0,5,.28A2.67,2.67,0,0,0,519,436h3.75a7.12,7.12,0,0,1-2.76,4,8.12,8.12,0,0,1-4.5,1.2,8.88,8.88,0,0,1-3.3-.58,6.87,6.87,0,0,1-2.49-1.67,7.48,7.48,0,0,1-1.58-2.58,9.43,9.43,0,0,1-.56-3.3,9.06,9.06,0,0,1,.57-3.24,7.5,7.5,0,0,1,4.12-4.32,8.05,8.05,0,0,1,3.23-.63,7.44,7.44,0,0,1,3.28.69,6.89,6.89,0,0,1,2.37,1.85,8,8,0,0,1,1.43,2.68,10.63,10.63,0,0,1,.48,3.18v0.4a2.79,2.79,0,0,1,0,.41h0Zm-5.33-5.16a3,3,0,0,0-2.32-.84,3.68,3.68,0,0,0-1.71.35,3.26,3.26,0,0,0-1.06.86,3.11,3.11,0,0,0-.57,1.08,4.78,4.78,0,0,0-.19,1h6.93a4.93,4.93,0,0,0-1.06-2.46h0Z" transform="translate(-78.96 -349.82)"/>
  </g>
</svg>
