<svg width="210" height="70px" id="Layer_1" data-name="Layer 1" xmlns="http://www.w3.org/2000/svg" viewBox="0 0 171.06 38.42">
  <defs>
    <style>
      .cls-1 {
        fill: #fff;
      }
    </style>
  </defs>
  <title>logo_comagic</title>
  <g>
    <path class="cls-1" d="M250.11,407.19q0,1.91-2.7,4.08-4.51,3.64-11.55,3.65-7.57,0-11.71-4.55T220,397.51q0-8,4.2-13a15,15,0,0,1,12.08-5.4,16.09,16.09,0,0,1,10.52,3.35,3.31,3.31,0,0,1,1.54,2.31,2.09,2.09,0,0,1-2,2,2.9,2.9,0,0,1-1.46-.69A14.75,14.75,0,0,0,236.2,383a10.88,10.88,0,0,0-8.77,3.88q-3.27,3.88-3.27,10.56,0,13.43,11.7,13.43,6.68,0,9.54-3.23l1.3-1.71a1.85,1.85,0,0,1,1.44-.75,1.92,1.92,0,0,1,2,2h0Z" transform="translate(-220 -377)"/>
    <path class="cls-1" d="M269.8,395.94a9.21,9.21,0,0,0-1.92-6.2,6.57,6.57,0,0,0-5.25-2.24q-7.43,0-7.43,8.93a10.64,10.64,0,0,0,1.62,6.33,5.38,5.38,0,0,0,4.63,2.22,8,8,0,0,0,6.13-2.39,9.36,9.36,0,0,0,2.23-6.66h0Zm3.92,0a12.57,12.57,0,0,1-3.39,9.23,12.13,12.13,0,0,1-9,3.44,9,9,0,0,1-7.35-3.2q-2.66-3.2-2.66-8.89,0-6,3.21-9.3t8.75-3.25a9.63,9.63,0,0,1,7.58,3.29,12.68,12.68,0,0,1,2.9,8.69h0Z" transform="translate(-220 -377)"/>
    <path class="cls-1" d="M312.86,400.21a90.37,90.37,0,0,1-.69,12.39q-0.42,2.82-2.19,2.82-2,0-2-2.17,0-.1.23-2.19,0.28-2.46.45-5,0.24-3.74.24-7.84a106.1,106.1,0,0,0-1.18-15.13q-4.77,4.71-8.39,14.72L297.91,402a2.19,2.19,0,0,1-2,1.54,1.91,1.91,0,0,1-1.79-1.2c-0.14-.29-0.53-1.46-1.14-3.53a39,39,0,0,0-9.12-15.37q-2.19,7.09-2.19,19.37c0,1.18,0,2.64.15,4.37s0.15,2.88.15,3.44q0,3-2,3-1.56,0-2-1.89a39.8,39.8,0,0,1-.29-6.3,103.7,103.7,0,0,1,1.93-22,16,16,0,0,1,1.36-4.14,2.23,2.23,0,0,1,2-1.26q1.28,0,2.94,1.77a63.05,63.05,0,0,1,5.34,6.36,42.59,42.59,0,0,1,5,9.45,63,63,0,0,1,7.72-13.93q3.39-4.68,5.4-4.69a1.4,1.4,0,0,1,1.28.75,9.21,9.21,0,0,1,.77,2.36q1.5,6.32,1.5,20.1h0Z" transform="translate(-220 -377)"/>
    <path class="cls-1" d="M330.94,402.91q0-5-4.71-5-5.16,0-5.16,5t5.12,5a4.62,4.62,0,0,0,3.49-1.31,5.06,5.06,0,0,0,1.26-3.66h0Zm4-4.63a43.59,43.59,0,0,1-1.58,11.29q-0.79,3-2.34,3c-1.06,0-1.6-.6-1.6-1.81a3.45,3.45,0,0,1,0-.61,8.65,8.65,0,0,1-4.16,1.08,8,8,0,0,1-5.94-2.15,8.13,8.13,0,0,1-2.14-6,8.39,8.39,0,0,1,2.31-6.21,8.3,8.3,0,0,1,6.13-2.3,7.74,7.74,0,0,1,5.62,2.23Q330.9,389,325.5,389a5.57,5.57,0,0,0-2.57.72,5.51,5.51,0,0,1-1.78.72,1.63,1.63,0,0,1-1.2-.55,1.77,1.77,0,0,1-.53-1.26q0-1.18,1.71-2.19a8.46,8.46,0,0,1,4.38-1.08q9.44,0,9.44,13h0Z" transform="translate(-220 -377)"/>
    <path class="cls-1" d="M352.94,391.21a4.76,4.76,0,0,0-1.31-3.51,4.67,4.67,0,0,0-3.46-1.32,5.08,5.08,0,0,0-3.86,1.58,5.77,5.77,0,0,0-1.5,4.13q0,4.12,4.93,4.12a5.31,5.31,0,0,0,3.84-1.31,4.89,4.89,0,0,0,1.36-3.69h0Zm5.73-7.17a1.45,1.45,0,0,1-1.73,1.54q-0.24,0-1-.08l-1.64-.14a9,9,0,0,1,2.38,6.23,7.45,7.45,0,0,1-2.47,5.76,9.16,9.16,0,0,1-6.43,2.26c-0.59,0-1.53-.07-2.84-0.2a9.83,9.83,0,0,0-2.66,3q3.84-.45,5.09-0.45,8.08,0,8.08,5.58a6,6,0,0,1-3,5.29q-3,1.92-8.5,1.92a10,10,0,0,1-5.48-1.32,3.64,3.64,0,0,1-1.91-3.11,1.49,1.49,0,0,1,.57-1.16,2,2,0,0,1,1.34-.49,1.56,1.56,0,0,1,1,.45l1,1q1,1,3.66,1a13,13,0,0,0,5.4-.91,2.67,2.67,0,0,0,1.87-2.4q0-2.23-5.16-2.23a29.47,29.47,0,0,0-3.22.23q-2,.22-2.79.22-1.91,0-1.91-1.34,0-1.87,3.69-6.36a7.12,7.12,0,0,1-3-6.19,8.69,8.69,0,0,1,2.68-6.41,9,9,0,0,1,6.56-2.66,10.49,10.49,0,0,1,1.89.2q0.65-1,4.19-1,4.41,0,4.41,1.73h0Z" transform="translate(-220 -377)"/>
    <path class="cls-1" d="M365.87,380.35q0,2.8-2.74,2.8a2.52,2.52,0,0,1-1.86-.77,2.54,2.54,0,0,1-.76-1.85,2.83,2.83,0,0,1,2.86-2.84,2.39,2.39,0,0,1,1.82.73,2.69,2.69,0,0,1,.69,1.93h0ZM365,387.86a131,131,0,0,1-.85,17.55,11.12,11.12,0,0,1-.75,3.07,1.79,1.79,0,0,1-1.72,1,1.88,1.88,0,0,1-1.34-.52,1.67,1.67,0,0,1-.55-1.25c0,0.07.1-.39,0.31-1.36a34.31,34.31,0,0,0,.61-3.76,63.92,63.92,0,0,0,.32-6.7q0-1.61,0-3.41c0-1.2,0-1.84,0-1.95a10.46,10.46,0,0,1,.45-3.7,1.75,1.75,0,0,1,1.78-1.15q1.81,0,1.81,2.13h0Z" transform="translate(-220 -377)"/>
    <path class="cls-1" d="M391.06,402.18q0,2.05-4.16,5.26a12.34,12.34,0,0,1-7.7,2.25,9.38,9.38,0,0,1-7.45-3.11q-2.78-3.17-2.78-8.71,0-7.15,3.19-11.14a10.61,10.61,0,0,1,8.77-4,11.54,11.54,0,0,1,6.78,1.85,5,5,0,0,1,2.5,4.16,1.7,1.7,0,0,1-1.85,2,1.39,1.39,0,0,1-1.26-.61A20.17,20.17,0,0,0,386,388q-1.4-1.58-5.08-1.58a6.91,6.91,0,0,0-5.94,2.9q-2.1,2.9-2.1,8.28,0,8.51,6.78,8.51a9.14,9.14,0,0,0,6.7-2.78l1.22-1.77a2,2,0,0,1,1.61-1.06,1.82,1.82,0,0,1,1.28.54,1.62,1.62,0,0,1,.57,1.19h0Z" transform="translate(-220 -377)"/>
  </g>
</svg>
