<svg height="70px" id="Layer_1" data-name="Layer 1" xmlns="http://www.w3.org/2000/svg" viewBox="0 0 156.69 35">
  <defs>
    <style>
      .cls-1 {
        fill: #fff;
      }
    </style>
  </defs>
  <title>logo_masterskaya</title>
  <g>
    <g>
      <path class="cls-1" d="M352.19,219.66h2.6l7.12,16.89h-3.15L357,232.25h-7.19l-1.76,4.31h-3Zm-1.25,9.82h4.93l-2.45-6Z" transform="translate(-325.6 -219.45)"/>
      <path class="cls-1" d="M376.21,234.92a7.76,7.76,0,0,1-5.39,1.9c-5.15,0-8.68-3.44-8.68-8.69,0-4.84,3.06-8.69,8.61-8.69a7.65,7.65,0,0,1,5.12,1.71l-1.32,2.19a6.37,6.37,0,0,0-3.8-1.13c-3.13,0-5.49,2.26-5.49,5.92a5.6,5.6,0,0,0,5.82,5.92,6.56,6.56,0,0,0,4-1.35Z" transform="translate(-325.6 -219.45)"/>
      <path class="cls-1" d="M378,219.71h13.88v2.77h-5.46v14.07h-3V222.48H378v-2.77Z" transform="translate(-325.6 -219.45)"/>
      <path class="cls-1" d="M394.35,219.71h9.74v2.77h-6.78v4.19h6.06v2.77h-6.06v4.35h7v2.77h-10V219.71Z" transform="translate(-325.6 -219.45)"/>
      <path class="cls-1" d="M407.71,236.55V219.71c0.94,0,3.61,0,4.79,0,5,0,6.52,2.65,6.52,5.41s-2.14,5.46-6.16,5.46c-0.51,0-1.47,0-2.19-.07v6.09h-3Zm3-14.07v5.17a20.71,20.71,0,0,0,2.09.12c1.76,0,3.13-.84,3.13-2.72s-1.08-2.62-3.1-2.62C412.18,222.43,411.46,222.45,410.67,222.48Z" transform="translate(-325.6 -219.45)"/>
      <path class="cls-1" d="M434.66,234.92a7.76,7.76,0,0,1-5.39,1.9c-5.15,0-8.68-3.44-8.68-8.69,0-4.84,3.06-8.69,8.61-8.69a7.65,7.65,0,0,1,5.12,1.71L433,223.34a6.37,6.37,0,0,0-3.8-1.13c-3.13,0-5.48,2.26-5.48,5.92a5.6,5.6,0,0,0,5.82,5.92,6.56,6.56,0,0,0,4-1.35Z" transform="translate(-325.6 -219.45)"/>
      <path class="cls-1" d="M437.11,219.71h3v8l6.64-8h3.56l-6.93,7.84,7.36,9H447l-6.88-8.69v8.69h-3V219.71Z" transform="translate(-325.6 -219.45)"/>
      <path class="cls-1" d="M458.51,219.66h2.6l7.12,16.89h-3.15l-1.76-4.31h-7.19l-1.76,4.31h-3Zm-1.25,9.82h4.93l-2.45-6Z" transform="translate(-325.6 -219.45)"/>
      <path class="cls-1" d="M478.77,230.73h-2.43l-3.78,5.82h-3.32l4.31-6.42a5.13,5.13,0,0,1-3-4.67c0-3.1,2-5.82,6.93-5.82,1.08,0,3.2.07,4.19,0.07v16.84h-2.94v-5.82Zm0-2.77v-5.49c-0.41,0-1.35-.07-1.85-0.07a2.88,2.88,0,0,0-3.2,2.86,2.77,2.77,0,0,0,2.36,2.69h2.69Z" transform="translate(-325.6 -219.45)"/>
      <polygon class="cls-1" points="14.65 0.26 9.17 8.69 3.42 0.26 0.43 0.26 0.43 17.11 3.39 17.11 3.39 5 7.63 11.75 10.3 11.75 14.51 4.93 14.51 17.11 17.45 17.11 17.45 0.26 14.65 0.26"/>
    </g>
    <g>
      <path class="cls-1" d="M328.75,245.78a3.09,3.09,0,1,1-3.15,3.09A3,3,0,0,1,328.75,245.78Zm0,5.19a2.1,2.1,0,0,0,0-4.2A2.1,2.1,0,0,0,328.75,251Z" transform="translate(-325.6 -219.45)"/>
      <path class="cls-1" d="M332.17,245.91h5.39V247h-2.17v4.86h-1.05V247h-2.17v-1.05Z" transform="translate(-325.6 -219.45)"/>
      <path class="cls-1" d="M340.32,250.84h0.74a6.88,6.88,0,0,0,.91-3.36l0.09-1.56h4v4.93h1v2.43h-1v-1.45h-4.78v1.45h-1v-2.43Zm1.85,0H345V246.9h-2l-0.07,1A6.73,6.73,0,0,1,342.17,250.84Z" transform="translate(-325.6 -219.45)"/>
      <path class="cls-1" d="M348,251.82v-5.91H349v4.4l3.42-4.4h1.05v5.91h-1.05v-4.4l-3.42,4.4H348Z" transform="translate(-325.6 -219.45)"/>
      <path class="cls-1" d="M354.63,251.15l0.54-.79a3.06,3.06,0,0,0,1.75.64c0.89,0,1.55-.38,1.55-1s-0.43-.76-1.16-0.76h-1v-0.85h0.93a0.93,0.93,0,0,0,1-.84,1,1,0,0,0-1.26-.85,2.75,2.75,0,0,0-1.77.66l-0.41-.81a3.39,3.39,0,0,1,2.34-.79c1.45,0,2.22.62,2.22,1.59a1.42,1.42,0,0,1-1,1.39v0a1.33,1.33,0,0,1,1.24,1.39c0,1.1-1.05,1.77-2.51,1.77A3.78,3.78,0,0,1,354.63,251.15Z" transform="translate(-325.6 -219.45)"/>
      <path class="cls-1" d="M361,246.32a3.8,3.8,0,0,1,2-.54c1.68,0,2.27.88,2.27,2.42v3.63h-1v-0.76a2.26,2.26,0,0,1-1.89.85,1.7,1.7,0,0,1-1.81-1.83,2,2,0,0,1,2.23-1.88,2.66,2.66,0,0,1,1.47.38c0-1.1-.17-1.87-1.34-1.87a3.14,3.14,0,0,0-1.63.43Zm3.25,3.89v-0.75a2.23,2.23,0,0,0-1.33-.39,1.08,1.08,0,0,0-1.26,1,0.92,0.92,0,0,0,1.06.93A1.91,1.91,0,0,0,364.21,250.21Z" transform="translate(-325.6 -219.45)"/>
      <path class="cls-1" d="M366.71,251.82v-5.91h1.05v4.4l3.42-4.4h1.05v5.91h-1.05v-4.4l-3.42,4.4h-1.05Zm1.83-8.93a0.94,0.94,0,0,0,1,1,0.93,0.93,0,0,0,1-1h1a1.82,1.82,0,0,1-1.95,1.84,1.8,1.8,0,0,1-2-1.84h1Z" transform="translate(-325.6 -219.45)"/>
      <path class="cls-1" d="M378.21,249.33h-3.28v2.5h-1.05v-5.91h1.05v2.43h3.28v-2.43h1.05v5.91h-1.05v-2.5Z" transform="translate(-325.6 -219.45)"/>
      <path class="cls-1" d="M380.95,246.32a3.8,3.8,0,0,1,2-.54c1.68,0,2.27.88,2.27,2.42v3.63h-1v-0.76a2.26,2.26,0,0,1-1.89.85,1.7,1.7,0,0,1-1.81-1.83,2,2,0,0,1,2.23-1.88,2.66,2.66,0,0,1,1.47.38c0-1.1-.17-1.87-1.34-1.87a3.15,3.15,0,0,0-1.63.43Zm3.25,3.89v-0.75a2.23,2.23,0,0,0-1.33-.39,1.08,1.08,0,0,0-1.26,1,0.92,0.92,0,0,0,1.06.93A1.91,1.91,0,0,0,384.19,250.21Z" transform="translate(-325.6 -219.45)"/>
      <path class="cls-1" d="M388.57,250.84h0.74a6.87,6.87,0,0,0,.91-3.36l0.09-1.56h4v4.93h1v2.43h-1v-1.45h-4.78v1.45h-1v-2.43Zm1.85,0h2.86V246.9h-2l-0.07,1A6.73,6.73,0,0,1,390.42,250.84Z" transform="translate(-325.6 -219.45)"/>
      <path class="cls-1" d="M399,245.78a3.09,3.09,0,1,1-3.15,3.09A3,3,0,0,1,399,245.78Zm0,5.19a2.1,2.1,0,0,0,0-4.2A2.1,2.1,0,0,0,399,251Z" transform="translate(-325.6 -219.45)"/>
      <path class="cls-1" d="M410.33,246.9h-3.22v4.93h-1.05v-5.91h5.32v5.91h-1.05V246.9Z" transform="translate(-325.6 -219.45)"/>
      <path class="cls-1" d="M413,245.91h1.05v0.7a2.76,2.76,0,0,1,2-.83,2.72,2.72,0,0,1,2.73,3,3,3,0,0,1-3.07,3.18,3.14,3.14,0,0,1-1.67-.41v2.9H413v-8.54Zm1.05,1.67v2.93a2.62,2.62,0,0,0,1.58.46,2,2,0,0,0,2-2.16,1.86,1.86,0,0,0-1.92-2A2.25,2.25,0,0,0,414.08,247.58Z" transform="translate(-325.6 -219.45)"/>
      <path class="cls-1" d="M422.83,245.78a3.09,3.09,0,1,1-3.15,3.09A3,3,0,0,1,422.83,245.78Zm0,5.19a2.1,2.1,0,0,0,0-4.2A2.1,2.1,0,0,0,422.83,251Z" transform="translate(-325.6 -219.45)"/>
      <path class="cls-1" d="M427.24,251.82v-5.91h1.05v4.4l3.42-4.4h1.05v5.91H431.7v-4.4l-3.42,4.4h-1.05Z" transform="translate(-325.6 -219.45)"/>
      <path class="cls-1" d="M433.91,251.15l0.54-.79a3.06,3.06,0,0,0,1.75.64c0.89,0,1.55-.38,1.55-1s-0.43-.76-1.16-0.76h-1v-0.85h0.93a0.93,0.93,0,0,0,1-.84,1,1,0,0,0-1.26-.85,2.75,2.75,0,0,0-1.77.66l-0.41-.81a3.39,3.39,0,0,1,2.34-.79c1.45,0,2.22.62,2.22,1.59a1.42,1.42,0,0,1-1,1.39v0a1.33,1.33,0,0,1,1.24,1.39c0,1.1-1.05,1.77-2.51,1.77A3.78,3.78,0,0,1,433.91,251.15Z" transform="translate(-325.6 -219.45)"/>
      <path class="cls-1" d="M440.21,245.91c0.51,0,1.29-.05,2.14-0.05,1.66,0,2.55.46,2.55,1.52a1.34,1.34,0,0,1-1.18,1.35v0a1.39,1.39,0,0,1,1.38,1.39c0,1.12-.88,1.72-2.72,1.72-0.74,0-1.63-.05-2.17-0.05v-5.91Zm1.05,0.84v1.76h1.33a1,1,0,0,0,1.2-.92c0-.64-0.59-0.88-1.35-0.88C442,246.71,441.52,246.74,441.26,246.75Zm0,2.42V251c0.32,0,.74,0,1.21,0,1,0,1.51-.33,1.51-0.95s-0.51-.91-1.46-0.91h-1.26Z" transform="translate(-325.6 -219.45)"/>
      <path class="cls-1" d="M449.2,245.78a3.09,3.09,0,1,1-3.15,3.09A3,3,0,0,1,449.2,245.78Zm0,5.19a2.1,2.1,0,0,0,0-4.2A2.1,2.1,0,0,0,449.2,251Z" transform="translate(-325.6 -219.45)"/>
      <path class="cls-1" d="M452.55,250.84h0.74a6.87,6.87,0,0,0,.91-3.36l0.09-1.56h4v4.93h1v2.43h-1v-1.45h-4.78v1.45h-1v-2.43Zm1.85,0h2.86V246.9h-2l-0.07,1A6.73,6.73,0,0,1,454.4,250.84Z" transform="translate(-325.6 -219.45)"/>
      <path class="cls-1" d="M465.23,251a2.86,2.86,0,0,1-2.27,1,3.09,3.09,0,0,1-.17-6.17,3.2,3.2,0,0,1,2.33.77l-0.49.83a2.38,2.38,0,0,0-1.7-.62A2.1,2.1,0,0,0,463,251a2.24,2.24,0,0,0,1.69-.76Z" transform="translate(-325.6 -219.45)"/>
      <path class="cls-1" d="M465.51,245.91h5.39V247h-2.17v4.86h-1.05V247h-2.17v-1.05Z" transform="translate(-325.6 -219.45)"/>
      <path class="cls-1" d="M471.78,245.91c0.51,0,1.29-.05,2.14-0.05,1.66,0,2.55.46,2.55,1.52a1.34,1.34,0,0,1-1.18,1.35v0a1.39,1.39,0,0,1,1.38,1.39c0,1.12-.88,1.72-2.72,1.72-0.74,0-1.63-.05-2.17-0.05v-5.91Zm1.05,0.84v1.76h1.33a1,1,0,0,0,1.2-.92c0-.64-0.59-0.88-1.35-0.88C473.53,246.71,473.09,246.74,472.83,246.75Zm0,2.42V251c0.32,0,.74,0,1.21,0,1,0,1.51-.33,1.51-0.95s-0.51-.91-1.46-0.91h-1.26Z" transform="translate(-325.6 -219.45)"/>
      <path class="cls-1" d="M478,246.32a3.8,3.8,0,0,1,2-.54c1.68,0,2.27.88,2.27,2.42v3.63h-1v-0.76a2.26,2.26,0,0,1-1.89.85,1.7,1.7,0,0,1-1.81-1.83,2,2,0,0,1,2.23-1.88,2.66,2.66,0,0,1,1.47.38c0-1.1-.17-1.87-1.34-1.87a3.14,3.14,0,0,0-1.63.43Zm3.25,3.89v-0.75a2.23,2.23,0,0,0-1.33-.39,1.08,1.08,0,0,0-1.26,1,0.92,0.92,0,0,0,1.06.93A1.91,1.91,0,0,0,481.29,250.21Z" transform="translate(-325.6 -219.45)"/>
    </g>
  </g>
</svg>
