<?xml version="1.0" encoding="utf-8"?>
<!-- Generator: Adobe Illustrator 16.0.0, SVG Export Plug-In . SVG Version: 6.00 Build 0)  -->
<!DOCTYPE svg PUBLIC "-//W3C//DTD SVG 1.1//EN" "http://www.w3.org/Graphics/SVG/1.1/DTD/svg11.dtd">
<svg version="1.1" id="Layer_1" xmlns="http://www.w3.org/2000/svg" xmlns:xlink="http://www.w3.org/1999/xlink" x="0px" y="0px"
	 width="300px" height="98.497px" viewBox="0 0 371.893 98.497" enable-background="new 0 0 371.893 98.497"
	 xml:space="preserve">
<g>
	<path fill="#333333" d="M218.303,32.153c-10.96,0-19.846,8.886-19.846,19.846c0,10.962,8.886,19.847,19.846,19.847
		c10.961,0,19.846-8.885,19.846-19.847C238.148,41.039,229.264,32.153,218.303,32.153z M218.303,64.152
		c-6.711,0-12.151-5.441-12.151-12.153c0-6.711,5.44-12.151,12.151-12.151c6.712,0,12.152,5.44,12.152,12.151
		C230.455,58.711,225.015,64.152,218.303,64.152z"/>
	<path fill="#333333" d="M203.893,32.153h-11.842V21.878c-2.879,1.272-7.693,4.675-7.693,9.198v1.077
		c-4.523,0-7.926,4.815-9.197,7.694h9.197v28.15c0,2.125,1.723,3.848,3.847,3.848s3.847-1.723,3.847-3.848v-28.15h2.645
		C199.218,39.848,202.621,35.032,203.893,32.153z"/>
	<path fill="#333333" d="M118.818,32.153c-10.961,0-19.846,8.886-19.846,19.846c0,10.962,8.885,19.847,19.846,19.847
		c10.96,0,19.846-8.885,19.846-19.847C138.664,41.039,129.778,32.153,118.818,32.153z M118.818,64.152
		c-6.712,0-12.152-5.441-12.152-12.153c0-6.711,5.44-12.151,12.152-12.151c6.711,0,12.151,5.44,12.151,12.151
		C130.97,58.711,125.529,64.152,118.818,64.152z"/>
	<path fill="#333333" d="M176.469,56.148c-1.935-1.115-4.404-0.352-5.383,1.648c-2.059,3.785-6.07,6.355-10.682,6.355
		c-6.711,0-12.152-5.441-12.152-12.153c0-6.701,5.438-12.151,12.142-12.151h6.511c4.522,0,7.926-4.815,9.197-7.694
		c-13.885,0-1.812,0-15.697,0c-10.961,0-19.846,8.886-19.846,19.846c0,10.962,8.885,19.847,19.846,19.847
		c7.584,0,14.133-4.189,17.473-10.441C178.938,59.564,178.309,57.211,176.469,56.148z"/>
	<path fill="#333333" d="M357.068,21.878V36.31c-3.357-2.605-7.572-4.156-12.15-4.156c-10.961,0-19.846,8.886-19.846,19.846
		c0,10.962,8.885,19.847,19.846,19.847c4.578,0,8.793-1.551,12.15-4.156v0.309c0,2.125,1.723,3.848,3.848,3.848
		c2.123,0,3.846-1.723,3.846-3.848V52.036l0.002-0.037l-0.002-0.035l0.002-20.888C364.764,26.554,359.947,23.15,357.068,21.878z
		 M344.918,64.152c-6.713,0-12.152-5.441-12.152-12.153c0-6.711,5.439-12.151,12.152-12.151c6.711,0,12.15,5.44,12.15,12.151
		C357.068,58.711,351.629,64.152,344.918,64.152z"/>
	<path fill="#333333" d="M77.48,55.852c-2.061-1.184-3.449-3.406-3.449-5.952c0-2.549,1.389-4.77,3.449-5.954
		c0.416-0.237,0.623-0.692,0.529-1.161c-0.895-4.537-2.629-8.771-5.031-12.537c-0.268-0.418-0.762-0.603-1.238-0.459
		c-2.602,0.781-5.537,0.146-7.592-1.909c-2.055-2.055-2.691-4.99-1.908-7.591c0.143-0.477-0.041-0.971-0.459-1.238
		c-3.297-2.104-6.951-3.695-10.854-4.66c-0.502-0.123-1.006,0.108-1.24,0.568c-1.396,2.757-4.256,4.647-7.559,4.647
		c-3.301,0-6.162-1.889-7.559-4.645c-0.232-0.461-0.738-0.692-1.238-0.568c-3.273,0.808-6.373,2.058-9.232,3.681
		c-0.465,0.264-0.67,0.809-0.494,1.312c1.15,3.303,0.406,7.119-2.232,9.758c-2.639,2.638-6.455,3.381-9.756,2.23
		c-0.506-0.174-1.051,0.03-1.314,0.494c-1.287,2.269-2.34,4.689-3.123,7.227c-0.164,0.525,0.084,1.084,0.584,1.316
		c3.578,1.66,6.059,5.285,6.059,9.488c0,4.204-2.48,7.827-6.059,9.487c-0.5,0.232-0.748,0.789-0.586,1.316
		c0.555,1.795,1.244,3.529,2.055,5.193c0.248,0.512,0.84,0.746,1.371,0.545c4.143-1.564,8.996-0.682,12.332,2.652
		c3.332,3.332,4.215,8.188,2.652,12.328c-0.201,0.533,0.033,1.123,0.543,1.371c0.91,0.445,1.842,0.852,2.793,1.221
		c0.545,0.211,1.16-0.043,1.398-0.576c2.006-4.525,6.537-7.684,11.807-7.684s9.803,3.158,11.809,7.684
		c0.236,0.535,0.85,0.789,1.396,0.578c2.764-1.07,5.365-2.469,7.758-4.145c0.373-0.262,0.541-0.703,0.438-1.146
		c-0.473-2.012,0.076-4.213,1.643-5.781c1.57-1.568,3.771-2.117,5.783-1.645c0.445,0.104,0.885-0.064,1.146-0.438
		c2.861-4.082,4.908-8.777,5.908-13.848C78.104,56.545,77.896,56.09,77.48,55.852z M59.852,59.732
		c-1.484,0.469-3.068-0.355-3.537-1.842c-0.467-1.484,0.355-3.068,1.842-3.537c1.484-0.469,3.068,0.357,3.537,1.842
		S61.338,59.264,59.852,59.732z M62.094,64.312c4.984-8.299,3.488-19.519-1.693-25.669c-4.094-4.858-9.664-7.77-15.744-7.164
		c-6.688,0.666-13.164,5.395-13.617,12.477c-0.395,6.158,4.113,12.179,12.082,12.192c4.465,0.01,10.277-0.068,10.689,5.041
		c0.461,5.703-6.83,7.793-11.551,7.578c-6.676-0.303-12.852-4.365-16.098-10.205c-2.689-4.84-3.277-10.526-2.088-15.558
		c2.629-11.125,13.125-17.165,23.52-15.971c6.217,0.714,11.938,4.063,15.674,9.763C68.938,45.448,68.781,56.662,62.094,64.312z"/>
	<path fill="#333333" d="M260.643,32.153c-4.578,0-8.794,1.551-12.152,4.156v-0.309c0-2.125-1.722-3.848-3.846-3.848
		s-3.847,1.723-3.847,3.848v15.963l-0.001,0.035l0.001,0.037l-0.001,20.888c0,4.521,4.815,7.924,7.693,9.197V67.689
		c3.358,2.605,7.574,4.156,12.152,4.156c10.961,0,19.846-8.885,19.846-19.847C280.488,41.039,271.604,32.153,260.643,32.153z
		 M260.643,64.152c-6.711,0-12.152-5.441-12.152-12.153c0-6.711,5.441-12.151,12.152-12.151c6.712,0,12.152,5.44,12.152,12.151
		C272.795,58.711,267.354,64.152,260.643,64.152z"/>
	<path fill="#333333" d="M302.842,32.153c-10.959,0-19.846,8.886-19.846,19.846c0,10.962,8.887,19.847,19.846,19.847
		c10.961,0,19.846-8.885,19.846-19.847C322.688,41.039,313.803,32.153,302.842,32.153z M302.842,64.152
		c-6.711,0-12.15-5.441-12.15-12.153c0-6.711,5.439-12.151,12.15-12.151c6.713,0,12.152,5.44,12.152,12.151
		C314.994,58.711,309.555,64.152,302.842,64.152z"/>
</g>
</svg>
